G04 #@! TF.GenerationSoftware,KiCad,Pcbnew,(6.0.0-rc1-dev-1215-g431bdc7a3)*
G04 #@! TF.CreationDate,2018-12-02T19:35:57+01:00*
G04 #@! TF.ProjectId,wave,77617665-2e6b-4696-9361-645f70636258,rev?*
G04 #@! TF.SameCoordinates,Original*
G04 #@! TF.FileFunction,Copper,L1,Top*
G04 #@! TF.FilePolarity,Positive*
%FSLAX46Y46*%
G04 Gerber Fmt 4.6, Leading zero omitted, Abs format (unit mm)*
G04 Created by KiCad (PCBNEW (6.0.0-rc1-dev-1215-g431bdc7a3)) date 2018 December 02, Sunday 19:35:57*
%MOMM*%
%LPD*%
G01*
G04 APERTURE LIST*
G04 #@! TA.AperFunction,WasherPad*
%ADD10C,3.000000*%
G04 #@! TD*
G04 #@! TA.AperFunction,NonConductor*
%ADD11C,0.254000*%
G04 #@! TD*
G04 APERTURE END LIST*
D10*
G04 #@! TO.P,Ref\002A\002A,*
G04 #@! TO.N,*
X153195060Y59561620D03*
G04 #@! TD*
G04 #@! TO.P,Ref\002A\002A,*
G04 #@! TO.N,*
X96045060Y60037870D03*
G04 #@! TD*
G04 #@! TO.P,Ref\002A\002A,*
G04 #@! TO.N,*
X36513810Y60514120D03*
G04 #@! TD*
G04 #@! TO.P,Ref\002A\002A,*
G04 #@! TO.N,*
X64612560Y17651620D03*
G04 #@! TD*
G04 #@! TO.P,Ref\002A\002A,*
G04 #@! TO.N,*
X122238810Y18127870D03*
G04 #@! TD*
G04 #@! TO.P,Ref\002A\002A,*
G04 #@! TO.N,*
X210345060Y60037870D03*
G04 #@! TD*
G04 #@! TO.P,Ref\002A\002A,*
G04 #@! TO.N,*
X269876310Y60514120D03*
G04 #@! TD*
G04 #@! TO.P,Ref\002A\002A,*
G04 #@! TO.N,*
X184151310Y18127870D03*
G04 #@! TD*
G04 #@! TO.P,Ref\002A\002A,*
G04 #@! TO.N,*
X238920060Y18127870D03*
G04 #@! TD*
G04 #@! TO.P,Ref\002A\002A,*
G04 #@! TO.N,*
X277020060Y40035370D03*
G04 #@! TD*
G04 #@! TO.P,Ref\002A\002A,*
G04 #@! TO.N,*
X9367560Y39082870D03*
G04 #@! TD*
D11*
G36*
X295948439Y79348104D02*
X296274558Y79199826D01*
X296545955Y78965976D01*
X296740806Y78665357D01*
X296849743Y78301097D01*
X296863810Y78111806D01*
X296863811Y21983118D01*
X296806544Y21583241D01*
X296658266Y21257121D01*
X296424418Y20985727D01*
X296123796Y20790874D01*
X295759537Y20681937D01*
X295570246Y20667870D01*
X258860019Y20667870D01*
X258836772Y20663246D01*
X258593924Y20645199D01*
X258530668Y20631291D01*
X258466486Y20622499D01*
X258459040Y20620321D01*
X257941561Y20465562D01*
X257863403Y20429448D01*
X257784659Y20394224D01*
X257778124Y20390044D01*
X257324879Y20096265D01*
X257259994Y20039662D01*
X257194306Y19983757D01*
X257189206Y19977910D01*
X256836634Y19568730D01*
X256790237Y19496181D01*
X256742887Y19424097D01*
X256739633Y19417054D01*
X256516076Y18925366D01*
X256491896Y18842675D01*
X256466691Y18760234D01*
X256465544Y18752561D01*
X256391407Y18234888D01*
X256382560Y18190410D01*
X256382561Y-1829382D01*
X256325294Y-2229259D01*
X256177016Y-2555379D01*
X255943168Y-2826773D01*
X255642546Y-3021626D01*
X255278287Y-3130563D01*
X255088996Y-3144630D01*
X51322801Y-3144630D01*
X50922931Y-3087364D01*
X50596811Y-2939086D01*
X50325417Y-2705238D01*
X50130564Y-2404616D01*
X50021627Y-2040357D01*
X50007560Y-1851066D01*
X50007560Y14174120D01*
X52678960Y14174120D01*
X52691401Y14111574D01*
X52691400Y235741D01*
X52678960Y173200D01*
X52728243Y-74565D01*
X52867669Y-283229D01*
X52868591Y-284609D01*
X53078635Y-424957D01*
X53326400Y-474240D01*
X53388941Y-461800D01*
X67263159Y-461800D01*
X67325700Y-474240D01*
X67573465Y-424957D01*
X67783509Y-284609D01*
X67923857Y-74565D01*
X67960700Y110659D01*
X67960700Y110660D01*
X67973140Y173200D01*
X67960700Y235741D01*
X67960700Y14111579D01*
X67973140Y14174120D01*
X74110160Y14174120D01*
X74122601Y14111574D01*
X74122600Y235741D01*
X74110160Y173200D01*
X74159443Y-74565D01*
X74298869Y-283229D01*
X74299791Y-284609D01*
X74509835Y-424957D01*
X74757600Y-474240D01*
X74820141Y-461800D01*
X88694359Y-461800D01*
X88756900Y-474240D01*
X89004665Y-424957D01*
X89214709Y-284609D01*
X89355057Y-74565D01*
X89391900Y110659D01*
X89391900Y110660D01*
X89404340Y173200D01*
X89391900Y235741D01*
X89391900Y14111579D01*
X89404340Y14174120D01*
X93160160Y14174120D01*
X93172601Y14111574D01*
X93172600Y235741D01*
X93160160Y173200D01*
X93209443Y-74565D01*
X93348869Y-283229D01*
X93349791Y-284609D01*
X93559835Y-424957D01*
X93807600Y-474240D01*
X93870141Y-461800D01*
X107744359Y-461800D01*
X107806900Y-474240D01*
X108054665Y-424957D01*
X108264709Y-284609D01*
X108405057Y-74565D01*
X108441900Y110659D01*
X108441900Y110660D01*
X108454340Y173200D01*
X108441900Y235741D01*
X108441900Y14111579D01*
X108454340Y14174120D01*
X114590960Y14174120D01*
X114603401Y14111574D01*
X114603400Y235741D01*
X114590960Y173200D01*
X114640243Y-74565D01*
X114779669Y-283229D01*
X114780591Y-284609D01*
X114990635Y-424957D01*
X115238400Y-474240D01*
X115300941Y-461800D01*
X129175859Y-461800D01*
X129238400Y-474240D01*
X129486165Y-424957D01*
X129696209Y-284609D01*
X129836557Y-74565D01*
X129873400Y110659D01*
X129873400Y110660D01*
X129885840Y173200D01*
X129873400Y235741D01*
X129873400Y14111579D01*
X129885840Y14174120D01*
X136447960Y14174120D01*
X136460400Y14111579D01*
X136460401Y237126D01*
X136447960Y174580D01*
X136497243Y-73185D01*
X136637591Y-283229D01*
X136847635Y-423577D01*
X137032859Y-460420D01*
X137095400Y-472860D01*
X137157941Y-460420D01*
X169231859Y-460420D01*
X169294400Y-472860D01*
X169356941Y-460420D01*
X169542165Y-423577D01*
X169752209Y-283229D01*
X169892557Y-73185D01*
X169892557Y-73184D01*
X169929400Y112039D01*
X169929400Y112040D01*
X169941840Y174580D01*
X169929400Y237121D01*
X169929400Y14111579D01*
X169941840Y14174120D01*
X176503960Y14174120D01*
X176516401Y14111574D01*
X176516400Y235741D01*
X176503960Y173200D01*
X176553243Y-74565D01*
X176692669Y-283229D01*
X176693591Y-284609D01*
X176903635Y-424957D01*
X177151400Y-474240D01*
X177213941Y-461800D01*
X191087859Y-461800D01*
X191150400Y-474240D01*
X191398165Y-424957D01*
X191608209Y-284609D01*
X191748557Y-74565D01*
X191785400Y110659D01*
X191785400Y110660D01*
X191797840Y173200D01*
X191785400Y235741D01*
X191785400Y14111579D01*
X191797840Y14174120D01*
X197934960Y14174120D01*
X197947401Y14111574D01*
X197947400Y235741D01*
X197934960Y173200D01*
X197984243Y-74565D01*
X198123669Y-283229D01*
X198124591Y-284609D01*
X198334635Y-424957D01*
X198582400Y-474240D01*
X198644941Y-461800D01*
X212519859Y-461800D01*
X212582400Y-474240D01*
X212830165Y-424957D01*
X213040209Y-284609D01*
X213180557Y-74565D01*
X213217400Y110659D01*
X213217400Y110660D01*
X213229840Y173200D01*
X213217400Y235741D01*
X213217400Y14111579D01*
X213229840Y14174120D01*
X216984960Y14174120D01*
X216997401Y14111574D01*
X216997400Y235741D01*
X216984960Y173200D01*
X217034243Y-74565D01*
X217173669Y-283229D01*
X217174591Y-284609D01*
X217384635Y-424957D01*
X217632400Y-474240D01*
X217694941Y-461800D01*
X231569859Y-461800D01*
X231632400Y-474240D01*
X231880165Y-424957D01*
X232090209Y-284609D01*
X232230557Y-74565D01*
X232267400Y110659D01*
X232267400Y110660D01*
X232279840Y173200D01*
X232267400Y235741D01*
X232267400Y14111579D01*
X232279840Y14174120D01*
X238415960Y14174120D01*
X238428401Y14111574D01*
X238428400Y235741D01*
X238415960Y173200D01*
X238465243Y-74565D01*
X238604669Y-283229D01*
X238605591Y-284609D01*
X238815635Y-424957D01*
X239063400Y-474240D01*
X239125941Y-461800D01*
X253000859Y-461800D01*
X253063400Y-474240D01*
X253311165Y-424957D01*
X253521209Y-284609D01*
X253661557Y-74565D01*
X253698400Y110659D01*
X253698400Y110660D01*
X253710840Y173200D01*
X253698400Y235741D01*
X253698400Y14111579D01*
X253710840Y14174120D01*
X253661557Y14421885D01*
X253521209Y14631929D01*
X253311165Y14772277D01*
X253125941Y14809120D01*
X253063400Y14821560D01*
X253000859Y14809120D01*
X239125941Y14809120D01*
X239063400Y14821560D01*
X239000859Y14809120D01*
X238815635Y14772277D01*
X238605591Y14631929D01*
X238465243Y14421885D01*
X238415960Y14174120D01*
X232279840Y14174120D01*
X232230557Y14421885D01*
X232090209Y14631929D01*
X231880165Y14772277D01*
X231694941Y14809120D01*
X231632400Y14821560D01*
X231569859Y14809120D01*
X217694941Y14809120D01*
X217632400Y14821560D01*
X217569859Y14809120D01*
X217384635Y14772277D01*
X217174591Y14631929D01*
X217034243Y14421885D01*
X216984960Y14174120D01*
X213229840Y14174120D01*
X213180557Y14421885D01*
X213040209Y14631929D01*
X212830165Y14772277D01*
X212644941Y14809120D01*
X212582400Y14821560D01*
X212519859Y14809120D01*
X198644941Y14809120D01*
X198582400Y14821560D01*
X198519859Y14809120D01*
X198334635Y14772277D01*
X198124591Y14631929D01*
X197984243Y14421885D01*
X197934960Y14174120D01*
X191797840Y14174120D01*
X191748557Y14421885D01*
X191608209Y14631929D01*
X191398165Y14772277D01*
X191212941Y14809120D01*
X191150400Y14821560D01*
X191087859Y14809120D01*
X177213941Y14809120D01*
X177151400Y14821560D01*
X177088859Y14809120D01*
X176903635Y14772277D01*
X176693591Y14631929D01*
X176553243Y14421885D01*
X176503960Y14174120D01*
X169941840Y14174120D01*
X169892557Y14421885D01*
X169752209Y14631929D01*
X169542165Y14772277D01*
X169356941Y14809120D01*
X169294400Y14821560D01*
X169231859Y14809120D01*
X137157941Y14809120D01*
X137095400Y14821560D01*
X137032859Y14809120D01*
X136847635Y14772277D01*
X136637591Y14631929D01*
X136497243Y14421885D01*
X136447960Y14174120D01*
X129885840Y14174120D01*
X129836557Y14421885D01*
X129696209Y14631929D01*
X129486165Y14772277D01*
X129300941Y14809120D01*
X129238400Y14821560D01*
X129175859Y14809120D01*
X115300941Y14809120D01*
X115238400Y14821560D01*
X115175859Y14809120D01*
X114990635Y14772277D01*
X114780591Y14631929D01*
X114640243Y14421885D01*
X114590960Y14174120D01*
X108454340Y14174120D01*
X108405057Y14421885D01*
X108264709Y14631929D01*
X108054665Y14772277D01*
X107869441Y14809120D01*
X107806900Y14821560D01*
X107744359Y14809120D01*
X93870141Y14809120D01*
X93807600Y14821560D01*
X93745059Y14809120D01*
X93559835Y14772277D01*
X93349791Y14631929D01*
X93209443Y14421885D01*
X93160160Y14174120D01*
X89404340Y14174120D01*
X89355057Y14421885D01*
X89214709Y14631929D01*
X89004665Y14772277D01*
X88819441Y14809120D01*
X88756900Y14821560D01*
X88694359Y14809120D01*
X74820141Y14809120D01*
X74757600Y14821560D01*
X74695059Y14809120D01*
X74509835Y14772277D01*
X74299791Y14631929D01*
X74159443Y14421885D01*
X74110160Y14174120D01*
X67973140Y14174120D01*
X67923857Y14421885D01*
X67783509Y14631929D01*
X67573465Y14772277D01*
X67388241Y14809120D01*
X67325700Y14821560D01*
X67263159Y14809120D01*
X53388941Y14809120D01*
X53326400Y14821560D01*
X53263859Y14809120D01*
X53078635Y14772277D01*
X52868591Y14631929D01*
X52728243Y14421885D01*
X52678960Y14174120D01*
X50007560Y14174120D01*
X50007560Y18035433D01*
X62469837Y18035433D01*
X62477560Y17631244D01*
X62477560Y17226942D01*
X62485659Y17207390D01*
X62486063Y17186233D01*
X62779821Y16477038D01*
X62790371Y16471750D01*
X62802594Y16442240D01*
X63403180Y15841654D01*
X63432690Y15829431D01*
X63437978Y15818881D01*
X63814348Y15671343D01*
X64187882Y15516620D01*
X64209046Y15516620D01*
X64228747Y15508897D01*
X64632936Y15516620D01*
X65037238Y15516620D01*
X65056790Y15524719D01*
X65077947Y15525123D01*
X65787142Y15818881D01*
X65792430Y15829431D01*
X65821940Y15841654D01*
X66422526Y16442240D01*
X66434749Y16471750D01*
X66445299Y16477038D01*
X66592837Y16853408D01*
X66747560Y17226942D01*
X66747560Y17248106D01*
X66755283Y17267807D01*
X66747560Y17671996D01*
X66747560Y18076298D01*
X66739461Y18095850D01*
X66739057Y18117007D01*
X66575577Y18511683D01*
X120096087Y18511683D01*
X120103810Y18107494D01*
X120103810Y17703192D01*
X120111909Y17683640D01*
X120112313Y17662483D01*
X120406071Y16953288D01*
X120416621Y16948000D01*
X120428844Y16918490D01*
X121029430Y16317904D01*
X121058940Y16305681D01*
X121064228Y16295131D01*
X121440598Y16147593D01*
X121814132Y15992870D01*
X121835296Y15992870D01*
X121854997Y15985147D01*
X122259186Y15992870D01*
X122663488Y15992870D01*
X122683040Y16000969D01*
X122704197Y16001373D01*
X123413392Y16295131D01*
X123418680Y16305681D01*
X123448190Y16317904D01*
X124048776Y16918490D01*
X124060999Y16948000D01*
X124071549Y16953288D01*
X124219087Y17329658D01*
X124373810Y17703192D01*
X124373810Y17724356D01*
X124381533Y17744057D01*
X124373810Y18148246D01*
X124373810Y18511683D01*
X182008587Y18511683D01*
X182016310Y18107494D01*
X182016310Y17703192D01*
X182024409Y17683640D01*
X182024813Y17662483D01*
X182318571Y16953288D01*
X182329121Y16948000D01*
X182341344Y16918490D01*
X182941930Y16317904D01*
X182971440Y16305681D01*
X182976728Y16295131D01*
X183353098Y16147593D01*
X183726632Y15992870D01*
X183747796Y15992870D01*
X183767497Y15985147D01*
X184171686Y15992870D01*
X184575988Y15992870D01*
X184595540Y16000969D01*
X184616697Y16001373D01*
X185325892Y16295131D01*
X185331180Y16305681D01*
X185360690Y16317904D01*
X185961276Y16918490D01*
X185973499Y16948000D01*
X185984049Y16953288D01*
X186131587Y17329658D01*
X186286310Y17703192D01*
X186286310Y17724356D01*
X186294033Y17744057D01*
X186286310Y18148246D01*
X186286310Y18511683D01*
X236777337Y18511683D01*
X236785060Y18107494D01*
X236785060Y17703192D01*
X236793159Y17683640D01*
X236793563Y17662483D01*
X237087321Y16953288D01*
X237097871Y16948000D01*
X237110094Y16918490D01*
X237710680Y16317904D01*
X237740190Y16305681D01*
X237745478Y16295131D01*
X238121848Y16147593D01*
X238495382Y15992870D01*
X238516546Y15992870D01*
X238536247Y15985147D01*
X238940436Y15992870D01*
X239344738Y15992870D01*
X239364290Y16000969D01*
X239385447Y16001373D01*
X240094642Y16295131D01*
X240099930Y16305681D01*
X240129440Y16317904D01*
X240730026Y16918490D01*
X240742249Y16948000D01*
X240752799Y16953288D01*
X240900337Y17329658D01*
X241055060Y17703192D01*
X241055060Y17724356D01*
X241062783Y17744057D01*
X241055060Y18148246D01*
X241055060Y18552548D01*
X241046961Y18572100D01*
X241046557Y18593257D01*
X240752799Y19302452D01*
X240742249Y19307740D01*
X240730026Y19337250D01*
X240129440Y19937836D01*
X240099930Y19950059D01*
X240094642Y19960609D01*
X239718272Y20108147D01*
X239344738Y20262870D01*
X239323574Y20262870D01*
X239303873Y20270593D01*
X238899684Y20262870D01*
X238495382Y20262870D01*
X238475830Y20254771D01*
X238454673Y20254367D01*
X237745478Y19960609D01*
X237740190Y19950059D01*
X237710680Y19937836D01*
X237110094Y19337250D01*
X237097871Y19307740D01*
X237087321Y19302452D01*
X236939783Y18926082D01*
X236785060Y18552548D01*
X236785060Y18531384D01*
X236777337Y18511683D01*
X186286310Y18511683D01*
X186286310Y18552548D01*
X186278211Y18572100D01*
X186277807Y18593257D01*
X185984049Y19302452D01*
X185973499Y19307740D01*
X185961276Y19337250D01*
X185360690Y19937836D01*
X185331180Y19950059D01*
X185325892Y19960609D01*
X184949522Y20108147D01*
X184575988Y20262870D01*
X184554824Y20262870D01*
X184535123Y20270593D01*
X184130934Y20262870D01*
X183726632Y20262870D01*
X183707080Y20254771D01*
X183685923Y20254367D01*
X182976728Y19960609D01*
X182971440Y19950059D01*
X182941930Y19937836D01*
X182341344Y19337250D01*
X182329121Y19307740D01*
X182318571Y19302452D01*
X182171033Y18926082D01*
X182016310Y18552548D01*
X182016310Y18531384D01*
X182008587Y18511683D01*
X124373810Y18511683D01*
X124373810Y18552548D01*
X124365711Y18572100D01*
X124365307Y18593257D01*
X124071549Y19302452D01*
X124060999Y19307740D01*
X124048776Y19337250D01*
X123448190Y19937836D01*
X123418680Y19950059D01*
X123413392Y19960609D01*
X123037022Y20108147D01*
X122663488Y20262870D01*
X122642324Y20262870D01*
X122622623Y20270593D01*
X122218434Y20262870D01*
X121814132Y20262870D01*
X121794580Y20254771D01*
X121773423Y20254367D01*
X121064228Y19960609D01*
X121058940Y19950059D01*
X121029430Y19937836D01*
X120428844Y19337250D01*
X120416621Y19307740D01*
X120406071Y19302452D01*
X120258533Y18926082D01*
X120103810Y18552548D01*
X120103810Y18531384D01*
X120096087Y18511683D01*
X66575577Y18511683D01*
X66445299Y18826202D01*
X66434749Y18831490D01*
X66422526Y18861000D01*
X65821940Y19461586D01*
X65792430Y19473809D01*
X65787142Y19484359D01*
X65410772Y19631897D01*
X65037238Y19786620D01*
X65016074Y19786620D01*
X64996373Y19794343D01*
X64592184Y19786620D01*
X64187882Y19786620D01*
X64168330Y19778521D01*
X64147173Y19778117D01*
X63437978Y19484359D01*
X63432690Y19473809D01*
X63403180Y19461586D01*
X62802594Y18861000D01*
X62790371Y18831490D01*
X62779821Y18826202D01*
X62632283Y18449832D01*
X62477560Y18076298D01*
X62477560Y18055134D01*
X62469837Y18035433D01*
X50007560Y18035433D01*
X50007560Y18666661D01*
X50002936Y18689908D01*
X49984889Y18932756D01*
X49970981Y18996012D01*
X49962189Y19060194D01*
X49960011Y19067640D01*
X49805252Y19585119D01*
X49769138Y19663277D01*
X49733914Y19742021D01*
X49729734Y19748556D01*
X49435955Y20201801D01*
X49379352Y20266686D01*
X49323447Y20332374D01*
X49317600Y20337474D01*
X48908420Y20690046D01*
X48835871Y20736443D01*
X48763787Y20783793D01*
X48756744Y20787047D01*
X48265056Y21010604D01*
X48182365Y21034784D01*
X48099924Y21059989D01*
X48092251Y21061136D01*
X47574582Y21135272D01*
X47530101Y21144120D01*
X11422463Y21144120D01*
X9812451Y21949126D01*
X-1048435Y39466683D01*
X7224837Y39466683D01*
X7232560Y39062494D01*
X7232560Y38658192D01*
X7240659Y38638640D01*
X7241063Y38617483D01*
X7534821Y37908288D01*
X7545371Y37903000D01*
X7557594Y37873490D01*
X8158180Y37272904D01*
X8187690Y37260681D01*
X8192978Y37250131D01*
X8569348Y37102593D01*
X8942882Y36947870D01*
X8964046Y36947870D01*
X8983747Y36940147D01*
X9387936Y36947870D01*
X9792238Y36947870D01*
X9811790Y36955969D01*
X9832947Y36956373D01*
X10542142Y37250131D01*
X10547430Y37260681D01*
X10576940Y37272904D01*
X11177526Y37873490D01*
X11189749Y37903000D01*
X11200299Y37908288D01*
X11231005Y37986620D01*
X12197610Y37986620D01*
X12210051Y37924074D01*
X12210050Y24048261D01*
X12197610Y23985720D01*
X12246893Y23737955D01*
X12387241Y23527911D01*
X12597285Y23387563D01*
X12845050Y23338280D01*
X12907591Y23350720D01*
X26782059Y23350720D01*
X26844600Y23338280D01*
X27092365Y23387563D01*
X27302409Y23527911D01*
X27442757Y23737955D01*
X27479600Y23923179D01*
X27479600Y23923180D01*
X27492040Y23985720D01*
X27479600Y24048261D01*
X27479600Y37924079D01*
X27492040Y37986620D01*
X31247660Y37986620D01*
X31260101Y37924074D01*
X31260100Y24048261D01*
X31247660Y23985720D01*
X31296943Y23737955D01*
X31437291Y23527911D01*
X31647335Y23387563D01*
X31895100Y23338280D01*
X31957641Y23350720D01*
X45831859Y23350720D01*
X45894400Y23338280D01*
X46142165Y23387563D01*
X46352209Y23527911D01*
X46492557Y23737955D01*
X46529400Y23923179D01*
X46529400Y23923180D01*
X46541840Y23985720D01*
X46529400Y24048261D01*
X46529400Y37924079D01*
X46541840Y37986620D01*
X50297660Y37986620D01*
X50310101Y37924074D01*
X50310100Y24048261D01*
X50297660Y23985720D01*
X50346943Y23737955D01*
X50487291Y23527911D01*
X50697335Y23387563D01*
X50945100Y23338280D01*
X51007641Y23350720D01*
X64881859Y23350720D01*
X64944400Y23338280D01*
X65192165Y23387563D01*
X65402209Y23527911D01*
X65542557Y23737955D01*
X65579400Y23923179D01*
X65579400Y23923180D01*
X65591840Y23985720D01*
X65579400Y24048261D01*
X65579400Y37924079D01*
X65591840Y37986620D01*
X69347660Y37986620D01*
X69360101Y37924074D01*
X69360100Y24048261D01*
X69347660Y23985720D01*
X69396943Y23737955D01*
X69537291Y23527911D01*
X69747335Y23387563D01*
X69995100Y23338280D01*
X70057641Y23350720D01*
X83931859Y23350720D01*
X83994400Y23338280D01*
X84242165Y23387563D01*
X84452209Y23527911D01*
X84592557Y23737955D01*
X84629400Y23923179D01*
X84629400Y23923180D01*
X84641840Y23985720D01*
X84629400Y24048261D01*
X84629400Y37924079D01*
X84641840Y37986620D01*
X88397660Y37986620D01*
X88410101Y37924074D01*
X88410100Y24048261D01*
X88397660Y23985720D01*
X88446943Y23737955D01*
X88587291Y23527911D01*
X88797335Y23387563D01*
X89045100Y23338280D01*
X89107641Y23350720D01*
X102981859Y23350720D01*
X103044400Y23338280D01*
X103292165Y23387563D01*
X103502209Y23527911D01*
X103642557Y23737955D01*
X103679400Y23923179D01*
X103679400Y23923180D01*
X103691840Y23985720D01*
X103679400Y24048261D01*
X103679400Y37924079D01*
X103691840Y37986620D01*
X107446260Y37986620D01*
X107458701Y37924074D01*
X107458700Y24048261D01*
X107446260Y23985720D01*
X107495543Y23737955D01*
X107635891Y23527911D01*
X107845935Y23387563D01*
X108093700Y23338280D01*
X108156241Y23350720D01*
X122031859Y23350720D01*
X122094400Y23338280D01*
X122342165Y23387563D01*
X122552209Y23527911D01*
X122692557Y23737955D01*
X122729400Y23923179D01*
X122729400Y23923180D01*
X122741840Y23985720D01*
X122729400Y24048261D01*
X122729400Y37924079D01*
X122741840Y37986620D01*
X126495960Y37986620D01*
X126508401Y37924074D01*
X126508400Y24048261D01*
X126495960Y23985720D01*
X126545243Y23737955D01*
X126685591Y23527911D01*
X126895635Y23387563D01*
X127143400Y23338280D01*
X127205941Y23350720D01*
X141081859Y23350720D01*
X141144400Y23338280D01*
X141392165Y23387563D01*
X141602209Y23527911D01*
X141742557Y23737955D01*
X141779400Y23923179D01*
X141779400Y23923180D01*
X141791840Y23985720D01*
X141779400Y24048261D01*
X141779400Y37924079D01*
X141791840Y37986620D01*
X145547960Y37986620D01*
X145560401Y37924074D01*
X145560400Y24048261D01*
X145547960Y23985720D01*
X145597243Y23737955D01*
X145737591Y23527911D01*
X145947635Y23387563D01*
X146195400Y23338280D01*
X146257941Y23350720D01*
X160131859Y23350720D01*
X160194400Y23338280D01*
X160442165Y23387563D01*
X160652209Y23527911D01*
X160792557Y23737955D01*
X160829400Y23923179D01*
X160829400Y23923180D01*
X160841840Y23985720D01*
X160829400Y24048261D01*
X160829400Y37924079D01*
X160841840Y37986620D01*
X164597960Y37986620D01*
X164610401Y37924074D01*
X164610400Y24048261D01*
X164597960Y23985720D01*
X164647243Y23737955D01*
X164787591Y23527911D01*
X164997635Y23387563D01*
X165245400Y23338280D01*
X165307941Y23350720D01*
X179181859Y23350720D01*
X179244400Y23338280D01*
X179492165Y23387563D01*
X179702209Y23527911D01*
X179842557Y23737955D01*
X179879400Y23923179D01*
X179879400Y23923180D01*
X179891840Y23985720D01*
X179879400Y24048261D01*
X179879400Y37924079D01*
X179891840Y37986620D01*
X183647960Y37986620D01*
X183660401Y37924074D01*
X183660400Y24048261D01*
X183647960Y23985720D01*
X183697243Y23737955D01*
X183837591Y23527911D01*
X184047635Y23387563D01*
X184295400Y23338280D01*
X184357941Y23350720D01*
X198231859Y23350720D01*
X198294400Y23338280D01*
X198542165Y23387563D01*
X198752209Y23527911D01*
X198892557Y23737955D01*
X198929400Y23923179D01*
X198929400Y23923180D01*
X198941840Y23985720D01*
X198929400Y24048261D01*
X198929400Y37924079D01*
X198941840Y37986620D01*
X202697960Y37986620D01*
X202710401Y37924074D01*
X202710400Y24048261D01*
X202697960Y23985720D01*
X202747243Y23737955D01*
X202887591Y23527911D01*
X203097635Y23387563D01*
X203345400Y23338280D01*
X203407941Y23350720D01*
X217281859Y23350720D01*
X217344400Y23338280D01*
X217592165Y23387563D01*
X217802209Y23527911D01*
X217942557Y23737955D01*
X217979400Y23923179D01*
X217979400Y23923180D01*
X217991840Y23985720D01*
X217979400Y24048261D01*
X217979400Y37924079D01*
X217991840Y37986620D01*
X221747960Y37986620D01*
X221760401Y37924074D01*
X221760400Y24048261D01*
X221747960Y23985720D01*
X221797243Y23737955D01*
X221937591Y23527911D01*
X222147635Y23387563D01*
X222395400Y23338280D01*
X222457941Y23350720D01*
X236331859Y23350720D01*
X236394400Y23338280D01*
X236642165Y23387563D01*
X236852209Y23527911D01*
X236992557Y23737955D01*
X237029400Y23923179D01*
X237029400Y23923180D01*
X237041840Y23985720D01*
X237029400Y24048261D01*
X237029400Y37924079D01*
X237041840Y37986620D01*
X240797960Y37986620D01*
X240810401Y37924074D01*
X240810400Y24048261D01*
X240797960Y23985720D01*
X240847243Y23737955D01*
X240987591Y23527911D01*
X241197635Y23387563D01*
X241445400Y23338280D01*
X241507941Y23350720D01*
X255381859Y23350720D01*
X255444400Y23338280D01*
X255692165Y23387563D01*
X255902209Y23527911D01*
X256042557Y23737955D01*
X256079400Y23923179D01*
X256079400Y23923180D01*
X256091840Y23985720D01*
X256079400Y24048261D01*
X256079400Y37924079D01*
X256091840Y37986620D01*
X259847960Y37986620D01*
X259860401Y37924074D01*
X259860400Y24048261D01*
X259847960Y23985720D01*
X259897243Y23737955D01*
X260037591Y23527911D01*
X260247635Y23387563D01*
X260495400Y23338280D01*
X260557941Y23350720D01*
X274431859Y23350720D01*
X274494400Y23338280D01*
X274742165Y23387563D01*
X274952209Y23527911D01*
X275092557Y23737955D01*
X275129400Y23923179D01*
X275129400Y23923180D01*
X275141840Y23985720D01*
X275129400Y24048261D01*
X275129400Y37924079D01*
X275141840Y37986620D01*
X275092557Y38234385D01*
X274952209Y38444429D01*
X274742165Y38584777D01*
X274556941Y38621620D01*
X274494400Y38634060D01*
X274431859Y38621620D01*
X260557941Y38621620D01*
X260495400Y38634060D01*
X260432859Y38621620D01*
X260247635Y38584777D01*
X260037591Y38444429D01*
X259897243Y38234385D01*
X259847960Y37986620D01*
X256091840Y37986620D01*
X256042557Y38234385D01*
X255902209Y38444429D01*
X255692165Y38584777D01*
X255506941Y38621620D01*
X255444400Y38634060D01*
X255381859Y38621620D01*
X241507941Y38621620D01*
X241445400Y38634060D01*
X241382859Y38621620D01*
X241197635Y38584777D01*
X240987591Y38444429D01*
X240847243Y38234385D01*
X240797960Y37986620D01*
X237041840Y37986620D01*
X236992557Y38234385D01*
X236852209Y38444429D01*
X236642165Y38584777D01*
X236456941Y38621620D01*
X236394400Y38634060D01*
X236331859Y38621620D01*
X222457941Y38621620D01*
X222395400Y38634060D01*
X222332859Y38621620D01*
X222147635Y38584777D01*
X221937591Y38444429D01*
X221797243Y38234385D01*
X221747960Y37986620D01*
X217991840Y37986620D01*
X217942557Y38234385D01*
X217802209Y38444429D01*
X217592165Y38584777D01*
X217406941Y38621620D01*
X217344400Y38634060D01*
X217281859Y38621620D01*
X203407941Y38621620D01*
X203345400Y38634060D01*
X203282859Y38621620D01*
X203097635Y38584777D01*
X202887591Y38444429D01*
X202747243Y38234385D01*
X202697960Y37986620D01*
X198941840Y37986620D01*
X198892557Y38234385D01*
X198752209Y38444429D01*
X198542165Y38584777D01*
X198356941Y38621620D01*
X198294400Y38634060D01*
X198231859Y38621620D01*
X184357941Y38621620D01*
X184295400Y38634060D01*
X184232859Y38621620D01*
X184047635Y38584777D01*
X183837591Y38444429D01*
X183697243Y38234385D01*
X183647960Y37986620D01*
X179891840Y37986620D01*
X179842557Y38234385D01*
X179702209Y38444429D01*
X179492165Y38584777D01*
X179306941Y38621620D01*
X179244400Y38634060D01*
X179181859Y38621620D01*
X165307941Y38621620D01*
X165245400Y38634060D01*
X165182859Y38621620D01*
X164997635Y38584777D01*
X164787591Y38444429D01*
X164647243Y38234385D01*
X164597960Y37986620D01*
X160841840Y37986620D01*
X160792557Y38234385D01*
X160652209Y38444429D01*
X160442165Y38584777D01*
X160256941Y38621620D01*
X160194400Y38634060D01*
X160131859Y38621620D01*
X146257941Y38621620D01*
X146195400Y38634060D01*
X146132859Y38621620D01*
X145947635Y38584777D01*
X145737591Y38444429D01*
X145597243Y38234385D01*
X145547960Y37986620D01*
X141791840Y37986620D01*
X141742557Y38234385D01*
X141602209Y38444429D01*
X141392165Y38584777D01*
X141206941Y38621620D01*
X141144400Y38634060D01*
X141081859Y38621620D01*
X127205941Y38621620D01*
X127143400Y38634060D01*
X127080859Y38621620D01*
X126895635Y38584777D01*
X126685591Y38444429D01*
X126545243Y38234385D01*
X126495960Y37986620D01*
X122741840Y37986620D01*
X122692557Y38234385D01*
X122552209Y38444429D01*
X122342165Y38584777D01*
X122156941Y38621620D01*
X122094400Y38634060D01*
X122031859Y38621620D01*
X108156241Y38621620D01*
X108093700Y38634060D01*
X108031159Y38621620D01*
X107845935Y38584777D01*
X107635891Y38444429D01*
X107495543Y38234385D01*
X107446260Y37986620D01*
X103691840Y37986620D01*
X103642557Y38234385D01*
X103502209Y38444429D01*
X103292165Y38584777D01*
X103106941Y38621620D01*
X103044400Y38634060D01*
X102981859Y38621620D01*
X89107641Y38621620D01*
X89045100Y38634060D01*
X88982559Y38621620D01*
X88797335Y38584777D01*
X88587291Y38444429D01*
X88446943Y38234385D01*
X88397660Y37986620D01*
X84641840Y37986620D01*
X84592557Y38234385D01*
X84452209Y38444429D01*
X84242165Y38584777D01*
X84056941Y38621620D01*
X83994400Y38634060D01*
X83931859Y38621620D01*
X70057641Y38621620D01*
X69995100Y38634060D01*
X69932559Y38621620D01*
X69747335Y38584777D01*
X69537291Y38444429D01*
X69396943Y38234385D01*
X69347660Y37986620D01*
X65591840Y37986620D01*
X65542557Y38234385D01*
X65402209Y38444429D01*
X65192165Y38584777D01*
X65006941Y38621620D01*
X64944400Y38634060D01*
X64881859Y38621620D01*
X51007641Y38621620D01*
X50945100Y38634060D01*
X50882559Y38621620D01*
X50697335Y38584777D01*
X50487291Y38444429D01*
X50346943Y38234385D01*
X50297660Y37986620D01*
X46541840Y37986620D01*
X46492557Y38234385D01*
X46352209Y38444429D01*
X46142165Y38584777D01*
X45956941Y38621620D01*
X45894400Y38634060D01*
X45831859Y38621620D01*
X31957641Y38621620D01*
X31895100Y38634060D01*
X31832559Y38621620D01*
X31647335Y38584777D01*
X31437291Y38444429D01*
X31296943Y38234385D01*
X31247660Y37986620D01*
X27492040Y37986620D01*
X27442757Y38234385D01*
X27302409Y38444429D01*
X27092365Y38584777D01*
X26907141Y38621620D01*
X26844600Y38634060D01*
X26782059Y38621620D01*
X12907591Y38621620D01*
X12845050Y38634060D01*
X12782509Y38621620D01*
X12597285Y38584777D01*
X12387241Y38444429D01*
X12246893Y38234385D01*
X12197610Y37986620D01*
X11231005Y37986620D01*
X11347837Y38284658D01*
X11502560Y38658192D01*
X11502560Y38679356D01*
X11510283Y38699057D01*
X11502560Y39103246D01*
X11502560Y39507548D01*
X11494461Y39527100D01*
X11494057Y39548257D01*
X11200299Y40257452D01*
X11189749Y40262740D01*
X11177526Y40292250D01*
X11050593Y40419183D01*
X274877337Y40419183D01*
X274885060Y40014994D01*
X274885060Y39610692D01*
X274893159Y39591140D01*
X274893563Y39569983D01*
X275187321Y38860788D01*
X275197871Y38855500D01*
X275210094Y38825990D01*
X275810680Y38225404D01*
X275840190Y38213181D01*
X275845478Y38202631D01*
X276221848Y38055093D01*
X276595382Y37900370D01*
X276616546Y37900370D01*
X276636247Y37892647D01*
X277040436Y37900370D01*
X277444738Y37900370D01*
X277464290Y37908469D01*
X277485447Y37908873D01*
X277673144Y37986620D01*
X278897960Y37986620D01*
X278910401Y37924074D01*
X278910400Y24048261D01*
X278897960Y23985720D01*
X278947243Y23737955D01*
X279087591Y23527911D01*
X279297635Y23387563D01*
X279545400Y23338280D01*
X279607941Y23350720D01*
X293481859Y23350720D01*
X293544400Y23338280D01*
X293792165Y23387563D01*
X294002209Y23527911D01*
X294142557Y23737955D01*
X294179400Y23923179D01*
X294179400Y23923180D01*
X294191840Y23985720D01*
X294179400Y24048261D01*
X294179400Y37924079D01*
X294191840Y37986620D01*
X294142557Y38234385D01*
X294002209Y38444429D01*
X293792165Y38584777D01*
X293606941Y38621620D01*
X293544400Y38634060D01*
X293481859Y38621620D01*
X279607941Y38621620D01*
X279545400Y38634060D01*
X279482859Y38621620D01*
X279297635Y38584777D01*
X279087591Y38444429D01*
X278947243Y38234385D01*
X278897960Y37986620D01*
X277673144Y37986620D01*
X278194642Y38202631D01*
X278199930Y38213181D01*
X278229440Y38225404D01*
X278830026Y38825990D01*
X278842249Y38855500D01*
X278852799Y38860788D01*
X279000337Y39237158D01*
X279155060Y39610692D01*
X279155060Y39631856D01*
X279162783Y39651557D01*
X279155060Y40055746D01*
X279155060Y40460048D01*
X279146961Y40479600D01*
X279146557Y40500757D01*
X278852799Y41209952D01*
X278842249Y41215240D01*
X278830026Y41244750D01*
X278229440Y41845336D01*
X278199930Y41857559D01*
X278194642Y41868109D01*
X277818272Y42015647D01*
X277444738Y42170370D01*
X277423574Y42170370D01*
X277403873Y42178093D01*
X276999684Y42170370D01*
X276595382Y42170370D01*
X276575830Y42162271D01*
X276554673Y42161867D01*
X275845478Y41868109D01*
X275840190Y41857559D01*
X275810680Y41845336D01*
X275210094Y41244750D01*
X275197871Y41215240D01*
X275187321Y41209952D01*
X275039783Y40833582D01*
X274885060Y40460048D01*
X274885060Y40438884D01*
X274877337Y40419183D01*
X11050593Y40419183D01*
X10576940Y40892836D01*
X10547430Y40905059D01*
X10542142Y40915609D01*
X10165772Y41063147D01*
X9792238Y41217870D01*
X9771074Y41217870D01*
X9751373Y41225593D01*
X9347184Y41217870D01*
X8942882Y41217870D01*
X8923330Y41209771D01*
X8902173Y41209367D01*
X8192978Y40915609D01*
X8187690Y40905059D01*
X8158180Y40892836D01*
X7557594Y40292250D01*
X7545371Y40262740D01*
X7534821Y40257452D01*
X7387283Y39881082D01*
X7232560Y39507548D01*
X7232560Y39486384D01*
X7224837Y39466683D01*
X-1048435Y39466683D01*
X-4761190Y45454996D01*
X-4761190Y57036620D01*
X14578870Y57036620D01*
X14591311Y56974074D01*
X14591310Y43098461D01*
X14578870Y43035920D01*
X14628153Y42788155D01*
X14768501Y42578111D01*
X14978545Y42437763D01*
X15226310Y42388480D01*
X15288851Y42400920D01*
X29163259Y42400920D01*
X29225800Y42388480D01*
X29473565Y42437763D01*
X29683609Y42578111D01*
X29823957Y42788155D01*
X29860800Y42973379D01*
X29860800Y42973380D01*
X29873240Y43035920D01*
X29860800Y43098461D01*
X29860800Y56974079D01*
X29873240Y57036620D01*
X36010160Y57036620D01*
X36022601Y56974074D01*
X36022600Y43098461D01*
X36010160Y43035920D01*
X36059443Y42788155D01*
X36199791Y42578111D01*
X36409835Y42437763D01*
X36657600Y42388480D01*
X36720141Y42400920D01*
X50594359Y42400920D01*
X50656900Y42388480D01*
X50904665Y42437763D01*
X51114709Y42578111D01*
X51255057Y42788155D01*
X51291900Y42973379D01*
X51291900Y42973380D01*
X51304340Y43035920D01*
X51291900Y43098461D01*
X51291900Y56974079D01*
X51304340Y57036620D01*
X55060160Y57036620D01*
X55072601Y56974074D01*
X55072600Y43098461D01*
X55060160Y43035920D01*
X55109443Y42788155D01*
X55249791Y42578111D01*
X55459835Y42437763D01*
X55707600Y42388480D01*
X55770141Y42400920D01*
X69644359Y42400920D01*
X69706900Y42388480D01*
X69954665Y42437763D01*
X70164709Y42578111D01*
X70305057Y42788155D01*
X70341900Y42973379D01*
X70341900Y42973380D01*
X70354340Y43035920D01*
X70341900Y43098461D01*
X70341900Y56974079D01*
X70354340Y57036620D01*
X74110160Y57036620D01*
X74122601Y56974074D01*
X74122600Y43098461D01*
X74110160Y43035920D01*
X74159443Y42788155D01*
X74299791Y42578111D01*
X74509835Y42437763D01*
X74757600Y42388480D01*
X74820141Y42400920D01*
X88694359Y42400920D01*
X88756900Y42388480D01*
X89004665Y42437763D01*
X89214709Y42578111D01*
X89355057Y42788155D01*
X89391900Y42973379D01*
X89391900Y42973380D01*
X89404340Y43035920D01*
X89391900Y43098461D01*
X89391900Y56974079D01*
X89404340Y57036620D01*
X93160160Y57036620D01*
X93172601Y56974074D01*
X93172600Y43098461D01*
X93160160Y43035920D01*
X93209443Y42788155D01*
X93349791Y42578111D01*
X93559835Y42437763D01*
X93807600Y42388480D01*
X93870141Y42400920D01*
X107744359Y42400920D01*
X107806900Y42388480D01*
X108054665Y42437763D01*
X108264709Y42578111D01*
X108405057Y42788155D01*
X108441900Y42973379D01*
X108441900Y42973380D01*
X108454340Y43035920D01*
X108441900Y43098461D01*
X108441900Y56974079D01*
X108454340Y57036620D01*
X112209960Y57036620D01*
X112222401Y56974074D01*
X112222400Y43098461D01*
X112209960Y43035920D01*
X112259243Y42788155D01*
X112399591Y42578111D01*
X112609635Y42437763D01*
X112857400Y42388480D01*
X112919941Y42400920D01*
X126794859Y42400920D01*
X126857400Y42388480D01*
X127105165Y42437763D01*
X127315209Y42578111D01*
X127455557Y42788155D01*
X127492400Y42973379D01*
X127492400Y42973380D01*
X127504840Y43035920D01*
X127492400Y43098461D01*
X127492400Y56974079D01*
X127504840Y57036620D01*
X131259960Y57036620D01*
X131272401Y56974074D01*
X131272400Y43098461D01*
X131259960Y43035920D01*
X131309243Y42788155D01*
X131449591Y42578111D01*
X131659635Y42437763D01*
X131907400Y42388480D01*
X131969941Y42400920D01*
X145844859Y42400920D01*
X145907400Y42388480D01*
X146155165Y42437763D01*
X146365209Y42578111D01*
X146505557Y42788155D01*
X146542400Y42973379D01*
X146542400Y42973380D01*
X146554840Y43035920D01*
X146542400Y43098461D01*
X146542400Y56974079D01*
X146554840Y57036620D01*
X159834960Y57036620D01*
X159847401Y56974074D01*
X159847400Y43098461D01*
X159834960Y43035920D01*
X159884243Y42788155D01*
X160024591Y42578111D01*
X160234635Y42437763D01*
X160482400Y42388480D01*
X160544941Y42400920D01*
X174419859Y42400920D01*
X174482400Y42388480D01*
X174730165Y42437763D01*
X174940209Y42578111D01*
X175080557Y42788155D01*
X175117400Y42973379D01*
X175117400Y42973380D01*
X175129840Y43035920D01*
X175117400Y43098461D01*
X175117400Y56974079D01*
X175129840Y57036620D01*
X178884960Y57036620D01*
X178897401Y56974074D01*
X178897400Y43098461D01*
X178884960Y43035920D01*
X178934243Y42788155D01*
X179074591Y42578111D01*
X179284635Y42437763D01*
X179532400Y42388480D01*
X179594941Y42400920D01*
X193469859Y42400920D01*
X193532400Y42388480D01*
X193780165Y42437763D01*
X193990209Y42578111D01*
X194130557Y42788155D01*
X194167400Y42973379D01*
X194167400Y42973380D01*
X194179840Y43035920D01*
X194167400Y43098461D01*
X194167400Y56974079D01*
X194179840Y57036620D01*
X197934960Y57036620D01*
X197947401Y56974074D01*
X197947400Y43098461D01*
X197934960Y43035920D01*
X197984243Y42788155D01*
X198124591Y42578111D01*
X198334635Y42437763D01*
X198582400Y42388480D01*
X198644941Y42400920D01*
X212519859Y42400920D01*
X212582400Y42388480D01*
X212830165Y42437763D01*
X213040209Y42578111D01*
X213180557Y42788155D01*
X213217400Y42973379D01*
X213217400Y42973380D01*
X213229840Y43035920D01*
X213217400Y43098461D01*
X213217400Y56974079D01*
X213229840Y57036620D01*
X216984960Y57036620D01*
X216997401Y56974074D01*
X216997400Y43098461D01*
X216984960Y43035920D01*
X217034243Y42788155D01*
X217174591Y42578111D01*
X217384635Y42437763D01*
X217632400Y42388480D01*
X217694941Y42400920D01*
X231569859Y42400920D01*
X231632400Y42388480D01*
X231880165Y42437763D01*
X232090209Y42578111D01*
X232230557Y42788155D01*
X232267400Y42973379D01*
X232267400Y42973380D01*
X232279840Y43035920D01*
X232267400Y43098461D01*
X232267400Y56974079D01*
X232279840Y57036620D01*
X236034960Y57036620D01*
X236047401Y56974074D01*
X236047400Y43098461D01*
X236034960Y43035920D01*
X236084243Y42788155D01*
X236224591Y42578111D01*
X236434635Y42437763D01*
X236682400Y42388480D01*
X236744941Y42400920D01*
X250619859Y42400920D01*
X250682400Y42388480D01*
X250930165Y42437763D01*
X251140209Y42578111D01*
X251280557Y42788155D01*
X251317400Y42973379D01*
X251317400Y42973380D01*
X251329840Y43035920D01*
X251317400Y43098461D01*
X251317400Y56974079D01*
X251329840Y57036620D01*
X255084960Y57036620D01*
X255097401Y56974074D01*
X255097400Y43098461D01*
X255084960Y43035920D01*
X255134243Y42788155D01*
X255274591Y42578111D01*
X255484635Y42437763D01*
X255732400Y42388480D01*
X255794941Y42400920D01*
X269669859Y42400920D01*
X269732400Y42388480D01*
X269980165Y42437763D01*
X270190209Y42578111D01*
X270330557Y42788155D01*
X270367400Y42973379D01*
X270367400Y42973380D01*
X270379840Y43035920D01*
X270367400Y43098461D01*
X270367400Y56974079D01*
X270379840Y57036620D01*
X276515960Y57036620D01*
X276528401Y56974074D01*
X276528400Y43098461D01*
X276515960Y43035920D01*
X276565243Y42788155D01*
X276705591Y42578111D01*
X276915635Y42437763D01*
X277163400Y42388480D01*
X277225941Y42400920D01*
X291100859Y42400920D01*
X291163400Y42388480D01*
X291411165Y42437763D01*
X291621209Y42578111D01*
X291761557Y42788155D01*
X291798400Y42973379D01*
X291798400Y42973380D01*
X291810840Y43035920D01*
X291798400Y43098461D01*
X291798400Y56974079D01*
X291810840Y57036620D01*
X291761557Y57284385D01*
X291621209Y57494429D01*
X291411165Y57634777D01*
X291225941Y57671620D01*
X291163400Y57684060D01*
X291100859Y57671620D01*
X277225941Y57671620D01*
X277163400Y57684060D01*
X277100859Y57671620D01*
X276915635Y57634777D01*
X276705591Y57494429D01*
X276565243Y57284385D01*
X276515960Y57036620D01*
X270379840Y57036620D01*
X270330557Y57284385D01*
X270190209Y57494429D01*
X269980165Y57634777D01*
X269794941Y57671620D01*
X269732400Y57684060D01*
X269669859Y57671620D01*
X255794941Y57671620D01*
X255732400Y57684060D01*
X255669859Y57671620D01*
X255484635Y57634777D01*
X255274591Y57494429D01*
X255134243Y57284385D01*
X255084960Y57036620D01*
X251329840Y57036620D01*
X251280557Y57284385D01*
X251140209Y57494429D01*
X250930165Y57634777D01*
X250744941Y57671620D01*
X250682400Y57684060D01*
X250619859Y57671620D01*
X236744941Y57671620D01*
X236682400Y57684060D01*
X236619859Y57671620D01*
X236434635Y57634777D01*
X236224591Y57494429D01*
X236084243Y57284385D01*
X236034960Y57036620D01*
X232279840Y57036620D01*
X232230557Y57284385D01*
X232090209Y57494429D01*
X231880165Y57634777D01*
X231694941Y57671620D01*
X231632400Y57684060D01*
X231569859Y57671620D01*
X217694941Y57671620D01*
X217632400Y57684060D01*
X217569859Y57671620D01*
X217384635Y57634777D01*
X217174591Y57494429D01*
X217034243Y57284385D01*
X216984960Y57036620D01*
X213229840Y57036620D01*
X213180557Y57284385D01*
X213040209Y57494429D01*
X212830165Y57634777D01*
X212644941Y57671620D01*
X212582400Y57684060D01*
X212519859Y57671620D01*
X198644941Y57671620D01*
X198582400Y57684060D01*
X198519859Y57671620D01*
X198334635Y57634777D01*
X198124591Y57494429D01*
X197984243Y57284385D01*
X197934960Y57036620D01*
X194179840Y57036620D01*
X194130557Y57284385D01*
X193990209Y57494429D01*
X193780165Y57634777D01*
X193594941Y57671620D01*
X193532400Y57684060D01*
X193469859Y57671620D01*
X179594941Y57671620D01*
X179532400Y57684060D01*
X179469859Y57671620D01*
X179284635Y57634777D01*
X179074591Y57494429D01*
X178934243Y57284385D01*
X178884960Y57036620D01*
X175129840Y57036620D01*
X175080557Y57284385D01*
X174940209Y57494429D01*
X174730165Y57634777D01*
X174544941Y57671620D01*
X174482400Y57684060D01*
X174419859Y57671620D01*
X160544941Y57671620D01*
X160482400Y57684060D01*
X160419859Y57671620D01*
X160234635Y57634777D01*
X160024591Y57494429D01*
X159884243Y57284385D01*
X159834960Y57036620D01*
X146554840Y57036620D01*
X146505557Y57284385D01*
X146365209Y57494429D01*
X146155165Y57634777D01*
X145969941Y57671620D01*
X145907400Y57684060D01*
X145844859Y57671620D01*
X131969941Y57671620D01*
X131907400Y57684060D01*
X131844859Y57671620D01*
X131659635Y57634777D01*
X131449591Y57494429D01*
X131309243Y57284385D01*
X131259960Y57036620D01*
X127504840Y57036620D01*
X127455557Y57284385D01*
X127315209Y57494429D01*
X127105165Y57634777D01*
X126919941Y57671620D01*
X126857400Y57684060D01*
X126794859Y57671620D01*
X112919941Y57671620D01*
X112857400Y57684060D01*
X112794859Y57671620D01*
X112609635Y57634777D01*
X112399591Y57494429D01*
X112259243Y57284385D01*
X112209960Y57036620D01*
X108454340Y57036620D01*
X108405057Y57284385D01*
X108264709Y57494429D01*
X108054665Y57634777D01*
X107869441Y57671620D01*
X107806900Y57684060D01*
X107744359Y57671620D01*
X93870141Y57671620D01*
X93807600Y57684060D01*
X93745059Y57671620D01*
X93559835Y57634777D01*
X93349791Y57494429D01*
X93209443Y57284385D01*
X93160160Y57036620D01*
X89404340Y57036620D01*
X89355057Y57284385D01*
X89214709Y57494429D01*
X89004665Y57634777D01*
X88819441Y57671620D01*
X88756900Y57684060D01*
X88694359Y57671620D01*
X74820141Y57671620D01*
X74757600Y57684060D01*
X74695059Y57671620D01*
X74509835Y57634777D01*
X74299791Y57494429D01*
X74159443Y57284385D01*
X74110160Y57036620D01*
X70354340Y57036620D01*
X70305057Y57284385D01*
X70164709Y57494429D01*
X69954665Y57634777D01*
X69769441Y57671620D01*
X69706900Y57684060D01*
X69644359Y57671620D01*
X55770141Y57671620D01*
X55707600Y57684060D01*
X55645059Y57671620D01*
X55459835Y57634777D01*
X55249791Y57494429D01*
X55109443Y57284385D01*
X55060160Y57036620D01*
X51304340Y57036620D01*
X51255057Y57284385D01*
X51114709Y57494429D01*
X50904665Y57634777D01*
X50719441Y57671620D01*
X50656900Y57684060D01*
X50594359Y57671620D01*
X36720141Y57671620D01*
X36657600Y57684060D01*
X36595059Y57671620D01*
X36409835Y57634777D01*
X36199791Y57494429D01*
X36059443Y57284385D01*
X36010160Y57036620D01*
X29873240Y57036620D01*
X29823957Y57284385D01*
X29683609Y57494429D01*
X29473565Y57634777D01*
X29288341Y57671620D01*
X29225800Y57684060D01*
X29163259Y57671620D01*
X15288851Y57671620D01*
X15226310Y57684060D01*
X15163769Y57671620D01*
X14978545Y57634777D01*
X14768501Y57494429D01*
X14628153Y57284385D01*
X14578870Y57036620D01*
X-4761190Y57036620D01*
X-4761190Y60897933D01*
X34371087Y60897933D01*
X34378810Y60493744D01*
X34378810Y60089442D01*
X34386909Y60069890D01*
X34387313Y60048733D01*
X34681071Y59339538D01*
X34691621Y59334250D01*
X34703844Y59304740D01*
X35304430Y58704154D01*
X35333940Y58691931D01*
X35339228Y58681381D01*
X35715598Y58533843D01*
X36089132Y58379120D01*
X36110296Y58379120D01*
X36129997Y58371397D01*
X36534186Y58379120D01*
X36938488Y58379120D01*
X36958040Y58387219D01*
X36979197Y58387623D01*
X37688392Y58681381D01*
X37693680Y58691931D01*
X37723190Y58704154D01*
X38323776Y59304740D01*
X38335999Y59334250D01*
X38346549Y59339538D01*
X38494087Y59715908D01*
X38648810Y60089442D01*
X38648810Y60110606D01*
X38656533Y60130307D01*
X38650966Y60421683D01*
X93902337Y60421683D01*
X93910060Y60017494D01*
X93910060Y59613192D01*
X93918159Y59593640D01*
X93918563Y59572483D01*
X94212321Y58863288D01*
X94222871Y58858000D01*
X94235094Y58828490D01*
X94835680Y58227904D01*
X94865190Y58215681D01*
X94870478Y58205131D01*
X95246848Y58057593D01*
X95620382Y57902870D01*
X95641546Y57902870D01*
X95661247Y57895147D01*
X96065436Y57902870D01*
X96469738Y57902870D01*
X96489290Y57910969D01*
X96510447Y57911373D01*
X97219642Y58205131D01*
X97224930Y58215681D01*
X97254440Y58227904D01*
X97855026Y58828490D01*
X97867249Y58858000D01*
X97877799Y58863288D01*
X98025337Y59239658D01*
X98180060Y59613192D01*
X98180060Y59634356D01*
X98187783Y59654057D01*
X98182216Y59945433D01*
X151052337Y59945433D01*
X151060060Y59541244D01*
X151060060Y59136942D01*
X151068159Y59117390D01*
X151068563Y59096233D01*
X151362321Y58387038D01*
X151372871Y58381750D01*
X151385094Y58352240D01*
X151985680Y57751654D01*
X152015190Y57739431D01*
X152020478Y57728881D01*
X152396848Y57581343D01*
X152770382Y57426620D01*
X152791546Y57426620D01*
X152811247Y57418897D01*
X153215436Y57426620D01*
X153619738Y57426620D01*
X153639290Y57434719D01*
X153660447Y57435123D01*
X154369642Y57728881D01*
X154374930Y57739431D01*
X154404440Y57751654D01*
X155005026Y58352240D01*
X155017249Y58381750D01*
X155027799Y58387038D01*
X155175337Y58763408D01*
X155330060Y59136942D01*
X155330060Y59158106D01*
X155337783Y59177807D01*
X155330060Y59581996D01*
X155330060Y59986298D01*
X155321961Y60005850D01*
X155321557Y60027007D01*
X155158077Y60421683D01*
X208202337Y60421683D01*
X208210060Y60017494D01*
X208210060Y59613192D01*
X208218159Y59593640D01*
X208218563Y59572483D01*
X208512321Y58863288D01*
X208522871Y58858000D01*
X208535094Y58828490D01*
X209135680Y58227904D01*
X209165190Y58215681D01*
X209170478Y58205131D01*
X209546848Y58057593D01*
X209920382Y57902870D01*
X209941546Y57902870D01*
X209961247Y57895147D01*
X210365436Y57902870D01*
X210769738Y57902870D01*
X210789290Y57910969D01*
X210810447Y57911373D01*
X211519642Y58205131D01*
X211524930Y58215681D01*
X211554440Y58227904D01*
X212155026Y58828490D01*
X212167249Y58858000D01*
X212177799Y58863288D01*
X212325337Y59239658D01*
X212480060Y59613192D01*
X212480060Y59634356D01*
X212487783Y59654057D01*
X212480060Y60058246D01*
X212480060Y60462548D01*
X212471961Y60482100D01*
X212471557Y60503257D01*
X212308077Y60897933D01*
X267733587Y60897933D01*
X267741310Y60493744D01*
X267741310Y60089442D01*
X267749409Y60069890D01*
X267749813Y60048733D01*
X268043571Y59339538D01*
X268054121Y59334250D01*
X268066344Y59304740D01*
X268666930Y58704154D01*
X268696440Y58691931D01*
X268701728Y58681381D01*
X269078098Y58533843D01*
X269451632Y58379120D01*
X269472796Y58379120D01*
X269492497Y58371397D01*
X269896686Y58379120D01*
X270300988Y58379120D01*
X270320540Y58387219D01*
X270341697Y58387623D01*
X271050892Y58681381D01*
X271056180Y58691931D01*
X271085690Y58704154D01*
X271686276Y59304740D01*
X271698499Y59334250D01*
X271709049Y59339538D01*
X271856587Y59715908D01*
X272011310Y60089442D01*
X272011310Y60110606D01*
X272019033Y60130307D01*
X272011310Y60534496D01*
X272011310Y60938798D01*
X272003211Y60958350D01*
X272002807Y60979507D01*
X271709049Y61688702D01*
X271698499Y61693990D01*
X271686276Y61723500D01*
X271085690Y62324086D01*
X271056180Y62336309D01*
X271050892Y62346859D01*
X270674522Y62494397D01*
X270300988Y62649120D01*
X270279824Y62649120D01*
X270260123Y62656843D01*
X269855934Y62649120D01*
X269451632Y62649120D01*
X269432080Y62641021D01*
X269410923Y62640617D01*
X268701728Y62346859D01*
X268696440Y62336309D01*
X268666930Y62324086D01*
X268066344Y61723500D01*
X268054121Y61693990D01*
X268043571Y61688702D01*
X267896033Y61312332D01*
X267741310Y60938798D01*
X267741310Y60917634D01*
X267733587Y60897933D01*
X212308077Y60897933D01*
X212177799Y61212452D01*
X212167249Y61217740D01*
X212155026Y61247250D01*
X211554440Y61847836D01*
X211524930Y61860059D01*
X211519642Y61870609D01*
X211143272Y62018147D01*
X210769738Y62172870D01*
X210748574Y62172870D01*
X210728873Y62180593D01*
X210324684Y62172870D01*
X209920382Y62172870D01*
X209900830Y62164771D01*
X209879673Y62164367D01*
X209170478Y61870609D01*
X209165190Y61860059D01*
X209135680Y61847836D01*
X208535094Y61247250D01*
X208522871Y61217740D01*
X208512321Y61212452D01*
X208364783Y60836082D01*
X208210060Y60462548D01*
X208210060Y60441384D01*
X208202337Y60421683D01*
X155158077Y60421683D01*
X155027799Y60736202D01*
X155017249Y60741490D01*
X155005026Y60771000D01*
X154404440Y61371586D01*
X154374930Y61383809D01*
X154369642Y61394359D01*
X153993272Y61541897D01*
X153619738Y61696620D01*
X153598574Y61696620D01*
X153578873Y61704343D01*
X153174684Y61696620D01*
X152770382Y61696620D01*
X152750830Y61688521D01*
X152729673Y61688117D01*
X152020478Y61394359D01*
X152015190Y61383809D01*
X151985680Y61371586D01*
X151385094Y60771000D01*
X151372871Y60741490D01*
X151362321Y60736202D01*
X151214783Y60359832D01*
X151060060Y59986298D01*
X151060060Y59965134D01*
X151052337Y59945433D01*
X98182216Y59945433D01*
X98180060Y60058246D01*
X98180060Y60462548D01*
X98171961Y60482100D01*
X98171557Y60503257D01*
X97877799Y61212452D01*
X97867249Y61217740D01*
X97855026Y61247250D01*
X97254440Y61847836D01*
X97224930Y61860059D01*
X97219642Y61870609D01*
X96843272Y62018147D01*
X96469738Y62172870D01*
X96448574Y62172870D01*
X96428873Y62180593D01*
X96024684Y62172870D01*
X95620382Y62172870D01*
X95600830Y62164771D01*
X95579673Y62164367D01*
X94870478Y61870609D01*
X94865190Y61860059D01*
X94835680Y61847836D01*
X94235094Y61247250D01*
X94222871Y61217740D01*
X94212321Y61212452D01*
X94064783Y60836082D01*
X93910060Y60462548D01*
X93910060Y60441384D01*
X93902337Y60421683D01*
X38650966Y60421683D01*
X38648810Y60534496D01*
X38648810Y60938798D01*
X38640711Y60958350D01*
X38640307Y60979507D01*
X38346549Y61688702D01*
X38335999Y61693990D01*
X38323776Y61723500D01*
X37723190Y62324086D01*
X37693680Y62336309D01*
X37688392Y62346859D01*
X37312022Y62494397D01*
X36938488Y62649120D01*
X36917324Y62649120D01*
X36897623Y62656843D01*
X36493434Y62649120D01*
X36089132Y62649120D01*
X36069580Y62641021D01*
X36048423Y62640617D01*
X35339228Y62346859D01*
X35333940Y62336309D01*
X35304430Y62324086D01*
X34703844Y61723500D01*
X34691621Y61693990D01*
X34681071Y61688702D01*
X34533533Y61312332D01*
X34378810Y60938798D01*
X34378810Y60917634D01*
X34371087Y60897933D01*
X-4761190Y60897933D01*
X-4761190Y66791674D01*
X2194083Y66791674D01*
X2196310Y66223303D01*
X2196310Y65655258D01*
X2198557Y65649833D01*
X2198580Y65643958D01*
X2629141Y64604495D01*
X2632408Y64602426D01*
X2635526Y64594899D01*
X3447089Y63783336D01*
X3454616Y63780218D01*
X3456685Y63776951D01*
X3982621Y63561511D01*
X4507448Y63344120D01*
X4513319Y63344120D01*
X4518756Y63341893D01*
X5087127Y63344120D01*
X5655172Y63344120D01*
X5660597Y63346367D01*
X5666472Y63346390D01*
X6705935Y63776951D01*
X6708004Y63780218D01*
X6715531Y63783336D01*
X7527094Y64594899D01*
X7530212Y64602426D01*
X7533479Y64604495D01*
X7748919Y65130431D01*
X7966310Y65655258D01*
X7966310Y65661129D01*
X7968537Y65666566D01*
X7966310Y66234937D01*
X7966310Y66802982D01*
X7964063Y66808407D01*
X7964040Y66814282D01*
X7533479Y67853745D01*
X7530212Y67855814D01*
X7527094Y67863341D01*
X6715531Y68674904D01*
X6708004Y68678022D01*
X6705935Y68681289D01*
X6179999Y68896729D01*
X5655172Y69114120D01*
X5649301Y69114120D01*
X5643864Y69116347D01*
X5075493Y69114120D01*
X4507448Y69114120D01*
X4502023Y69111873D01*
X4496148Y69111850D01*
X3456685Y68681289D01*
X3454616Y68678022D01*
X3447089Y68674904D01*
X2635526Y67863341D01*
X2632408Y67855814D01*
X2629141Y67853745D01*
X2413701Y67327809D01*
X2196310Y66802982D01*
X2196310Y66797111D01*
X2194083Y66791674D01*
X-4761190Y66791674D01*
X-4761190Y76086620D01*
X16960120Y76086620D01*
X16972561Y76024074D01*
X16972560Y62148461D01*
X16960120Y62085920D01*
X17009403Y61838155D01*
X17109265Y61688702D01*
X17149751Y61628111D01*
X17359795Y61487763D01*
X17607560Y61438480D01*
X17670101Y61450920D01*
X31544559Y61450920D01*
X31607100Y61438480D01*
X31854865Y61487763D01*
X32064909Y61628111D01*
X32205257Y61838155D01*
X32242100Y62023379D01*
X32242100Y62023380D01*
X32254540Y62085920D01*
X32242100Y62148461D01*
X32242100Y76024079D01*
X32254540Y76086620D01*
X40772660Y76086620D01*
X40785101Y76024074D01*
X40785100Y62148461D01*
X40772660Y62085920D01*
X40821943Y61838155D01*
X40921805Y61688702D01*
X40962291Y61628111D01*
X41172335Y61487763D01*
X41420100Y61438480D01*
X41482641Y61450920D01*
X55356859Y61450920D01*
X55419400Y61438480D01*
X55667165Y61487763D01*
X55877209Y61628111D01*
X56017557Y61838155D01*
X56054400Y62023379D01*
X56054400Y62023380D01*
X56066840Y62085920D01*
X56054400Y62148461D01*
X56054400Y76024079D01*
X56066840Y76086620D01*
X59822660Y76086620D01*
X59835101Y76024074D01*
X59835100Y62148461D01*
X59822660Y62085920D01*
X59871943Y61838155D01*
X59971805Y61688702D01*
X60012291Y61628111D01*
X60222335Y61487763D01*
X60470100Y61438480D01*
X60532641Y61450920D01*
X74406859Y61450920D01*
X74469400Y61438480D01*
X74717165Y61487763D01*
X74927209Y61628111D01*
X75067557Y61838155D01*
X75104400Y62023379D01*
X75104400Y62023380D01*
X75116840Y62085920D01*
X75104400Y62148461D01*
X75104400Y76024079D01*
X75116840Y76086620D01*
X78872660Y76086620D01*
X78885101Y76024074D01*
X78885100Y62148461D01*
X78872660Y62085920D01*
X78921943Y61838155D01*
X79021805Y61688702D01*
X79062291Y61628111D01*
X79272335Y61487763D01*
X79520100Y61438480D01*
X79582641Y61450920D01*
X93456859Y61450920D01*
X93519400Y61438480D01*
X93767165Y61487763D01*
X93977209Y61628111D01*
X94117557Y61838155D01*
X94154400Y62023379D01*
X94154400Y62023380D01*
X94166840Y62085920D01*
X94154400Y62148461D01*
X94154400Y76024079D01*
X94166840Y76086620D01*
X97922660Y76086620D01*
X97935101Y76024074D01*
X97935100Y62148461D01*
X97922660Y62085920D01*
X97971943Y61838155D01*
X98071805Y61688702D01*
X98112291Y61628111D01*
X98322335Y61487763D01*
X98570100Y61438480D01*
X98632641Y61450920D01*
X112506859Y61450920D01*
X112569400Y61438480D01*
X112817165Y61487763D01*
X113027209Y61628111D01*
X113167557Y61838155D01*
X113204400Y62023379D01*
X113204400Y62023380D01*
X113216840Y62085920D01*
X113204400Y62148461D01*
X113204400Y76024079D01*
X113216840Y76086620D01*
X116972960Y76086620D01*
X116985401Y76024074D01*
X116985400Y62148461D01*
X116972960Y62085920D01*
X117022243Y61838155D01*
X117122105Y61688702D01*
X117162591Y61628111D01*
X117372635Y61487763D01*
X117620400Y61438480D01*
X117682941Y61450920D01*
X131556859Y61450920D01*
X131619400Y61438480D01*
X131867165Y61487763D01*
X132077209Y61628111D01*
X132217557Y61838155D01*
X132254400Y62023379D01*
X132254400Y62023380D01*
X132266840Y62085920D01*
X132254400Y62148461D01*
X132254400Y76024079D01*
X132266840Y76086620D01*
X136022960Y76086620D01*
X136035401Y76024074D01*
X136035400Y62148461D01*
X136022960Y62085920D01*
X136072243Y61838155D01*
X136172105Y61688702D01*
X136212591Y61628111D01*
X136422635Y61487763D01*
X136670400Y61438480D01*
X136732941Y61450920D01*
X150606859Y61450920D01*
X150669400Y61438480D01*
X150917165Y61487763D01*
X151127209Y61628111D01*
X151267557Y61838155D01*
X151304400Y62023379D01*
X151304400Y62023380D01*
X151316840Y62085920D01*
X151304400Y62148461D01*
X151304400Y76024079D01*
X151316840Y76086620D01*
X155072960Y76086620D01*
X155085401Y76024074D01*
X155085400Y62148461D01*
X155072960Y62085920D01*
X155122243Y61838155D01*
X155222105Y61688702D01*
X155262591Y61628111D01*
X155472635Y61487763D01*
X155720400Y61438480D01*
X155782941Y61450920D01*
X169656859Y61450920D01*
X169719400Y61438480D01*
X169967165Y61487763D01*
X170177209Y61628111D01*
X170317557Y61838155D01*
X170354400Y62023379D01*
X170354400Y62023380D01*
X170366840Y62085920D01*
X170354400Y62148461D01*
X170354400Y76024079D01*
X170366840Y76086620D01*
X174122960Y76086620D01*
X174135401Y76024074D01*
X174135400Y62148461D01*
X174122960Y62085920D01*
X174172243Y61838155D01*
X174272105Y61688702D01*
X174312591Y61628111D01*
X174522635Y61487763D01*
X174770400Y61438480D01*
X174832941Y61450920D01*
X188706859Y61450920D01*
X188769400Y61438480D01*
X189017165Y61487763D01*
X189227209Y61628111D01*
X189367557Y61838155D01*
X189404400Y62023379D01*
X189404400Y62023380D01*
X189416840Y62085920D01*
X189404400Y62148461D01*
X189404400Y76024079D01*
X189416840Y76086620D01*
X193172960Y76086620D01*
X193185401Y76024074D01*
X193185400Y62148461D01*
X193172960Y62085920D01*
X193222243Y61838155D01*
X193322105Y61688702D01*
X193362591Y61628111D01*
X193572635Y61487763D01*
X193820400Y61438480D01*
X193882941Y61450920D01*
X207756859Y61450920D01*
X207819400Y61438480D01*
X208067165Y61487763D01*
X208277209Y61628111D01*
X208417557Y61838155D01*
X208454400Y62023379D01*
X208454400Y62023380D01*
X208466840Y62085920D01*
X208454400Y62148461D01*
X208454400Y76024079D01*
X208466840Y76086620D01*
X212222960Y76086620D01*
X212235401Y76024074D01*
X212235400Y62148461D01*
X212222960Y62085920D01*
X212272243Y61838155D01*
X212372105Y61688702D01*
X212412591Y61628111D01*
X212622635Y61487763D01*
X212870400Y61438480D01*
X212932941Y61450920D01*
X226806859Y61450920D01*
X226869400Y61438480D01*
X227117165Y61487763D01*
X227327209Y61628111D01*
X227467557Y61838155D01*
X227504400Y62023379D01*
X227504400Y62023380D01*
X227516840Y62085920D01*
X227504400Y62148461D01*
X227504400Y76024079D01*
X227516840Y76086620D01*
X231272960Y76086620D01*
X231285401Y76024074D01*
X231285400Y62148461D01*
X231272960Y62085920D01*
X231322243Y61838155D01*
X231422105Y61688702D01*
X231462591Y61628111D01*
X231672635Y61487763D01*
X231920400Y61438480D01*
X231982941Y61450920D01*
X245856859Y61450920D01*
X245919400Y61438480D01*
X246167165Y61487763D01*
X246377209Y61628111D01*
X246517557Y61838155D01*
X246554400Y62023379D01*
X246554400Y62023380D01*
X246566840Y62085920D01*
X246554400Y62148461D01*
X246554400Y76024079D01*
X246566840Y76086620D01*
X250322960Y76086620D01*
X250335401Y76024074D01*
X250335400Y62148461D01*
X250322960Y62085920D01*
X250372243Y61838155D01*
X250472105Y61688702D01*
X250512591Y61628111D01*
X250722635Y61487763D01*
X250970400Y61438480D01*
X251032941Y61450920D01*
X264906859Y61450920D01*
X264969400Y61438480D01*
X265217165Y61487763D01*
X265427209Y61628111D01*
X265567557Y61838155D01*
X265604400Y62023379D01*
X265604400Y62023380D01*
X265616840Y62085920D01*
X265604400Y62148461D01*
X265604400Y76024079D01*
X265616840Y76086620D01*
X274134960Y76086620D01*
X274147401Y76024074D01*
X274147400Y62148461D01*
X274134960Y62085920D01*
X274184243Y61838155D01*
X274284105Y61688702D01*
X274324591Y61628111D01*
X274534635Y61487763D01*
X274782400Y61438480D01*
X274844941Y61450920D01*
X288719859Y61450920D01*
X288782400Y61438480D01*
X289030165Y61487763D01*
X289240209Y61628111D01*
X289380557Y61838155D01*
X289417400Y62023379D01*
X289417400Y62023380D01*
X289429840Y62085920D01*
X289417400Y62148461D01*
X289417400Y76024079D01*
X289429840Y76086620D01*
X289380557Y76334385D01*
X289240209Y76544429D01*
X289030165Y76684777D01*
X288844941Y76721620D01*
X288782400Y76734060D01*
X288719859Y76721620D01*
X274844941Y76721620D01*
X274782400Y76734060D01*
X274719859Y76721620D01*
X274534635Y76684777D01*
X274324591Y76544429D01*
X274184243Y76334385D01*
X274134960Y76086620D01*
X265616840Y76086620D01*
X265567557Y76334385D01*
X265427209Y76544429D01*
X265217165Y76684777D01*
X265031941Y76721620D01*
X264969400Y76734060D01*
X264906859Y76721620D01*
X251032941Y76721620D01*
X250970400Y76734060D01*
X250907859Y76721620D01*
X250722635Y76684777D01*
X250512591Y76544429D01*
X250372243Y76334385D01*
X250322960Y76086620D01*
X246566840Y76086620D01*
X246517557Y76334385D01*
X246377209Y76544429D01*
X246167165Y76684777D01*
X245981941Y76721620D01*
X245919400Y76734060D01*
X245856859Y76721620D01*
X231982941Y76721620D01*
X231920400Y76734060D01*
X231857859Y76721620D01*
X231672635Y76684777D01*
X231462591Y76544429D01*
X231322243Y76334385D01*
X231272960Y76086620D01*
X227516840Y76086620D01*
X227467557Y76334385D01*
X227327209Y76544429D01*
X227117165Y76684777D01*
X226931941Y76721620D01*
X226869400Y76734060D01*
X226806859Y76721620D01*
X212932941Y76721620D01*
X212870400Y76734060D01*
X212807859Y76721620D01*
X212622635Y76684777D01*
X212412591Y76544429D01*
X212272243Y76334385D01*
X212222960Y76086620D01*
X208466840Y76086620D01*
X208417557Y76334385D01*
X208277209Y76544429D01*
X208067165Y76684777D01*
X207881941Y76721620D01*
X207819400Y76734060D01*
X207756859Y76721620D01*
X193882941Y76721620D01*
X193820400Y76734060D01*
X193757859Y76721620D01*
X193572635Y76684777D01*
X193362591Y76544429D01*
X193222243Y76334385D01*
X193172960Y76086620D01*
X189416840Y76086620D01*
X189367557Y76334385D01*
X189227209Y76544429D01*
X189017165Y76684777D01*
X188831941Y76721620D01*
X188769400Y76734060D01*
X188706859Y76721620D01*
X174832941Y76721620D01*
X174770400Y76734060D01*
X174707859Y76721620D01*
X174522635Y76684777D01*
X174312591Y76544429D01*
X174172243Y76334385D01*
X174122960Y76086620D01*
X170366840Y76086620D01*
X170317557Y76334385D01*
X170177209Y76544429D01*
X169967165Y76684777D01*
X169781941Y76721620D01*
X169719400Y76734060D01*
X169656859Y76721620D01*
X155782941Y76721620D01*
X155720400Y76734060D01*
X155657859Y76721620D01*
X155472635Y76684777D01*
X155262591Y76544429D01*
X155122243Y76334385D01*
X155072960Y76086620D01*
X151316840Y76086620D01*
X151267557Y76334385D01*
X151127209Y76544429D01*
X150917165Y76684777D01*
X150731941Y76721620D01*
X150669400Y76734060D01*
X150606859Y76721620D01*
X136732941Y76721620D01*
X136670400Y76734060D01*
X136607859Y76721620D01*
X136422635Y76684777D01*
X136212591Y76544429D01*
X136072243Y76334385D01*
X136022960Y76086620D01*
X132266840Y76086620D01*
X132217557Y76334385D01*
X132077209Y76544429D01*
X131867165Y76684777D01*
X131681941Y76721620D01*
X131619400Y76734060D01*
X131556859Y76721620D01*
X117682941Y76721620D01*
X117620400Y76734060D01*
X117557859Y76721620D01*
X117372635Y76684777D01*
X117162591Y76544429D01*
X117022243Y76334385D01*
X116972960Y76086620D01*
X113216840Y76086620D01*
X113167557Y76334385D01*
X113027209Y76544429D01*
X112817165Y76684777D01*
X112631941Y76721620D01*
X112569400Y76734060D01*
X112506859Y76721620D01*
X98632641Y76721620D01*
X98570100Y76734060D01*
X98507559Y76721620D01*
X98322335Y76684777D01*
X98112291Y76544429D01*
X97971943Y76334385D01*
X97922660Y76086620D01*
X94166840Y76086620D01*
X94117557Y76334385D01*
X93977209Y76544429D01*
X93767165Y76684777D01*
X93581941Y76721620D01*
X93519400Y76734060D01*
X93456859Y76721620D01*
X79582641Y76721620D01*
X79520100Y76734060D01*
X79457559Y76721620D01*
X79272335Y76684777D01*
X79062291Y76544429D01*
X78921943Y76334385D01*
X78872660Y76086620D01*
X75116840Y76086620D01*
X75067557Y76334385D01*
X74927209Y76544429D01*
X74717165Y76684777D01*
X74531941Y76721620D01*
X74469400Y76734060D01*
X74406859Y76721620D01*
X60532641Y76721620D01*
X60470100Y76734060D01*
X60407559Y76721620D01*
X60222335Y76684777D01*
X60012291Y76544429D01*
X59871943Y76334385D01*
X59822660Y76086620D01*
X56066840Y76086620D01*
X56017557Y76334385D01*
X55877209Y76544429D01*
X55667165Y76684777D01*
X55481941Y76721620D01*
X55419400Y76734060D01*
X55356859Y76721620D01*
X41482641Y76721620D01*
X41420100Y76734060D01*
X41357559Y76721620D01*
X41172335Y76684777D01*
X40962291Y76544429D01*
X40821943Y76334385D01*
X40772660Y76086620D01*
X32254540Y76086620D01*
X32205257Y76334385D01*
X32064909Y76544429D01*
X31854865Y76684777D01*
X31669641Y76721620D01*
X31607100Y76734060D01*
X31544559Y76721620D01*
X17670101Y76721620D01*
X17607560Y76734060D01*
X17545019Y76721620D01*
X17359795Y76684777D01*
X17149751Y76544429D01*
X17009403Y76334385D01*
X16960120Y76086620D01*
X-4761190Y76086620D01*
X-4761190Y78090129D01*
X-4703924Y78489999D01*
X-4555646Y78816118D01*
X-4321796Y79087515D01*
X-4021177Y79282366D01*
X-3656917Y79391303D01*
X-3467626Y79405370D01*
X295548569Y79405370D01*
X295948439Y79348104D01*
X295948439Y79348104D01*
G37*
X295948439Y79348104D02*
X296274558Y79199826D01*
X296545955Y78965976D01*
X296740806Y78665357D01*
X296849743Y78301097D01*
X296863810Y78111806D01*
X296863811Y21983118D01*
X296806544Y21583241D01*
X296658266Y21257121D01*
X296424418Y20985727D01*
X296123796Y20790874D01*
X295759537Y20681937D01*
X295570246Y20667870D01*
X258860019Y20667870D01*
X258836772Y20663246D01*
X258593924Y20645199D01*
X258530668Y20631291D01*
X258466486Y20622499D01*
X258459040Y20620321D01*
X257941561Y20465562D01*
X257863403Y20429448D01*
X257784659Y20394224D01*
X257778124Y20390044D01*
X257324879Y20096265D01*
X257259994Y20039662D01*
X257194306Y19983757D01*
X257189206Y19977910D01*
X256836634Y19568730D01*
X256790237Y19496181D01*
X256742887Y19424097D01*
X256739633Y19417054D01*
X256516076Y18925366D01*
X256491896Y18842675D01*
X256466691Y18760234D01*
X256465544Y18752561D01*
X256391407Y18234888D01*
X256382560Y18190410D01*
X256382561Y-1829382D01*
X256325294Y-2229259D01*
X256177016Y-2555379D01*
X255943168Y-2826773D01*
X255642546Y-3021626D01*
X255278287Y-3130563D01*
X255088996Y-3144630D01*
X51322801Y-3144630D01*
X50922931Y-3087364D01*
X50596811Y-2939086D01*
X50325417Y-2705238D01*
X50130564Y-2404616D01*
X50021627Y-2040357D01*
X50007560Y-1851066D01*
X50007560Y14174120D01*
X52678960Y14174120D01*
X52691401Y14111574D01*
X52691400Y235741D01*
X52678960Y173200D01*
X52728243Y-74565D01*
X52867669Y-283229D01*
X52868591Y-284609D01*
X53078635Y-424957D01*
X53326400Y-474240D01*
X53388941Y-461800D01*
X67263159Y-461800D01*
X67325700Y-474240D01*
X67573465Y-424957D01*
X67783509Y-284609D01*
X67923857Y-74565D01*
X67960700Y110659D01*
X67960700Y110660D01*
X67973140Y173200D01*
X67960700Y235741D01*
X67960700Y14111579D01*
X67973140Y14174120D01*
X74110160Y14174120D01*
X74122601Y14111574D01*
X74122600Y235741D01*
X74110160Y173200D01*
X74159443Y-74565D01*
X74298869Y-283229D01*
X74299791Y-284609D01*
X74509835Y-424957D01*
X74757600Y-474240D01*
X74820141Y-461800D01*
X88694359Y-461800D01*
X88756900Y-474240D01*
X89004665Y-424957D01*
X89214709Y-284609D01*
X89355057Y-74565D01*
X89391900Y110659D01*
X89391900Y110660D01*
X89404340Y173200D01*
X89391900Y235741D01*
X89391900Y14111579D01*
X89404340Y14174120D01*
X93160160Y14174120D01*
X93172601Y14111574D01*
X93172600Y235741D01*
X93160160Y173200D01*
X93209443Y-74565D01*
X93348869Y-283229D01*
X93349791Y-284609D01*
X93559835Y-424957D01*
X93807600Y-474240D01*
X93870141Y-461800D01*
X107744359Y-461800D01*
X107806900Y-474240D01*
X108054665Y-424957D01*
X108264709Y-284609D01*
X108405057Y-74565D01*
X108441900Y110659D01*
X108441900Y110660D01*
X108454340Y173200D01*
X108441900Y235741D01*
X108441900Y14111579D01*
X108454340Y14174120D01*
X114590960Y14174120D01*
X114603401Y14111574D01*
X114603400Y235741D01*
X114590960Y173200D01*
X114640243Y-74565D01*
X114779669Y-283229D01*
X114780591Y-284609D01*
X114990635Y-424957D01*
X115238400Y-474240D01*
X115300941Y-461800D01*
X129175859Y-461800D01*
X129238400Y-474240D01*
X129486165Y-424957D01*
X129696209Y-284609D01*
X129836557Y-74565D01*
X129873400Y110659D01*
X129873400Y110660D01*
X129885840Y173200D01*
X129873400Y235741D01*
X129873400Y14111579D01*
X129885840Y14174120D01*
X136447960Y14174120D01*
X136460400Y14111579D01*
X136460401Y237126D01*
X136447960Y174580D01*
X136497243Y-73185D01*
X136637591Y-283229D01*
X136847635Y-423577D01*
X137032859Y-460420D01*
X137095400Y-472860D01*
X137157941Y-460420D01*
X169231859Y-460420D01*
X169294400Y-472860D01*
X169356941Y-460420D01*
X169542165Y-423577D01*
X169752209Y-283229D01*
X169892557Y-73185D01*
X169892557Y-73184D01*
X169929400Y112039D01*
X169929400Y112040D01*
X169941840Y174580D01*
X169929400Y237121D01*
X169929400Y14111579D01*
X169941840Y14174120D01*
X176503960Y14174120D01*
X176516401Y14111574D01*
X176516400Y235741D01*
X176503960Y173200D01*
X176553243Y-74565D01*
X176692669Y-283229D01*
X176693591Y-284609D01*
X176903635Y-424957D01*
X177151400Y-474240D01*
X177213941Y-461800D01*
X191087859Y-461800D01*
X191150400Y-474240D01*
X191398165Y-424957D01*
X191608209Y-284609D01*
X191748557Y-74565D01*
X191785400Y110659D01*
X191785400Y110660D01*
X191797840Y173200D01*
X191785400Y235741D01*
X191785400Y14111579D01*
X191797840Y14174120D01*
X197934960Y14174120D01*
X197947401Y14111574D01*
X197947400Y235741D01*
X197934960Y173200D01*
X197984243Y-74565D01*
X198123669Y-283229D01*
X198124591Y-284609D01*
X198334635Y-424957D01*
X198582400Y-474240D01*
X198644941Y-461800D01*
X212519859Y-461800D01*
X212582400Y-474240D01*
X212830165Y-424957D01*
X213040209Y-284609D01*
X213180557Y-74565D01*
X213217400Y110659D01*
X213217400Y110660D01*
X213229840Y173200D01*
X213217400Y235741D01*
X213217400Y14111579D01*
X213229840Y14174120D01*
X216984960Y14174120D01*
X216997401Y14111574D01*
X216997400Y235741D01*
X216984960Y173200D01*
X217034243Y-74565D01*
X217173669Y-283229D01*
X217174591Y-284609D01*
X217384635Y-424957D01*
X217632400Y-474240D01*
X217694941Y-461800D01*
X231569859Y-461800D01*
X231632400Y-474240D01*
X231880165Y-424957D01*
X232090209Y-284609D01*
X232230557Y-74565D01*
X232267400Y110659D01*
X232267400Y110660D01*
X232279840Y173200D01*
X232267400Y235741D01*
X232267400Y14111579D01*
X232279840Y14174120D01*
X238415960Y14174120D01*
X238428401Y14111574D01*
X238428400Y235741D01*
X238415960Y173200D01*
X238465243Y-74565D01*
X238604669Y-283229D01*
X238605591Y-284609D01*
X238815635Y-424957D01*
X239063400Y-474240D01*
X239125941Y-461800D01*
X253000859Y-461800D01*
X253063400Y-474240D01*
X253311165Y-424957D01*
X253521209Y-284609D01*
X253661557Y-74565D01*
X253698400Y110659D01*
X253698400Y110660D01*
X253710840Y173200D01*
X253698400Y235741D01*
X253698400Y14111579D01*
X253710840Y14174120D01*
X253661557Y14421885D01*
X253521209Y14631929D01*
X253311165Y14772277D01*
X253125941Y14809120D01*
X253063400Y14821560D01*
X253000859Y14809120D01*
X239125941Y14809120D01*
X239063400Y14821560D01*
X239000859Y14809120D01*
X238815635Y14772277D01*
X238605591Y14631929D01*
X238465243Y14421885D01*
X238415960Y14174120D01*
X232279840Y14174120D01*
X232230557Y14421885D01*
X232090209Y14631929D01*
X231880165Y14772277D01*
X231694941Y14809120D01*
X231632400Y14821560D01*
X231569859Y14809120D01*
X217694941Y14809120D01*
X217632400Y14821560D01*
X217569859Y14809120D01*
X217384635Y14772277D01*
X217174591Y14631929D01*
X217034243Y14421885D01*
X216984960Y14174120D01*
X213229840Y14174120D01*
X213180557Y14421885D01*
X213040209Y14631929D01*
X212830165Y14772277D01*
X212644941Y14809120D01*
X212582400Y14821560D01*
X212519859Y14809120D01*
X198644941Y14809120D01*
X198582400Y14821560D01*
X198519859Y14809120D01*
X198334635Y14772277D01*
X198124591Y14631929D01*
X197984243Y14421885D01*
X197934960Y14174120D01*
X191797840Y14174120D01*
X191748557Y14421885D01*
X191608209Y14631929D01*
X191398165Y14772277D01*
X191212941Y14809120D01*
X191150400Y14821560D01*
X191087859Y14809120D01*
X177213941Y14809120D01*
X177151400Y14821560D01*
X177088859Y14809120D01*
X176903635Y14772277D01*
X176693591Y14631929D01*
X176553243Y14421885D01*
X176503960Y14174120D01*
X169941840Y14174120D01*
X169892557Y14421885D01*
X169752209Y14631929D01*
X169542165Y14772277D01*
X169356941Y14809120D01*
X169294400Y14821560D01*
X169231859Y14809120D01*
X137157941Y14809120D01*
X137095400Y14821560D01*
X137032859Y14809120D01*
X136847635Y14772277D01*
X136637591Y14631929D01*
X136497243Y14421885D01*
X136447960Y14174120D01*
X129885840Y14174120D01*
X129836557Y14421885D01*
X129696209Y14631929D01*
X129486165Y14772277D01*
X129300941Y14809120D01*
X129238400Y14821560D01*
X129175859Y14809120D01*
X115300941Y14809120D01*
X115238400Y14821560D01*
X115175859Y14809120D01*
X114990635Y14772277D01*
X114780591Y14631929D01*
X114640243Y14421885D01*
X114590960Y14174120D01*
X108454340Y14174120D01*
X108405057Y14421885D01*
X108264709Y14631929D01*
X108054665Y14772277D01*
X107869441Y14809120D01*
X107806900Y14821560D01*
X107744359Y14809120D01*
X93870141Y14809120D01*
X93807600Y14821560D01*
X93745059Y14809120D01*
X93559835Y14772277D01*
X93349791Y14631929D01*
X93209443Y14421885D01*
X93160160Y14174120D01*
X89404340Y14174120D01*
X89355057Y14421885D01*
X89214709Y14631929D01*
X89004665Y14772277D01*
X88819441Y14809120D01*
X88756900Y14821560D01*
X88694359Y14809120D01*
X74820141Y14809120D01*
X74757600Y14821560D01*
X74695059Y14809120D01*
X74509835Y14772277D01*
X74299791Y14631929D01*
X74159443Y14421885D01*
X74110160Y14174120D01*
X67973140Y14174120D01*
X67923857Y14421885D01*
X67783509Y14631929D01*
X67573465Y14772277D01*
X67388241Y14809120D01*
X67325700Y14821560D01*
X67263159Y14809120D01*
X53388941Y14809120D01*
X53326400Y14821560D01*
X53263859Y14809120D01*
X53078635Y14772277D01*
X52868591Y14631929D01*
X52728243Y14421885D01*
X52678960Y14174120D01*
X50007560Y14174120D01*
X50007560Y18035433D01*
X62469837Y18035433D01*
X62477560Y17631244D01*
X62477560Y17226942D01*
X62485659Y17207390D01*
X62486063Y17186233D01*
X62779821Y16477038D01*
X62790371Y16471750D01*
X62802594Y16442240D01*
X63403180Y15841654D01*
X63432690Y15829431D01*
X63437978Y15818881D01*
X63814348Y15671343D01*
X64187882Y15516620D01*
X64209046Y15516620D01*
X64228747Y15508897D01*
X64632936Y15516620D01*
X65037238Y15516620D01*
X65056790Y15524719D01*
X65077947Y15525123D01*
X65787142Y15818881D01*
X65792430Y15829431D01*
X65821940Y15841654D01*
X66422526Y16442240D01*
X66434749Y16471750D01*
X66445299Y16477038D01*
X66592837Y16853408D01*
X66747560Y17226942D01*
X66747560Y17248106D01*
X66755283Y17267807D01*
X66747560Y17671996D01*
X66747560Y18076298D01*
X66739461Y18095850D01*
X66739057Y18117007D01*
X66575577Y18511683D01*
X120096087Y18511683D01*
X120103810Y18107494D01*
X120103810Y17703192D01*
X120111909Y17683640D01*
X120112313Y17662483D01*
X120406071Y16953288D01*
X120416621Y16948000D01*
X120428844Y16918490D01*
X121029430Y16317904D01*
X121058940Y16305681D01*
X121064228Y16295131D01*
X121440598Y16147593D01*
X121814132Y15992870D01*
X121835296Y15992870D01*
X121854997Y15985147D01*
X122259186Y15992870D01*
X122663488Y15992870D01*
X122683040Y16000969D01*
X122704197Y16001373D01*
X123413392Y16295131D01*
X123418680Y16305681D01*
X123448190Y16317904D01*
X124048776Y16918490D01*
X124060999Y16948000D01*
X124071549Y16953288D01*
X124219087Y17329658D01*
X124373810Y17703192D01*
X124373810Y17724356D01*
X124381533Y17744057D01*
X124373810Y18148246D01*
X124373810Y18511683D01*
X182008587Y18511683D01*
X182016310Y18107494D01*
X182016310Y17703192D01*
X182024409Y17683640D01*
X182024813Y17662483D01*
X182318571Y16953288D01*
X182329121Y16948000D01*
X182341344Y16918490D01*
X182941930Y16317904D01*
X182971440Y16305681D01*
X182976728Y16295131D01*
X183353098Y16147593D01*
X183726632Y15992870D01*
X183747796Y15992870D01*
X183767497Y15985147D01*
X184171686Y15992870D01*
X184575988Y15992870D01*
X184595540Y16000969D01*
X184616697Y16001373D01*
X185325892Y16295131D01*
X185331180Y16305681D01*
X185360690Y16317904D01*
X185961276Y16918490D01*
X185973499Y16948000D01*
X185984049Y16953288D01*
X186131587Y17329658D01*
X186286310Y17703192D01*
X186286310Y17724356D01*
X186294033Y17744057D01*
X186286310Y18148246D01*
X186286310Y18511683D01*
X236777337Y18511683D01*
X236785060Y18107494D01*
X236785060Y17703192D01*
X236793159Y17683640D01*
X236793563Y17662483D01*
X237087321Y16953288D01*
X237097871Y16948000D01*
X237110094Y16918490D01*
X237710680Y16317904D01*
X237740190Y16305681D01*
X237745478Y16295131D01*
X238121848Y16147593D01*
X238495382Y15992870D01*
X238516546Y15992870D01*
X238536247Y15985147D01*
X238940436Y15992870D01*
X239344738Y15992870D01*
X239364290Y16000969D01*
X239385447Y16001373D01*
X240094642Y16295131D01*
X240099930Y16305681D01*
X240129440Y16317904D01*
X240730026Y16918490D01*
X240742249Y16948000D01*
X240752799Y16953288D01*
X240900337Y17329658D01*
X241055060Y17703192D01*
X241055060Y17724356D01*
X241062783Y17744057D01*
X241055060Y18148246D01*
X241055060Y18552548D01*
X241046961Y18572100D01*
X241046557Y18593257D01*
X240752799Y19302452D01*
X240742249Y19307740D01*
X240730026Y19337250D01*
X240129440Y19937836D01*
X240099930Y19950059D01*
X240094642Y19960609D01*
X239718272Y20108147D01*
X239344738Y20262870D01*
X239323574Y20262870D01*
X239303873Y20270593D01*
X238899684Y20262870D01*
X238495382Y20262870D01*
X238475830Y20254771D01*
X238454673Y20254367D01*
X237745478Y19960609D01*
X237740190Y19950059D01*
X237710680Y19937836D01*
X237110094Y19337250D01*
X237097871Y19307740D01*
X237087321Y19302452D01*
X236939783Y18926082D01*
X236785060Y18552548D01*
X236785060Y18531384D01*
X236777337Y18511683D01*
X186286310Y18511683D01*
X186286310Y18552548D01*
X186278211Y18572100D01*
X186277807Y18593257D01*
X185984049Y19302452D01*
X185973499Y19307740D01*
X185961276Y19337250D01*
X185360690Y19937836D01*
X185331180Y19950059D01*
X185325892Y19960609D01*
X184949522Y20108147D01*
X184575988Y20262870D01*
X184554824Y20262870D01*
X184535123Y20270593D01*
X184130934Y20262870D01*
X183726632Y20262870D01*
X183707080Y20254771D01*
X183685923Y20254367D01*
X182976728Y19960609D01*
X182971440Y19950059D01*
X182941930Y19937836D01*
X182341344Y19337250D01*
X182329121Y19307740D01*
X182318571Y19302452D01*
X182171033Y18926082D01*
X182016310Y18552548D01*
X182016310Y18531384D01*
X182008587Y18511683D01*
X124373810Y18511683D01*
X124373810Y18552548D01*
X124365711Y18572100D01*
X124365307Y18593257D01*
X124071549Y19302452D01*
X124060999Y19307740D01*
X124048776Y19337250D01*
X123448190Y19937836D01*
X123418680Y19950059D01*
X123413392Y19960609D01*
X123037022Y20108147D01*
X122663488Y20262870D01*
X122642324Y20262870D01*
X122622623Y20270593D01*
X122218434Y20262870D01*
X121814132Y20262870D01*
X121794580Y20254771D01*
X121773423Y20254367D01*
X121064228Y19960609D01*
X121058940Y19950059D01*
X121029430Y19937836D01*
X120428844Y19337250D01*
X120416621Y19307740D01*
X120406071Y19302452D01*
X120258533Y18926082D01*
X120103810Y18552548D01*
X120103810Y18531384D01*
X120096087Y18511683D01*
X66575577Y18511683D01*
X66445299Y18826202D01*
X66434749Y18831490D01*
X66422526Y18861000D01*
X65821940Y19461586D01*
X65792430Y19473809D01*
X65787142Y19484359D01*
X65410772Y19631897D01*
X65037238Y19786620D01*
X65016074Y19786620D01*
X64996373Y19794343D01*
X64592184Y19786620D01*
X64187882Y19786620D01*
X64168330Y19778521D01*
X64147173Y19778117D01*
X63437978Y19484359D01*
X63432690Y19473809D01*
X63403180Y19461586D01*
X62802594Y18861000D01*
X62790371Y18831490D01*
X62779821Y18826202D01*
X62632283Y18449832D01*
X62477560Y18076298D01*
X62477560Y18055134D01*
X62469837Y18035433D01*
X50007560Y18035433D01*
X50007560Y18666661D01*
X50002936Y18689908D01*
X49984889Y18932756D01*
X49970981Y18996012D01*
X49962189Y19060194D01*
X49960011Y19067640D01*
X49805252Y19585119D01*
X49769138Y19663277D01*
X49733914Y19742021D01*
X49729734Y19748556D01*
X49435955Y20201801D01*
X49379352Y20266686D01*
X49323447Y20332374D01*
X49317600Y20337474D01*
X48908420Y20690046D01*
X48835871Y20736443D01*
X48763787Y20783793D01*
X48756744Y20787047D01*
X48265056Y21010604D01*
X48182365Y21034784D01*
X48099924Y21059989D01*
X48092251Y21061136D01*
X47574582Y21135272D01*
X47530101Y21144120D01*
X11422463Y21144120D01*
X9812451Y21949126D01*
X-1048435Y39466683D01*
X7224837Y39466683D01*
X7232560Y39062494D01*
X7232560Y38658192D01*
X7240659Y38638640D01*
X7241063Y38617483D01*
X7534821Y37908288D01*
X7545371Y37903000D01*
X7557594Y37873490D01*
X8158180Y37272904D01*
X8187690Y37260681D01*
X8192978Y37250131D01*
X8569348Y37102593D01*
X8942882Y36947870D01*
X8964046Y36947870D01*
X8983747Y36940147D01*
X9387936Y36947870D01*
X9792238Y36947870D01*
X9811790Y36955969D01*
X9832947Y36956373D01*
X10542142Y37250131D01*
X10547430Y37260681D01*
X10576940Y37272904D01*
X11177526Y37873490D01*
X11189749Y37903000D01*
X11200299Y37908288D01*
X11231005Y37986620D01*
X12197610Y37986620D01*
X12210051Y37924074D01*
X12210050Y24048261D01*
X12197610Y23985720D01*
X12246893Y23737955D01*
X12387241Y23527911D01*
X12597285Y23387563D01*
X12845050Y23338280D01*
X12907591Y23350720D01*
X26782059Y23350720D01*
X26844600Y23338280D01*
X27092365Y23387563D01*
X27302409Y23527911D01*
X27442757Y23737955D01*
X27479600Y23923179D01*
X27479600Y23923180D01*
X27492040Y23985720D01*
X27479600Y24048261D01*
X27479600Y37924079D01*
X27492040Y37986620D01*
X31247660Y37986620D01*
X31260101Y37924074D01*
X31260100Y24048261D01*
X31247660Y23985720D01*
X31296943Y23737955D01*
X31437291Y23527911D01*
X31647335Y23387563D01*
X31895100Y23338280D01*
X31957641Y23350720D01*
X45831859Y23350720D01*
X45894400Y23338280D01*
X46142165Y23387563D01*
X46352209Y23527911D01*
X46492557Y23737955D01*
X46529400Y23923179D01*
X46529400Y23923180D01*
X46541840Y23985720D01*
X46529400Y24048261D01*
X46529400Y37924079D01*
X46541840Y37986620D01*
X50297660Y37986620D01*
X50310101Y37924074D01*
X50310100Y24048261D01*
X50297660Y23985720D01*
X50346943Y23737955D01*
X50487291Y23527911D01*
X50697335Y23387563D01*
X50945100Y23338280D01*
X51007641Y23350720D01*
X64881859Y23350720D01*
X64944400Y23338280D01*
X65192165Y23387563D01*
X65402209Y23527911D01*
X65542557Y23737955D01*
X65579400Y23923179D01*
X65579400Y23923180D01*
X65591840Y23985720D01*
X65579400Y24048261D01*
X65579400Y37924079D01*
X65591840Y37986620D01*
X69347660Y37986620D01*
X69360101Y37924074D01*
X69360100Y24048261D01*
X69347660Y23985720D01*
X69396943Y23737955D01*
X69537291Y23527911D01*
X69747335Y23387563D01*
X69995100Y23338280D01*
X70057641Y23350720D01*
X83931859Y23350720D01*
X83994400Y23338280D01*
X84242165Y23387563D01*
X84452209Y23527911D01*
X84592557Y23737955D01*
X84629400Y23923179D01*
X84629400Y23923180D01*
X84641840Y23985720D01*
X84629400Y24048261D01*
X84629400Y37924079D01*
X84641840Y37986620D01*
X88397660Y37986620D01*
X88410101Y37924074D01*
X88410100Y24048261D01*
X88397660Y23985720D01*
X88446943Y23737955D01*
X88587291Y23527911D01*
X88797335Y23387563D01*
X89045100Y23338280D01*
X89107641Y23350720D01*
X102981859Y23350720D01*
X103044400Y23338280D01*
X103292165Y23387563D01*
X103502209Y23527911D01*
X103642557Y23737955D01*
X103679400Y23923179D01*
X103679400Y23923180D01*
X103691840Y23985720D01*
X103679400Y24048261D01*
X103679400Y37924079D01*
X103691840Y37986620D01*
X107446260Y37986620D01*
X107458701Y37924074D01*
X107458700Y24048261D01*
X107446260Y23985720D01*
X107495543Y23737955D01*
X107635891Y23527911D01*
X107845935Y23387563D01*
X108093700Y23338280D01*
X108156241Y23350720D01*
X122031859Y23350720D01*
X122094400Y23338280D01*
X122342165Y23387563D01*
X122552209Y23527911D01*
X122692557Y23737955D01*
X122729400Y23923179D01*
X122729400Y23923180D01*
X122741840Y23985720D01*
X122729400Y24048261D01*
X122729400Y37924079D01*
X122741840Y37986620D01*
X126495960Y37986620D01*
X126508401Y37924074D01*
X126508400Y24048261D01*
X126495960Y23985720D01*
X126545243Y23737955D01*
X126685591Y23527911D01*
X126895635Y23387563D01*
X127143400Y23338280D01*
X127205941Y23350720D01*
X141081859Y23350720D01*
X141144400Y23338280D01*
X141392165Y23387563D01*
X141602209Y23527911D01*
X141742557Y23737955D01*
X141779400Y23923179D01*
X141779400Y23923180D01*
X141791840Y23985720D01*
X141779400Y24048261D01*
X141779400Y37924079D01*
X141791840Y37986620D01*
X145547960Y37986620D01*
X145560401Y37924074D01*
X145560400Y24048261D01*
X145547960Y23985720D01*
X145597243Y23737955D01*
X145737591Y23527911D01*
X145947635Y23387563D01*
X146195400Y23338280D01*
X146257941Y23350720D01*
X160131859Y23350720D01*
X160194400Y23338280D01*
X160442165Y23387563D01*
X160652209Y23527911D01*
X160792557Y23737955D01*
X160829400Y23923179D01*
X160829400Y23923180D01*
X160841840Y23985720D01*
X160829400Y24048261D01*
X160829400Y37924079D01*
X160841840Y37986620D01*
X164597960Y37986620D01*
X164610401Y37924074D01*
X164610400Y24048261D01*
X164597960Y23985720D01*
X164647243Y23737955D01*
X164787591Y23527911D01*
X164997635Y23387563D01*
X165245400Y23338280D01*
X165307941Y23350720D01*
X179181859Y23350720D01*
X179244400Y23338280D01*
X179492165Y23387563D01*
X179702209Y23527911D01*
X179842557Y23737955D01*
X179879400Y23923179D01*
X179879400Y23923180D01*
X179891840Y23985720D01*
X179879400Y24048261D01*
X179879400Y37924079D01*
X179891840Y37986620D01*
X183647960Y37986620D01*
X183660401Y37924074D01*
X183660400Y24048261D01*
X183647960Y23985720D01*
X183697243Y23737955D01*
X183837591Y23527911D01*
X184047635Y23387563D01*
X184295400Y23338280D01*
X184357941Y23350720D01*
X198231859Y23350720D01*
X198294400Y23338280D01*
X198542165Y23387563D01*
X198752209Y23527911D01*
X198892557Y23737955D01*
X198929400Y23923179D01*
X198929400Y23923180D01*
X198941840Y23985720D01*
X198929400Y24048261D01*
X198929400Y37924079D01*
X198941840Y37986620D01*
X202697960Y37986620D01*
X202710401Y37924074D01*
X202710400Y24048261D01*
X202697960Y23985720D01*
X202747243Y23737955D01*
X202887591Y23527911D01*
X203097635Y23387563D01*
X203345400Y23338280D01*
X203407941Y23350720D01*
X217281859Y23350720D01*
X217344400Y23338280D01*
X217592165Y23387563D01*
X217802209Y23527911D01*
X217942557Y23737955D01*
X217979400Y23923179D01*
X217979400Y23923180D01*
X217991840Y23985720D01*
X217979400Y24048261D01*
X217979400Y37924079D01*
X217991840Y37986620D01*
X221747960Y37986620D01*
X221760401Y37924074D01*
X221760400Y24048261D01*
X221747960Y23985720D01*
X221797243Y23737955D01*
X221937591Y23527911D01*
X222147635Y23387563D01*
X222395400Y23338280D01*
X222457941Y23350720D01*
X236331859Y23350720D01*
X236394400Y23338280D01*
X236642165Y23387563D01*
X236852209Y23527911D01*
X236992557Y23737955D01*
X237029400Y23923179D01*
X237029400Y23923180D01*
X237041840Y23985720D01*
X237029400Y24048261D01*
X237029400Y37924079D01*
X237041840Y37986620D01*
X240797960Y37986620D01*
X240810401Y37924074D01*
X240810400Y24048261D01*
X240797960Y23985720D01*
X240847243Y23737955D01*
X240987591Y23527911D01*
X241197635Y23387563D01*
X241445400Y23338280D01*
X241507941Y23350720D01*
X255381859Y23350720D01*
X255444400Y23338280D01*
X255692165Y23387563D01*
X255902209Y23527911D01*
X256042557Y23737955D01*
X256079400Y23923179D01*
X256079400Y23923180D01*
X256091840Y23985720D01*
X256079400Y24048261D01*
X256079400Y37924079D01*
X256091840Y37986620D01*
X259847960Y37986620D01*
X259860401Y37924074D01*
X259860400Y24048261D01*
X259847960Y23985720D01*
X259897243Y23737955D01*
X260037591Y23527911D01*
X260247635Y23387563D01*
X260495400Y23338280D01*
X260557941Y23350720D01*
X274431859Y23350720D01*
X274494400Y23338280D01*
X274742165Y23387563D01*
X274952209Y23527911D01*
X275092557Y23737955D01*
X275129400Y23923179D01*
X275129400Y23923180D01*
X275141840Y23985720D01*
X275129400Y24048261D01*
X275129400Y37924079D01*
X275141840Y37986620D01*
X275092557Y38234385D01*
X274952209Y38444429D01*
X274742165Y38584777D01*
X274556941Y38621620D01*
X274494400Y38634060D01*
X274431859Y38621620D01*
X260557941Y38621620D01*
X260495400Y38634060D01*
X260432859Y38621620D01*
X260247635Y38584777D01*
X260037591Y38444429D01*
X259897243Y38234385D01*
X259847960Y37986620D01*
X256091840Y37986620D01*
X256042557Y38234385D01*
X255902209Y38444429D01*
X255692165Y38584777D01*
X255506941Y38621620D01*
X255444400Y38634060D01*
X255381859Y38621620D01*
X241507941Y38621620D01*
X241445400Y38634060D01*
X241382859Y38621620D01*
X241197635Y38584777D01*
X240987591Y38444429D01*
X240847243Y38234385D01*
X240797960Y37986620D01*
X237041840Y37986620D01*
X236992557Y38234385D01*
X236852209Y38444429D01*
X236642165Y38584777D01*
X236456941Y38621620D01*
X236394400Y38634060D01*
X236331859Y38621620D01*
X222457941Y38621620D01*
X222395400Y38634060D01*
X222332859Y38621620D01*
X222147635Y38584777D01*
X221937591Y38444429D01*
X221797243Y38234385D01*
X221747960Y37986620D01*
X217991840Y37986620D01*
X217942557Y38234385D01*
X217802209Y38444429D01*
X217592165Y38584777D01*
X217406941Y38621620D01*
X217344400Y38634060D01*
X217281859Y38621620D01*
X203407941Y38621620D01*
X203345400Y38634060D01*
X203282859Y38621620D01*
X203097635Y38584777D01*
X202887591Y38444429D01*
X202747243Y38234385D01*
X202697960Y37986620D01*
X198941840Y37986620D01*
X198892557Y38234385D01*
X198752209Y38444429D01*
X198542165Y38584777D01*
X198356941Y38621620D01*
X198294400Y38634060D01*
X198231859Y38621620D01*
X184357941Y38621620D01*
X184295400Y38634060D01*
X184232859Y38621620D01*
X184047635Y38584777D01*
X183837591Y38444429D01*
X183697243Y38234385D01*
X183647960Y37986620D01*
X179891840Y37986620D01*
X179842557Y38234385D01*
X179702209Y38444429D01*
X179492165Y38584777D01*
X179306941Y38621620D01*
X179244400Y38634060D01*
X179181859Y38621620D01*
X165307941Y38621620D01*
X165245400Y38634060D01*
X165182859Y38621620D01*
X164997635Y38584777D01*
X164787591Y38444429D01*
X164647243Y38234385D01*
X164597960Y37986620D01*
X160841840Y37986620D01*
X160792557Y38234385D01*
X160652209Y38444429D01*
X160442165Y38584777D01*
X160256941Y38621620D01*
X160194400Y38634060D01*
X160131859Y38621620D01*
X146257941Y38621620D01*
X146195400Y38634060D01*
X146132859Y38621620D01*
X145947635Y38584777D01*
X145737591Y38444429D01*
X145597243Y38234385D01*
X145547960Y37986620D01*
X141791840Y37986620D01*
X141742557Y38234385D01*
X141602209Y38444429D01*
X141392165Y38584777D01*
X141206941Y38621620D01*
X141144400Y38634060D01*
X141081859Y38621620D01*
X127205941Y38621620D01*
X127143400Y38634060D01*
X127080859Y38621620D01*
X126895635Y38584777D01*
X126685591Y38444429D01*
X126545243Y38234385D01*
X126495960Y37986620D01*
X122741840Y37986620D01*
X122692557Y38234385D01*
X122552209Y38444429D01*
X122342165Y38584777D01*
X122156941Y38621620D01*
X122094400Y38634060D01*
X122031859Y38621620D01*
X108156241Y38621620D01*
X108093700Y38634060D01*
X108031159Y38621620D01*
X107845935Y38584777D01*
X107635891Y38444429D01*
X107495543Y38234385D01*
X107446260Y37986620D01*
X103691840Y37986620D01*
X103642557Y38234385D01*
X103502209Y38444429D01*
X103292165Y38584777D01*
X103106941Y38621620D01*
X103044400Y38634060D01*
X102981859Y38621620D01*
X89107641Y38621620D01*
X89045100Y38634060D01*
X88982559Y38621620D01*
X88797335Y38584777D01*
X88587291Y38444429D01*
X88446943Y38234385D01*
X88397660Y37986620D01*
X84641840Y37986620D01*
X84592557Y38234385D01*
X84452209Y38444429D01*
X84242165Y38584777D01*
X84056941Y38621620D01*
X83994400Y38634060D01*
X83931859Y38621620D01*
X70057641Y38621620D01*
X69995100Y38634060D01*
X69932559Y38621620D01*
X69747335Y38584777D01*
X69537291Y38444429D01*
X69396943Y38234385D01*
X69347660Y37986620D01*
X65591840Y37986620D01*
X65542557Y38234385D01*
X65402209Y38444429D01*
X65192165Y38584777D01*
X65006941Y38621620D01*
X64944400Y38634060D01*
X64881859Y38621620D01*
X51007641Y38621620D01*
X50945100Y38634060D01*
X50882559Y38621620D01*
X50697335Y38584777D01*
X50487291Y38444429D01*
X50346943Y38234385D01*
X50297660Y37986620D01*
X46541840Y37986620D01*
X46492557Y38234385D01*
X46352209Y38444429D01*
X46142165Y38584777D01*
X45956941Y38621620D01*
X45894400Y38634060D01*
X45831859Y38621620D01*
X31957641Y38621620D01*
X31895100Y38634060D01*
X31832559Y38621620D01*
X31647335Y38584777D01*
X31437291Y38444429D01*
X31296943Y38234385D01*
X31247660Y37986620D01*
X27492040Y37986620D01*
X27442757Y38234385D01*
X27302409Y38444429D01*
X27092365Y38584777D01*
X26907141Y38621620D01*
X26844600Y38634060D01*
X26782059Y38621620D01*
X12907591Y38621620D01*
X12845050Y38634060D01*
X12782509Y38621620D01*
X12597285Y38584777D01*
X12387241Y38444429D01*
X12246893Y38234385D01*
X12197610Y37986620D01*
X11231005Y37986620D01*
X11347837Y38284658D01*
X11502560Y38658192D01*
X11502560Y38679356D01*
X11510283Y38699057D01*
X11502560Y39103246D01*
X11502560Y39507548D01*
X11494461Y39527100D01*
X11494057Y39548257D01*
X11200299Y40257452D01*
X11189749Y40262740D01*
X11177526Y40292250D01*
X11050593Y40419183D01*
X274877337Y40419183D01*
X274885060Y40014994D01*
X274885060Y39610692D01*
X274893159Y39591140D01*
X274893563Y39569983D01*
X275187321Y38860788D01*
X275197871Y38855500D01*
X275210094Y38825990D01*
X275810680Y38225404D01*
X275840190Y38213181D01*
X275845478Y38202631D01*
X276221848Y38055093D01*
X276595382Y37900370D01*
X276616546Y37900370D01*
X276636247Y37892647D01*
X277040436Y37900370D01*
X277444738Y37900370D01*
X277464290Y37908469D01*
X277485447Y37908873D01*
X277673144Y37986620D01*
X278897960Y37986620D01*
X278910401Y37924074D01*
X278910400Y24048261D01*
X278897960Y23985720D01*
X278947243Y23737955D01*
X279087591Y23527911D01*
X279297635Y23387563D01*
X279545400Y23338280D01*
X279607941Y23350720D01*
X293481859Y23350720D01*
X293544400Y23338280D01*
X293792165Y23387563D01*
X294002209Y23527911D01*
X294142557Y23737955D01*
X294179400Y23923179D01*
X294179400Y23923180D01*
X294191840Y23985720D01*
X294179400Y24048261D01*
X294179400Y37924079D01*
X294191840Y37986620D01*
X294142557Y38234385D01*
X294002209Y38444429D01*
X293792165Y38584777D01*
X293606941Y38621620D01*
X293544400Y38634060D01*
X293481859Y38621620D01*
X279607941Y38621620D01*
X279545400Y38634060D01*
X279482859Y38621620D01*
X279297635Y38584777D01*
X279087591Y38444429D01*
X278947243Y38234385D01*
X278897960Y37986620D01*
X277673144Y37986620D01*
X278194642Y38202631D01*
X278199930Y38213181D01*
X278229440Y38225404D01*
X278830026Y38825990D01*
X278842249Y38855500D01*
X278852799Y38860788D01*
X279000337Y39237158D01*
X279155060Y39610692D01*
X279155060Y39631856D01*
X279162783Y39651557D01*
X279155060Y40055746D01*
X279155060Y40460048D01*
X279146961Y40479600D01*
X279146557Y40500757D01*
X278852799Y41209952D01*
X278842249Y41215240D01*
X278830026Y41244750D01*
X278229440Y41845336D01*
X278199930Y41857559D01*
X278194642Y41868109D01*
X277818272Y42015647D01*
X277444738Y42170370D01*
X277423574Y42170370D01*
X277403873Y42178093D01*
X276999684Y42170370D01*
X276595382Y42170370D01*
X276575830Y42162271D01*
X276554673Y42161867D01*
X275845478Y41868109D01*
X275840190Y41857559D01*
X275810680Y41845336D01*
X275210094Y41244750D01*
X275197871Y41215240D01*
X275187321Y41209952D01*
X275039783Y40833582D01*
X274885060Y40460048D01*
X274885060Y40438884D01*
X274877337Y40419183D01*
X11050593Y40419183D01*
X10576940Y40892836D01*
X10547430Y40905059D01*
X10542142Y40915609D01*
X10165772Y41063147D01*
X9792238Y41217870D01*
X9771074Y41217870D01*
X9751373Y41225593D01*
X9347184Y41217870D01*
X8942882Y41217870D01*
X8923330Y41209771D01*
X8902173Y41209367D01*
X8192978Y40915609D01*
X8187690Y40905059D01*
X8158180Y40892836D01*
X7557594Y40292250D01*
X7545371Y40262740D01*
X7534821Y40257452D01*
X7387283Y39881082D01*
X7232560Y39507548D01*
X7232560Y39486384D01*
X7224837Y39466683D01*
X-1048435Y39466683D01*
X-4761190Y45454996D01*
X-4761190Y57036620D01*
X14578870Y57036620D01*
X14591311Y56974074D01*
X14591310Y43098461D01*
X14578870Y43035920D01*
X14628153Y42788155D01*
X14768501Y42578111D01*
X14978545Y42437763D01*
X15226310Y42388480D01*
X15288851Y42400920D01*
X29163259Y42400920D01*
X29225800Y42388480D01*
X29473565Y42437763D01*
X29683609Y42578111D01*
X29823957Y42788155D01*
X29860800Y42973379D01*
X29860800Y42973380D01*
X29873240Y43035920D01*
X29860800Y43098461D01*
X29860800Y56974079D01*
X29873240Y57036620D01*
X36010160Y57036620D01*
X36022601Y56974074D01*
X36022600Y43098461D01*
X36010160Y43035920D01*
X36059443Y42788155D01*
X36199791Y42578111D01*
X36409835Y42437763D01*
X36657600Y42388480D01*
X36720141Y42400920D01*
X50594359Y42400920D01*
X50656900Y42388480D01*
X50904665Y42437763D01*
X51114709Y42578111D01*
X51255057Y42788155D01*
X51291900Y42973379D01*
X51291900Y42973380D01*
X51304340Y43035920D01*
X51291900Y43098461D01*
X51291900Y56974079D01*
X51304340Y57036620D01*
X55060160Y57036620D01*
X55072601Y56974074D01*
X55072600Y43098461D01*
X55060160Y43035920D01*
X55109443Y42788155D01*
X55249791Y42578111D01*
X55459835Y42437763D01*
X55707600Y42388480D01*
X55770141Y42400920D01*
X69644359Y42400920D01*
X69706900Y42388480D01*
X69954665Y42437763D01*
X70164709Y42578111D01*
X70305057Y42788155D01*
X70341900Y42973379D01*
X70341900Y42973380D01*
X70354340Y43035920D01*
X70341900Y43098461D01*
X70341900Y56974079D01*
X70354340Y57036620D01*
X74110160Y57036620D01*
X74122601Y56974074D01*
X74122600Y43098461D01*
X74110160Y43035920D01*
X74159443Y42788155D01*
X74299791Y42578111D01*
X74509835Y42437763D01*
X74757600Y42388480D01*
X74820141Y42400920D01*
X88694359Y42400920D01*
X88756900Y42388480D01*
X89004665Y42437763D01*
X89214709Y42578111D01*
X89355057Y42788155D01*
X89391900Y42973379D01*
X89391900Y42973380D01*
X89404340Y43035920D01*
X89391900Y43098461D01*
X89391900Y56974079D01*
X89404340Y57036620D01*
X93160160Y57036620D01*
X93172601Y56974074D01*
X93172600Y43098461D01*
X93160160Y43035920D01*
X93209443Y42788155D01*
X93349791Y42578111D01*
X93559835Y42437763D01*
X93807600Y42388480D01*
X93870141Y42400920D01*
X107744359Y42400920D01*
X107806900Y42388480D01*
X108054665Y42437763D01*
X108264709Y42578111D01*
X108405057Y42788155D01*
X108441900Y42973379D01*
X108441900Y42973380D01*
X108454340Y43035920D01*
X108441900Y43098461D01*
X108441900Y56974079D01*
X108454340Y57036620D01*
X112209960Y57036620D01*
X112222401Y56974074D01*
X112222400Y43098461D01*
X112209960Y43035920D01*
X112259243Y42788155D01*
X112399591Y42578111D01*
X112609635Y42437763D01*
X112857400Y42388480D01*
X112919941Y42400920D01*
X126794859Y42400920D01*
X126857400Y42388480D01*
X127105165Y42437763D01*
X127315209Y42578111D01*
X127455557Y42788155D01*
X127492400Y42973379D01*
X127492400Y42973380D01*
X127504840Y43035920D01*
X127492400Y43098461D01*
X127492400Y56974079D01*
X127504840Y57036620D01*
X131259960Y57036620D01*
X131272401Y56974074D01*
X131272400Y43098461D01*
X131259960Y43035920D01*
X131309243Y42788155D01*
X131449591Y42578111D01*
X131659635Y42437763D01*
X131907400Y42388480D01*
X131969941Y42400920D01*
X145844859Y42400920D01*
X145907400Y42388480D01*
X146155165Y42437763D01*
X146365209Y42578111D01*
X146505557Y42788155D01*
X146542400Y42973379D01*
X146542400Y42973380D01*
X146554840Y43035920D01*
X146542400Y43098461D01*
X146542400Y56974079D01*
X146554840Y57036620D01*
X159834960Y57036620D01*
X159847401Y56974074D01*
X159847400Y43098461D01*
X159834960Y43035920D01*
X159884243Y42788155D01*
X160024591Y42578111D01*
X160234635Y42437763D01*
X160482400Y42388480D01*
X160544941Y42400920D01*
X174419859Y42400920D01*
X174482400Y42388480D01*
X174730165Y42437763D01*
X174940209Y42578111D01*
X175080557Y42788155D01*
X175117400Y42973379D01*
X175117400Y42973380D01*
X175129840Y43035920D01*
X175117400Y43098461D01*
X175117400Y56974079D01*
X175129840Y57036620D01*
X178884960Y57036620D01*
X178897401Y56974074D01*
X178897400Y43098461D01*
X178884960Y43035920D01*
X178934243Y42788155D01*
X179074591Y42578111D01*
X179284635Y42437763D01*
X179532400Y42388480D01*
X179594941Y42400920D01*
X193469859Y42400920D01*
X193532400Y42388480D01*
X193780165Y42437763D01*
X193990209Y42578111D01*
X194130557Y42788155D01*
X194167400Y42973379D01*
X194167400Y42973380D01*
X194179840Y43035920D01*
X194167400Y43098461D01*
X194167400Y56974079D01*
X194179840Y57036620D01*
X197934960Y57036620D01*
X197947401Y56974074D01*
X197947400Y43098461D01*
X197934960Y43035920D01*
X197984243Y42788155D01*
X198124591Y42578111D01*
X198334635Y42437763D01*
X198582400Y42388480D01*
X198644941Y42400920D01*
X212519859Y42400920D01*
X212582400Y42388480D01*
X212830165Y42437763D01*
X213040209Y42578111D01*
X213180557Y42788155D01*
X213217400Y42973379D01*
X213217400Y42973380D01*
X213229840Y43035920D01*
X213217400Y43098461D01*
X213217400Y56974079D01*
X213229840Y57036620D01*
X216984960Y57036620D01*
X216997401Y56974074D01*
X216997400Y43098461D01*
X216984960Y43035920D01*
X217034243Y42788155D01*
X217174591Y42578111D01*
X217384635Y42437763D01*
X217632400Y42388480D01*
X217694941Y42400920D01*
X231569859Y42400920D01*
X231632400Y42388480D01*
X231880165Y42437763D01*
X232090209Y42578111D01*
X232230557Y42788155D01*
X232267400Y42973379D01*
X232267400Y42973380D01*
X232279840Y43035920D01*
X232267400Y43098461D01*
X232267400Y56974079D01*
X232279840Y57036620D01*
X236034960Y57036620D01*
X236047401Y56974074D01*
X236047400Y43098461D01*
X236034960Y43035920D01*
X236084243Y42788155D01*
X236224591Y42578111D01*
X236434635Y42437763D01*
X236682400Y42388480D01*
X236744941Y42400920D01*
X250619859Y42400920D01*
X250682400Y42388480D01*
X250930165Y42437763D01*
X251140209Y42578111D01*
X251280557Y42788155D01*
X251317400Y42973379D01*
X251317400Y42973380D01*
X251329840Y43035920D01*
X251317400Y43098461D01*
X251317400Y56974079D01*
X251329840Y57036620D01*
X255084960Y57036620D01*
X255097401Y56974074D01*
X255097400Y43098461D01*
X255084960Y43035920D01*
X255134243Y42788155D01*
X255274591Y42578111D01*
X255484635Y42437763D01*
X255732400Y42388480D01*
X255794941Y42400920D01*
X269669859Y42400920D01*
X269732400Y42388480D01*
X269980165Y42437763D01*
X270190209Y42578111D01*
X270330557Y42788155D01*
X270367400Y42973379D01*
X270367400Y42973380D01*
X270379840Y43035920D01*
X270367400Y43098461D01*
X270367400Y56974079D01*
X270379840Y57036620D01*
X276515960Y57036620D01*
X276528401Y56974074D01*
X276528400Y43098461D01*
X276515960Y43035920D01*
X276565243Y42788155D01*
X276705591Y42578111D01*
X276915635Y42437763D01*
X277163400Y42388480D01*
X277225941Y42400920D01*
X291100859Y42400920D01*
X291163400Y42388480D01*
X291411165Y42437763D01*
X291621209Y42578111D01*
X291761557Y42788155D01*
X291798400Y42973379D01*
X291798400Y42973380D01*
X291810840Y43035920D01*
X291798400Y43098461D01*
X291798400Y56974079D01*
X291810840Y57036620D01*
X291761557Y57284385D01*
X291621209Y57494429D01*
X291411165Y57634777D01*
X291225941Y57671620D01*
X291163400Y57684060D01*
X291100859Y57671620D01*
X277225941Y57671620D01*
X277163400Y57684060D01*
X277100859Y57671620D01*
X276915635Y57634777D01*
X276705591Y57494429D01*
X276565243Y57284385D01*
X276515960Y57036620D01*
X270379840Y57036620D01*
X270330557Y57284385D01*
X270190209Y57494429D01*
X269980165Y57634777D01*
X269794941Y57671620D01*
X269732400Y57684060D01*
X269669859Y57671620D01*
X255794941Y57671620D01*
X255732400Y57684060D01*
X255669859Y57671620D01*
X255484635Y57634777D01*
X255274591Y57494429D01*
X255134243Y57284385D01*
X255084960Y57036620D01*
X251329840Y57036620D01*
X251280557Y57284385D01*
X251140209Y57494429D01*
X250930165Y57634777D01*
X250744941Y57671620D01*
X250682400Y57684060D01*
X250619859Y57671620D01*
X236744941Y57671620D01*
X236682400Y57684060D01*
X236619859Y57671620D01*
X236434635Y57634777D01*
X236224591Y57494429D01*
X236084243Y57284385D01*
X236034960Y57036620D01*
X232279840Y57036620D01*
X232230557Y57284385D01*
X232090209Y57494429D01*
X231880165Y57634777D01*
X231694941Y57671620D01*
X231632400Y57684060D01*
X231569859Y57671620D01*
X217694941Y57671620D01*
X217632400Y57684060D01*
X217569859Y57671620D01*
X217384635Y57634777D01*
X217174591Y57494429D01*
X217034243Y57284385D01*
X216984960Y57036620D01*
X213229840Y57036620D01*
X213180557Y57284385D01*
X213040209Y57494429D01*
X212830165Y57634777D01*
X212644941Y57671620D01*
X212582400Y57684060D01*
X212519859Y57671620D01*
X198644941Y57671620D01*
X198582400Y57684060D01*
X198519859Y57671620D01*
X198334635Y57634777D01*
X198124591Y57494429D01*
X197984243Y57284385D01*
X197934960Y57036620D01*
X194179840Y57036620D01*
X194130557Y57284385D01*
X193990209Y57494429D01*
X193780165Y57634777D01*
X193594941Y57671620D01*
X193532400Y57684060D01*
X193469859Y57671620D01*
X179594941Y57671620D01*
X179532400Y57684060D01*
X179469859Y57671620D01*
X179284635Y57634777D01*
X179074591Y57494429D01*
X178934243Y57284385D01*
X178884960Y57036620D01*
X175129840Y57036620D01*
X175080557Y57284385D01*
X174940209Y57494429D01*
X174730165Y57634777D01*
X174544941Y57671620D01*
X174482400Y57684060D01*
X174419859Y57671620D01*
X160544941Y57671620D01*
X160482400Y57684060D01*
X160419859Y57671620D01*
X160234635Y57634777D01*
X160024591Y57494429D01*
X159884243Y57284385D01*
X159834960Y57036620D01*
X146554840Y57036620D01*
X146505557Y57284385D01*
X146365209Y57494429D01*
X146155165Y57634777D01*
X145969941Y57671620D01*
X145907400Y57684060D01*
X145844859Y57671620D01*
X131969941Y57671620D01*
X131907400Y57684060D01*
X131844859Y57671620D01*
X131659635Y57634777D01*
X131449591Y57494429D01*
X131309243Y57284385D01*
X131259960Y57036620D01*
X127504840Y57036620D01*
X127455557Y57284385D01*
X127315209Y57494429D01*
X127105165Y57634777D01*
X126919941Y57671620D01*
X126857400Y57684060D01*
X126794859Y57671620D01*
X112919941Y57671620D01*
X112857400Y57684060D01*
X112794859Y57671620D01*
X112609635Y57634777D01*
X112399591Y57494429D01*
X112259243Y57284385D01*
X112209960Y57036620D01*
X108454340Y57036620D01*
X108405057Y57284385D01*
X108264709Y57494429D01*
X108054665Y57634777D01*
X107869441Y57671620D01*
X107806900Y57684060D01*
X107744359Y57671620D01*
X93870141Y57671620D01*
X93807600Y57684060D01*
X93745059Y57671620D01*
X93559835Y57634777D01*
X93349791Y57494429D01*
X93209443Y57284385D01*
X93160160Y57036620D01*
X89404340Y57036620D01*
X89355057Y57284385D01*
X89214709Y57494429D01*
X89004665Y57634777D01*
X88819441Y57671620D01*
X88756900Y57684060D01*
X88694359Y57671620D01*
X74820141Y57671620D01*
X74757600Y57684060D01*
X74695059Y57671620D01*
X74509835Y57634777D01*
X74299791Y57494429D01*
X74159443Y57284385D01*
X74110160Y57036620D01*
X70354340Y57036620D01*
X70305057Y57284385D01*
X70164709Y57494429D01*
X69954665Y57634777D01*
X69769441Y57671620D01*
X69706900Y57684060D01*
X69644359Y57671620D01*
X55770141Y57671620D01*
X55707600Y57684060D01*
X55645059Y57671620D01*
X55459835Y57634777D01*
X55249791Y57494429D01*
X55109443Y57284385D01*
X55060160Y57036620D01*
X51304340Y57036620D01*
X51255057Y57284385D01*
X51114709Y57494429D01*
X50904665Y57634777D01*
X50719441Y57671620D01*
X50656900Y57684060D01*
X50594359Y57671620D01*
X36720141Y57671620D01*
X36657600Y57684060D01*
X36595059Y57671620D01*
X36409835Y57634777D01*
X36199791Y57494429D01*
X36059443Y57284385D01*
X36010160Y57036620D01*
X29873240Y57036620D01*
X29823957Y57284385D01*
X29683609Y57494429D01*
X29473565Y57634777D01*
X29288341Y57671620D01*
X29225800Y57684060D01*
X29163259Y57671620D01*
X15288851Y57671620D01*
X15226310Y57684060D01*
X15163769Y57671620D01*
X14978545Y57634777D01*
X14768501Y57494429D01*
X14628153Y57284385D01*
X14578870Y57036620D01*
X-4761190Y57036620D01*
X-4761190Y60897933D01*
X34371087Y60897933D01*
X34378810Y60493744D01*
X34378810Y60089442D01*
X34386909Y60069890D01*
X34387313Y60048733D01*
X34681071Y59339538D01*
X34691621Y59334250D01*
X34703844Y59304740D01*
X35304430Y58704154D01*
X35333940Y58691931D01*
X35339228Y58681381D01*
X35715598Y58533843D01*
X36089132Y58379120D01*
X36110296Y58379120D01*
X36129997Y58371397D01*
X36534186Y58379120D01*
X36938488Y58379120D01*
X36958040Y58387219D01*
X36979197Y58387623D01*
X37688392Y58681381D01*
X37693680Y58691931D01*
X37723190Y58704154D01*
X38323776Y59304740D01*
X38335999Y59334250D01*
X38346549Y59339538D01*
X38494087Y59715908D01*
X38648810Y60089442D01*
X38648810Y60110606D01*
X38656533Y60130307D01*
X38650966Y60421683D01*
X93902337Y60421683D01*
X93910060Y60017494D01*
X93910060Y59613192D01*
X93918159Y59593640D01*
X93918563Y59572483D01*
X94212321Y58863288D01*
X94222871Y58858000D01*
X94235094Y58828490D01*
X94835680Y58227904D01*
X94865190Y58215681D01*
X94870478Y58205131D01*
X95246848Y58057593D01*
X95620382Y57902870D01*
X95641546Y57902870D01*
X95661247Y57895147D01*
X96065436Y57902870D01*
X96469738Y57902870D01*
X96489290Y57910969D01*
X96510447Y57911373D01*
X97219642Y58205131D01*
X97224930Y58215681D01*
X97254440Y58227904D01*
X97855026Y58828490D01*
X97867249Y58858000D01*
X97877799Y58863288D01*
X98025337Y59239658D01*
X98180060Y59613192D01*
X98180060Y59634356D01*
X98187783Y59654057D01*
X98182216Y59945433D01*
X151052337Y59945433D01*
X151060060Y59541244D01*
X151060060Y59136942D01*
X151068159Y59117390D01*
X151068563Y59096233D01*
X151362321Y58387038D01*
X151372871Y58381750D01*
X151385094Y58352240D01*
X151985680Y57751654D01*
X152015190Y57739431D01*
X152020478Y57728881D01*
X152396848Y57581343D01*
X152770382Y57426620D01*
X152791546Y57426620D01*
X152811247Y57418897D01*
X153215436Y57426620D01*
X153619738Y57426620D01*
X153639290Y57434719D01*
X153660447Y57435123D01*
X154369642Y57728881D01*
X154374930Y57739431D01*
X154404440Y57751654D01*
X155005026Y58352240D01*
X155017249Y58381750D01*
X155027799Y58387038D01*
X155175337Y58763408D01*
X155330060Y59136942D01*
X155330060Y59158106D01*
X155337783Y59177807D01*
X155330060Y59581996D01*
X155330060Y59986298D01*
X155321961Y60005850D01*
X155321557Y60027007D01*
X155158077Y60421683D01*
X208202337Y60421683D01*
X208210060Y60017494D01*
X208210060Y59613192D01*
X208218159Y59593640D01*
X208218563Y59572483D01*
X208512321Y58863288D01*
X208522871Y58858000D01*
X208535094Y58828490D01*
X209135680Y58227904D01*
X209165190Y58215681D01*
X209170478Y58205131D01*
X209546848Y58057593D01*
X209920382Y57902870D01*
X209941546Y57902870D01*
X209961247Y57895147D01*
X210365436Y57902870D01*
X210769738Y57902870D01*
X210789290Y57910969D01*
X210810447Y57911373D01*
X211519642Y58205131D01*
X211524930Y58215681D01*
X211554440Y58227904D01*
X212155026Y58828490D01*
X212167249Y58858000D01*
X212177799Y58863288D01*
X212325337Y59239658D01*
X212480060Y59613192D01*
X212480060Y59634356D01*
X212487783Y59654057D01*
X212480060Y60058246D01*
X212480060Y60462548D01*
X212471961Y60482100D01*
X212471557Y60503257D01*
X212308077Y60897933D01*
X267733587Y60897933D01*
X267741310Y60493744D01*
X267741310Y60089442D01*
X267749409Y60069890D01*
X267749813Y60048733D01*
X268043571Y59339538D01*
X268054121Y59334250D01*
X268066344Y59304740D01*
X268666930Y58704154D01*
X268696440Y58691931D01*
X268701728Y58681381D01*
X269078098Y58533843D01*
X269451632Y58379120D01*
X269472796Y58379120D01*
X269492497Y58371397D01*
X269896686Y58379120D01*
X270300988Y58379120D01*
X270320540Y58387219D01*
X270341697Y58387623D01*
X271050892Y58681381D01*
X271056180Y58691931D01*
X271085690Y58704154D01*
X271686276Y59304740D01*
X271698499Y59334250D01*
X271709049Y59339538D01*
X271856587Y59715908D01*
X272011310Y60089442D01*
X272011310Y60110606D01*
X272019033Y60130307D01*
X272011310Y60534496D01*
X272011310Y60938798D01*
X272003211Y60958350D01*
X272002807Y60979507D01*
X271709049Y61688702D01*
X271698499Y61693990D01*
X271686276Y61723500D01*
X271085690Y62324086D01*
X271056180Y62336309D01*
X271050892Y62346859D01*
X270674522Y62494397D01*
X270300988Y62649120D01*
X270279824Y62649120D01*
X270260123Y62656843D01*
X269855934Y62649120D01*
X269451632Y62649120D01*
X269432080Y62641021D01*
X269410923Y62640617D01*
X268701728Y62346859D01*
X268696440Y62336309D01*
X268666930Y62324086D01*
X268066344Y61723500D01*
X268054121Y61693990D01*
X268043571Y61688702D01*
X267896033Y61312332D01*
X267741310Y60938798D01*
X267741310Y60917634D01*
X267733587Y60897933D01*
X212308077Y60897933D01*
X212177799Y61212452D01*
X212167249Y61217740D01*
X212155026Y61247250D01*
X211554440Y61847836D01*
X211524930Y61860059D01*
X211519642Y61870609D01*
X211143272Y62018147D01*
X210769738Y62172870D01*
X210748574Y62172870D01*
X210728873Y62180593D01*
X210324684Y62172870D01*
X209920382Y62172870D01*
X209900830Y62164771D01*
X209879673Y62164367D01*
X209170478Y61870609D01*
X209165190Y61860059D01*
X209135680Y61847836D01*
X208535094Y61247250D01*
X208522871Y61217740D01*
X208512321Y61212452D01*
X208364783Y60836082D01*
X208210060Y60462548D01*
X208210060Y60441384D01*
X208202337Y60421683D01*
X155158077Y60421683D01*
X155027799Y60736202D01*
X155017249Y60741490D01*
X155005026Y60771000D01*
X154404440Y61371586D01*
X154374930Y61383809D01*
X154369642Y61394359D01*
X153993272Y61541897D01*
X153619738Y61696620D01*
X153598574Y61696620D01*
X153578873Y61704343D01*
X153174684Y61696620D01*
X152770382Y61696620D01*
X152750830Y61688521D01*
X152729673Y61688117D01*
X152020478Y61394359D01*
X152015190Y61383809D01*
X151985680Y61371586D01*
X151385094Y60771000D01*
X151372871Y60741490D01*
X151362321Y60736202D01*
X151214783Y60359832D01*
X151060060Y59986298D01*
X151060060Y59965134D01*
X151052337Y59945433D01*
X98182216Y59945433D01*
X98180060Y60058246D01*
X98180060Y60462548D01*
X98171961Y60482100D01*
X98171557Y60503257D01*
X97877799Y61212452D01*
X97867249Y61217740D01*
X97855026Y61247250D01*
X97254440Y61847836D01*
X97224930Y61860059D01*
X97219642Y61870609D01*
X96843272Y62018147D01*
X96469738Y62172870D01*
X96448574Y62172870D01*
X96428873Y62180593D01*
X96024684Y62172870D01*
X95620382Y62172870D01*
X95600830Y62164771D01*
X95579673Y62164367D01*
X94870478Y61870609D01*
X94865190Y61860059D01*
X94835680Y61847836D01*
X94235094Y61247250D01*
X94222871Y61217740D01*
X94212321Y61212452D01*
X94064783Y60836082D01*
X93910060Y60462548D01*
X93910060Y60441384D01*
X93902337Y60421683D01*
X38650966Y60421683D01*
X38648810Y60534496D01*
X38648810Y60938798D01*
X38640711Y60958350D01*
X38640307Y60979507D01*
X38346549Y61688702D01*
X38335999Y61693990D01*
X38323776Y61723500D01*
X37723190Y62324086D01*
X37693680Y62336309D01*
X37688392Y62346859D01*
X37312022Y62494397D01*
X36938488Y62649120D01*
X36917324Y62649120D01*
X36897623Y62656843D01*
X36493434Y62649120D01*
X36089132Y62649120D01*
X36069580Y62641021D01*
X36048423Y62640617D01*
X35339228Y62346859D01*
X35333940Y62336309D01*
X35304430Y62324086D01*
X34703844Y61723500D01*
X34691621Y61693990D01*
X34681071Y61688702D01*
X34533533Y61312332D01*
X34378810Y60938798D01*
X34378810Y60917634D01*
X34371087Y60897933D01*
X-4761190Y60897933D01*
X-4761190Y66791674D01*
X2194083Y66791674D01*
X2196310Y66223303D01*
X2196310Y65655258D01*
X2198557Y65649833D01*
X2198580Y65643958D01*
X2629141Y64604495D01*
X2632408Y64602426D01*
X2635526Y64594899D01*
X3447089Y63783336D01*
X3454616Y63780218D01*
X3456685Y63776951D01*
X3982621Y63561511D01*
X4507448Y63344120D01*
X4513319Y63344120D01*
X4518756Y63341893D01*
X5087127Y63344120D01*
X5655172Y63344120D01*
X5660597Y63346367D01*
X5666472Y63346390D01*
X6705935Y63776951D01*
X6708004Y63780218D01*
X6715531Y63783336D01*
X7527094Y64594899D01*
X7530212Y64602426D01*
X7533479Y64604495D01*
X7748919Y65130431D01*
X7966310Y65655258D01*
X7966310Y65661129D01*
X7968537Y65666566D01*
X7966310Y66234937D01*
X7966310Y66802982D01*
X7964063Y66808407D01*
X7964040Y66814282D01*
X7533479Y67853745D01*
X7530212Y67855814D01*
X7527094Y67863341D01*
X6715531Y68674904D01*
X6708004Y68678022D01*
X6705935Y68681289D01*
X6179999Y68896729D01*
X5655172Y69114120D01*
X5649301Y69114120D01*
X5643864Y69116347D01*
X5075493Y69114120D01*
X4507448Y69114120D01*
X4502023Y69111873D01*
X4496148Y69111850D01*
X3456685Y68681289D01*
X3454616Y68678022D01*
X3447089Y68674904D01*
X2635526Y67863341D01*
X2632408Y67855814D01*
X2629141Y67853745D01*
X2413701Y67327809D01*
X2196310Y66802982D01*
X2196310Y66797111D01*
X2194083Y66791674D01*
X-4761190Y66791674D01*
X-4761190Y76086620D01*
X16960120Y76086620D01*
X16972561Y76024074D01*
X16972560Y62148461D01*
X16960120Y62085920D01*
X17009403Y61838155D01*
X17109265Y61688702D01*
X17149751Y61628111D01*
X17359795Y61487763D01*
X17607560Y61438480D01*
X17670101Y61450920D01*
X31544559Y61450920D01*
X31607100Y61438480D01*
X31854865Y61487763D01*
X32064909Y61628111D01*
X32205257Y61838155D01*
X32242100Y62023379D01*
X32242100Y62023380D01*
X32254540Y62085920D01*
X32242100Y62148461D01*
X32242100Y76024079D01*
X32254540Y76086620D01*
X40772660Y76086620D01*
X40785101Y76024074D01*
X40785100Y62148461D01*
X40772660Y62085920D01*
X40821943Y61838155D01*
X40921805Y61688702D01*
X40962291Y61628111D01*
X41172335Y61487763D01*
X41420100Y61438480D01*
X41482641Y61450920D01*
X55356859Y61450920D01*
X55419400Y61438480D01*
X55667165Y61487763D01*
X55877209Y61628111D01*
X56017557Y61838155D01*
X56054400Y62023379D01*
X56054400Y62023380D01*
X56066840Y62085920D01*
X56054400Y62148461D01*
X56054400Y76024079D01*
X56066840Y76086620D01*
X59822660Y76086620D01*
X59835101Y76024074D01*
X59835100Y62148461D01*
X59822660Y62085920D01*
X59871943Y61838155D01*
X59971805Y61688702D01*
X60012291Y61628111D01*
X60222335Y61487763D01*
X60470100Y61438480D01*
X60532641Y61450920D01*
X74406859Y61450920D01*
X74469400Y61438480D01*
X74717165Y61487763D01*
X74927209Y61628111D01*
X75067557Y61838155D01*
X75104400Y62023379D01*
X75104400Y62023380D01*
X75116840Y62085920D01*
X75104400Y62148461D01*
X75104400Y76024079D01*
X75116840Y76086620D01*
X78872660Y76086620D01*
X78885101Y76024074D01*
X78885100Y62148461D01*
X78872660Y62085920D01*
X78921943Y61838155D01*
X79021805Y61688702D01*
X79062291Y61628111D01*
X79272335Y61487763D01*
X79520100Y61438480D01*
X79582641Y61450920D01*
X93456859Y61450920D01*
X93519400Y61438480D01*
X93767165Y61487763D01*
X93977209Y61628111D01*
X94117557Y61838155D01*
X94154400Y62023379D01*
X94154400Y62023380D01*
X94166840Y62085920D01*
X94154400Y62148461D01*
X94154400Y76024079D01*
X94166840Y76086620D01*
X97922660Y76086620D01*
X97935101Y76024074D01*
X97935100Y62148461D01*
X97922660Y62085920D01*
X97971943Y61838155D01*
X98071805Y61688702D01*
X98112291Y61628111D01*
X98322335Y61487763D01*
X98570100Y61438480D01*
X98632641Y61450920D01*
X112506859Y61450920D01*
X112569400Y61438480D01*
X112817165Y61487763D01*
X113027209Y61628111D01*
X113167557Y61838155D01*
X113204400Y62023379D01*
X113204400Y62023380D01*
X113216840Y62085920D01*
X113204400Y62148461D01*
X113204400Y76024079D01*
X113216840Y76086620D01*
X116972960Y76086620D01*
X116985401Y76024074D01*
X116985400Y62148461D01*
X116972960Y62085920D01*
X117022243Y61838155D01*
X117122105Y61688702D01*
X117162591Y61628111D01*
X117372635Y61487763D01*
X117620400Y61438480D01*
X117682941Y61450920D01*
X131556859Y61450920D01*
X131619400Y61438480D01*
X131867165Y61487763D01*
X132077209Y61628111D01*
X132217557Y61838155D01*
X132254400Y62023379D01*
X132254400Y62023380D01*
X132266840Y62085920D01*
X132254400Y62148461D01*
X132254400Y76024079D01*
X132266840Y76086620D01*
X136022960Y76086620D01*
X136035401Y76024074D01*
X136035400Y62148461D01*
X136022960Y62085920D01*
X136072243Y61838155D01*
X136172105Y61688702D01*
X136212591Y61628111D01*
X136422635Y61487763D01*
X136670400Y61438480D01*
X136732941Y61450920D01*
X150606859Y61450920D01*
X150669400Y61438480D01*
X150917165Y61487763D01*
X151127209Y61628111D01*
X151267557Y61838155D01*
X151304400Y62023379D01*
X151304400Y62023380D01*
X151316840Y62085920D01*
X151304400Y62148461D01*
X151304400Y76024079D01*
X151316840Y76086620D01*
X155072960Y76086620D01*
X155085401Y76024074D01*
X155085400Y62148461D01*
X155072960Y62085920D01*
X155122243Y61838155D01*
X155222105Y61688702D01*
X155262591Y61628111D01*
X155472635Y61487763D01*
X155720400Y61438480D01*
X155782941Y61450920D01*
X169656859Y61450920D01*
X169719400Y61438480D01*
X169967165Y61487763D01*
X170177209Y61628111D01*
X170317557Y61838155D01*
X170354400Y62023379D01*
X170354400Y62023380D01*
X170366840Y62085920D01*
X170354400Y62148461D01*
X170354400Y76024079D01*
X170366840Y76086620D01*
X174122960Y76086620D01*
X174135401Y76024074D01*
X174135400Y62148461D01*
X174122960Y62085920D01*
X174172243Y61838155D01*
X174272105Y61688702D01*
X174312591Y61628111D01*
X174522635Y61487763D01*
X174770400Y61438480D01*
X174832941Y61450920D01*
X188706859Y61450920D01*
X188769400Y61438480D01*
X189017165Y61487763D01*
X189227209Y61628111D01*
X189367557Y61838155D01*
X189404400Y62023379D01*
X189404400Y62023380D01*
X189416840Y62085920D01*
X189404400Y62148461D01*
X189404400Y76024079D01*
X189416840Y76086620D01*
X193172960Y76086620D01*
X193185401Y76024074D01*
X193185400Y62148461D01*
X193172960Y62085920D01*
X193222243Y61838155D01*
X193322105Y61688702D01*
X193362591Y61628111D01*
X193572635Y61487763D01*
X193820400Y61438480D01*
X193882941Y61450920D01*
X207756859Y61450920D01*
X207819400Y61438480D01*
X208067165Y61487763D01*
X208277209Y61628111D01*
X208417557Y61838155D01*
X208454400Y62023379D01*
X208454400Y62023380D01*
X208466840Y62085920D01*
X208454400Y62148461D01*
X208454400Y76024079D01*
X208466840Y76086620D01*
X212222960Y76086620D01*
X212235401Y76024074D01*
X212235400Y62148461D01*
X212222960Y62085920D01*
X212272243Y61838155D01*
X212372105Y61688702D01*
X212412591Y61628111D01*
X212622635Y61487763D01*
X212870400Y61438480D01*
X212932941Y61450920D01*
X226806859Y61450920D01*
X226869400Y61438480D01*
X227117165Y61487763D01*
X227327209Y61628111D01*
X227467557Y61838155D01*
X227504400Y62023379D01*
X227504400Y62023380D01*
X227516840Y62085920D01*
X227504400Y62148461D01*
X227504400Y76024079D01*
X227516840Y76086620D01*
X231272960Y76086620D01*
X231285401Y76024074D01*
X231285400Y62148461D01*
X231272960Y62085920D01*
X231322243Y61838155D01*
X231422105Y61688702D01*
X231462591Y61628111D01*
X231672635Y61487763D01*
X231920400Y61438480D01*
X231982941Y61450920D01*
X245856859Y61450920D01*
X245919400Y61438480D01*
X246167165Y61487763D01*
X246377209Y61628111D01*
X246517557Y61838155D01*
X246554400Y62023379D01*
X246554400Y62023380D01*
X246566840Y62085920D01*
X246554400Y62148461D01*
X246554400Y76024079D01*
X246566840Y76086620D01*
X250322960Y76086620D01*
X250335401Y76024074D01*
X250335400Y62148461D01*
X250322960Y62085920D01*
X250372243Y61838155D01*
X250472105Y61688702D01*
X250512591Y61628111D01*
X250722635Y61487763D01*
X250970400Y61438480D01*
X251032941Y61450920D01*
X264906859Y61450920D01*
X264969400Y61438480D01*
X265217165Y61487763D01*
X265427209Y61628111D01*
X265567557Y61838155D01*
X265604400Y62023379D01*
X265604400Y62023380D01*
X265616840Y62085920D01*
X265604400Y62148461D01*
X265604400Y76024079D01*
X265616840Y76086620D01*
X274134960Y76086620D01*
X274147401Y76024074D01*
X274147400Y62148461D01*
X274134960Y62085920D01*
X274184243Y61838155D01*
X274284105Y61688702D01*
X274324591Y61628111D01*
X274534635Y61487763D01*
X274782400Y61438480D01*
X274844941Y61450920D01*
X288719859Y61450920D01*
X288782400Y61438480D01*
X289030165Y61487763D01*
X289240209Y61628111D01*
X289380557Y61838155D01*
X289417400Y62023379D01*
X289417400Y62023380D01*
X289429840Y62085920D01*
X289417400Y62148461D01*
X289417400Y76024079D01*
X289429840Y76086620D01*
X289380557Y76334385D01*
X289240209Y76544429D01*
X289030165Y76684777D01*
X288844941Y76721620D01*
X288782400Y76734060D01*
X288719859Y76721620D01*
X274844941Y76721620D01*
X274782400Y76734060D01*
X274719859Y76721620D01*
X274534635Y76684777D01*
X274324591Y76544429D01*
X274184243Y76334385D01*
X274134960Y76086620D01*
X265616840Y76086620D01*
X265567557Y76334385D01*
X265427209Y76544429D01*
X265217165Y76684777D01*
X265031941Y76721620D01*
X264969400Y76734060D01*
X264906859Y76721620D01*
X251032941Y76721620D01*
X250970400Y76734060D01*
X250907859Y76721620D01*
X250722635Y76684777D01*
X250512591Y76544429D01*
X250372243Y76334385D01*
X250322960Y76086620D01*
X246566840Y76086620D01*
X246517557Y76334385D01*
X246377209Y76544429D01*
X246167165Y76684777D01*
X245981941Y76721620D01*
X245919400Y76734060D01*
X245856859Y76721620D01*
X231982941Y76721620D01*
X231920400Y76734060D01*
X231857859Y76721620D01*
X231672635Y76684777D01*
X231462591Y76544429D01*
X231322243Y76334385D01*
X231272960Y76086620D01*
X227516840Y76086620D01*
X227467557Y76334385D01*
X227327209Y76544429D01*
X227117165Y76684777D01*
X226931941Y76721620D01*
X226869400Y76734060D01*
X226806859Y76721620D01*
X212932941Y76721620D01*
X212870400Y76734060D01*
X212807859Y76721620D01*
X212622635Y76684777D01*
X212412591Y76544429D01*
X212272243Y76334385D01*
X212222960Y76086620D01*
X208466840Y76086620D01*
X208417557Y76334385D01*
X208277209Y76544429D01*
X208067165Y76684777D01*
X207881941Y76721620D01*
X207819400Y76734060D01*
X207756859Y76721620D01*
X193882941Y76721620D01*
X193820400Y76734060D01*
X193757859Y76721620D01*
X193572635Y76684777D01*
X193362591Y76544429D01*
X193222243Y76334385D01*
X193172960Y76086620D01*
X189416840Y76086620D01*
X189367557Y76334385D01*
X189227209Y76544429D01*
X189017165Y76684777D01*
X188831941Y76721620D01*
X188769400Y76734060D01*
X188706859Y76721620D01*
X174832941Y76721620D01*
X174770400Y76734060D01*
X174707859Y76721620D01*
X174522635Y76684777D01*
X174312591Y76544429D01*
X174172243Y76334385D01*
X174122960Y76086620D01*
X170366840Y76086620D01*
X170317557Y76334385D01*
X170177209Y76544429D01*
X169967165Y76684777D01*
X169781941Y76721620D01*
X169719400Y76734060D01*
X169656859Y76721620D01*
X155782941Y76721620D01*
X155720400Y76734060D01*
X155657859Y76721620D01*
X155472635Y76684777D01*
X155262591Y76544429D01*
X155122243Y76334385D01*
X155072960Y76086620D01*
X151316840Y76086620D01*
X151267557Y76334385D01*
X151127209Y76544429D01*
X150917165Y76684777D01*
X150731941Y76721620D01*
X150669400Y76734060D01*
X150606859Y76721620D01*
X136732941Y76721620D01*
X136670400Y76734060D01*
X136607859Y76721620D01*
X136422635Y76684777D01*
X136212591Y76544429D01*
X136072243Y76334385D01*
X136022960Y76086620D01*
X132266840Y76086620D01*
X132217557Y76334385D01*
X132077209Y76544429D01*
X131867165Y76684777D01*
X131681941Y76721620D01*
X131619400Y76734060D01*
X131556859Y76721620D01*
X117682941Y76721620D01*
X117620400Y76734060D01*
X117557859Y76721620D01*
X117372635Y76684777D01*
X117162591Y76544429D01*
X117022243Y76334385D01*
X116972960Y76086620D01*
X113216840Y76086620D01*
X113167557Y76334385D01*
X113027209Y76544429D01*
X112817165Y76684777D01*
X112631941Y76721620D01*
X112569400Y76734060D01*
X112506859Y76721620D01*
X98632641Y76721620D01*
X98570100Y76734060D01*
X98507559Y76721620D01*
X98322335Y76684777D01*
X98112291Y76544429D01*
X97971943Y76334385D01*
X97922660Y76086620D01*
X94166840Y76086620D01*
X94117557Y76334385D01*
X93977209Y76544429D01*
X93767165Y76684777D01*
X93581941Y76721620D01*
X93519400Y76734060D01*
X93456859Y76721620D01*
X79582641Y76721620D01*
X79520100Y76734060D01*
X79457559Y76721620D01*
X79272335Y76684777D01*
X79062291Y76544429D01*
X78921943Y76334385D01*
X78872660Y76086620D01*
X75116840Y76086620D01*
X75067557Y76334385D01*
X74927209Y76544429D01*
X74717165Y76684777D01*
X74531941Y76721620D01*
X74469400Y76734060D01*
X74406859Y76721620D01*
X60532641Y76721620D01*
X60470100Y76734060D01*
X60407559Y76721620D01*
X60222335Y76684777D01*
X60012291Y76544429D01*
X59871943Y76334385D01*
X59822660Y76086620D01*
X56066840Y76086620D01*
X56017557Y76334385D01*
X55877209Y76544429D01*
X55667165Y76684777D01*
X55481941Y76721620D01*
X55419400Y76734060D01*
X55356859Y76721620D01*
X41482641Y76721620D01*
X41420100Y76734060D01*
X41357559Y76721620D01*
X41172335Y76684777D01*
X40962291Y76544429D01*
X40821943Y76334385D01*
X40772660Y76086620D01*
X32254540Y76086620D01*
X32205257Y76334385D01*
X32064909Y76544429D01*
X31854865Y76684777D01*
X31669641Y76721620D01*
X31607100Y76734060D01*
X31544559Y76721620D01*
X17670101Y76721620D01*
X17607560Y76734060D01*
X17545019Y76721620D01*
X17359795Y76684777D01*
X17149751Y76544429D01*
X17009403Y76334385D01*
X16960120Y76086620D01*
X-4761190Y76086620D01*
X-4761190Y78090129D01*
X-4703924Y78489999D01*
X-4555646Y78816118D01*
X-4321796Y79087515D01*
X-4021177Y79282366D01*
X-3656917Y79391303D01*
X-3467626Y79405370D01*
X295548569Y79405370D01*
X295948439Y79348104D01*
G36*
X66690701Y808200D02*
X53961400Y808200D01*
X53961400Y13539120D01*
X66690700Y13539120D01*
X66690701Y808200D01*
X66690701Y808200D01*
G37*
X66690701Y808200D02*
X53961400Y808200D01*
X53961400Y13539120D01*
X66690700Y13539120D01*
X66690701Y808200D01*
G36*
X211947401Y808200D02*
X199217400Y808200D01*
X199217400Y13539120D01*
X211947400Y13539120D01*
X211947401Y808200D01*
X211947401Y808200D01*
G37*
X211947401Y808200D02*
X199217400Y808200D01*
X199217400Y13539120D01*
X211947400Y13539120D01*
X211947401Y808200D01*
G36*
X88121901Y808200D02*
X75392600Y808200D01*
X75392600Y13539120D01*
X88121900Y13539120D01*
X88121901Y808200D01*
X88121901Y808200D01*
G37*
X88121901Y808200D02*
X75392600Y808200D01*
X75392600Y13539120D01*
X88121900Y13539120D01*
X88121901Y808200D01*
G36*
X190515401Y808200D02*
X177786400Y808200D01*
X177786400Y13539120D01*
X190515400Y13539120D01*
X190515401Y808200D01*
X190515401Y808200D01*
G37*
X190515401Y808200D02*
X177786400Y808200D01*
X177786400Y13539120D01*
X190515400Y13539120D01*
X190515401Y808200D01*
G36*
X107171901Y808200D02*
X94442600Y808200D01*
X94442600Y13539120D01*
X107171900Y13539120D01*
X107171901Y808200D01*
X107171901Y808200D01*
G37*
X107171901Y808200D02*
X94442600Y808200D01*
X94442600Y13539120D01*
X107171900Y13539120D01*
X107171901Y808200D01*
G36*
X230997401Y808200D02*
X218267400Y808200D01*
X218267400Y13539120D01*
X230997400Y13539120D01*
X230997401Y808200D01*
X230997401Y808200D01*
G37*
X230997401Y808200D02*
X218267400Y808200D01*
X218267400Y13539120D01*
X230997400Y13539120D01*
X230997401Y808200D01*
G36*
X252428401Y808200D02*
X239698400Y808200D01*
X239698400Y13539120D01*
X252428400Y13539120D01*
X252428401Y808200D01*
X252428401Y808200D01*
G37*
X252428401Y808200D02*
X239698400Y808200D01*
X239698400Y13539120D01*
X252428400Y13539120D01*
X252428401Y808200D01*
G36*
X128603401Y808200D02*
X115873400Y808200D01*
X115873400Y13539120D01*
X128603400Y13539120D01*
X128603401Y808200D01*
X128603401Y808200D01*
G37*
X128603401Y808200D02*
X115873400Y808200D01*
X115873400Y13539120D01*
X128603400Y13539120D01*
X128603401Y808200D01*
G36*
X168659400Y809580D02*
X137730400Y809580D01*
X137730400Y13539120D01*
X168659401Y13539120D01*
X168659400Y809580D01*
X168659400Y809580D01*
G37*
X168659400Y809580D02*
X137730400Y809580D01*
X137730400Y13539120D01*
X168659401Y13539120D01*
X168659400Y809580D01*
G36*
X235759401Y24620720D02*
X223030400Y24620720D01*
X223030400Y37351620D01*
X235759400Y37351620D01*
X235759401Y24620720D01*
X235759401Y24620720D01*
G37*
X235759401Y24620720D02*
X223030400Y24620720D01*
X223030400Y37351620D01*
X235759400Y37351620D01*
X235759401Y24620720D01*
G36*
X102409401Y24620720D02*
X89680100Y24620720D01*
X89680100Y37351620D01*
X102409400Y37351620D01*
X102409401Y24620720D01*
X102409401Y24620720D01*
G37*
X102409401Y24620720D02*
X89680100Y24620720D01*
X89680100Y37351620D01*
X102409400Y37351620D01*
X102409401Y24620720D01*
G36*
X159559401Y24620720D02*
X146830400Y24620720D01*
X146830400Y37351620D01*
X159559400Y37351620D01*
X159559401Y24620720D01*
X159559401Y24620720D01*
G37*
X159559401Y24620720D02*
X146830400Y24620720D01*
X146830400Y37351620D01*
X159559400Y37351620D01*
X159559401Y24620720D01*
G36*
X216709401Y24620720D02*
X203980400Y24620720D01*
X203980400Y37351620D01*
X216709400Y37351620D01*
X216709401Y24620720D01*
X216709401Y24620720D01*
G37*
X216709401Y24620720D02*
X203980400Y24620720D01*
X203980400Y37351620D01*
X216709400Y37351620D01*
X216709401Y24620720D01*
G36*
X45259401Y24620720D02*
X32530100Y24620720D01*
X32530100Y37351620D01*
X45259400Y37351620D01*
X45259401Y24620720D01*
X45259401Y24620720D01*
G37*
X45259401Y24620720D02*
X32530100Y24620720D01*
X32530100Y37351620D01*
X45259400Y37351620D01*
X45259401Y24620720D01*
G36*
X121459401Y24620720D02*
X108728700Y24620720D01*
X108728700Y37351620D01*
X121459400Y37351620D01*
X121459401Y24620720D01*
X121459401Y24620720D01*
G37*
X121459401Y24620720D02*
X108728700Y24620720D01*
X108728700Y37351620D01*
X121459400Y37351620D01*
X121459401Y24620720D01*
G36*
X292909401Y24620720D02*
X280180400Y24620720D01*
X280180400Y37351620D01*
X292909400Y37351620D01*
X292909401Y24620720D01*
X292909401Y24620720D01*
G37*
X292909401Y24620720D02*
X280180400Y24620720D01*
X280180400Y37351620D01*
X292909400Y37351620D01*
X292909401Y24620720D01*
G36*
X64309401Y24620720D02*
X51580100Y24620720D01*
X51580100Y37351620D01*
X64309400Y37351620D01*
X64309401Y24620720D01*
X64309401Y24620720D01*
G37*
X64309401Y24620720D02*
X51580100Y24620720D01*
X51580100Y37351620D01*
X64309400Y37351620D01*
X64309401Y24620720D01*
G36*
X197659401Y24620720D02*
X184930400Y24620720D01*
X184930400Y37351620D01*
X197659400Y37351620D01*
X197659401Y24620720D01*
X197659401Y24620720D01*
G37*
X197659401Y24620720D02*
X184930400Y24620720D01*
X184930400Y37351620D01*
X197659400Y37351620D01*
X197659401Y24620720D01*
G36*
X140509401Y24620720D02*
X127778400Y24620720D01*
X127778400Y37351620D01*
X140509400Y37351620D01*
X140509401Y24620720D01*
X140509401Y24620720D01*
G37*
X140509401Y24620720D02*
X127778400Y24620720D01*
X127778400Y37351620D01*
X140509400Y37351620D01*
X140509401Y24620720D01*
G36*
X273859401Y24620720D02*
X261130400Y24620720D01*
X261130400Y37351620D01*
X273859400Y37351620D01*
X273859401Y24620720D01*
X273859401Y24620720D01*
G37*
X273859401Y24620720D02*
X261130400Y24620720D01*
X261130400Y37351620D01*
X273859400Y37351620D01*
X273859401Y24620720D01*
G36*
X254809401Y24620720D02*
X242080400Y24620720D01*
X242080400Y37351620D01*
X254809400Y37351620D01*
X254809401Y24620720D01*
X254809401Y24620720D01*
G37*
X254809401Y24620720D02*
X242080400Y24620720D01*
X242080400Y37351620D01*
X254809400Y37351620D01*
X254809401Y24620720D01*
G36*
X178609401Y24620720D02*
X165880400Y24620720D01*
X165880400Y37351620D01*
X178609400Y37351620D01*
X178609401Y24620720D01*
X178609401Y24620720D01*
G37*
X178609401Y24620720D02*
X165880400Y24620720D01*
X165880400Y37351620D01*
X178609400Y37351620D01*
X178609401Y24620720D01*
G36*
X26209601Y24620720D02*
X13480050Y24620720D01*
X13480050Y37351620D01*
X26209600Y37351620D01*
X26209601Y24620720D01*
X26209601Y24620720D01*
G37*
X26209601Y24620720D02*
X13480050Y24620720D01*
X13480050Y37351620D01*
X26209600Y37351620D01*
X26209601Y24620720D01*
G36*
X83359401Y24620720D02*
X70630100Y24620720D01*
X70630100Y37351620D01*
X83359400Y37351620D01*
X83359401Y24620720D01*
X83359401Y24620720D01*
G37*
X83359401Y24620720D02*
X70630100Y24620720D01*
X70630100Y37351620D01*
X83359400Y37351620D01*
X83359401Y24620720D01*
G36*
X88121901Y43670920D02*
X75392600Y43670920D01*
X75392600Y56401620D01*
X88121900Y56401620D01*
X88121901Y43670920D01*
X88121901Y43670920D01*
G37*
X88121901Y43670920D02*
X75392600Y43670920D01*
X75392600Y56401620D01*
X88121900Y56401620D01*
X88121901Y43670920D01*
G36*
X192897401Y43670920D02*
X180167400Y43670920D01*
X180167400Y56401620D01*
X192897400Y56401620D01*
X192897401Y43670920D01*
X192897401Y43670920D01*
G37*
X192897401Y43670920D02*
X180167400Y43670920D01*
X180167400Y56401620D01*
X192897400Y56401620D01*
X192897401Y43670920D01*
G36*
X126222401Y43670920D02*
X113492400Y43670920D01*
X113492400Y56401620D01*
X126222400Y56401620D01*
X126222401Y43670920D01*
X126222401Y43670920D01*
G37*
X126222401Y43670920D02*
X113492400Y43670920D01*
X113492400Y56401620D01*
X126222400Y56401620D01*
X126222401Y43670920D01*
G36*
X145272401Y43670920D02*
X132542400Y43670920D01*
X132542400Y56401620D01*
X145272400Y56401620D01*
X145272401Y43670920D01*
X145272401Y43670920D01*
G37*
X145272401Y43670920D02*
X132542400Y43670920D01*
X132542400Y56401620D01*
X145272400Y56401620D01*
X145272401Y43670920D01*
G36*
X211947401Y43670920D02*
X199217400Y43670920D01*
X199217400Y56401620D01*
X211947400Y56401620D01*
X211947401Y43670920D01*
X211947401Y43670920D01*
G37*
X211947401Y43670920D02*
X199217400Y43670920D01*
X199217400Y56401620D01*
X211947400Y56401620D01*
X211947401Y43670920D01*
G36*
X69071901Y43670920D02*
X56342600Y43670920D01*
X56342600Y56401620D01*
X69071900Y56401620D01*
X69071901Y43670920D01*
X69071901Y43670920D01*
G37*
X69071901Y43670920D02*
X56342600Y43670920D01*
X56342600Y56401620D01*
X69071900Y56401620D01*
X69071901Y43670920D01*
G36*
X107171901Y43670920D02*
X94442600Y43670920D01*
X94442600Y56401620D01*
X107171900Y56401620D01*
X107171901Y43670920D01*
X107171901Y43670920D01*
G37*
X107171901Y43670920D02*
X94442600Y43670920D01*
X94442600Y56401620D01*
X107171900Y56401620D01*
X107171901Y43670920D01*
G36*
X173847401Y43670920D02*
X161117400Y43670920D01*
X161117400Y56401620D01*
X173847400Y56401620D01*
X173847401Y43670920D01*
X173847401Y43670920D01*
G37*
X173847401Y43670920D02*
X161117400Y43670920D01*
X161117400Y56401620D01*
X173847400Y56401620D01*
X173847401Y43670920D01*
G36*
X230997401Y43670920D02*
X218267400Y43670920D01*
X218267400Y56401620D01*
X230997400Y56401620D01*
X230997401Y43670920D01*
X230997401Y43670920D01*
G37*
X230997401Y43670920D02*
X218267400Y43670920D01*
X218267400Y56401620D01*
X230997400Y56401620D01*
X230997401Y43670920D01*
G36*
X269097401Y43670920D02*
X256367400Y43670920D01*
X256367400Y56401620D01*
X269097400Y56401620D01*
X269097401Y43670920D01*
X269097401Y43670920D01*
G37*
X269097401Y43670920D02*
X256367400Y43670920D01*
X256367400Y56401620D01*
X269097400Y56401620D01*
X269097401Y43670920D01*
G36*
X28590801Y43670920D02*
X15861310Y43670920D01*
X15861310Y56401620D01*
X28590800Y56401620D01*
X28590801Y43670920D01*
X28590801Y43670920D01*
G37*
X28590801Y43670920D02*
X15861310Y43670920D01*
X15861310Y56401620D01*
X28590800Y56401620D01*
X28590801Y43670920D01*
G36*
X290528401Y43670920D02*
X277798400Y43670920D01*
X277798400Y56401620D01*
X290528400Y56401620D01*
X290528401Y43670920D01*
X290528401Y43670920D01*
G37*
X290528401Y43670920D02*
X277798400Y43670920D01*
X277798400Y56401620D01*
X290528400Y56401620D01*
X290528401Y43670920D01*
G36*
X250047401Y43670920D02*
X237317400Y43670920D01*
X237317400Y56401620D01*
X250047400Y56401620D01*
X250047401Y43670920D01*
X250047401Y43670920D01*
G37*
X250047401Y43670920D02*
X237317400Y43670920D01*
X237317400Y56401620D01*
X250047400Y56401620D01*
X250047401Y43670920D01*
G36*
X50021901Y43670920D02*
X37292600Y43670920D01*
X37292600Y56401620D01*
X50021900Y56401620D01*
X50021901Y43670920D01*
X50021901Y43670920D01*
G37*
X50021901Y43670920D02*
X37292600Y43670920D01*
X37292600Y56401620D01*
X50021900Y56401620D01*
X50021901Y43670920D01*
G36*
X245284401Y62720920D02*
X232555400Y62720920D01*
X232555400Y75451620D01*
X245284400Y75451620D01*
X245284401Y62720920D01*
X245284401Y62720920D01*
G37*
X245284401Y62720920D02*
X232555400Y62720920D01*
X232555400Y75451620D01*
X245284400Y75451620D01*
X245284401Y62720920D01*
G36*
X30972101Y62720920D02*
X18242560Y62720920D01*
X18242560Y75451620D01*
X30972100Y75451620D01*
X30972101Y62720920D01*
X30972101Y62720920D01*
G37*
X30972101Y62720920D02*
X18242560Y62720920D01*
X18242560Y75451620D01*
X30972100Y75451620D01*
X30972101Y62720920D01*
G36*
X264334401Y62720920D02*
X251605400Y62720920D01*
X251605400Y75451620D01*
X264334400Y75451620D01*
X264334401Y62720920D01*
X264334401Y62720920D01*
G37*
X264334401Y62720920D02*
X251605400Y62720920D01*
X251605400Y75451620D01*
X264334400Y75451620D01*
X264334401Y62720920D01*
G36*
X150034401Y62720920D02*
X137305400Y62720920D01*
X137305400Y75451620D01*
X150034400Y75451620D01*
X150034401Y62720920D01*
X150034401Y62720920D01*
G37*
X150034401Y62720920D02*
X137305400Y62720920D01*
X137305400Y75451620D01*
X150034400Y75451620D01*
X150034401Y62720920D01*
G36*
X169084401Y62720920D02*
X156355400Y62720920D01*
X156355400Y75451620D01*
X169084400Y75451620D01*
X169084401Y62720920D01*
X169084401Y62720920D01*
G37*
X169084401Y62720920D02*
X156355400Y62720920D01*
X156355400Y75451620D01*
X169084400Y75451620D01*
X169084401Y62720920D01*
G36*
X226234401Y62720920D02*
X213505400Y62720920D01*
X213505400Y75451620D01*
X226234400Y75451620D01*
X226234401Y62720920D01*
X226234401Y62720920D01*
G37*
X226234401Y62720920D02*
X213505400Y62720920D01*
X213505400Y75451620D01*
X226234400Y75451620D01*
X226234401Y62720920D01*
G36*
X73834401Y62720920D02*
X61105100Y62720920D01*
X61105100Y75451620D01*
X73834400Y75451620D01*
X73834401Y62720920D01*
X73834401Y62720920D01*
G37*
X73834401Y62720920D02*
X61105100Y62720920D01*
X61105100Y75451620D01*
X73834400Y75451620D01*
X73834401Y62720920D01*
G36*
X188134401Y62720920D02*
X175405400Y62720920D01*
X175405400Y75451620D01*
X188134400Y75451620D01*
X188134401Y62720920D01*
X188134401Y62720920D01*
G37*
X188134401Y62720920D02*
X175405400Y62720920D01*
X175405400Y75451620D01*
X188134400Y75451620D01*
X188134401Y62720920D01*
G36*
X288147401Y62720920D02*
X275417400Y62720920D01*
X275417400Y75451620D01*
X288147400Y75451620D01*
X288147401Y62720920D01*
X288147401Y62720920D01*
G37*
X288147401Y62720920D02*
X275417400Y62720920D01*
X275417400Y75451620D01*
X288147400Y75451620D01*
X288147401Y62720920D01*
G36*
X54784401Y62720920D02*
X42055100Y62720920D01*
X42055100Y75451620D01*
X54784400Y75451620D01*
X54784401Y62720920D01*
X54784401Y62720920D01*
G37*
X54784401Y62720920D02*
X42055100Y62720920D01*
X42055100Y75451620D01*
X54784400Y75451620D01*
X54784401Y62720920D01*
G36*
X111934401Y62720920D02*
X99205100Y62720920D01*
X99205100Y75451620D01*
X111934400Y75451620D01*
X111934401Y62720920D01*
X111934401Y62720920D01*
G37*
X111934401Y62720920D02*
X99205100Y62720920D01*
X99205100Y75451620D01*
X111934400Y75451620D01*
X111934401Y62720920D01*
G36*
X92884401Y62720920D02*
X80155100Y62720920D01*
X80155100Y75451620D01*
X92884400Y75451620D01*
X92884401Y62720920D01*
X92884401Y62720920D01*
G37*
X92884401Y62720920D02*
X80155100Y62720920D01*
X80155100Y75451620D01*
X92884400Y75451620D01*
X92884401Y62720920D01*
G36*
X207184401Y62720920D02*
X194455400Y62720920D01*
X194455400Y75451620D01*
X207184400Y75451620D01*
X207184401Y62720920D01*
X207184401Y62720920D01*
G37*
X207184401Y62720920D02*
X194455400Y62720920D01*
X194455400Y75451620D01*
X207184400Y75451620D01*
X207184401Y62720920D01*
G36*
X130984401Y62720920D02*
X118255400Y62720920D01*
X118255400Y75451620D01*
X130984400Y75451620D01*
X130984401Y62720920D01*
X130984401Y62720920D01*
G37*
X130984401Y62720920D02*
X118255400Y62720920D01*
X118255400Y75451620D01*
X130984400Y75451620D01*
X130984401Y62720920D01*
M02*
