G04 #@! TF.GenerationSoftware,KiCad,Pcbnew,(6.0.0-rc1-dev-1215-g431bdc7a3)*
G04 #@! TF.CreationDate,2018-12-02T19:35:57+01:00*
G04 #@! TF.ProjectId,wave,77617665-2e6b-4696-9361-645f70636258,rev?*
G04 #@! TF.SameCoordinates,Original*
G04 #@! TF.FileFunction,Soldermask,Top*
G04 #@! TF.FilePolarity,Negative*
%FSLAX46Y46*%
G04 Gerber Fmt 4.6, Leading zero omitted, Abs format (unit mm)*
G04 Created by KiCad (PCBNEW (6.0.0-rc1-dev-1215-g431bdc7a3)) date 2018 December 02, Sunday 19:35:57*
%MOMM*%
%LPD*%
G01*
G04 APERTURE LIST*
%ADD10C,0.150000*%
%ADD11C,0.300000*%
%ADD12C,0.100000*%
G04 APERTURE END LIST*
D10*
X1247440Y53245548D02*
X247440Y53245548D01*
X247440Y53507453D01*
X295059Y53664596D01*
X390298Y53769358D01*
X485536Y53821739D01*
X676012Y53874120D01*
X818869Y53874120D01*
X1009345Y53821739D01*
X1104583Y53769358D01*
X1199821Y53664596D01*
X1247440Y53507453D01*
X1247440Y53245548D01*
X723631Y54345548D02*
X723631Y54712215D01*
X1247440Y54869358D02*
X1247440Y54345548D01*
X247440Y54345548D01*
X247440Y54869358D01*
X1199821Y55288405D02*
X1247440Y55445548D01*
X1247440Y55707453D01*
X1199821Y55812215D01*
X1152202Y55864596D01*
X1056964Y55916977D01*
X961726Y55916977D01*
X866488Y55864596D01*
X818869Y55812215D01*
X771250Y55707453D01*
X723631Y55497929D01*
X676012Y55393167D01*
X628393Y55340786D01*
X533155Y55288405D01*
X437917Y55288405D01*
X342679Y55340786D01*
X295059Y55393167D01*
X247440Y55497929D01*
X247440Y55759834D01*
X295059Y55916977D01*
X1247440Y56388405D02*
X247440Y56388405D01*
X295059Y57488405D02*
X247440Y57383643D01*
X247440Y57226500D01*
X295059Y57069358D01*
X390298Y56964596D01*
X485536Y56912215D01*
X676012Y56859834D01*
X818869Y56859834D01*
X1009345Y56912215D01*
X1104583Y56964596D01*
X1199821Y57069358D01*
X1247440Y57226500D01*
X1247440Y57331262D01*
X1199821Y57488405D01*
X1152202Y57540786D01*
X818869Y57540786D01*
X818869Y57331262D01*
X1247440Y58012215D02*
X247440Y58012215D01*
X1247440Y58640786D01*
X247440Y58640786D01*
X723631Y59164596D02*
X723631Y59531262D01*
X1247440Y59688405D02*
X1247440Y59164596D01*
X247440Y59164596D01*
X247440Y59688405D01*
X1247440Y60159834D02*
X247440Y60159834D01*
X247440Y60421739D01*
X295059Y60578881D01*
X390298Y60683643D01*
X485536Y60736024D01*
X676012Y60788405D01*
X818869Y60788405D01*
X1009345Y60736024D01*
X1104583Y60683643D01*
X1199821Y60578881D01*
X1247440Y60421739D01*
X1247440Y60159834D01*
X723631Y62464596D02*
X771250Y62621739D01*
X818869Y62674120D01*
X914107Y62726500D01*
X1056964Y62726500D01*
X1152202Y62674120D01*
X1199821Y62621739D01*
X1247440Y62516977D01*
X1247440Y62097929D01*
X247440Y62097929D01*
X247440Y62464596D01*
X295059Y62569358D01*
X342679Y62621739D01*
X437917Y62674120D01*
X533155Y62674120D01*
X628393Y62621739D01*
X676012Y62569358D01*
X723631Y62464596D01*
X723631Y62097929D01*
X771250Y63407453D02*
X1247440Y63407453D01*
X247440Y63040786D02*
X771250Y63407453D01*
X247440Y63774120D01*
X771250Y65659834D02*
X723631Y65607453D01*
X676012Y65502691D01*
X676012Y65397929D01*
X723631Y65293167D01*
X771250Y65240786D01*
X866488Y65188405D01*
X961726Y65188405D01*
X1056964Y65240786D01*
X1104583Y65293167D01*
X1152202Y65397929D01*
X1152202Y65502691D01*
X1104583Y65607453D01*
X1056964Y65659834D01*
X676012Y65659834D02*
X1056964Y65659834D01*
X1104583Y65712215D01*
X1104583Y65764596D01*
X1056964Y65869358D01*
X961726Y65921739D01*
X723631Y65921739D01*
X580774Y65816977D01*
X485536Y65659834D01*
X437917Y65450310D01*
X485536Y65240786D01*
X580774Y65083643D01*
X723631Y64978881D01*
X914107Y64926500D01*
X1104583Y64978881D01*
X1247440Y65083643D01*
X1342679Y65240786D01*
X1390298Y65450310D01*
X1342679Y65659834D01*
X1247440Y65816977D01*
X1199821Y66812215D02*
X1247440Y66707453D01*
X1247440Y66497929D01*
X1199821Y66393167D01*
X1104583Y66340786D01*
X723631Y66340786D01*
X628393Y66393167D01*
X580774Y66497929D01*
X580774Y66707453D01*
X628393Y66812215D01*
X723631Y66864596D01*
X818869Y66864596D01*
X914107Y66340786D01*
X1199821Y67283643D02*
X1247440Y67388405D01*
X1247440Y67597929D01*
X1199821Y67702691D01*
X1104583Y67755072D01*
X1056964Y67755072D01*
X961726Y67702691D01*
X914107Y67597929D01*
X914107Y67440786D01*
X866488Y67336024D01*
X771250Y67283643D01*
X723631Y67283643D01*
X628393Y67336024D01*
X580774Y67440786D01*
X580774Y67597929D01*
X628393Y67702691D01*
X580774Y68121739D02*
X1247440Y68331262D01*
X771250Y68540786D01*
X1247440Y68750310D01*
X580774Y68959834D01*
X1247440Y69850310D02*
X723631Y69850310D01*
X628393Y69797929D01*
X580774Y69693167D01*
X580774Y69483643D01*
X628393Y69378881D01*
X1199821Y69850310D02*
X1247440Y69745548D01*
X1247440Y69483643D01*
X1199821Y69378881D01*
X1104583Y69326500D01*
X1009345Y69326500D01*
X914107Y69378881D01*
X866488Y69483643D01*
X866488Y69745548D01*
X818869Y69850310D01*
X1247440Y70374120D02*
X580774Y70374120D01*
X247440Y70374120D02*
X295060Y70321739D01*
X342679Y70374120D01*
X295060Y70426500D01*
X247440Y70374120D01*
X342679Y70374120D01*
X342679Y71683643D02*
X295060Y71736024D01*
X247440Y71840786D01*
X247440Y72102691D01*
X295060Y72207453D01*
X342679Y72259834D01*
X437917Y72312215D01*
X533155Y72312215D01*
X676012Y72259834D01*
X1247440Y71631262D01*
X1247440Y72312215D01*
X247440Y72993167D02*
X247440Y73097929D01*
X295060Y73202691D01*
X342679Y73255072D01*
X437917Y73307453D01*
X628393Y73359834D01*
X866488Y73359834D01*
X1056964Y73307453D01*
X1152202Y73255072D01*
X1199821Y73202691D01*
X1247440Y73097929D01*
X1247440Y72993167D01*
X1199821Y72888405D01*
X1152202Y72836024D01*
X1056964Y72783643D01*
X866488Y72731262D01*
X628393Y72731262D01*
X437917Y72783643D01*
X342679Y72836024D01*
X295060Y72888405D01*
X247440Y72993167D01*
X1247440Y74407453D02*
X1247440Y73778881D01*
X1247440Y74093167D02*
X247440Y74093167D01*
X390298Y73988405D01*
X485536Y73883643D01*
X533155Y73778881D01*
X676012Y75036024D02*
X628393Y74931262D01*
X580774Y74878881D01*
X485536Y74826500D01*
X437917Y74826500D01*
X342679Y74878881D01*
X295060Y74931262D01*
X247440Y75036024D01*
X247440Y75245548D01*
X295060Y75350310D01*
X342679Y75402691D01*
X437917Y75455072D01*
X485536Y75455072D01*
X580774Y75402691D01*
X628393Y75350310D01*
X676012Y75245548D01*
X676012Y75036024D01*
X723631Y74931262D01*
X771250Y74878881D01*
X866488Y74826500D01*
X1056964Y74826500D01*
X1152202Y74878881D01*
X1199821Y74931262D01*
X1247440Y75036024D01*
X1247440Y75245548D01*
X1199821Y75350310D01*
X1152202Y75402691D01*
X1056964Y75455072D01*
X866488Y75455072D01*
X771250Y75402691D01*
X723631Y75350310D01*
X676012Y75245548D01*
D11*
X-1302856Y53609834D02*
X-1302856Y55038405D01*
X-817142Y53324120D02*
X-2517142Y54324120D01*
X-817142Y55324120D01*
X-817142Y56324120D02*
X-2517142Y56324120D01*
X-817142Y58038405D01*
X-2517142Y58038405D01*
X-817142Y59466977D02*
X-2517142Y59466977D01*
X-1707618Y59466977D02*
X-1707618Y61181262D01*
X-817142Y61181262D02*
X-2517142Y61181262D01*
X-1707618Y62609834D02*
X-1707618Y63609834D01*
X-817142Y64038405D02*
X-817142Y62609834D01*
X-2517142Y62609834D01*
X-2517142Y64038405D01*
X-817142Y65324120D02*
X-2517142Y65324120D01*
X-2517142Y66038405D01*
X-2436190Y66466977D01*
X-2274285Y66752691D01*
X-2112380Y66895548D01*
X-1788570Y67038405D01*
X-1545713Y67038405D01*
X-1221904Y66895548D01*
X-1059999Y66752691D01*
X-898094Y66466977D01*
X-817142Y66038405D01*
X-817142Y65324120D01*
X-817142Y70038405D02*
X-1626666Y69038405D01*
X-817142Y68324120D02*
X-2517142Y68324120D01*
X-2517142Y69466977D01*
X-2436189Y69752691D01*
X-2355237Y69895548D01*
X-2193332Y70038405D01*
X-1950475Y70038405D01*
X-1788570Y69895548D01*
X-1707618Y69752691D01*
X-1626666Y69466977D01*
X-1626666Y68324120D01*
X-1302856Y71181262D02*
X-1302856Y72609834D01*
X-817142Y70895548D02*
X-2517142Y71895548D01*
X-817142Y72895548D01*
X-817142Y75324120D02*
X-817142Y73895548D01*
X-2517142Y73895548D01*
D12*
G36*
X64965087Y19162884D02*
X65064970Y19143016D01*
X65347234Y19026099D01*
X65601265Y18856361D01*
X65817301Y18640325D01*
X65987039Y18386294D01*
X66103956Y18104030D01*
X66163560Y17804380D01*
X66163560Y17498860D01*
X66103956Y17199210D01*
X65987039Y16916946D01*
X65817301Y16662915D01*
X65601265Y16446879D01*
X65347234Y16277141D01*
X65064970Y16160224D01*
X64965087Y16140356D01*
X64765322Y16100620D01*
X64459798Y16100620D01*
X64260033Y16140356D01*
X64160150Y16160224D01*
X63877886Y16277141D01*
X63623855Y16446879D01*
X63407819Y16662915D01*
X63238081Y16916946D01*
X63121164Y17199210D01*
X63061560Y17498860D01*
X63061560Y17804380D01*
X63121164Y18104030D01*
X63238081Y18386294D01*
X63407819Y18640325D01*
X63623855Y18856361D01*
X63877886Y19026099D01*
X64160150Y19143016D01*
X64260033Y19162884D01*
X64459798Y19202620D01*
X64765322Y19202620D01*
X64965087Y19162884D01*
X64965087Y19162884D01*
G37*
G36*
X239272587Y19639134D02*
X239372470Y19619266D01*
X239654734Y19502349D01*
X239908765Y19332611D01*
X240124801Y19116575D01*
X240294539Y18862544D01*
X240411456Y18580280D01*
X240471060Y18280630D01*
X240471060Y17975110D01*
X240411456Y17675460D01*
X240294539Y17393196D01*
X240124801Y17139165D01*
X239908765Y16923129D01*
X239654734Y16753391D01*
X239372470Y16636474D01*
X239272587Y16616606D01*
X239072822Y16576870D01*
X238767298Y16576870D01*
X238567533Y16616606D01*
X238467650Y16636474D01*
X238185386Y16753391D01*
X237931355Y16923129D01*
X237715319Y17139165D01*
X237545581Y17393196D01*
X237428664Y17675460D01*
X237369060Y17975110D01*
X237369060Y18280630D01*
X237428664Y18580280D01*
X237545581Y18862544D01*
X237715319Y19116575D01*
X237931355Y19332611D01*
X238185386Y19502349D01*
X238467650Y19619266D01*
X238567533Y19639134D01*
X238767298Y19678870D01*
X239072822Y19678870D01*
X239272587Y19639134D01*
X239272587Y19639134D01*
G37*
G36*
X184503837Y19639134D02*
X184603720Y19619266D01*
X184885984Y19502349D01*
X185140015Y19332611D01*
X185356051Y19116575D01*
X185525789Y18862544D01*
X185642706Y18580280D01*
X185702310Y18280630D01*
X185702310Y17975110D01*
X185642706Y17675460D01*
X185525789Y17393196D01*
X185356051Y17139165D01*
X185140015Y16923129D01*
X184885984Y16753391D01*
X184603720Y16636474D01*
X184503837Y16616606D01*
X184304072Y16576870D01*
X183998548Y16576870D01*
X183798783Y16616606D01*
X183698900Y16636474D01*
X183416636Y16753391D01*
X183162605Y16923129D01*
X182946569Y17139165D01*
X182776831Y17393196D01*
X182659914Y17675460D01*
X182600310Y17975110D01*
X182600310Y18280630D01*
X182659914Y18580280D01*
X182776831Y18862544D01*
X182946569Y19116575D01*
X183162605Y19332611D01*
X183416636Y19502349D01*
X183698900Y19619266D01*
X183798783Y19639134D01*
X183998548Y19678870D01*
X184304072Y19678870D01*
X184503837Y19639134D01*
X184503837Y19639134D01*
G37*
G36*
X122591337Y19639134D02*
X122691220Y19619266D01*
X122973484Y19502349D01*
X123227515Y19332611D01*
X123443551Y19116575D01*
X123613289Y18862544D01*
X123730206Y18580280D01*
X123789810Y18280630D01*
X123789810Y17975110D01*
X123730206Y17675460D01*
X123613289Y17393196D01*
X123443551Y17139165D01*
X123227515Y16923129D01*
X122973484Y16753391D01*
X122691220Y16636474D01*
X122591337Y16616606D01*
X122391572Y16576870D01*
X122086048Y16576870D01*
X121886283Y16616606D01*
X121786400Y16636474D01*
X121504136Y16753391D01*
X121250105Y16923129D01*
X121034069Y17139165D01*
X120864331Y17393196D01*
X120747414Y17675460D01*
X120687810Y17975110D01*
X120687810Y18280630D01*
X120747414Y18580280D01*
X120864331Y18862544D01*
X121034069Y19116575D01*
X121250105Y19332611D01*
X121504136Y19502349D01*
X121786400Y19619266D01*
X121886283Y19639134D01*
X122086048Y19678870D01*
X122391572Y19678870D01*
X122591337Y19639134D01*
X122591337Y19639134D01*
G37*
G36*
X9720087Y40594134D02*
X9819970Y40574266D01*
X10102234Y40457349D01*
X10356265Y40287611D01*
X10572301Y40071575D01*
X10742039Y39817544D01*
X10858956Y39535280D01*
X10918560Y39235630D01*
X10918560Y38930110D01*
X10858956Y38630460D01*
X10742039Y38348196D01*
X10572301Y38094165D01*
X10356265Y37878129D01*
X10102234Y37708391D01*
X9819970Y37591474D01*
X9720087Y37571606D01*
X9520322Y37531870D01*
X9214798Y37531870D01*
X9015033Y37571606D01*
X8915150Y37591474D01*
X8632886Y37708391D01*
X8378855Y37878129D01*
X8162819Y38094165D01*
X7993081Y38348196D01*
X7876164Y38630460D01*
X7816560Y38930110D01*
X7816560Y39235630D01*
X7876164Y39535280D01*
X7993081Y39817544D01*
X8162819Y40071575D01*
X8378855Y40287611D01*
X8632886Y40457349D01*
X8915150Y40574266D01*
X9015033Y40594134D01*
X9214798Y40633870D01*
X9520322Y40633870D01*
X9720087Y40594134D01*
X9720087Y40594134D01*
G37*
G36*
X277372587Y41546634D02*
X277472470Y41526766D01*
X277754734Y41409849D01*
X278008765Y41240111D01*
X278224801Y41024075D01*
X278394539Y40770044D01*
X278511456Y40487780D01*
X278571060Y40188130D01*
X278571060Y39882610D01*
X278511456Y39582960D01*
X278394539Y39300696D01*
X278224801Y39046665D01*
X278008765Y38830629D01*
X277754734Y38660891D01*
X277472470Y38543974D01*
X277372587Y38524106D01*
X277172822Y38484370D01*
X276867298Y38484370D01*
X276667533Y38524106D01*
X276567650Y38543974D01*
X276285386Y38660891D01*
X276031355Y38830629D01*
X275815319Y39046665D01*
X275645581Y39300696D01*
X275528664Y39582960D01*
X275469060Y39882610D01*
X275469060Y40188130D01*
X275528664Y40487780D01*
X275645581Y40770044D01*
X275815319Y41024075D01*
X276031355Y41240111D01*
X276285386Y41409849D01*
X276567650Y41526766D01*
X276667533Y41546634D01*
X276867298Y41586370D01*
X277172822Y41586370D01*
X277372587Y41546634D01*
X277372587Y41546634D01*
G37*
G36*
X153547587Y61072884D02*
X153647470Y61053016D01*
X153929734Y60936099D01*
X154183765Y60766361D01*
X154399801Y60550325D01*
X154569539Y60296294D01*
X154686456Y60014030D01*
X154746060Y59714380D01*
X154746060Y59408860D01*
X154686456Y59109210D01*
X154569539Y58826946D01*
X154399801Y58572915D01*
X154183765Y58356879D01*
X153929734Y58187141D01*
X153647470Y58070224D01*
X153547587Y58050356D01*
X153347822Y58010620D01*
X153042298Y58010620D01*
X152842533Y58050356D01*
X152742650Y58070224D01*
X152460386Y58187141D01*
X152206355Y58356879D01*
X151990319Y58572915D01*
X151820581Y58826946D01*
X151703664Y59109210D01*
X151644060Y59408860D01*
X151644060Y59714380D01*
X151703664Y60014030D01*
X151820581Y60296294D01*
X151990319Y60550325D01*
X152206355Y60766361D01*
X152460386Y60936099D01*
X152742650Y61053016D01*
X152842533Y61072884D01*
X153042298Y61112620D01*
X153347822Y61112620D01*
X153547587Y61072884D01*
X153547587Y61072884D01*
G37*
G36*
X210697587Y61549134D02*
X210797470Y61529266D01*
X211079734Y61412349D01*
X211333765Y61242611D01*
X211549801Y61026575D01*
X211719539Y60772544D01*
X211836456Y60490280D01*
X211896060Y60190630D01*
X211896060Y59885110D01*
X211836456Y59585460D01*
X211719539Y59303196D01*
X211549801Y59049165D01*
X211333765Y58833129D01*
X211079734Y58663391D01*
X210797470Y58546474D01*
X210697587Y58526606D01*
X210497822Y58486870D01*
X210192298Y58486870D01*
X209992533Y58526606D01*
X209892650Y58546474D01*
X209610386Y58663391D01*
X209356355Y58833129D01*
X209140319Y59049165D01*
X208970581Y59303196D01*
X208853664Y59585460D01*
X208794060Y59885110D01*
X208794060Y60190630D01*
X208853664Y60490280D01*
X208970581Y60772544D01*
X209140319Y61026575D01*
X209356355Y61242611D01*
X209610386Y61412349D01*
X209892650Y61529266D01*
X209992533Y61549134D01*
X210192298Y61588870D01*
X210497822Y61588870D01*
X210697587Y61549134D01*
X210697587Y61549134D01*
G37*
G36*
X96397587Y61549134D02*
X96497470Y61529266D01*
X96779734Y61412349D01*
X97033765Y61242611D01*
X97249801Y61026575D01*
X97419539Y60772544D01*
X97536456Y60490280D01*
X97596060Y60190630D01*
X97596060Y59885110D01*
X97536456Y59585460D01*
X97419539Y59303196D01*
X97249801Y59049165D01*
X97033765Y58833129D01*
X96779734Y58663391D01*
X96497470Y58546474D01*
X96397587Y58526606D01*
X96197822Y58486870D01*
X95892298Y58486870D01*
X95692533Y58526606D01*
X95592650Y58546474D01*
X95310386Y58663391D01*
X95056355Y58833129D01*
X94840319Y59049165D01*
X94670581Y59303196D01*
X94553664Y59585460D01*
X94494060Y59885110D01*
X94494060Y60190630D01*
X94553664Y60490280D01*
X94670581Y60772544D01*
X94840319Y61026575D01*
X95056355Y61242611D01*
X95310386Y61412349D01*
X95592650Y61529266D01*
X95692533Y61549134D01*
X95892298Y61588870D01*
X96197822Y61588870D01*
X96397587Y61549134D01*
X96397587Y61549134D01*
G37*
G36*
X270228837Y62025384D02*
X270328720Y62005516D01*
X270610984Y61888599D01*
X270865015Y61718861D01*
X271081051Y61502825D01*
X271250789Y61248794D01*
X271367706Y60966530D01*
X271427310Y60666880D01*
X271427310Y60361360D01*
X271367706Y60061710D01*
X271250789Y59779446D01*
X271081051Y59525415D01*
X270865015Y59309379D01*
X270610984Y59139641D01*
X270328720Y59022724D01*
X270228837Y59002856D01*
X270029072Y58963120D01*
X269723548Y58963120D01*
X269523783Y59002856D01*
X269423900Y59022724D01*
X269141636Y59139641D01*
X268887605Y59309379D01*
X268671569Y59525415D01*
X268501831Y59779446D01*
X268384914Y60061710D01*
X268325310Y60361360D01*
X268325310Y60666880D01*
X268384914Y60966530D01*
X268501831Y61248794D01*
X268671569Y61502825D01*
X268887605Y61718861D01*
X269141636Y61888599D01*
X269423900Y62005516D01*
X269523783Y62025384D01*
X269723548Y62065120D01*
X270029072Y62065120D01*
X270228837Y62025384D01*
X270228837Y62025384D01*
G37*
G36*
X36866337Y62025384D02*
X36966220Y62005516D01*
X37248484Y61888599D01*
X37502515Y61718861D01*
X37718551Y61502825D01*
X37888289Y61248794D01*
X38005206Y60966530D01*
X38064810Y60666880D01*
X38064810Y60361360D01*
X38005206Y60061710D01*
X37888289Y59779446D01*
X37718551Y59525415D01*
X37502515Y59309379D01*
X37248484Y59139641D01*
X36966220Y59022724D01*
X36866337Y59002856D01*
X36666572Y58963120D01*
X36361048Y58963120D01*
X36161283Y59002856D01*
X36061400Y59022724D01*
X35779136Y59139641D01*
X35525105Y59309379D01*
X35309069Y59525415D01*
X35139331Y59779446D01*
X35022414Y60061710D01*
X34962810Y60361360D01*
X34962810Y60666880D01*
X35022414Y60966530D01*
X35139331Y61248794D01*
X35309069Y61502825D01*
X35525105Y61718861D01*
X35779136Y61888599D01*
X36061400Y62005516D01*
X36161283Y62025384D01*
X36361048Y62065120D01*
X36666572Y62065120D01*
X36866337Y62025384D01*
X36866337Y62025384D01*
G37*
G36*
X5530213Y68485907D02*
X5752487Y68441694D01*
X6171242Y68268240D01*
X6548112Y68016424D01*
X6868614Y67695922D01*
X7120430Y67319052D01*
X7293884Y66900297D01*
X7382310Y66455749D01*
X7382310Y66002491D01*
X7293884Y65557943D01*
X7120430Y65139188D01*
X6868614Y64762318D01*
X6548112Y64441816D01*
X6171242Y64190000D01*
X5752487Y64016546D01*
X5530213Y63972333D01*
X5307940Y63928120D01*
X4854680Y63928120D01*
X4632407Y63972333D01*
X4410133Y64016546D01*
X3991378Y64190000D01*
X3614508Y64441816D01*
X3294006Y64762318D01*
X3042190Y65139188D01*
X2868736Y65557943D01*
X2780310Y66002491D01*
X2780310Y66455749D01*
X2868736Y66900297D01*
X3042190Y67319052D01*
X3294006Y67695922D01*
X3614508Y68016424D01*
X3991378Y68268240D01*
X4410133Y68441694D01*
X4632407Y68485907D01*
X4854680Y68530120D01*
X5307940Y68530120D01*
X5530213Y68485907D01*
X5530213Y68485907D01*
G37*
M02*
