M48
;DRILL file {KiCad (6.0.0-rc1-dev-1215-g431bdc7a3)} date 2018 December 02, Sunday 20:05:27
;FORMAT={-:-/ absolute / inch / decimal}
FMAT,2
INCH
T1C0.0157
T2C0.0320
T3C0.0394
T4C0.0512
%
G90
G05
T1
X-0.0437Y1.6137
X0.4063Y0.9387
X0.5376Y1.4449
X0.5751Y2.7949
X0.9313Y1.5574
X1.1001Y2.6262
X1.1001Y2.4762
X1.3251Y1.5762
X2.4876Y1.5762
X2.6563Y2.3449
X2.6938Y0.9762
X3.0313Y0.7512
X3.4438Y0.9762
X3.8563Y0.7512
X3.9688Y1.5762
X4.1376Y2.3637
X4.1938Y0.9574
X4.9626Y0.9762
X5.2251Y0.5824
X5.4876Y1.5762
X5.6563Y2.3637
X5.7501Y1.0887
X5.9001Y0.8074
X6.8938Y0.8074
X7.1751Y2.3637
X7.3438Y1.5762
X7.7264Y1.5949
X8.2813Y0.8824
X8.2813Y0.8824
X8.4389Y1.6324
X8.6751Y2.3637
X9.1889Y1.6324
X9.4438Y1.6324
X9.5781Y1.7232
X10.0626Y0.8637
X10.1751Y2.3637
X10.3438Y1.5574
X10.6438Y1.6699
X11.3188Y0.9387
X11.5251Y2.3637
X11.6001Y1.6699
T2
X-0.1374Y2.9512
X-0.1374Y2.8512
X-0.1374Y2.7512
X-0.1374Y2.6512
X-0.1374Y2.5512
X-0.1374Y2.4512
X-0.1374Y2.3512
X-0.1374Y2.2512
X-0.1374Y2.1512
X-0.1374Y2.0512
X-0.1374Y1.9512
X-0.1374Y1.8512
X0.4626Y2.9512
X0.4626Y2.8512
X0.4626Y2.7512
X0.4626Y2.6512
X0.4626Y2.5512
X0.4626Y2.4512
X0.4626Y2.3512
X0.4626Y2.2512
X0.4626Y2.1512
X0.4626Y2.0512
X0.4626Y1.9512
X0.4626Y1.8512
T3
X9.37Y1.3723
X9.37Y1.0652
X8.62Y1.3723
X8.62Y1.0652
X7.87Y1.3723
X7.87Y1.0652
X7.12Y1.3723
X7.12Y1.0652
X5.62Y1.391
X5.62Y1.084
X4.87Y1.3723
X4.87Y1.0652
X4.12Y1.3723
X4.12Y1.0652
X3.37Y1.3723
X3.37Y1.0652
X2.62Y1.3723
X2.62Y1.0652
X1.87Y1.3723
X1.87Y1.0652
X1.12Y1.3723
X1.12Y1.0652
X11.5262Y2.1223
X11.5262Y1.8152
X10.6825Y2.1223
X10.6825Y1.8152
X9.9325Y2.1223
X9.9325Y1.8152
X9.1825Y2.1223
X9.1825Y1.8152
X8.4325Y2.1223
X8.4325Y1.8152
X7.6825Y2.1223
X7.6825Y1.8152
X6.9325Y2.1223
X6.9325Y1.8152
X5.8075Y2.1223
X5.8075Y1.8152
X5.0575Y2.1223
X5.0575Y1.8152
X4.3075Y2.1223
X4.3075Y1.8152
X3.5575Y2.1223
X3.5575Y1.8152
X2.8075Y2.1223
X2.8075Y1.8152
X2.0575Y2.1223
X2.0575Y1.8152
X1.2137Y2.1223
X1.2137Y1.8152
X11.4325Y2.877
X11.4325Y2.5699
X10.495Y2.8723
X10.495Y2.5652
X9.745Y2.8723
X9.745Y2.5652
X8.995Y2.8723
X8.995Y2.5652
X8.245Y2.8723
X8.245Y2.5652
X7.495Y2.8723
X7.495Y2.5652
X6.745Y2.8723
X6.745Y2.5652
X5.995Y2.8723
X5.995Y2.5652
X5.245Y2.8723
X5.245Y2.5652
X4.495Y2.8723
X4.495Y2.5652
X3.745Y2.8723
X3.745Y2.5652
X2.995Y2.8723
X2.995Y2.5652
X2.245Y2.8723
X2.245Y2.5652
X1.3075Y2.8723
X1.3075Y2.5652
X4.3075Y0.4395
X4.3075Y0.1324
X3.5575Y0.4348
X3.5575Y0.1277
X2.7137Y0.4348
X2.7137Y0.1277
X11.1828Y1.5938
X11.4899Y1.5938
X10.87Y1.3723
X10.87Y1.0652
X10.12Y1.3723
X10.12Y1.0652
X6.37Y1.3723
X6.37Y1.0652
X5.3376Y0.4348
X5.3376Y0.1277
X7.5887Y0.4348
X7.5887Y0.1277
X9.6699Y0.675
X9.977Y0.675
X8.4325Y0.4348
X8.4325Y0.1277
X9.1825Y0.4348
X9.1825Y0.1277
X5.1512Y0.4348
X5.1512Y0.1277
T4
X0.1115Y2.7354
X0.1115Y2.4795
X0.2886Y2.7354
X0.2886Y2.4795
T0
M30
