G04 #@! TF.GenerationSoftware,KiCad,Pcbnew,(6.0.0-rc1-dev-1215-g431bdc7a3)*
G04 #@! TF.CreationDate,2018-12-02T20:05:24+01:00*
G04 #@! TF.ProjectId,wave,77617665-2e6b-4696-9361-645f70636258,rev?*
G04 #@! TF.SameCoordinates,Original*
G04 #@! TF.FileFunction,Legend,Top*
G04 #@! TF.FilePolarity,Positive*
%FSLAX46Y46*%
G04 Gerber Fmt 4.6, Leading zero omitted, Abs format (unit mm)*
G04 Created by KiCad (PCBNEW (6.0.0-rc1-dev-1215-g431bdc7a3)) date 2018 December 02, Sunday 20:05:24*
%MOMM*%
%LPD*%
G01*
G04 APERTURE LIST*
%ADD10C,0.150000*%
%ADD11C,0.200000*%
%ADD12C,0.120000*%
%ADD13C,0.100000*%
G04 APERTURE END LIST*
D10*
X195292893Y17326239D02*
X194826226Y17802429D01*
X194492893Y17326239D02*
X194492893Y18326239D01*
X195026226Y18326239D01*
X195159560Y18278620D01*
X195226226Y18231000D01*
X195292893Y18135762D01*
X195292893Y17992905D01*
X195226226Y17897667D01*
X195159560Y17850048D01*
X195026226Y17802429D01*
X194492893Y17802429D01*
X195892893Y17850048D02*
X196359560Y17850048D01*
X196559560Y17326239D02*
X195892893Y17326239D01*
X195892893Y18326239D01*
X196559560Y18326239D01*
X196959560Y18326239D02*
X197426226Y17326239D01*
X197892893Y18326239D01*
X198359560Y17421477D02*
X198426226Y17373858D01*
X198359560Y17326239D01*
X198292893Y17373858D01*
X198359560Y17421477D01*
X198359560Y17326239D01*
X199759560Y17326239D02*
X198959560Y17326239D01*
X199359560Y17326239D02*
X199359560Y18326239D01*
X199226226Y18183381D01*
X199092893Y18088143D01*
X198959560Y18040524D01*
X201426226Y17326239D02*
X201426226Y18326239D01*
X201759560Y18326239D01*
X201959560Y18278620D01*
X202092893Y18183381D01*
X202159560Y18088143D01*
X202226226Y17897667D01*
X202226226Y17754810D01*
X202159560Y17564334D01*
X202092893Y17469096D01*
X201959560Y17373858D01*
X201759560Y17326239D01*
X201426226Y17326239D01*
X202826226Y17850048D02*
X203292893Y17850048D01*
X203492893Y17326239D02*
X202826226Y17326239D01*
X202826226Y18326239D01*
X203492893Y18326239D01*
X204026226Y17373858D02*
X204226226Y17326239D01*
X204559560Y17326239D01*
X204692893Y17373858D01*
X204759560Y17421477D01*
X204826226Y17516715D01*
X204826226Y17611953D01*
X204759560Y17707191D01*
X204692893Y17754810D01*
X204559560Y17802429D01*
X204292893Y17850048D01*
X204159560Y17897667D01*
X204092893Y17945286D01*
X204026226Y18040524D01*
X204026226Y18135762D01*
X204092893Y18231000D01*
X204159560Y18278620D01*
X204292893Y18326239D01*
X204626226Y18326239D01*
X204826226Y18278620D01*
X205426226Y17326239D02*
X205426226Y18326239D01*
X206826226Y18278620D02*
X206692893Y18326239D01*
X206492893Y18326239D01*
X206292893Y18278620D01*
X206159560Y18183381D01*
X206092893Y18088143D01*
X206026226Y17897667D01*
X206026226Y17754810D01*
X206092893Y17564334D01*
X206159560Y17469096D01*
X206292893Y17373858D01*
X206492893Y17326239D01*
X206626226Y17326239D01*
X206826226Y17373858D01*
X206892893Y17421477D01*
X206892893Y17754810D01*
X206626226Y17754810D01*
X207492893Y17326239D02*
X207492893Y18326239D01*
X208292893Y17326239D01*
X208292893Y18326239D01*
X208959560Y17850048D02*
X209426226Y17850048D01*
X209626226Y17326239D02*
X208959560Y17326239D01*
X208959560Y18326239D01*
X209626226Y18326239D01*
X210226226Y17326239D02*
X210226226Y18326239D01*
X210559560Y18326239D01*
X210759560Y18278620D01*
X210892893Y18183381D01*
X210959560Y18088143D01*
X211026226Y17897667D01*
X211026226Y17754810D01*
X210959560Y17564334D01*
X210892893Y17469096D01*
X210759560Y17373858D01*
X210559560Y17326239D01*
X210226226Y17326239D01*
X213159560Y17850048D02*
X213359560Y17802429D01*
X213426226Y17754810D01*
X213492893Y17659572D01*
X213492893Y17516715D01*
X213426226Y17421477D01*
X213359560Y17373858D01*
X213226226Y17326239D01*
X212692893Y17326239D01*
X212692893Y18326239D01*
X213159560Y18326239D01*
X213292893Y18278620D01*
X213359560Y18231000D01*
X213426226Y18135762D01*
X213426226Y18040524D01*
X213359560Y17945286D01*
X213292893Y17897667D01*
X213159560Y17850048D01*
X212692893Y17850048D01*
X214359560Y17802429D02*
X214359560Y17326239D01*
X213892893Y18326239D02*
X214359560Y17802429D01*
X214826226Y18326239D01*
X217226226Y17802429D02*
X217159560Y17850048D01*
X217026226Y17897667D01*
X216892893Y17897667D01*
X216759560Y17850048D01*
X216692893Y17802429D01*
X216626226Y17707191D01*
X216626226Y17611953D01*
X216692893Y17516715D01*
X216759560Y17469096D01*
X216892893Y17421477D01*
X217026226Y17421477D01*
X217159560Y17469096D01*
X217226226Y17516715D01*
X217226226Y17897667D02*
X217226226Y17516715D01*
X217292893Y17469096D01*
X217359560Y17469096D01*
X217492893Y17516715D01*
X217559560Y17611953D01*
X217559560Y17850048D01*
X217426226Y17992905D01*
X217226226Y18088143D01*
X216959560Y18135762D01*
X216692893Y18088143D01*
X216492893Y17992905D01*
X216359560Y17850048D01*
X216292893Y17659572D01*
X216359560Y17469096D01*
X216492893Y17326239D01*
X216692893Y17231000D01*
X216959560Y17183381D01*
X217226226Y17231000D01*
X217426226Y17326239D01*
X218692893Y17373858D02*
X218559560Y17326239D01*
X218292893Y17326239D01*
X218159560Y17373858D01*
X218092893Y17469096D01*
X218092893Y17850048D01*
X218159560Y17945286D01*
X218292893Y17992905D01*
X218559560Y17992905D01*
X218692893Y17945286D01*
X218759560Y17850048D01*
X218759560Y17754810D01*
X218092893Y17659572D01*
X219292893Y17373858D02*
X219426226Y17326239D01*
X219692893Y17326239D01*
X219826226Y17373858D01*
X219892893Y17469096D01*
X219892893Y17516715D01*
X219826226Y17611953D01*
X219692893Y17659572D01*
X219492893Y17659572D01*
X219359560Y17707191D01*
X219292893Y17802429D01*
X219292893Y17850048D01*
X219359560Y17945286D01*
X219492893Y17992905D01*
X219692893Y17992905D01*
X219826226Y17945286D01*
X220359560Y17992905D02*
X220626226Y17326239D01*
X220892893Y17802429D01*
X221159560Y17326239D01*
X221426226Y17992905D01*
X222559560Y17326239D02*
X222559560Y17850048D01*
X222492893Y17945286D01*
X222359560Y17992905D01*
X222092893Y17992905D01*
X221959560Y17945286D01*
X222559560Y17373858D02*
X222426226Y17326239D01*
X222092893Y17326239D01*
X221959560Y17373858D01*
X221892893Y17469096D01*
X221892893Y17564334D01*
X221959560Y17659572D01*
X222092893Y17707191D01*
X222426226Y17707191D01*
X222559560Y17754810D01*
X223226226Y17326239D02*
X223226226Y17992905D01*
X223226226Y18326239D02*
X223159560Y18278620D01*
X223226226Y18231000D01*
X223292893Y18278620D01*
X223226226Y18326239D01*
X223226226Y18231000D01*
X224892893Y18231000D02*
X224959560Y18278620D01*
X225092893Y18326239D01*
X225426226Y18326239D01*
X225559560Y18278620D01*
X225626226Y18231000D01*
X225692893Y18135762D01*
X225692893Y18040524D01*
X225626226Y17897667D01*
X224826226Y17326239D01*
X225692893Y17326239D01*
X226559560Y18326239D02*
X226692893Y18326239D01*
X226826226Y18278620D01*
X226892893Y18231000D01*
X226959560Y18135762D01*
X227026226Y17945286D01*
X227026226Y17707191D01*
X226959560Y17516715D01*
X226892893Y17421477D01*
X226826226Y17373858D01*
X226692893Y17326239D01*
X226559560Y17326239D01*
X226426226Y17373858D01*
X226359560Y17421477D01*
X226292893Y17516715D01*
X226226226Y17707191D01*
X226226226Y17945286D01*
X226292893Y18135762D01*
X226359560Y18231000D01*
X226426226Y18278620D01*
X226559560Y18326239D01*
X228359560Y17326239D02*
X227559560Y17326239D01*
X227959560Y17326239D02*
X227959560Y18326239D01*
X227826226Y18183381D01*
X227692893Y18088143D01*
X227559560Y18040524D01*
X229159560Y17897667D02*
X229026226Y17945286D01*
X228959560Y17992905D01*
X228892893Y18088143D01*
X228892893Y18135762D01*
X228959560Y18231000D01*
X229026226Y18278620D01*
X229159560Y18326239D01*
X229426226Y18326239D01*
X229559560Y18278620D01*
X229626226Y18231000D01*
X229692893Y18135762D01*
X229692893Y18088143D01*
X229626226Y17992905D01*
X229559560Y17945286D01*
X229426226Y17897667D01*
X229159560Y17897667D01*
X229026226Y17850048D01*
X228959560Y17802429D01*
X228892893Y17707191D01*
X228892893Y17516715D01*
X228959560Y17421477D01*
X229026226Y17373858D01*
X229159560Y17326239D01*
X229426226Y17326239D01*
X229559560Y17373858D01*
X229626226Y17421477D01*
X229692893Y17516715D01*
X229692893Y17707191D01*
X229626226Y17802429D01*
X229559560Y17850048D01*
X229426226Y17897667D01*
D11*
X194916702Y19560620D02*
X197202417Y19560620D01*
X194459560Y19132048D02*
X196059560Y20632048D01*
X197659560Y19132048D01*
X199259560Y19132048D02*
X199259560Y20632048D01*
X202002417Y19132048D01*
X202002417Y20632048D01*
X204288131Y19132048D02*
X204288131Y20632048D01*
X204288131Y19917762D02*
X207030988Y19917762D01*
X207030988Y19132048D02*
X207030988Y20632048D01*
X209316702Y19917762D02*
X210916702Y19917762D01*
X211602417Y19132048D02*
X209316702Y19132048D01*
X209316702Y20632048D01*
X211602417Y20632048D01*
X213659560Y19132048D02*
X213659560Y20632048D01*
X214802417Y20632048D01*
X215488131Y20560620D01*
X215945274Y20417762D01*
X216173845Y20274905D01*
X216402417Y19989191D01*
X216402417Y19774905D01*
X216173845Y19489191D01*
X215945274Y19346334D01*
X215488131Y19203477D01*
X214802417Y19132048D01*
X213659560Y19132048D01*
X221202417Y19132048D02*
X219602417Y19846334D01*
X218459560Y19132048D02*
X218459560Y20632048D01*
X220288131Y20632048D01*
X220745274Y20560620D01*
X220973845Y20489191D01*
X221202417Y20346334D01*
X221202417Y20132048D01*
X220973845Y19989191D01*
X220745274Y19917762D01*
X220288131Y19846334D01*
X218459560Y19846334D01*
X223030988Y19560620D02*
X225316702Y19560620D01*
X222573845Y19132048D02*
X224173845Y20632048D01*
X225773845Y19132048D01*
X229659560Y19132048D02*
X227373845Y19132048D01*
X227373845Y20632048D01*
D10*
G04 #@! TO.C,SW53*
X7331310Y62979120D02*
X7331310Y69479120D01*
X2831310Y62979120D02*
X7331310Y62979120D01*
X2831310Y69479120D02*
X2831310Y62979120D01*
X7331310Y69479120D02*
X2831310Y69479120D01*
D12*
G04 #@! TO.C,D52*
X249146657Y17675370D02*
X249146657Y16675370D01*
D13*
G36*
X249946657Y17675370D02*
X249946657Y16675370D01*
X249246657Y17175370D01*
X249946657Y17675370D01*
G37*
X249946657Y17675370D02*
X249946657Y16675370D01*
X249246657Y17175370D01*
X249946657Y17675370D01*
D12*
G04 #@! TO.C,D51*
X232705060Y6774120D02*
X233705060Y6774120D01*
D13*
G36*
X232705060Y7574120D02*
X233705060Y7574120D01*
X233205060Y6874120D01*
X232705060Y7574120D01*
G37*
X232705060Y7574120D02*
X233705060Y7574120D01*
X233205060Y6874120D01*
X232705060Y7574120D01*
D12*
G04 #@! TO.C,D50*
X213655060Y6774120D02*
X214655060Y6774120D01*
D13*
G36*
X213655060Y7574120D02*
X214655060Y7574120D01*
X214155060Y6874120D01*
X213655060Y7574120D01*
G37*
X213655060Y7574120D02*
X214655060Y7574120D01*
X214155060Y6874120D01*
X213655060Y7574120D01*
D12*
G04 #@! TO.C,D49*
X192223810Y6774120D02*
X193223810Y6774120D01*
D13*
G36*
X192223810Y7574120D02*
X193223810Y7574120D01*
X192723810Y6874120D01*
X192223810Y7574120D01*
G37*
X192223810Y7574120D02*
X193223810Y7574120D01*
X192723810Y6874120D01*
X192223810Y7574120D01*
D12*
G04 #@! TO.C,D48*
X161267560Y30586620D02*
X162267560Y30586620D01*
D13*
G36*
X161267560Y31386620D02*
X162267560Y31386620D01*
X161767560Y30686620D01*
X161267560Y31386620D01*
G37*
X161267560Y31386620D02*
X162267560Y31386620D01*
X161767560Y30686620D01*
X161267560Y31386620D01*
D12*
G04 #@! TO.C,D47*
X135043933Y6774120D02*
X136043933Y6774120D01*
D13*
G36*
X135043933Y7574120D02*
X136043933Y7574120D01*
X135543933Y6874120D01*
X135043933Y7574120D01*
G37*
X135043933Y7574120D02*
X136043933Y7574120D01*
X135543933Y6874120D01*
X135043933Y7574120D01*
D12*
G04 #@! TO.C,D46*
X130311310Y6774120D02*
X131311310Y6774120D01*
D13*
G36*
X130311310Y7574120D02*
X131311310Y7574120D01*
X130811310Y6874120D01*
X130311310Y7574120D01*
G37*
X130311310Y7574120D02*
X131311310Y7574120D01*
X130811310Y6874120D01*
X130311310Y7574120D01*
D12*
G04 #@! TO.C,D45*
X108880060Y6894467D02*
X109880060Y6894467D01*
D13*
G36*
X108880060Y7694467D02*
X109880060Y7694467D01*
X109380060Y6994467D01*
X108880060Y7694467D01*
G37*
X108880060Y7694467D02*
X109880060Y7694467D01*
X109380060Y6994467D01*
X108880060Y7694467D01*
D12*
G04 #@! TO.C,D44*
X89830060Y6774120D02*
X90830060Y6774120D01*
D13*
G36*
X89830060Y7574120D02*
X90830060Y7574120D01*
X90330060Y6874120D01*
X89830060Y7574120D01*
G37*
X89830060Y7574120D02*
X90830060Y7574120D01*
X90330060Y6874120D01*
X89830060Y7574120D01*
D12*
G04 #@! TO.C,D43*
X68398810Y6774120D02*
X69398810Y6774120D01*
D13*
G36*
X68398810Y7574120D02*
X69398810Y7574120D01*
X68898810Y6874120D01*
X68398810Y7574120D01*
G37*
X68398810Y7574120D02*
X69398810Y7574120D01*
X68898810Y6874120D01*
X68398810Y7574120D01*
D12*
G04 #@! TO.C,D42*
X287573810Y41011620D02*
X287573810Y40011620D01*
D13*
G36*
X288373810Y41011620D02*
X288373810Y40011620D01*
X287673810Y40511620D01*
X288373810Y41011620D01*
G37*
X288373810Y41011620D02*
X288373810Y40011620D01*
X287673810Y40511620D01*
X288373810Y41011620D01*
D12*
G04 #@! TO.C,D41*
X275567560Y30586620D02*
X276567560Y30586620D01*
D13*
G36*
X275567560Y31386620D02*
X276567560Y31386620D01*
X276067560Y30686620D01*
X275567560Y31386620D01*
G37*
X275567560Y31386620D02*
X276567560Y31386620D01*
X276067560Y30686620D01*
X275567560Y31386620D01*
D12*
G04 #@! TO.C,D40*
X256517560Y30586620D02*
X257517560Y30586620D01*
D13*
G36*
X256517560Y31386620D02*
X257517560Y31386620D01*
X257017560Y30686620D01*
X256517560Y31386620D01*
G37*
X256517560Y31386620D02*
X257517560Y31386620D01*
X257017560Y30686620D01*
X256517560Y31386620D01*
D12*
G04 #@! TO.C,D39*
X237467560Y30586620D02*
X238467560Y30586620D01*
D13*
G36*
X237467560Y31386620D02*
X238467560Y31386620D01*
X237967560Y30686620D01*
X237467560Y31386620D01*
G37*
X237467560Y31386620D02*
X238467560Y31386620D01*
X237967560Y30686620D01*
X237467560Y31386620D01*
D12*
G04 #@! TO.C,D38*
X218417560Y30586620D02*
X219417560Y30586620D01*
D13*
G36*
X218417560Y31386620D02*
X219417560Y31386620D01*
X218917560Y30686620D01*
X218417560Y31386620D01*
G37*
X218417560Y31386620D02*
X219417560Y31386620D01*
X218917560Y30686620D01*
X218417560Y31386620D01*
D12*
G04 #@! TO.C,D37*
X199367560Y30586620D02*
X200367560Y30586620D01*
D13*
G36*
X199367560Y31386620D02*
X200367560Y31386620D01*
X199867560Y30686620D01*
X199367560Y31386620D01*
G37*
X199367560Y31386620D02*
X200367560Y31386620D01*
X199867560Y30686620D01*
X199367560Y31386620D01*
D12*
G04 #@! TO.C,D36*
X180317560Y30586620D02*
X181317560Y30586620D01*
D13*
G36*
X180317560Y31386620D02*
X181317560Y31386620D01*
X180817560Y30686620D01*
X180317560Y31386620D01*
G37*
X180317560Y31386620D02*
X181317560Y31386620D01*
X180817560Y30686620D01*
X180317560Y31386620D01*
D12*
G04 #@! TO.C,D35*
X142217560Y31062870D02*
X143217560Y31062870D01*
D13*
G36*
X142217560Y31862870D02*
X143217560Y31862870D01*
X142717560Y31162870D01*
X142217560Y31862870D01*
G37*
X142217560Y31862870D02*
X143217560Y31862870D01*
X142717560Y31162870D01*
X142217560Y31862870D01*
D12*
G04 #@! TO.C,D34*
X123167560Y30586620D02*
X124167560Y30586620D01*
D13*
G36*
X123167560Y31386620D02*
X124167560Y31386620D01*
X123667560Y30686620D01*
X123167560Y31386620D01*
G37*
X123167560Y31386620D02*
X124167560Y31386620D01*
X123667560Y30686620D01*
X123167560Y31386620D01*
D12*
G04 #@! TO.C,D33*
X104117560Y30586620D02*
X105117560Y30586620D01*
D13*
G36*
X104117560Y31386620D02*
X105117560Y31386620D01*
X104617560Y30686620D01*
X104117560Y31386620D01*
G37*
X104117560Y31386620D02*
X105117560Y31386620D01*
X104617560Y30686620D01*
X104117560Y31386620D01*
D12*
G04 #@! TO.C,D32*
X85067560Y30586620D02*
X86067560Y30586620D01*
D13*
G36*
X85067560Y31386620D02*
X86067560Y31386620D01*
X85567560Y30686620D01*
X85067560Y31386620D01*
G37*
X85067560Y31386620D02*
X86067560Y31386620D01*
X85567560Y30686620D01*
X85067560Y31386620D01*
D12*
G04 #@! TO.C,D31*
X66017560Y30586620D02*
X67017560Y30586620D01*
D13*
G36*
X66017560Y31386620D02*
X67017560Y31386620D01*
X66517560Y30686620D01*
X66017560Y31386620D01*
G37*
X66017560Y31386620D02*
X67017560Y31386620D01*
X66517560Y30686620D01*
X66017560Y31386620D01*
D12*
G04 #@! TO.C,D30*
X46967560Y30586620D02*
X47967560Y30586620D01*
D13*
G36*
X46967560Y31386620D02*
X47967560Y31386620D01*
X47467560Y30686620D01*
X46967560Y31386620D01*
G37*
X46967560Y31386620D02*
X47967560Y31386620D01*
X47467560Y30686620D01*
X46967560Y31386620D01*
D12*
G04 #@! TO.C,D29*
X27917560Y30586620D02*
X28917560Y30586620D01*
D13*
G36*
X27917560Y31386620D02*
X28917560Y31386620D01*
X28417560Y30686620D01*
X27917560Y31386620D01*
G37*
X27917560Y31386620D02*
X28917560Y31386620D01*
X28417560Y30686620D01*
X27917560Y31386620D01*
D12*
G04 #@! TO.C,D28*
X292236310Y49636620D02*
X293236310Y49636620D01*
D13*
G36*
X292236310Y50436620D02*
X293236310Y50436620D01*
X292736310Y49736620D01*
X292236310Y50436620D01*
G37*
X292236310Y50436620D02*
X293236310Y50436620D01*
X292736310Y49736620D01*
X292236310Y50436620D01*
D12*
G04 #@! TO.C,D27*
X270805060Y49636620D02*
X271805060Y49636620D01*
D13*
G36*
X270805060Y50436620D02*
X271805060Y50436620D01*
X271305060Y49736620D01*
X270805060Y50436620D01*
G37*
X270805060Y50436620D02*
X271805060Y50436620D01*
X271305060Y49736620D01*
X270805060Y50436620D01*
D12*
G04 #@! TO.C,D26*
X251755060Y49636620D02*
X252755060Y49636620D01*
D13*
G36*
X251755060Y50436620D02*
X252755060Y50436620D01*
X252255060Y49736620D01*
X251755060Y50436620D01*
G37*
X251755060Y50436620D02*
X252755060Y50436620D01*
X252255060Y49736620D01*
X251755060Y50436620D01*
D12*
G04 #@! TO.C,D25*
X232705060Y49636620D02*
X233705060Y49636620D01*
D13*
G36*
X232705060Y50436620D02*
X233705060Y50436620D01*
X233205060Y49736620D01*
X232705060Y50436620D01*
G37*
X232705060Y50436620D02*
X233705060Y50436620D01*
X233205060Y49736620D01*
X232705060Y50436620D01*
D12*
G04 #@! TO.C,D24*
X213655060Y49636620D02*
X214655060Y49636620D01*
D13*
G36*
X213655060Y50436620D02*
X214655060Y50436620D01*
X214155060Y49736620D01*
X213655060Y50436620D01*
G37*
X213655060Y50436620D02*
X214655060Y50436620D01*
X214155060Y49736620D01*
X213655060Y50436620D01*
D12*
G04 #@! TO.C,D23*
X194605060Y49636620D02*
X195605060Y49636620D01*
D13*
G36*
X194605060Y50436620D02*
X195605060Y50436620D01*
X195105060Y49736620D01*
X194605060Y50436620D01*
G37*
X194605060Y50436620D02*
X195605060Y50436620D01*
X195105060Y49736620D01*
X194605060Y50436620D01*
D12*
G04 #@! TO.C,D22*
X175555060Y49636620D02*
X176555060Y49636620D01*
D13*
G36*
X175555060Y50436620D02*
X176555060Y50436620D01*
X176055060Y49736620D01*
X175555060Y50436620D01*
G37*
X175555060Y50436620D02*
X176555060Y50436620D01*
X176055060Y49736620D01*
X175555060Y50436620D01*
D12*
G04 #@! TO.C,D21*
X146980060Y49636620D02*
X147980060Y49636620D01*
D13*
G36*
X146980060Y50436620D02*
X147980060Y50436620D01*
X147480060Y49736620D01*
X146980060Y50436620D01*
G37*
X146980060Y50436620D02*
X147980060Y50436620D01*
X147480060Y49736620D01*
X146980060Y50436620D01*
D12*
G04 #@! TO.C,D20*
X127930060Y49636620D02*
X128930060Y49636620D01*
D13*
G36*
X127930060Y50436620D02*
X128930060Y50436620D01*
X128430060Y49736620D01*
X127930060Y50436620D01*
G37*
X127930060Y50436620D02*
X128930060Y50436620D01*
X128430060Y49736620D01*
X127930060Y50436620D01*
D12*
G04 #@! TO.C,D19*
X108880060Y49636620D02*
X109880060Y49636620D01*
D13*
G36*
X108880060Y50436620D02*
X109880060Y50436620D01*
X109380060Y49736620D01*
X108880060Y50436620D01*
G37*
X108880060Y50436620D02*
X109880060Y50436620D01*
X109380060Y49736620D01*
X108880060Y50436620D01*
D12*
G04 #@! TO.C,D18*
X89830060Y49636620D02*
X90830060Y49636620D01*
D13*
G36*
X89830060Y50436620D02*
X90830060Y50436620D01*
X90330060Y49736620D01*
X89830060Y50436620D01*
G37*
X89830060Y50436620D02*
X90830060Y50436620D01*
X90330060Y49736620D01*
X89830060Y50436620D01*
D12*
G04 #@! TO.C,D17*
X70780060Y49636620D02*
X71780060Y49636620D01*
D13*
G36*
X70780060Y50436620D02*
X71780060Y50436620D01*
X71280060Y49736620D01*
X70780060Y50436620D01*
G37*
X70780060Y50436620D02*
X71780060Y50436620D01*
X71280060Y49736620D01*
X70780060Y50436620D01*
D12*
G04 #@! TO.C,D16*
X51730060Y49636620D02*
X52730060Y49636620D01*
D13*
G36*
X51730060Y50436620D02*
X52730060Y50436620D01*
X52230060Y49736620D01*
X51730060Y50436620D01*
G37*
X51730060Y50436620D02*
X52730060Y50436620D01*
X52230060Y49736620D01*
X51730060Y50436620D01*
D12*
G04 #@! TO.C,D15*
X30298810Y49636620D02*
X31298810Y49636620D01*
D13*
G36*
X30298810Y50436620D02*
X31298810Y50436620D01*
X30798810Y49736620D01*
X30298810Y50436620D01*
G37*
X30298810Y50436620D02*
X31298810Y50436620D01*
X30798810Y49736620D01*
X30298810Y50436620D01*
D12*
G04 #@! TO.C,D14*
X289855060Y68806967D02*
X290855060Y68806967D01*
D13*
G36*
X289855060Y69606967D02*
X290855060Y69606967D01*
X290355060Y68906967D01*
X289855060Y69606967D01*
G37*
X289855060Y69606967D02*
X290855060Y69606967D01*
X290355060Y68906967D01*
X289855060Y69606967D01*
D12*
G04 #@! TO.C,D13*
X266042560Y68686620D02*
X267042560Y68686620D01*
D13*
G36*
X266042560Y69486620D02*
X267042560Y69486620D01*
X266542560Y68786620D01*
X266042560Y69486620D01*
G37*
X266042560Y69486620D02*
X267042560Y69486620D01*
X266542560Y68786620D01*
X266042560Y69486620D01*
D12*
G04 #@! TO.C,D12*
X246992560Y68686620D02*
X247992560Y68686620D01*
D13*
G36*
X246992560Y69486620D02*
X247992560Y69486620D01*
X247492560Y68786620D01*
X246992560Y69486620D01*
G37*
X246992560Y69486620D02*
X247992560Y69486620D01*
X247492560Y68786620D01*
X246992560Y69486620D01*
D12*
G04 #@! TO.C,D11*
X227942560Y68686620D02*
X228942560Y68686620D01*
D13*
G36*
X227942560Y69486620D02*
X228942560Y69486620D01*
X228442560Y68786620D01*
X227942560Y69486620D01*
G37*
X227942560Y69486620D02*
X228942560Y69486620D01*
X228442560Y68786620D01*
X227942560Y69486620D01*
D12*
G04 #@! TO.C,D10*
X208892560Y68686620D02*
X209892560Y68686620D01*
D13*
G36*
X208892560Y69486620D02*
X209892560Y69486620D01*
X209392560Y68786620D01*
X208892560Y69486620D01*
G37*
X208892560Y69486620D02*
X209892560Y69486620D01*
X209392560Y68786620D01*
X208892560Y69486620D01*
D12*
G04 #@! TO.C,D9*
X189842560Y68686620D02*
X190842560Y68686620D01*
D13*
G36*
X189842560Y69486620D02*
X190842560Y69486620D01*
X190342560Y68786620D01*
X189842560Y69486620D01*
G37*
X189842560Y69486620D02*
X190842560Y69486620D01*
X190342560Y68786620D01*
X189842560Y69486620D01*
D12*
G04 #@! TO.C,D8*
X170792560Y68686620D02*
X171792560Y68686620D01*
D13*
G36*
X170792560Y69486620D02*
X171792560Y69486620D01*
X171292560Y68786620D01*
X170792560Y69486620D01*
G37*
X170792560Y69486620D02*
X171792560Y69486620D01*
X171292560Y68786620D01*
X170792560Y69486620D01*
D12*
G04 #@! TO.C,D7*
X151742560Y68686620D02*
X152742560Y68686620D01*
D13*
G36*
X151742560Y69486620D02*
X152742560Y69486620D01*
X152242560Y68786620D01*
X151742560Y69486620D01*
G37*
X151742560Y69486620D02*
X152742560Y69486620D01*
X152242560Y68786620D01*
X151742560Y69486620D01*
D12*
G04 #@! TO.C,D6*
X132692560Y68686620D02*
X133692560Y68686620D01*
D13*
G36*
X132692560Y69486620D02*
X133692560Y69486620D01*
X133192560Y68786620D01*
X132692560Y69486620D01*
G37*
X132692560Y69486620D02*
X133692560Y69486620D01*
X133192560Y68786620D01*
X132692560Y69486620D01*
D12*
G04 #@! TO.C,D5*
X113642560Y68686620D02*
X114642560Y68686620D01*
D13*
G36*
X113642560Y69486620D02*
X114642560Y69486620D01*
X114142560Y68786620D01*
X113642560Y69486620D01*
G37*
X113642560Y69486620D02*
X114642560Y69486620D01*
X114142560Y68786620D01*
X113642560Y69486620D01*
D12*
G04 #@! TO.C,D4*
X94592560Y68686620D02*
X95592560Y68686620D01*
D13*
G36*
X94592560Y69486620D02*
X95592560Y69486620D01*
X95092560Y68786620D01*
X94592560Y69486620D01*
G37*
X94592560Y69486620D02*
X95592560Y69486620D01*
X95092560Y68786620D01*
X94592560Y69486620D01*
D12*
G04 #@! TO.C,D3*
X75542560Y68686620D02*
X76542560Y68686620D01*
D13*
G36*
X75542560Y69486620D02*
X76542560Y69486620D01*
X76042560Y68786620D01*
X75542560Y69486620D01*
G37*
X75542560Y69486620D02*
X76542560Y69486620D01*
X76042560Y68786620D01*
X75542560Y69486620D01*
D12*
G04 #@! TO.C,D2*
X56492560Y68686620D02*
X57492560Y68686620D01*
D13*
G36*
X56492560Y69486620D02*
X57492560Y69486620D01*
X56992560Y68786620D01*
X56492560Y69486620D01*
G37*
X56492560Y69486620D02*
X57492560Y69486620D01*
X56992560Y68786620D01*
X56492560Y69486620D01*
D12*
G04 #@! TO.C,D1*
X32680060Y68686620D02*
X33680060Y68686620D01*
D13*
G36*
X32680060Y69486620D02*
X33680060Y69486620D01*
X33180060Y68786620D01*
X32680060Y69486620D01*
G37*
X32680060Y69486620D02*
X33680060Y69486620D01*
X33180060Y68786620D01*
X32680060Y69486620D01*
D11*
G04 #@! TO.C,U1*
X-2221190Y76230370D02*
X-4761190Y76230370D01*
X-4761190Y78770370D02*
X-4761190Y76230370D01*
X13018810Y78770370D02*
X-4761190Y78770370D01*
X13018810Y76230370D02*
X13018810Y78770370D01*
D10*
G36*
X8560378Y69751010D02*
X8560378Y69551010D01*
X8460378Y69551010D01*
X8460378Y69751010D01*
X8560378Y69751010D01*
G37*
X8560378Y69751010D02*
X8560378Y69551010D01*
X8460378Y69551010D01*
X8460378Y69751010D01*
X8560378Y69751010D01*
G36*
X8160378Y70351010D02*
X8160378Y69551010D01*
X8060378Y69551010D01*
X8060378Y70351010D01*
X8160378Y70351010D01*
G37*
X8160378Y70351010D02*
X8160378Y69551010D01*
X8060378Y69551010D01*
X8060378Y70351010D01*
X8160378Y70351010D01*
G36*
X8560378Y70351010D02*
X8560378Y70251010D01*
X8060378Y70251010D01*
X8060378Y70351010D01*
X8560378Y70351010D01*
G37*
X8560378Y70351010D02*
X8560378Y70251010D01*
X8060378Y70251010D01*
X8060378Y70351010D01*
X8560378Y70351010D01*
G36*
X8360378Y69951010D02*
X8360378Y69851010D01*
X8260378Y69851010D01*
X8260378Y69951010D01*
X8360378Y69951010D01*
G37*
X8360378Y69951010D02*
X8360378Y69851010D01*
X8260378Y69851010D01*
X8260378Y69951010D01*
X8360378Y69951010D01*
G36*
X8560378Y70351010D02*
X8560378Y70051010D01*
X8460378Y70051010D01*
X8460378Y70351010D01*
X8560378Y70351010D01*
G37*
X8560378Y70351010D02*
X8560378Y70051010D01*
X8460378Y70051010D01*
X8460378Y70351010D01*
X8560378Y70351010D01*
D11*
X-2221190Y73690370D02*
X-4761190Y73690370D01*
X-2221190Y76230370D02*
X-2221190Y73690370D01*
X13018810Y45750370D02*
X13018810Y76230370D01*
X-4761190Y45750370D02*
X13018810Y45750370D01*
X-4761190Y76230370D02*
X-4761190Y45750370D01*
G04 #@! TO.C,SW48*
D10*
X151385536Y38455858D02*
X151528393Y38408239D01*
X151766488Y38408239D01*
X151861726Y38455858D01*
X151909345Y38503477D01*
X151956964Y38598715D01*
X151956964Y38693953D01*
X151909345Y38789191D01*
X151861726Y38836810D01*
X151766488Y38884429D01*
X151576012Y38932048D01*
X151480774Y38979667D01*
X151433155Y39027286D01*
X151385536Y39122524D01*
X151385536Y39217762D01*
X151433155Y39313000D01*
X151480774Y39360620D01*
X151576012Y39408239D01*
X151814107Y39408239D01*
X151956964Y39360620D01*
X152290298Y39408239D02*
X152528393Y38408239D01*
X152718869Y39122524D01*
X152909345Y38408239D01*
X153147440Y39408239D01*
X153956964Y39074905D02*
X153956964Y38408239D01*
X153718869Y39455858D02*
X153480774Y38741572D01*
X154099821Y38741572D01*
X154623631Y38979667D02*
X154528393Y39027286D01*
X154480774Y39074905D01*
X154433155Y39170143D01*
X154433155Y39217762D01*
X154480774Y39313000D01*
X154528393Y39360620D01*
X154623631Y39408239D01*
X154814107Y39408239D01*
X154909345Y39360620D01*
X154956964Y39313000D01*
X155004583Y39217762D01*
X155004583Y39170143D01*
X154956964Y39074905D01*
X154909345Y39027286D01*
X154814107Y38979667D01*
X154623631Y38979667D01*
X154528393Y38932048D01*
X154480774Y38884429D01*
X154433155Y38789191D01*
X154433155Y38598715D01*
X154480774Y38503477D01*
X154528393Y38455858D01*
X154623631Y38408239D01*
X154814107Y38408239D01*
X154909345Y38455858D01*
X154956964Y38503477D01*
X155004583Y38598715D01*
X155004583Y38789191D01*
X154956964Y38884429D01*
X154909345Y38932048D01*
X154814107Y38979667D01*
G04 #@! TO.C,SW47*
X151385536Y-1104641D02*
X151528393Y-1152260D01*
X151766488Y-1152260D01*
X151861726Y-1104641D01*
X151909345Y-1057022D01*
X151956964Y-961784D01*
X151956964Y-866546D01*
X151909345Y-771308D01*
X151861726Y-723689D01*
X151766488Y-676070D01*
X151576012Y-628451D01*
X151480774Y-580832D01*
X151433155Y-533213D01*
X151385536Y-437975D01*
X151385536Y-342737D01*
X151433155Y-247499D01*
X151480774Y-199880D01*
X151576012Y-152260D01*
X151814107Y-152260D01*
X151956964Y-199880D01*
X152290298Y-152260D02*
X152528393Y-1152260D01*
X152718869Y-437975D01*
X152909345Y-1152260D01*
X153147440Y-152260D01*
X153956964Y-485594D02*
X153956964Y-1152260D01*
X153718869Y-104641D02*
X153480774Y-818927D01*
X154099821Y-818927D01*
X154385536Y-152260D02*
X155052202Y-152260D01*
X154623631Y-1152260D01*
G04 #@! TO.C,SW53*
X5533690Y64776739D02*
X5057500Y64443405D01*
X5533690Y64205310D02*
X4533690Y64205310D01*
X4533690Y64586262D01*
X4581310Y64681500D01*
X4628929Y64729120D01*
X4724167Y64776739D01*
X4867024Y64776739D01*
X4962262Y64729120D01*
X5009881Y64681500D01*
X5057500Y64586262D01*
X5057500Y64205310D01*
X5009881Y65205310D02*
X5009881Y65538643D01*
X5533690Y65681500D02*
X5533690Y65205310D01*
X4533690Y65205310D01*
X4533690Y65681500D01*
X5486071Y66062453D02*
X5533690Y66205310D01*
X5533690Y66443405D01*
X5486071Y66538643D01*
X5438452Y66586262D01*
X5343214Y66633881D01*
X5247976Y66633881D01*
X5152738Y66586262D01*
X5105119Y66538643D01*
X5057500Y66443405D01*
X5009881Y66252929D01*
X4962262Y66157691D01*
X4914643Y66110072D01*
X4819405Y66062453D01*
X4724167Y66062453D01*
X4628929Y66110072D01*
X4581310Y66157691D01*
X4533690Y66252929D01*
X4533690Y66491024D01*
X4581310Y66633881D01*
X5009881Y67062453D02*
X5009881Y67395786D01*
X5533690Y67538643D02*
X5533690Y67062453D01*
X4533690Y67062453D01*
X4533690Y67538643D01*
X4533690Y67824358D02*
X4533690Y68395786D01*
X5533690Y68110072D02*
X4533690Y68110072D01*
G04 #@! TO.C,D52*
X248175228Y18313465D02*
X248175228Y19113465D01*
X248365704Y19113465D01*
X248479990Y19075370D01*
X248556180Y18999179D01*
X248594276Y18922989D01*
X248632371Y18770608D01*
X248632371Y18656322D01*
X248594276Y18503941D01*
X248556180Y18427750D01*
X248479990Y18351560D01*
X248365704Y18313465D01*
X248175228Y18313465D01*
X249356180Y19113465D02*
X248975228Y19113465D01*
X248937133Y18732512D01*
X248975228Y18770608D01*
X249051418Y18808703D01*
X249241895Y18808703D01*
X249318085Y18770608D01*
X249356180Y18732512D01*
X249394276Y18656322D01*
X249394276Y18465846D01*
X249356180Y18389655D01*
X249318085Y18351560D01*
X249241895Y18313465D01*
X249051418Y18313465D01*
X248975228Y18351560D01*
X248937133Y18389655D01*
X249699037Y19037274D02*
X249737133Y19075370D01*
X249813323Y19113465D01*
X250003799Y19113465D01*
X250079990Y19075370D01*
X250118085Y19037274D01*
X250156180Y18961084D01*
X250156180Y18884893D01*
X250118085Y18770608D01*
X249660942Y18313465D01*
X250156180Y18313465D01*
G04 #@! TO.C,SW52*
X244254286Y14643358D02*
X244397143Y14595739D01*
X244635238Y14595739D01*
X244730476Y14643358D01*
X244778095Y14690977D01*
X244825714Y14786215D01*
X244825714Y14881453D01*
X244778095Y14976691D01*
X244730476Y15024310D01*
X244635238Y15071929D01*
X244444762Y15119548D01*
X244349524Y15167167D01*
X244301905Y15214786D01*
X244254286Y15310024D01*
X244254286Y15405262D01*
X244301905Y15500500D01*
X244349524Y15548120D01*
X244444762Y15595739D01*
X244682857Y15595739D01*
X244825714Y15548120D01*
X245159048Y15595739D02*
X245397143Y14595739D01*
X245587619Y15310024D01*
X245778095Y14595739D01*
X246016190Y15595739D01*
X246873333Y15595739D02*
X246397143Y15595739D01*
X246349524Y15119548D01*
X246397143Y15167167D01*
X246492381Y15214786D01*
X246730476Y15214786D01*
X246825714Y15167167D01*
X246873333Y15119548D01*
X246920952Y15024310D01*
X246920952Y14786215D01*
X246873333Y14690977D01*
X246825714Y14643358D01*
X246730476Y14595739D01*
X246492381Y14595739D01*
X246397143Y14643358D01*
X246349524Y14690977D01*
X247301905Y15500500D02*
X247349524Y15548120D01*
X247444762Y15595739D01*
X247682857Y15595739D01*
X247778095Y15548120D01*
X247825714Y15500500D01*
X247873333Y15405262D01*
X247873333Y15310024D01*
X247825714Y15167167D01*
X247254286Y14595739D01*
X247873333Y14595739D01*
G04 #@! TO.C,SW28*
X282354286Y57505858D02*
X282497143Y57458239D01*
X282735238Y57458239D01*
X282830476Y57505858D01*
X282878095Y57553477D01*
X282925714Y57648715D01*
X282925714Y57743953D01*
X282878095Y57839191D01*
X282830476Y57886810D01*
X282735238Y57934429D01*
X282544762Y57982048D01*
X282449524Y58029667D01*
X282401905Y58077286D01*
X282354286Y58172524D01*
X282354286Y58267762D01*
X282401905Y58363000D01*
X282449524Y58410620D01*
X282544762Y58458239D01*
X282782857Y58458239D01*
X282925714Y58410620D01*
X283259048Y58458239D02*
X283497143Y57458239D01*
X283687619Y58172524D01*
X283878095Y57458239D01*
X284116190Y58458239D01*
X284449524Y58363000D02*
X284497143Y58410620D01*
X284592381Y58458239D01*
X284830476Y58458239D01*
X284925714Y58410620D01*
X284973333Y58363000D01*
X285020952Y58267762D01*
X285020952Y58172524D01*
X284973333Y58029667D01*
X284401905Y57458239D01*
X285020952Y57458239D01*
X285592381Y58029667D02*
X285497143Y58077286D01*
X285449524Y58124905D01*
X285401905Y58220143D01*
X285401905Y58267762D01*
X285449524Y58363000D01*
X285497143Y58410620D01*
X285592381Y58458239D01*
X285782857Y58458239D01*
X285878095Y58410620D01*
X285925714Y58363000D01*
X285973333Y58267762D01*
X285973333Y58220143D01*
X285925714Y58124905D01*
X285878095Y58077286D01*
X285782857Y58029667D01*
X285592381Y58029667D01*
X285497143Y57982048D01*
X285449524Y57934429D01*
X285401905Y57839191D01*
X285401905Y57648715D01*
X285449524Y57553477D01*
X285497143Y57505858D01*
X285592381Y57458239D01*
X285782857Y57458239D01*
X285878095Y57505858D01*
X285925714Y57553477D01*
X285973333Y57648715D01*
X285973333Y57839191D01*
X285925714Y57934429D01*
X285878095Y57982048D01*
X285782857Y58029667D01*
G04 #@! TO.C,SW14*
X279973036Y76555858D02*
X280115893Y76508239D01*
X280353988Y76508239D01*
X280449226Y76555858D01*
X280496845Y76603477D01*
X280544464Y76698715D01*
X280544464Y76793953D01*
X280496845Y76889191D01*
X280449226Y76936810D01*
X280353988Y76984429D01*
X280163512Y77032048D01*
X280068274Y77079667D01*
X280020655Y77127286D01*
X279973036Y77222524D01*
X279973036Y77317762D01*
X280020655Y77413000D01*
X280068274Y77460620D01*
X280163512Y77508239D01*
X280401607Y77508239D01*
X280544464Y77460620D01*
X280877798Y77508239D02*
X281115893Y76508239D01*
X281306369Y77222524D01*
X281496845Y76508239D01*
X281734940Y77508239D01*
X282639702Y76508239D02*
X282068274Y76508239D01*
X282353988Y76508239D02*
X282353988Y77508239D01*
X282258750Y77365381D01*
X282163512Y77270143D01*
X282068274Y77222524D01*
X283496845Y77174905D02*
X283496845Y76508239D01*
X283258750Y77555858D02*
X283020655Y76841572D01*
X283639702Y76841572D01*
G04 #@! TO.C,D51*
X232066964Y5802691D02*
X231266964Y5802691D01*
X231266964Y5993167D01*
X231305060Y6107453D01*
X231381250Y6183643D01*
X231457440Y6221739D01*
X231609821Y6259834D01*
X231724107Y6259834D01*
X231876488Y6221739D01*
X231952679Y6183643D01*
X232028869Y6107453D01*
X232066964Y5993167D01*
X232066964Y5802691D01*
X231266964Y6983643D02*
X231266964Y6602691D01*
X231647917Y6564596D01*
X231609821Y6602691D01*
X231571726Y6678881D01*
X231571726Y6869358D01*
X231609821Y6945548D01*
X231647917Y6983643D01*
X231724107Y7021739D01*
X231914583Y7021739D01*
X231990774Y6983643D01*
X232028869Y6945548D01*
X232066964Y6869358D01*
X232066964Y6678881D01*
X232028869Y6602691D01*
X231990774Y6564596D01*
X232066964Y7783643D02*
X232066964Y7326500D01*
X232066964Y7555072D02*
X231266964Y7555072D01*
X231381250Y7478881D01*
X231457440Y7402691D01*
X231495536Y7326500D01*
G04 #@! TO.C,D50*
X213016964Y5802691D02*
X212216964Y5802691D01*
X212216964Y5993167D01*
X212255060Y6107453D01*
X212331250Y6183643D01*
X212407440Y6221739D01*
X212559821Y6259834D01*
X212674107Y6259834D01*
X212826488Y6221739D01*
X212902679Y6183643D01*
X212978869Y6107453D01*
X213016964Y5993167D01*
X213016964Y5802691D01*
X212216964Y6983643D02*
X212216964Y6602691D01*
X212597917Y6564596D01*
X212559821Y6602691D01*
X212521726Y6678881D01*
X212521726Y6869358D01*
X212559821Y6945548D01*
X212597917Y6983643D01*
X212674107Y7021739D01*
X212864583Y7021739D01*
X212940774Y6983643D01*
X212978869Y6945548D01*
X213016964Y6869358D01*
X213016964Y6678881D01*
X212978869Y6602691D01*
X212940774Y6564596D01*
X212216964Y7516977D02*
X212216964Y7593167D01*
X212255060Y7669358D01*
X212293155Y7707453D01*
X212369345Y7745548D01*
X212521726Y7783643D01*
X212712202Y7783643D01*
X212864583Y7745548D01*
X212940774Y7707453D01*
X212978869Y7669358D01*
X213016964Y7593167D01*
X213016964Y7516977D01*
X212978869Y7440786D01*
X212940774Y7402691D01*
X212864583Y7364596D01*
X212712202Y7326500D01*
X212521726Y7326500D01*
X212369345Y7364596D01*
X212293155Y7402691D01*
X212255060Y7440786D01*
X212216964Y7516977D01*
G04 #@! TO.C,D49*
X191585714Y5802691D02*
X190785714Y5802691D01*
X190785714Y5993167D01*
X190823810Y6107453D01*
X190900000Y6183643D01*
X190976190Y6221739D01*
X191128571Y6259834D01*
X191242857Y6259834D01*
X191395238Y6221739D01*
X191471429Y6183643D01*
X191547619Y6107453D01*
X191585714Y5993167D01*
X191585714Y5802691D01*
X191052381Y6945548D02*
X191585714Y6945548D01*
X190747619Y6755072D02*
X191319048Y6564596D01*
X191319048Y7059834D01*
X191585714Y7402691D02*
X191585714Y7555072D01*
X191547619Y7631262D01*
X191509524Y7669358D01*
X191395238Y7745548D01*
X191242857Y7783643D01*
X190938095Y7783643D01*
X190861905Y7745548D01*
X190823810Y7707453D01*
X190785714Y7631262D01*
X190785714Y7478881D01*
X190823810Y7402691D01*
X190861905Y7364596D01*
X190938095Y7326500D01*
X191128571Y7326500D01*
X191204762Y7364596D01*
X191242857Y7402691D01*
X191280952Y7478881D01*
X191280952Y7631262D01*
X191242857Y7707453D01*
X191204762Y7745548D01*
X191128571Y7783643D01*
G04 #@! TO.C,D48*
X160629464Y29615191D02*
X159829464Y29615191D01*
X159829464Y29805667D01*
X159867560Y29919953D01*
X159943750Y29996143D01*
X160019940Y30034239D01*
X160172321Y30072334D01*
X160286607Y30072334D01*
X160438988Y30034239D01*
X160515179Y29996143D01*
X160591369Y29919953D01*
X160629464Y29805667D01*
X160629464Y29615191D01*
X160096131Y30758048D02*
X160629464Y30758048D01*
X159791369Y30567572D02*
X160362798Y30377096D01*
X160362798Y30872334D01*
X160172321Y31291381D02*
X160134226Y31215191D01*
X160096131Y31177096D01*
X160019940Y31139000D01*
X159981845Y31139000D01*
X159905655Y31177096D01*
X159867560Y31215191D01*
X159829464Y31291381D01*
X159829464Y31443762D01*
X159867560Y31519953D01*
X159905655Y31558048D01*
X159981845Y31596143D01*
X160019940Y31596143D01*
X160096131Y31558048D01*
X160134226Y31519953D01*
X160172321Y31443762D01*
X160172321Y31291381D01*
X160210417Y31215191D01*
X160248512Y31177096D01*
X160324702Y31139000D01*
X160477083Y31139000D01*
X160553274Y31177096D01*
X160591369Y31215191D01*
X160629464Y31291381D01*
X160629464Y31443762D01*
X160591369Y31519953D01*
X160553274Y31558048D01*
X160477083Y31596143D01*
X160324702Y31596143D01*
X160248512Y31558048D01*
X160210417Y31519953D01*
X160172321Y31443762D01*
G04 #@! TO.C,D47*
X134405837Y5802691D02*
X133605837Y5802691D01*
X133605837Y5993167D01*
X133643933Y6107453D01*
X133720123Y6183643D01*
X133796313Y6221739D01*
X133948694Y6259834D01*
X134062980Y6259834D01*
X134215361Y6221739D01*
X134291552Y6183643D01*
X134367742Y6107453D01*
X134405837Y5993167D01*
X134405837Y5802691D01*
X133872504Y6945548D02*
X134405837Y6945548D01*
X133567742Y6755072D02*
X134139171Y6564596D01*
X134139171Y7059834D01*
X133605837Y7288405D02*
X133605837Y7821739D01*
X134405837Y7478881D01*
G04 #@! TO.C,D46*
X129673214Y5802691D02*
X128873214Y5802691D01*
X128873214Y5993167D01*
X128911310Y6107453D01*
X128987500Y6183643D01*
X129063690Y6221739D01*
X129216071Y6259834D01*
X129330357Y6259834D01*
X129482738Y6221739D01*
X129558929Y6183643D01*
X129635119Y6107453D01*
X129673214Y5993167D01*
X129673214Y5802691D01*
X129139881Y6945548D02*
X129673214Y6945548D01*
X128835119Y6755072D02*
X129406548Y6564596D01*
X129406548Y7059834D01*
X128873214Y7707453D02*
X128873214Y7555072D01*
X128911310Y7478881D01*
X128949405Y7440786D01*
X129063690Y7364596D01*
X129216071Y7326500D01*
X129520833Y7326500D01*
X129597024Y7364596D01*
X129635119Y7402691D01*
X129673214Y7478881D01*
X129673214Y7631262D01*
X129635119Y7707453D01*
X129597024Y7745548D01*
X129520833Y7783643D01*
X129330357Y7783643D01*
X129254167Y7745548D01*
X129216071Y7707453D01*
X129177976Y7631262D01*
X129177976Y7478881D01*
X129216071Y7402691D01*
X129254167Y7364596D01*
X129330357Y7326500D01*
G04 #@! TO.C,D45*
X108241964Y5923038D02*
X107441964Y5923038D01*
X107441964Y6113514D01*
X107480060Y6227800D01*
X107556250Y6303990D01*
X107632440Y6342086D01*
X107784821Y6380181D01*
X107899107Y6380181D01*
X108051488Y6342086D01*
X108127679Y6303990D01*
X108203869Y6227800D01*
X108241964Y6113514D01*
X108241964Y5923038D01*
X107708631Y7065895D02*
X108241964Y7065895D01*
X107403869Y6875419D02*
X107975298Y6684943D01*
X107975298Y7180181D01*
X107441964Y7865895D02*
X107441964Y7484943D01*
X107822917Y7446847D01*
X107784821Y7484943D01*
X107746726Y7561133D01*
X107746726Y7751609D01*
X107784821Y7827800D01*
X107822917Y7865895D01*
X107899107Y7903990D01*
X108089583Y7903990D01*
X108165774Y7865895D01*
X108203869Y7827800D01*
X108241964Y7751609D01*
X108241964Y7561133D01*
X108203869Y7484943D01*
X108165774Y7446847D01*
G04 #@! TO.C,D44*
X89191964Y5802691D02*
X88391964Y5802691D01*
X88391964Y5993167D01*
X88430060Y6107453D01*
X88506250Y6183643D01*
X88582440Y6221739D01*
X88734821Y6259834D01*
X88849107Y6259834D01*
X89001488Y6221739D01*
X89077679Y6183643D01*
X89153869Y6107453D01*
X89191964Y5993167D01*
X89191964Y5802691D01*
X88658631Y6945548D02*
X89191964Y6945548D01*
X88353869Y6755072D02*
X88925298Y6564596D01*
X88925298Y7059834D01*
X88658631Y7707453D02*
X89191964Y7707453D01*
X88353869Y7516977D02*
X88925298Y7326500D01*
X88925298Y7821739D01*
G04 #@! TO.C,D43*
X67760714Y5802691D02*
X66960714Y5802691D01*
X66960714Y5993167D01*
X66998810Y6107453D01*
X67075000Y6183643D01*
X67151190Y6221739D01*
X67303571Y6259834D01*
X67417857Y6259834D01*
X67570238Y6221739D01*
X67646429Y6183643D01*
X67722619Y6107453D01*
X67760714Y5993167D01*
X67760714Y5802691D01*
X67227381Y6945548D02*
X67760714Y6945548D01*
X66922619Y6755072D02*
X67494048Y6564596D01*
X67494048Y7059834D01*
X66960714Y7288405D02*
X66960714Y7783643D01*
X67265476Y7516977D01*
X67265476Y7631262D01*
X67303571Y7707453D01*
X67341667Y7745548D01*
X67417857Y7783643D01*
X67608333Y7783643D01*
X67684524Y7745548D01*
X67722619Y7707453D01*
X67760714Y7631262D01*
X67760714Y7402691D01*
X67722619Y7326500D01*
X67684524Y7288405D01*
G04 #@! TO.C,D42*
X286602381Y41649715D02*
X286602381Y42449715D01*
X286792857Y42449715D01*
X286907143Y42411620D01*
X286983333Y42335429D01*
X287021429Y42259239D01*
X287059524Y42106858D01*
X287059524Y41992572D01*
X287021429Y41840191D01*
X286983333Y41764000D01*
X286907143Y41687810D01*
X286792857Y41649715D01*
X286602381Y41649715D01*
X287745238Y42183048D02*
X287745238Y41649715D01*
X287554762Y42487810D02*
X287364286Y41916381D01*
X287859524Y41916381D01*
X288126190Y42373524D02*
X288164286Y42411620D01*
X288240476Y42449715D01*
X288430952Y42449715D01*
X288507143Y42411620D01*
X288545238Y42373524D01*
X288583333Y42297334D01*
X288583333Y42221143D01*
X288545238Y42106858D01*
X288088095Y41649715D01*
X288583333Y41649715D01*
G04 #@! TO.C,D41*
X274929464Y29615191D02*
X274129464Y29615191D01*
X274129464Y29805667D01*
X274167560Y29919953D01*
X274243750Y29996143D01*
X274319940Y30034239D01*
X274472321Y30072334D01*
X274586607Y30072334D01*
X274738988Y30034239D01*
X274815179Y29996143D01*
X274891369Y29919953D01*
X274929464Y29805667D01*
X274929464Y29615191D01*
X274396131Y30758048D02*
X274929464Y30758048D01*
X274091369Y30567572D02*
X274662798Y30377096D01*
X274662798Y30872334D01*
X274929464Y31596143D02*
X274929464Y31139000D01*
X274929464Y31367572D02*
X274129464Y31367572D01*
X274243750Y31291381D01*
X274319940Y31215191D01*
X274358036Y31139000D01*
G04 #@! TO.C,D40*
X255879464Y29615191D02*
X255079464Y29615191D01*
X255079464Y29805667D01*
X255117560Y29919953D01*
X255193750Y29996143D01*
X255269940Y30034239D01*
X255422321Y30072334D01*
X255536607Y30072334D01*
X255688988Y30034239D01*
X255765179Y29996143D01*
X255841369Y29919953D01*
X255879464Y29805667D01*
X255879464Y29615191D01*
X255346131Y30758048D02*
X255879464Y30758048D01*
X255041369Y30567572D02*
X255612798Y30377096D01*
X255612798Y30872334D01*
X255079464Y31329477D02*
X255079464Y31405667D01*
X255117560Y31481858D01*
X255155655Y31519953D01*
X255231845Y31558048D01*
X255384226Y31596143D01*
X255574702Y31596143D01*
X255727083Y31558048D01*
X255803274Y31519953D01*
X255841369Y31481858D01*
X255879464Y31405667D01*
X255879464Y31329477D01*
X255841369Y31253286D01*
X255803274Y31215191D01*
X255727083Y31177096D01*
X255574702Y31139000D01*
X255384226Y31139000D01*
X255231845Y31177096D01*
X255155655Y31215191D01*
X255117560Y31253286D01*
X255079464Y31329477D01*
G04 #@! TO.C,D39*
X236829464Y29615191D02*
X236029464Y29615191D01*
X236029464Y29805667D01*
X236067560Y29919953D01*
X236143750Y29996143D01*
X236219940Y30034239D01*
X236372321Y30072334D01*
X236486607Y30072334D01*
X236638988Y30034239D01*
X236715179Y29996143D01*
X236791369Y29919953D01*
X236829464Y29805667D01*
X236829464Y29615191D01*
X236029464Y30339000D02*
X236029464Y30834239D01*
X236334226Y30567572D01*
X236334226Y30681858D01*
X236372321Y30758048D01*
X236410417Y30796143D01*
X236486607Y30834239D01*
X236677083Y30834239D01*
X236753274Y30796143D01*
X236791369Y30758048D01*
X236829464Y30681858D01*
X236829464Y30453286D01*
X236791369Y30377096D01*
X236753274Y30339000D01*
X236829464Y31215191D02*
X236829464Y31367572D01*
X236791369Y31443762D01*
X236753274Y31481858D01*
X236638988Y31558048D01*
X236486607Y31596143D01*
X236181845Y31596143D01*
X236105655Y31558048D01*
X236067560Y31519953D01*
X236029464Y31443762D01*
X236029464Y31291381D01*
X236067560Y31215191D01*
X236105655Y31177096D01*
X236181845Y31139000D01*
X236372321Y31139000D01*
X236448512Y31177096D01*
X236486607Y31215191D01*
X236524702Y31291381D01*
X236524702Y31443762D01*
X236486607Y31519953D01*
X236448512Y31558048D01*
X236372321Y31596143D01*
G04 #@! TO.C,D38*
X217779464Y29615191D02*
X216979464Y29615191D01*
X216979464Y29805667D01*
X217017560Y29919953D01*
X217093750Y29996143D01*
X217169940Y30034239D01*
X217322321Y30072334D01*
X217436607Y30072334D01*
X217588988Y30034239D01*
X217665179Y29996143D01*
X217741369Y29919953D01*
X217779464Y29805667D01*
X217779464Y29615191D01*
X216979464Y30339000D02*
X216979464Y30834239D01*
X217284226Y30567572D01*
X217284226Y30681858D01*
X217322321Y30758048D01*
X217360417Y30796143D01*
X217436607Y30834239D01*
X217627083Y30834239D01*
X217703274Y30796143D01*
X217741369Y30758048D01*
X217779464Y30681858D01*
X217779464Y30453286D01*
X217741369Y30377096D01*
X217703274Y30339000D01*
X217322321Y31291381D02*
X217284226Y31215191D01*
X217246131Y31177096D01*
X217169940Y31139000D01*
X217131845Y31139000D01*
X217055655Y31177096D01*
X217017560Y31215191D01*
X216979464Y31291381D01*
X216979464Y31443762D01*
X217017560Y31519953D01*
X217055655Y31558048D01*
X217131845Y31596143D01*
X217169940Y31596143D01*
X217246131Y31558048D01*
X217284226Y31519953D01*
X217322321Y31443762D01*
X217322321Y31291381D01*
X217360417Y31215191D01*
X217398512Y31177096D01*
X217474702Y31139000D01*
X217627083Y31139000D01*
X217703274Y31177096D01*
X217741369Y31215191D01*
X217779464Y31291381D01*
X217779464Y31443762D01*
X217741369Y31519953D01*
X217703274Y31558048D01*
X217627083Y31596143D01*
X217474702Y31596143D01*
X217398512Y31558048D01*
X217360417Y31519953D01*
X217322321Y31443762D01*
G04 #@! TO.C,D37*
X198729464Y29615191D02*
X197929464Y29615191D01*
X197929464Y29805667D01*
X197967560Y29919953D01*
X198043750Y29996143D01*
X198119940Y30034239D01*
X198272321Y30072334D01*
X198386607Y30072334D01*
X198538988Y30034239D01*
X198615179Y29996143D01*
X198691369Y29919953D01*
X198729464Y29805667D01*
X198729464Y29615191D01*
X197929464Y30339000D02*
X197929464Y30834239D01*
X198234226Y30567572D01*
X198234226Y30681858D01*
X198272321Y30758048D01*
X198310417Y30796143D01*
X198386607Y30834239D01*
X198577083Y30834239D01*
X198653274Y30796143D01*
X198691369Y30758048D01*
X198729464Y30681858D01*
X198729464Y30453286D01*
X198691369Y30377096D01*
X198653274Y30339000D01*
X197929464Y31100905D02*
X197929464Y31634239D01*
X198729464Y31291381D01*
G04 #@! TO.C,D36*
X179679464Y29615191D02*
X178879464Y29615191D01*
X178879464Y29805667D01*
X178917560Y29919953D01*
X178993750Y29996143D01*
X179069940Y30034239D01*
X179222321Y30072334D01*
X179336607Y30072334D01*
X179488988Y30034239D01*
X179565179Y29996143D01*
X179641369Y29919953D01*
X179679464Y29805667D01*
X179679464Y29615191D01*
X178879464Y30339000D02*
X178879464Y30834239D01*
X179184226Y30567572D01*
X179184226Y30681858D01*
X179222321Y30758048D01*
X179260417Y30796143D01*
X179336607Y30834239D01*
X179527083Y30834239D01*
X179603274Y30796143D01*
X179641369Y30758048D01*
X179679464Y30681858D01*
X179679464Y30453286D01*
X179641369Y30377096D01*
X179603274Y30339000D01*
X178879464Y31519953D02*
X178879464Y31367572D01*
X178917560Y31291381D01*
X178955655Y31253286D01*
X179069940Y31177096D01*
X179222321Y31139000D01*
X179527083Y31139000D01*
X179603274Y31177096D01*
X179641369Y31215191D01*
X179679464Y31291381D01*
X179679464Y31443762D01*
X179641369Y31519953D01*
X179603274Y31558048D01*
X179527083Y31596143D01*
X179336607Y31596143D01*
X179260417Y31558048D01*
X179222321Y31519953D01*
X179184226Y31443762D01*
X179184226Y31291381D01*
X179222321Y31215191D01*
X179260417Y31177096D01*
X179336607Y31139000D01*
G04 #@! TO.C,D35*
X141579464Y30091441D02*
X140779464Y30091441D01*
X140779464Y30281917D01*
X140817560Y30396203D01*
X140893750Y30472393D01*
X140969940Y30510489D01*
X141122321Y30548584D01*
X141236607Y30548584D01*
X141388988Y30510489D01*
X141465179Y30472393D01*
X141541369Y30396203D01*
X141579464Y30281917D01*
X141579464Y30091441D01*
X140779464Y30815250D02*
X140779464Y31310489D01*
X141084226Y31043822D01*
X141084226Y31158108D01*
X141122321Y31234298D01*
X141160417Y31272393D01*
X141236607Y31310489D01*
X141427083Y31310489D01*
X141503274Y31272393D01*
X141541369Y31234298D01*
X141579464Y31158108D01*
X141579464Y30929536D01*
X141541369Y30853346D01*
X141503274Y30815250D01*
X140779464Y32034298D02*
X140779464Y31653346D01*
X141160417Y31615250D01*
X141122321Y31653346D01*
X141084226Y31729536D01*
X141084226Y31920012D01*
X141122321Y31996203D01*
X141160417Y32034298D01*
X141236607Y32072393D01*
X141427083Y32072393D01*
X141503274Y32034298D01*
X141541369Y31996203D01*
X141579464Y31920012D01*
X141579464Y31729536D01*
X141541369Y31653346D01*
X141503274Y31615250D01*
G04 #@! TO.C,D34*
X122529464Y29615191D02*
X121729464Y29615191D01*
X121729464Y29805667D01*
X121767560Y29919953D01*
X121843750Y29996143D01*
X121919940Y30034239D01*
X122072321Y30072334D01*
X122186607Y30072334D01*
X122338988Y30034239D01*
X122415179Y29996143D01*
X122491369Y29919953D01*
X122529464Y29805667D01*
X122529464Y29615191D01*
X121729464Y30339000D02*
X121729464Y30834239D01*
X122034226Y30567572D01*
X122034226Y30681858D01*
X122072321Y30758048D01*
X122110417Y30796143D01*
X122186607Y30834239D01*
X122377083Y30834239D01*
X122453274Y30796143D01*
X122491369Y30758048D01*
X122529464Y30681858D01*
X122529464Y30453286D01*
X122491369Y30377096D01*
X122453274Y30339000D01*
X121996131Y31519953D02*
X122529464Y31519953D01*
X121691369Y31329477D02*
X122262798Y31139000D01*
X122262798Y31634239D01*
G04 #@! TO.C,D33*
X103479464Y29615191D02*
X102679464Y29615191D01*
X102679464Y29805667D01*
X102717560Y29919953D01*
X102793750Y29996143D01*
X102869940Y30034239D01*
X103022321Y30072334D01*
X103136607Y30072334D01*
X103288988Y30034239D01*
X103365179Y29996143D01*
X103441369Y29919953D01*
X103479464Y29805667D01*
X103479464Y29615191D01*
X102679464Y30339000D02*
X102679464Y30834239D01*
X102984226Y30567572D01*
X102984226Y30681858D01*
X103022321Y30758048D01*
X103060417Y30796143D01*
X103136607Y30834239D01*
X103327083Y30834239D01*
X103403274Y30796143D01*
X103441369Y30758048D01*
X103479464Y30681858D01*
X103479464Y30453286D01*
X103441369Y30377096D01*
X103403274Y30339000D01*
X102679464Y31100905D02*
X102679464Y31596143D01*
X102984226Y31329477D01*
X102984226Y31443762D01*
X103022321Y31519953D01*
X103060417Y31558048D01*
X103136607Y31596143D01*
X103327083Y31596143D01*
X103403274Y31558048D01*
X103441369Y31519953D01*
X103479464Y31443762D01*
X103479464Y31215191D01*
X103441369Y31139000D01*
X103403274Y31100905D01*
G04 #@! TO.C,D32*
X84429464Y29615191D02*
X83629464Y29615191D01*
X83629464Y29805667D01*
X83667560Y29919953D01*
X83743750Y29996143D01*
X83819940Y30034239D01*
X83972321Y30072334D01*
X84086607Y30072334D01*
X84238988Y30034239D01*
X84315179Y29996143D01*
X84391369Y29919953D01*
X84429464Y29805667D01*
X84429464Y29615191D01*
X83629464Y30339000D02*
X83629464Y30834239D01*
X83934226Y30567572D01*
X83934226Y30681858D01*
X83972321Y30758048D01*
X84010417Y30796143D01*
X84086607Y30834239D01*
X84277083Y30834239D01*
X84353274Y30796143D01*
X84391369Y30758048D01*
X84429464Y30681858D01*
X84429464Y30453286D01*
X84391369Y30377096D01*
X84353274Y30339000D01*
X83705655Y31139000D02*
X83667560Y31177096D01*
X83629464Y31253286D01*
X83629464Y31443762D01*
X83667560Y31519953D01*
X83705655Y31558048D01*
X83781845Y31596143D01*
X83858036Y31596143D01*
X83972321Y31558048D01*
X84429464Y31100905D01*
X84429464Y31596143D01*
G04 #@! TO.C,D31*
X65379464Y29615191D02*
X64579464Y29615191D01*
X64579464Y29805667D01*
X64617560Y29919953D01*
X64693750Y29996143D01*
X64769940Y30034239D01*
X64922321Y30072334D01*
X65036607Y30072334D01*
X65188988Y30034239D01*
X65265179Y29996143D01*
X65341369Y29919953D01*
X65379464Y29805667D01*
X65379464Y29615191D01*
X64579464Y30339000D02*
X64579464Y30834239D01*
X64884226Y30567572D01*
X64884226Y30681858D01*
X64922321Y30758048D01*
X64960417Y30796143D01*
X65036607Y30834239D01*
X65227083Y30834239D01*
X65303274Y30796143D01*
X65341369Y30758048D01*
X65379464Y30681858D01*
X65379464Y30453286D01*
X65341369Y30377096D01*
X65303274Y30339000D01*
X65379464Y31596143D02*
X65379464Y31139000D01*
X65379464Y31367572D02*
X64579464Y31367572D01*
X64693750Y31291381D01*
X64769940Y31215191D01*
X64808036Y31139000D01*
G04 #@! TO.C,D30*
X46329464Y29615191D02*
X45529464Y29615191D01*
X45529464Y29805667D01*
X45567560Y29919953D01*
X45643750Y29996143D01*
X45719940Y30034239D01*
X45872321Y30072334D01*
X45986607Y30072334D01*
X46138988Y30034239D01*
X46215179Y29996143D01*
X46291369Y29919953D01*
X46329464Y29805667D01*
X46329464Y29615191D01*
X45529464Y30339000D02*
X45529464Y30834239D01*
X45834226Y30567572D01*
X45834226Y30681858D01*
X45872321Y30758048D01*
X45910417Y30796143D01*
X45986607Y30834239D01*
X46177083Y30834239D01*
X46253274Y30796143D01*
X46291369Y30758048D01*
X46329464Y30681858D01*
X46329464Y30453286D01*
X46291369Y30377096D01*
X46253274Y30339000D01*
X45529464Y31329477D02*
X45529464Y31405667D01*
X45567560Y31481858D01*
X45605655Y31519953D01*
X45681845Y31558048D01*
X45834226Y31596143D01*
X46024702Y31596143D01*
X46177083Y31558048D01*
X46253274Y31519953D01*
X46291369Y31481858D01*
X46329464Y31405667D01*
X46329464Y31329477D01*
X46291369Y31253286D01*
X46253274Y31215191D01*
X46177083Y31177096D01*
X46024702Y31139000D01*
X45834226Y31139000D01*
X45681845Y31177096D01*
X45605655Y31215191D01*
X45567560Y31253286D01*
X45529464Y31329477D01*
G04 #@! TO.C,D29*
X27279464Y29615191D02*
X26479464Y29615191D01*
X26479464Y29805667D01*
X26517560Y29919953D01*
X26593750Y29996143D01*
X26669940Y30034239D01*
X26822321Y30072334D01*
X26936607Y30072334D01*
X27088988Y30034239D01*
X27165179Y29996143D01*
X27241369Y29919953D01*
X27279464Y29805667D01*
X27279464Y29615191D01*
X26555655Y30377096D02*
X26517560Y30415191D01*
X26479464Y30491381D01*
X26479464Y30681858D01*
X26517560Y30758048D01*
X26555655Y30796143D01*
X26631845Y30834239D01*
X26708036Y30834239D01*
X26822321Y30796143D01*
X27279464Y30339000D01*
X27279464Y30834239D01*
X27279464Y31215191D02*
X27279464Y31367572D01*
X27241369Y31443762D01*
X27203274Y31481858D01*
X27088988Y31558048D01*
X26936607Y31596143D01*
X26631845Y31596143D01*
X26555655Y31558048D01*
X26517560Y31519953D01*
X26479464Y31443762D01*
X26479464Y31291381D01*
X26517560Y31215191D01*
X26555655Y31177096D01*
X26631845Y31139000D01*
X26822321Y31139000D01*
X26898512Y31177096D01*
X26936607Y31215191D01*
X26974702Y31291381D01*
X26974702Y31443762D01*
X26936607Y31519953D01*
X26898512Y31558048D01*
X26822321Y31596143D01*
G04 #@! TO.C,D28*
X291598214Y48665191D02*
X290798214Y48665191D01*
X290798214Y48855667D01*
X290836310Y48969953D01*
X290912500Y49046143D01*
X290988690Y49084239D01*
X291141071Y49122334D01*
X291255357Y49122334D01*
X291407738Y49084239D01*
X291483929Y49046143D01*
X291560119Y48969953D01*
X291598214Y48855667D01*
X291598214Y48665191D01*
X290874405Y49427096D02*
X290836310Y49465191D01*
X290798214Y49541381D01*
X290798214Y49731858D01*
X290836310Y49808048D01*
X290874405Y49846143D01*
X290950595Y49884239D01*
X291026786Y49884239D01*
X291141071Y49846143D01*
X291598214Y49389000D01*
X291598214Y49884239D01*
X291141071Y50341381D02*
X291102976Y50265191D01*
X291064881Y50227096D01*
X290988690Y50189000D01*
X290950595Y50189000D01*
X290874405Y50227096D01*
X290836310Y50265191D01*
X290798214Y50341381D01*
X290798214Y50493762D01*
X290836310Y50569953D01*
X290874405Y50608048D01*
X290950595Y50646143D01*
X290988690Y50646143D01*
X291064881Y50608048D01*
X291102976Y50569953D01*
X291141071Y50493762D01*
X291141071Y50341381D01*
X291179167Y50265191D01*
X291217262Y50227096D01*
X291293452Y50189000D01*
X291445833Y50189000D01*
X291522024Y50227096D01*
X291560119Y50265191D01*
X291598214Y50341381D01*
X291598214Y50493762D01*
X291560119Y50569953D01*
X291522024Y50608048D01*
X291445833Y50646143D01*
X291293452Y50646143D01*
X291217262Y50608048D01*
X291179167Y50569953D01*
X291141071Y50493762D01*
G04 #@! TO.C,D27*
X270166964Y48665191D02*
X269366964Y48665191D01*
X269366964Y48855667D01*
X269405060Y48969953D01*
X269481250Y49046143D01*
X269557440Y49084239D01*
X269709821Y49122334D01*
X269824107Y49122334D01*
X269976488Y49084239D01*
X270052679Y49046143D01*
X270128869Y48969953D01*
X270166964Y48855667D01*
X270166964Y48665191D01*
X269443155Y49427096D02*
X269405060Y49465191D01*
X269366964Y49541381D01*
X269366964Y49731858D01*
X269405060Y49808048D01*
X269443155Y49846143D01*
X269519345Y49884239D01*
X269595536Y49884239D01*
X269709821Y49846143D01*
X270166964Y49389000D01*
X270166964Y49884239D01*
X269366964Y50150905D02*
X269366964Y50684239D01*
X270166964Y50341381D01*
G04 #@! TO.C,D26*
X251116964Y48665191D02*
X250316964Y48665191D01*
X250316964Y48855667D01*
X250355060Y48969953D01*
X250431250Y49046143D01*
X250507440Y49084239D01*
X250659821Y49122334D01*
X250774107Y49122334D01*
X250926488Y49084239D01*
X251002679Y49046143D01*
X251078869Y48969953D01*
X251116964Y48855667D01*
X251116964Y48665191D01*
X250393155Y49427096D02*
X250355060Y49465191D01*
X250316964Y49541381D01*
X250316964Y49731858D01*
X250355060Y49808048D01*
X250393155Y49846143D01*
X250469345Y49884239D01*
X250545536Y49884239D01*
X250659821Y49846143D01*
X251116964Y49389000D01*
X251116964Y49884239D01*
X250316964Y50569953D02*
X250316964Y50417572D01*
X250355060Y50341381D01*
X250393155Y50303286D01*
X250507440Y50227096D01*
X250659821Y50189000D01*
X250964583Y50189000D01*
X251040774Y50227096D01*
X251078869Y50265191D01*
X251116964Y50341381D01*
X251116964Y50493762D01*
X251078869Y50569953D01*
X251040774Y50608048D01*
X250964583Y50646143D01*
X250774107Y50646143D01*
X250697917Y50608048D01*
X250659821Y50569953D01*
X250621726Y50493762D01*
X250621726Y50341381D01*
X250659821Y50265191D01*
X250697917Y50227096D01*
X250774107Y50189000D01*
G04 #@! TO.C,D25*
X232066964Y48665191D02*
X231266964Y48665191D01*
X231266964Y48855667D01*
X231305060Y48969953D01*
X231381250Y49046143D01*
X231457440Y49084239D01*
X231609821Y49122334D01*
X231724107Y49122334D01*
X231876488Y49084239D01*
X231952679Y49046143D01*
X232028869Y48969953D01*
X232066964Y48855667D01*
X232066964Y48665191D01*
X231343155Y49427096D02*
X231305060Y49465191D01*
X231266964Y49541381D01*
X231266964Y49731858D01*
X231305060Y49808048D01*
X231343155Y49846143D01*
X231419345Y49884239D01*
X231495536Y49884239D01*
X231609821Y49846143D01*
X232066964Y49389000D01*
X232066964Y49884239D01*
X231266964Y50608048D02*
X231266964Y50227096D01*
X231647917Y50189000D01*
X231609821Y50227096D01*
X231571726Y50303286D01*
X231571726Y50493762D01*
X231609821Y50569953D01*
X231647917Y50608048D01*
X231724107Y50646143D01*
X231914583Y50646143D01*
X231990774Y50608048D01*
X232028869Y50569953D01*
X232066964Y50493762D01*
X232066964Y50303286D01*
X232028869Y50227096D01*
X231990774Y50189000D01*
G04 #@! TO.C,D24*
X213016964Y48665191D02*
X212216964Y48665191D01*
X212216964Y48855667D01*
X212255060Y48969953D01*
X212331250Y49046143D01*
X212407440Y49084239D01*
X212559821Y49122334D01*
X212674107Y49122334D01*
X212826488Y49084239D01*
X212902679Y49046143D01*
X212978869Y48969953D01*
X213016964Y48855667D01*
X213016964Y48665191D01*
X212293155Y49427096D02*
X212255060Y49465191D01*
X212216964Y49541381D01*
X212216964Y49731858D01*
X212255060Y49808048D01*
X212293155Y49846143D01*
X212369345Y49884239D01*
X212445536Y49884239D01*
X212559821Y49846143D01*
X213016964Y49389000D01*
X213016964Y49884239D01*
X212483631Y50569953D02*
X213016964Y50569953D01*
X212178869Y50379477D02*
X212750298Y50189000D01*
X212750298Y50684239D01*
G04 #@! TO.C,D23*
X193966964Y48665191D02*
X193166964Y48665191D01*
X193166964Y48855667D01*
X193205060Y48969953D01*
X193281250Y49046143D01*
X193357440Y49084239D01*
X193509821Y49122334D01*
X193624107Y49122334D01*
X193776488Y49084239D01*
X193852679Y49046143D01*
X193928869Y48969953D01*
X193966964Y48855667D01*
X193966964Y48665191D01*
X193243155Y49427096D02*
X193205060Y49465191D01*
X193166964Y49541381D01*
X193166964Y49731858D01*
X193205060Y49808048D01*
X193243155Y49846143D01*
X193319345Y49884239D01*
X193395536Y49884239D01*
X193509821Y49846143D01*
X193966964Y49389000D01*
X193966964Y49884239D01*
X193166964Y50150905D02*
X193166964Y50646143D01*
X193471726Y50379477D01*
X193471726Y50493762D01*
X193509821Y50569953D01*
X193547917Y50608048D01*
X193624107Y50646143D01*
X193814583Y50646143D01*
X193890774Y50608048D01*
X193928869Y50569953D01*
X193966964Y50493762D01*
X193966964Y50265191D01*
X193928869Y50189000D01*
X193890774Y50150905D01*
G04 #@! TO.C,D22*
X174916964Y48665191D02*
X174116964Y48665191D01*
X174116964Y48855667D01*
X174155060Y48969953D01*
X174231250Y49046143D01*
X174307440Y49084239D01*
X174459821Y49122334D01*
X174574107Y49122334D01*
X174726488Y49084239D01*
X174802679Y49046143D01*
X174878869Y48969953D01*
X174916964Y48855667D01*
X174916964Y48665191D01*
X174193155Y49427096D02*
X174155060Y49465191D01*
X174116964Y49541381D01*
X174116964Y49731858D01*
X174155060Y49808048D01*
X174193155Y49846143D01*
X174269345Y49884239D01*
X174345536Y49884239D01*
X174459821Y49846143D01*
X174916964Y49389000D01*
X174916964Y49884239D01*
X174193155Y50189000D02*
X174155060Y50227096D01*
X174116964Y50303286D01*
X174116964Y50493762D01*
X174155060Y50569953D01*
X174193155Y50608048D01*
X174269345Y50646143D01*
X174345536Y50646143D01*
X174459821Y50608048D01*
X174916964Y50150905D01*
X174916964Y50646143D01*
G04 #@! TO.C,D21*
X146341964Y48665191D02*
X145541964Y48665191D01*
X145541964Y48855667D01*
X145580060Y48969953D01*
X145656250Y49046143D01*
X145732440Y49084239D01*
X145884821Y49122334D01*
X145999107Y49122334D01*
X146151488Y49084239D01*
X146227679Y49046143D01*
X146303869Y48969953D01*
X146341964Y48855667D01*
X146341964Y48665191D01*
X145618155Y49427096D02*
X145580060Y49465191D01*
X145541964Y49541381D01*
X145541964Y49731858D01*
X145580060Y49808048D01*
X145618155Y49846143D01*
X145694345Y49884239D01*
X145770536Y49884239D01*
X145884821Y49846143D01*
X146341964Y49389000D01*
X146341964Y49884239D01*
X146341964Y50646143D02*
X146341964Y50189000D01*
X146341964Y50417572D02*
X145541964Y50417572D01*
X145656250Y50341381D01*
X145732440Y50265191D01*
X145770536Y50189000D01*
G04 #@! TO.C,D20*
X127291964Y48665191D02*
X126491964Y48665191D01*
X126491964Y48855667D01*
X126530060Y48969953D01*
X126606250Y49046143D01*
X126682440Y49084239D01*
X126834821Y49122334D01*
X126949107Y49122334D01*
X127101488Y49084239D01*
X127177679Y49046143D01*
X127253869Y48969953D01*
X127291964Y48855667D01*
X127291964Y48665191D01*
X126568155Y49427096D02*
X126530060Y49465191D01*
X126491964Y49541381D01*
X126491964Y49731858D01*
X126530060Y49808048D01*
X126568155Y49846143D01*
X126644345Y49884239D01*
X126720536Y49884239D01*
X126834821Y49846143D01*
X127291964Y49389000D01*
X127291964Y49884239D01*
X126491964Y50379477D02*
X126491964Y50455667D01*
X126530060Y50531858D01*
X126568155Y50569953D01*
X126644345Y50608048D01*
X126796726Y50646143D01*
X126987202Y50646143D01*
X127139583Y50608048D01*
X127215774Y50569953D01*
X127253869Y50531858D01*
X127291964Y50455667D01*
X127291964Y50379477D01*
X127253869Y50303286D01*
X127215774Y50265191D01*
X127139583Y50227096D01*
X126987202Y50189000D01*
X126796726Y50189000D01*
X126644345Y50227096D01*
X126568155Y50265191D01*
X126530060Y50303286D01*
X126491964Y50379477D01*
G04 #@! TO.C,D19*
X108241964Y48665191D02*
X107441964Y48665191D01*
X107441964Y48855667D01*
X107480060Y48969953D01*
X107556250Y49046143D01*
X107632440Y49084239D01*
X107784821Y49122334D01*
X107899107Y49122334D01*
X108051488Y49084239D01*
X108127679Y49046143D01*
X108203869Y48969953D01*
X108241964Y48855667D01*
X108241964Y48665191D01*
X108241964Y49884239D02*
X108241964Y49427096D01*
X108241964Y49655667D02*
X107441964Y49655667D01*
X107556250Y49579477D01*
X107632440Y49503286D01*
X107670536Y49427096D01*
X108241964Y50265191D02*
X108241964Y50417572D01*
X108203869Y50493762D01*
X108165774Y50531858D01*
X108051488Y50608048D01*
X107899107Y50646143D01*
X107594345Y50646143D01*
X107518155Y50608048D01*
X107480060Y50569953D01*
X107441964Y50493762D01*
X107441964Y50341381D01*
X107480060Y50265191D01*
X107518155Y50227096D01*
X107594345Y50189000D01*
X107784821Y50189000D01*
X107861012Y50227096D01*
X107899107Y50265191D01*
X107937202Y50341381D01*
X107937202Y50493762D01*
X107899107Y50569953D01*
X107861012Y50608048D01*
X107784821Y50646143D01*
G04 #@! TO.C,D18*
X89191964Y48665191D02*
X88391964Y48665191D01*
X88391964Y48855667D01*
X88430060Y48969953D01*
X88506250Y49046143D01*
X88582440Y49084239D01*
X88734821Y49122334D01*
X88849107Y49122334D01*
X89001488Y49084239D01*
X89077679Y49046143D01*
X89153869Y48969953D01*
X89191964Y48855667D01*
X89191964Y48665191D01*
X89191964Y49884239D02*
X89191964Y49427096D01*
X89191964Y49655667D02*
X88391964Y49655667D01*
X88506250Y49579477D01*
X88582440Y49503286D01*
X88620536Y49427096D01*
X88734821Y50341381D02*
X88696726Y50265191D01*
X88658631Y50227096D01*
X88582440Y50189000D01*
X88544345Y50189000D01*
X88468155Y50227096D01*
X88430060Y50265191D01*
X88391964Y50341381D01*
X88391964Y50493762D01*
X88430060Y50569953D01*
X88468155Y50608048D01*
X88544345Y50646143D01*
X88582440Y50646143D01*
X88658631Y50608048D01*
X88696726Y50569953D01*
X88734821Y50493762D01*
X88734821Y50341381D01*
X88772917Y50265191D01*
X88811012Y50227096D01*
X88887202Y50189000D01*
X89039583Y50189000D01*
X89115774Y50227096D01*
X89153869Y50265191D01*
X89191964Y50341381D01*
X89191964Y50493762D01*
X89153869Y50569953D01*
X89115774Y50608048D01*
X89039583Y50646143D01*
X88887202Y50646143D01*
X88811012Y50608048D01*
X88772917Y50569953D01*
X88734821Y50493762D01*
G04 #@! TO.C,D17*
X70141964Y48665191D02*
X69341964Y48665191D01*
X69341964Y48855667D01*
X69380060Y48969953D01*
X69456250Y49046143D01*
X69532440Y49084239D01*
X69684821Y49122334D01*
X69799107Y49122334D01*
X69951488Y49084239D01*
X70027679Y49046143D01*
X70103869Y48969953D01*
X70141964Y48855667D01*
X70141964Y48665191D01*
X70141964Y49884239D02*
X70141964Y49427096D01*
X70141964Y49655667D02*
X69341964Y49655667D01*
X69456250Y49579477D01*
X69532440Y49503286D01*
X69570536Y49427096D01*
X69341964Y50150905D02*
X69341964Y50684239D01*
X70141964Y50341381D01*
G04 #@! TO.C,D16*
X51091964Y48665191D02*
X50291964Y48665191D01*
X50291964Y48855667D01*
X50330060Y48969953D01*
X50406250Y49046143D01*
X50482440Y49084239D01*
X50634821Y49122334D01*
X50749107Y49122334D01*
X50901488Y49084239D01*
X50977679Y49046143D01*
X51053869Y48969953D01*
X51091964Y48855667D01*
X51091964Y48665191D01*
X51091964Y49884239D02*
X51091964Y49427096D01*
X51091964Y49655667D02*
X50291964Y49655667D01*
X50406250Y49579477D01*
X50482440Y49503286D01*
X50520536Y49427096D01*
X50291964Y50569953D02*
X50291964Y50417572D01*
X50330060Y50341381D01*
X50368155Y50303286D01*
X50482440Y50227096D01*
X50634821Y50189000D01*
X50939583Y50189000D01*
X51015774Y50227096D01*
X51053869Y50265191D01*
X51091964Y50341381D01*
X51091964Y50493762D01*
X51053869Y50569953D01*
X51015774Y50608048D01*
X50939583Y50646143D01*
X50749107Y50646143D01*
X50672917Y50608048D01*
X50634821Y50569953D01*
X50596726Y50493762D01*
X50596726Y50341381D01*
X50634821Y50265191D01*
X50672917Y50227096D01*
X50749107Y50189000D01*
G04 #@! TO.C,D15*
X29660714Y48665191D02*
X28860714Y48665191D01*
X28860714Y48855667D01*
X28898810Y48969953D01*
X28975000Y49046143D01*
X29051190Y49084239D01*
X29203571Y49122334D01*
X29317857Y49122334D01*
X29470238Y49084239D01*
X29546429Y49046143D01*
X29622619Y48969953D01*
X29660714Y48855667D01*
X29660714Y48665191D01*
X29660714Y49884239D02*
X29660714Y49427096D01*
X29660714Y49655667D02*
X28860714Y49655667D01*
X28975000Y49579477D01*
X29051190Y49503286D01*
X29089286Y49427096D01*
X28860714Y50608048D02*
X28860714Y50227096D01*
X29241667Y50189000D01*
X29203571Y50227096D01*
X29165476Y50303286D01*
X29165476Y50493762D01*
X29203571Y50569953D01*
X29241667Y50608048D01*
X29317857Y50646143D01*
X29508333Y50646143D01*
X29584524Y50608048D01*
X29622619Y50569953D01*
X29660714Y50493762D01*
X29660714Y50303286D01*
X29622619Y50227096D01*
X29584524Y50189000D01*
G04 #@! TO.C,D14*
X289216964Y67835538D02*
X288416964Y67835538D01*
X288416964Y68026014D01*
X288455060Y68140300D01*
X288531250Y68216490D01*
X288607440Y68254586D01*
X288759821Y68292681D01*
X288874107Y68292681D01*
X289026488Y68254586D01*
X289102679Y68216490D01*
X289178869Y68140300D01*
X289216964Y68026014D01*
X289216964Y67835538D01*
X289216964Y69054586D02*
X289216964Y68597443D01*
X289216964Y68826014D02*
X288416964Y68826014D01*
X288531250Y68749824D01*
X288607440Y68673633D01*
X288645536Y68597443D01*
X288683631Y69740300D02*
X289216964Y69740300D01*
X288378869Y69549824D02*
X288950298Y69359347D01*
X288950298Y69854586D01*
G04 #@! TO.C,D13*
X265404464Y67715191D02*
X264604464Y67715191D01*
X264604464Y67905667D01*
X264642560Y68019953D01*
X264718750Y68096143D01*
X264794940Y68134239D01*
X264947321Y68172334D01*
X265061607Y68172334D01*
X265213988Y68134239D01*
X265290179Y68096143D01*
X265366369Y68019953D01*
X265404464Y67905667D01*
X265404464Y67715191D01*
X265404464Y68934239D02*
X265404464Y68477096D01*
X265404464Y68705667D02*
X264604464Y68705667D01*
X264718750Y68629477D01*
X264794940Y68553286D01*
X264833036Y68477096D01*
X264604464Y69200905D02*
X264604464Y69696143D01*
X264909226Y69429477D01*
X264909226Y69543762D01*
X264947321Y69619953D01*
X264985417Y69658048D01*
X265061607Y69696143D01*
X265252083Y69696143D01*
X265328274Y69658048D01*
X265366369Y69619953D01*
X265404464Y69543762D01*
X265404464Y69315191D01*
X265366369Y69239000D01*
X265328274Y69200905D01*
G04 #@! TO.C,D12*
X246354464Y67715191D02*
X245554464Y67715191D01*
X245554464Y67905667D01*
X245592560Y68019953D01*
X245668750Y68096143D01*
X245744940Y68134239D01*
X245897321Y68172334D01*
X246011607Y68172334D01*
X246163988Y68134239D01*
X246240179Y68096143D01*
X246316369Y68019953D01*
X246354464Y67905667D01*
X246354464Y67715191D01*
X246354464Y68934239D02*
X246354464Y68477096D01*
X246354464Y68705667D02*
X245554464Y68705667D01*
X245668750Y68629477D01*
X245744940Y68553286D01*
X245783036Y68477096D01*
X245630655Y69239000D02*
X245592560Y69277096D01*
X245554464Y69353286D01*
X245554464Y69543762D01*
X245592560Y69619953D01*
X245630655Y69658048D01*
X245706845Y69696143D01*
X245783036Y69696143D01*
X245897321Y69658048D01*
X246354464Y69200905D01*
X246354464Y69696143D01*
G04 #@! TO.C,D11*
X227304464Y67715191D02*
X226504464Y67715191D01*
X226504464Y67905667D01*
X226542560Y68019953D01*
X226618750Y68096143D01*
X226694940Y68134239D01*
X226847321Y68172334D01*
X226961607Y68172334D01*
X227113988Y68134239D01*
X227190179Y68096143D01*
X227266369Y68019953D01*
X227304464Y67905667D01*
X227304464Y67715191D01*
X227304464Y68934239D02*
X227304464Y68477096D01*
X227304464Y68705667D02*
X226504464Y68705667D01*
X226618750Y68629477D01*
X226694940Y68553286D01*
X226733036Y68477096D01*
X227304464Y69696143D02*
X227304464Y69239000D01*
X227304464Y69467572D02*
X226504464Y69467572D01*
X226618750Y69391381D01*
X226694940Y69315191D01*
X226733036Y69239000D01*
G04 #@! TO.C,D10*
X208254464Y67715191D02*
X207454464Y67715191D01*
X207454464Y67905667D01*
X207492560Y68019953D01*
X207568750Y68096143D01*
X207644940Y68134239D01*
X207797321Y68172334D01*
X207911607Y68172334D01*
X208063988Y68134239D01*
X208140179Y68096143D01*
X208216369Y68019953D01*
X208254464Y67905667D01*
X208254464Y67715191D01*
X208254464Y68934239D02*
X208254464Y68477096D01*
X208254464Y68705667D02*
X207454464Y68705667D01*
X207568750Y68629477D01*
X207644940Y68553286D01*
X207683036Y68477096D01*
X207454464Y69429477D02*
X207454464Y69505667D01*
X207492560Y69581858D01*
X207530655Y69619953D01*
X207606845Y69658048D01*
X207759226Y69696143D01*
X207949702Y69696143D01*
X208102083Y69658048D01*
X208178274Y69619953D01*
X208216369Y69581858D01*
X208254464Y69505667D01*
X208254464Y69429477D01*
X208216369Y69353286D01*
X208178274Y69315191D01*
X208102083Y69277096D01*
X207949702Y69239000D01*
X207759226Y69239000D01*
X207606845Y69277096D01*
X207530655Y69315191D01*
X207492560Y69353286D01*
X207454464Y69429477D01*
G04 #@! TO.C,D9*
X189204464Y68096143D02*
X188404464Y68096143D01*
X188404464Y68286620D01*
X188442560Y68400905D01*
X188518750Y68477096D01*
X188594940Y68515191D01*
X188747321Y68553286D01*
X188861607Y68553286D01*
X189013988Y68515191D01*
X189090179Y68477096D01*
X189166369Y68400905D01*
X189204464Y68286620D01*
X189204464Y68096143D01*
X189204464Y68934239D02*
X189204464Y69086620D01*
X189166369Y69162810D01*
X189128274Y69200905D01*
X189013988Y69277096D01*
X188861607Y69315191D01*
X188556845Y69315191D01*
X188480655Y69277096D01*
X188442560Y69239000D01*
X188404464Y69162810D01*
X188404464Y69010429D01*
X188442560Y68934239D01*
X188480655Y68896143D01*
X188556845Y68858048D01*
X188747321Y68858048D01*
X188823512Y68896143D01*
X188861607Y68934239D01*
X188899702Y69010429D01*
X188899702Y69162810D01*
X188861607Y69239000D01*
X188823512Y69277096D01*
X188747321Y69315191D01*
G04 #@! TO.C,D8*
X170154464Y68096143D02*
X169354464Y68096143D01*
X169354464Y68286620D01*
X169392560Y68400905D01*
X169468750Y68477096D01*
X169544940Y68515191D01*
X169697321Y68553286D01*
X169811607Y68553286D01*
X169963988Y68515191D01*
X170040179Y68477096D01*
X170116369Y68400905D01*
X170154464Y68286620D01*
X170154464Y68096143D01*
X169697321Y69010429D02*
X169659226Y68934239D01*
X169621131Y68896143D01*
X169544940Y68858048D01*
X169506845Y68858048D01*
X169430655Y68896143D01*
X169392560Y68934239D01*
X169354464Y69010429D01*
X169354464Y69162810D01*
X169392560Y69239000D01*
X169430655Y69277096D01*
X169506845Y69315191D01*
X169544940Y69315191D01*
X169621131Y69277096D01*
X169659226Y69239000D01*
X169697321Y69162810D01*
X169697321Y69010429D01*
X169735417Y68934239D01*
X169773512Y68896143D01*
X169849702Y68858048D01*
X170002083Y68858048D01*
X170078274Y68896143D01*
X170116369Y68934239D01*
X170154464Y69010429D01*
X170154464Y69162810D01*
X170116369Y69239000D01*
X170078274Y69277096D01*
X170002083Y69315191D01*
X169849702Y69315191D01*
X169773512Y69277096D01*
X169735417Y69239000D01*
X169697321Y69162810D01*
G04 #@! TO.C,D7*
X151104464Y68096143D02*
X150304464Y68096143D01*
X150304464Y68286620D01*
X150342560Y68400905D01*
X150418750Y68477096D01*
X150494940Y68515191D01*
X150647321Y68553286D01*
X150761607Y68553286D01*
X150913988Y68515191D01*
X150990179Y68477096D01*
X151066369Y68400905D01*
X151104464Y68286620D01*
X151104464Y68096143D01*
X150304464Y68819953D02*
X150304464Y69353286D01*
X151104464Y69010429D01*
G04 #@! TO.C,D6*
X132054464Y68096143D02*
X131254464Y68096143D01*
X131254464Y68286620D01*
X131292560Y68400905D01*
X131368750Y68477096D01*
X131444940Y68515191D01*
X131597321Y68553286D01*
X131711607Y68553286D01*
X131863988Y68515191D01*
X131940179Y68477096D01*
X132016369Y68400905D01*
X132054464Y68286620D01*
X132054464Y68096143D01*
X131254464Y69239000D02*
X131254464Y69086620D01*
X131292560Y69010429D01*
X131330655Y68972334D01*
X131444940Y68896143D01*
X131597321Y68858048D01*
X131902083Y68858048D01*
X131978274Y68896143D01*
X132016369Y68934239D01*
X132054464Y69010429D01*
X132054464Y69162810D01*
X132016369Y69239000D01*
X131978274Y69277096D01*
X131902083Y69315191D01*
X131711607Y69315191D01*
X131635417Y69277096D01*
X131597321Y69239000D01*
X131559226Y69162810D01*
X131559226Y69010429D01*
X131597321Y68934239D01*
X131635417Y68896143D01*
X131711607Y68858048D01*
G04 #@! TO.C,D5*
X113004464Y68096143D02*
X112204464Y68096143D01*
X112204464Y68286620D01*
X112242560Y68400905D01*
X112318750Y68477096D01*
X112394940Y68515191D01*
X112547321Y68553286D01*
X112661607Y68553286D01*
X112813988Y68515191D01*
X112890179Y68477096D01*
X112966369Y68400905D01*
X113004464Y68286620D01*
X113004464Y68096143D01*
X112204464Y69277096D02*
X112204464Y68896143D01*
X112585417Y68858048D01*
X112547321Y68896143D01*
X112509226Y68972334D01*
X112509226Y69162810D01*
X112547321Y69239000D01*
X112585417Y69277096D01*
X112661607Y69315191D01*
X112852083Y69315191D01*
X112928274Y69277096D01*
X112966369Y69239000D01*
X113004464Y69162810D01*
X113004464Y68972334D01*
X112966369Y68896143D01*
X112928274Y68858048D01*
G04 #@! TO.C,D4*
X93954464Y68096143D02*
X93154464Y68096143D01*
X93154464Y68286620D01*
X93192560Y68400905D01*
X93268750Y68477096D01*
X93344940Y68515191D01*
X93497321Y68553286D01*
X93611607Y68553286D01*
X93763988Y68515191D01*
X93840179Y68477096D01*
X93916369Y68400905D01*
X93954464Y68286620D01*
X93954464Y68096143D01*
X93421131Y69239000D02*
X93954464Y69239000D01*
X93116369Y69048524D02*
X93687798Y68858048D01*
X93687798Y69353286D01*
G04 #@! TO.C,D3*
X74904464Y68096143D02*
X74104464Y68096143D01*
X74104464Y68286620D01*
X74142560Y68400905D01*
X74218750Y68477096D01*
X74294940Y68515191D01*
X74447321Y68553286D01*
X74561607Y68553286D01*
X74713988Y68515191D01*
X74790179Y68477096D01*
X74866369Y68400905D01*
X74904464Y68286620D01*
X74904464Y68096143D01*
X74104464Y68819953D02*
X74104464Y69315191D01*
X74409226Y69048524D01*
X74409226Y69162810D01*
X74447321Y69239000D01*
X74485417Y69277096D01*
X74561607Y69315191D01*
X74752083Y69315191D01*
X74828274Y69277096D01*
X74866369Y69239000D01*
X74904464Y69162810D01*
X74904464Y68934239D01*
X74866369Y68858048D01*
X74828274Y68819953D01*
G04 #@! TO.C,D2*
X55854464Y68096143D02*
X55054464Y68096143D01*
X55054464Y68286620D01*
X55092560Y68400905D01*
X55168750Y68477096D01*
X55244940Y68515191D01*
X55397321Y68553286D01*
X55511607Y68553286D01*
X55663988Y68515191D01*
X55740179Y68477096D01*
X55816369Y68400905D01*
X55854464Y68286620D01*
X55854464Y68096143D01*
X55130655Y68858048D02*
X55092560Y68896143D01*
X55054464Y68972334D01*
X55054464Y69162810D01*
X55092560Y69239000D01*
X55130655Y69277096D01*
X55206845Y69315191D01*
X55283036Y69315191D01*
X55397321Y69277096D01*
X55854464Y68819953D01*
X55854464Y69315191D01*
G04 #@! TO.C,D1*
X32041964Y68096143D02*
X31241964Y68096143D01*
X31241964Y68286620D01*
X31280060Y68400905D01*
X31356250Y68477096D01*
X31432440Y68515191D01*
X31584821Y68553286D01*
X31699107Y68553286D01*
X31851488Y68515191D01*
X31927679Y68477096D01*
X32003869Y68400905D01*
X32041964Y68286620D01*
X32041964Y68096143D01*
X32041964Y69315191D02*
X32041964Y68858048D01*
X32041964Y69086620D02*
X31241964Y69086620D01*
X31356250Y69010429D01*
X31432440Y68934239D01*
X31470536Y68858048D01*
G04 #@! TO.C,SW1*
X23274226Y76555858D02*
X23417083Y76508239D01*
X23655179Y76508239D01*
X23750417Y76555858D01*
X23798036Y76603477D01*
X23845655Y76698715D01*
X23845655Y76793953D01*
X23798036Y76889191D01*
X23750417Y76936810D01*
X23655179Y76984429D01*
X23464702Y77032048D01*
X23369464Y77079667D01*
X23321845Y77127286D01*
X23274226Y77222524D01*
X23274226Y77317762D01*
X23321845Y77413000D01*
X23369464Y77460620D01*
X23464702Y77508239D01*
X23702798Y77508239D01*
X23845655Y77460620D01*
X24178988Y77508239D02*
X24417083Y76508239D01*
X24607560Y77222524D01*
X24798036Y76508239D01*
X25036131Y77508239D01*
X25940893Y76508239D02*
X25369464Y76508239D01*
X25655179Y76508239D02*
X25655179Y77508239D01*
X25559940Y77365381D01*
X25464702Y77270143D01*
X25369464Y77222524D01*
G04 #@! TO.C,SW2*
X47086726Y76555858D02*
X47229583Y76508239D01*
X47467679Y76508239D01*
X47562917Y76555858D01*
X47610536Y76603477D01*
X47658155Y76698715D01*
X47658155Y76793953D01*
X47610536Y76889191D01*
X47562917Y76936810D01*
X47467679Y76984429D01*
X47277202Y77032048D01*
X47181964Y77079667D01*
X47134345Y77127286D01*
X47086726Y77222524D01*
X47086726Y77317762D01*
X47134345Y77413000D01*
X47181964Y77460620D01*
X47277202Y77508239D01*
X47515298Y77508239D01*
X47658155Y77460620D01*
X47991488Y77508239D02*
X48229583Y76508239D01*
X48420060Y77222524D01*
X48610536Y76508239D01*
X48848631Y77508239D01*
X49181964Y77413000D02*
X49229583Y77460620D01*
X49324821Y77508239D01*
X49562917Y77508239D01*
X49658155Y77460620D01*
X49705774Y77413000D01*
X49753393Y77317762D01*
X49753393Y77222524D01*
X49705774Y77079667D01*
X49134345Y76508239D01*
X49753393Y76508239D01*
G04 #@! TO.C,SW3*
X66136726Y76555858D02*
X66279583Y76508239D01*
X66517679Y76508239D01*
X66612917Y76555858D01*
X66660536Y76603477D01*
X66708155Y76698715D01*
X66708155Y76793953D01*
X66660536Y76889191D01*
X66612917Y76936810D01*
X66517679Y76984429D01*
X66327202Y77032048D01*
X66231964Y77079667D01*
X66184345Y77127286D01*
X66136726Y77222524D01*
X66136726Y77317762D01*
X66184345Y77413000D01*
X66231964Y77460620D01*
X66327202Y77508239D01*
X66565298Y77508239D01*
X66708155Y77460620D01*
X67041488Y77508239D02*
X67279583Y76508239D01*
X67470060Y77222524D01*
X67660536Y76508239D01*
X67898631Y77508239D01*
X68184345Y77508239D02*
X68803393Y77508239D01*
X68470060Y77127286D01*
X68612917Y77127286D01*
X68708155Y77079667D01*
X68755774Y77032048D01*
X68803393Y76936810D01*
X68803393Y76698715D01*
X68755774Y76603477D01*
X68708155Y76555858D01*
X68612917Y76508239D01*
X68327202Y76508239D01*
X68231964Y76555858D01*
X68184345Y76603477D01*
G04 #@! TO.C,SW4*
X85186726Y76555858D02*
X85329583Y76508239D01*
X85567679Y76508239D01*
X85662917Y76555858D01*
X85710536Y76603477D01*
X85758155Y76698715D01*
X85758155Y76793953D01*
X85710536Y76889191D01*
X85662917Y76936810D01*
X85567679Y76984429D01*
X85377202Y77032048D01*
X85281964Y77079667D01*
X85234345Y77127286D01*
X85186726Y77222524D01*
X85186726Y77317762D01*
X85234345Y77413000D01*
X85281964Y77460620D01*
X85377202Y77508239D01*
X85615298Y77508239D01*
X85758155Y77460620D01*
X86091488Y77508239D02*
X86329583Y76508239D01*
X86520060Y77222524D01*
X86710536Y76508239D01*
X86948631Y77508239D01*
X87758155Y77174905D02*
X87758155Y76508239D01*
X87520060Y77555858D02*
X87281964Y76841572D01*
X87901012Y76841572D01*
G04 #@! TO.C,SW5*
X104236726Y76555858D02*
X104379583Y76508239D01*
X104617679Y76508239D01*
X104712917Y76555858D01*
X104760536Y76603477D01*
X104808155Y76698715D01*
X104808155Y76793953D01*
X104760536Y76889191D01*
X104712917Y76936810D01*
X104617679Y76984429D01*
X104427202Y77032048D01*
X104331964Y77079667D01*
X104284345Y77127286D01*
X104236726Y77222524D01*
X104236726Y77317762D01*
X104284345Y77413000D01*
X104331964Y77460620D01*
X104427202Y77508239D01*
X104665298Y77508239D01*
X104808155Y77460620D01*
X105141488Y77508239D02*
X105379583Y76508239D01*
X105570060Y77222524D01*
X105760536Y76508239D01*
X105998631Y77508239D01*
X106855774Y77508239D02*
X106379583Y77508239D01*
X106331964Y77032048D01*
X106379583Y77079667D01*
X106474821Y77127286D01*
X106712917Y77127286D01*
X106808155Y77079667D01*
X106855774Y77032048D01*
X106903393Y76936810D01*
X106903393Y76698715D01*
X106855774Y76603477D01*
X106808155Y76555858D01*
X106712917Y76508239D01*
X106474821Y76508239D01*
X106379583Y76555858D01*
X106331964Y76603477D01*
G04 #@! TO.C,SW6*
X123286726Y76555858D02*
X123429583Y76508239D01*
X123667679Y76508239D01*
X123762917Y76555858D01*
X123810536Y76603477D01*
X123858155Y76698715D01*
X123858155Y76793953D01*
X123810536Y76889191D01*
X123762917Y76936810D01*
X123667679Y76984429D01*
X123477202Y77032048D01*
X123381964Y77079667D01*
X123334345Y77127286D01*
X123286726Y77222524D01*
X123286726Y77317762D01*
X123334345Y77413000D01*
X123381964Y77460620D01*
X123477202Y77508239D01*
X123715298Y77508239D01*
X123858155Y77460620D01*
X124191488Y77508239D02*
X124429583Y76508239D01*
X124620060Y77222524D01*
X124810536Y76508239D01*
X125048631Y77508239D01*
X125858155Y77508239D02*
X125667679Y77508239D01*
X125572440Y77460620D01*
X125524821Y77413000D01*
X125429583Y77270143D01*
X125381964Y77079667D01*
X125381964Y76698715D01*
X125429583Y76603477D01*
X125477202Y76555858D01*
X125572440Y76508239D01*
X125762917Y76508239D01*
X125858155Y76555858D01*
X125905774Y76603477D01*
X125953393Y76698715D01*
X125953393Y76936810D01*
X125905774Y77032048D01*
X125858155Y77079667D01*
X125762917Y77127286D01*
X125572440Y77127286D01*
X125477202Y77079667D01*
X125429583Y77032048D01*
X125381964Y76936810D01*
G04 #@! TO.C,SW7*
X142336726Y76555858D02*
X142479583Y76508239D01*
X142717679Y76508239D01*
X142812917Y76555858D01*
X142860536Y76603477D01*
X142908155Y76698715D01*
X142908155Y76793953D01*
X142860536Y76889191D01*
X142812917Y76936810D01*
X142717679Y76984429D01*
X142527202Y77032048D01*
X142431964Y77079667D01*
X142384345Y77127286D01*
X142336726Y77222524D01*
X142336726Y77317762D01*
X142384345Y77413000D01*
X142431964Y77460620D01*
X142527202Y77508239D01*
X142765298Y77508239D01*
X142908155Y77460620D01*
X143241488Y77508239D02*
X143479583Y76508239D01*
X143670060Y77222524D01*
X143860536Y76508239D01*
X144098631Y77508239D01*
X144384345Y77508239D02*
X145051012Y77508239D01*
X144622440Y76508239D01*
G04 #@! TO.C,SW8*
X161386726Y76555858D02*
X161529583Y76508239D01*
X161767679Y76508239D01*
X161862917Y76555858D01*
X161910536Y76603477D01*
X161958155Y76698715D01*
X161958155Y76793953D01*
X161910536Y76889191D01*
X161862917Y76936810D01*
X161767679Y76984429D01*
X161577202Y77032048D01*
X161481964Y77079667D01*
X161434345Y77127286D01*
X161386726Y77222524D01*
X161386726Y77317762D01*
X161434345Y77413000D01*
X161481964Y77460620D01*
X161577202Y77508239D01*
X161815298Y77508239D01*
X161958155Y77460620D01*
X162291488Y77508239D02*
X162529583Y76508239D01*
X162720060Y77222524D01*
X162910536Y76508239D01*
X163148631Y77508239D01*
X163672440Y77079667D02*
X163577202Y77127286D01*
X163529583Y77174905D01*
X163481964Y77270143D01*
X163481964Y77317762D01*
X163529583Y77413000D01*
X163577202Y77460620D01*
X163672440Y77508239D01*
X163862917Y77508239D01*
X163958155Y77460620D01*
X164005774Y77413000D01*
X164053393Y77317762D01*
X164053393Y77270143D01*
X164005774Y77174905D01*
X163958155Y77127286D01*
X163862917Y77079667D01*
X163672440Y77079667D01*
X163577202Y77032048D01*
X163529583Y76984429D01*
X163481964Y76889191D01*
X163481964Y76698715D01*
X163529583Y76603477D01*
X163577202Y76555858D01*
X163672440Y76508239D01*
X163862917Y76508239D01*
X163958155Y76555858D01*
X164005774Y76603477D01*
X164053393Y76698715D01*
X164053393Y76889191D01*
X164005774Y76984429D01*
X163958155Y77032048D01*
X163862917Y77079667D01*
G04 #@! TO.C,SW9*
X180436726Y76555858D02*
X180579583Y76508239D01*
X180817679Y76508239D01*
X180912917Y76555858D01*
X180960536Y76603477D01*
X181008155Y76698715D01*
X181008155Y76793953D01*
X180960536Y76889191D01*
X180912917Y76936810D01*
X180817679Y76984429D01*
X180627202Y77032048D01*
X180531964Y77079667D01*
X180484345Y77127286D01*
X180436726Y77222524D01*
X180436726Y77317762D01*
X180484345Y77413000D01*
X180531964Y77460620D01*
X180627202Y77508239D01*
X180865298Y77508239D01*
X181008155Y77460620D01*
X181341488Y77508239D02*
X181579583Y76508239D01*
X181770060Y77222524D01*
X181960536Y76508239D01*
X182198631Y77508239D01*
X182627202Y76508239D02*
X182817679Y76508239D01*
X182912917Y76555858D01*
X182960536Y76603477D01*
X183055774Y76746334D01*
X183103393Y76936810D01*
X183103393Y77317762D01*
X183055774Y77413000D01*
X183008155Y77460620D01*
X182912917Y77508239D01*
X182722440Y77508239D01*
X182627202Y77460620D01*
X182579583Y77413000D01*
X182531964Y77317762D01*
X182531964Y77079667D01*
X182579583Y76984429D01*
X182627202Y76936810D01*
X182722440Y76889191D01*
X182912917Y76889191D01*
X183008155Y76936810D01*
X183055774Y76984429D01*
X183103393Y77079667D01*
G04 #@! TO.C,SW10*
X199010536Y76555858D02*
X199153393Y76508239D01*
X199391488Y76508239D01*
X199486726Y76555858D01*
X199534345Y76603477D01*
X199581964Y76698715D01*
X199581964Y76793953D01*
X199534345Y76889191D01*
X199486726Y76936810D01*
X199391488Y76984429D01*
X199201012Y77032048D01*
X199105774Y77079667D01*
X199058155Y77127286D01*
X199010536Y77222524D01*
X199010536Y77317762D01*
X199058155Y77413000D01*
X199105774Y77460620D01*
X199201012Y77508239D01*
X199439107Y77508239D01*
X199581964Y77460620D01*
X199915298Y77508239D02*
X200153393Y76508239D01*
X200343869Y77222524D01*
X200534345Y76508239D01*
X200772440Y77508239D01*
X201677202Y76508239D02*
X201105774Y76508239D01*
X201391488Y76508239D02*
X201391488Y77508239D01*
X201296250Y77365381D01*
X201201012Y77270143D01*
X201105774Y77222524D01*
X202296250Y77508239D02*
X202391488Y77508239D01*
X202486726Y77460620D01*
X202534345Y77413000D01*
X202581964Y77317762D01*
X202629583Y77127286D01*
X202629583Y76889191D01*
X202581964Y76698715D01*
X202534345Y76603477D01*
X202486726Y76555858D01*
X202391488Y76508239D01*
X202296250Y76508239D01*
X202201012Y76555858D01*
X202153393Y76603477D01*
X202105774Y76698715D01*
X202058155Y76889191D01*
X202058155Y77127286D01*
X202105774Y77317762D01*
X202153393Y77413000D01*
X202201012Y77460620D01*
X202296250Y77508239D01*
G04 #@! TO.C,SW11*
X218060536Y76555858D02*
X218203393Y76508239D01*
X218441488Y76508239D01*
X218536726Y76555858D01*
X218584345Y76603477D01*
X218631964Y76698715D01*
X218631964Y76793953D01*
X218584345Y76889191D01*
X218536726Y76936810D01*
X218441488Y76984429D01*
X218251012Y77032048D01*
X218155774Y77079667D01*
X218108155Y77127286D01*
X218060536Y77222524D01*
X218060536Y77317762D01*
X218108155Y77413000D01*
X218155774Y77460620D01*
X218251012Y77508239D01*
X218489107Y77508239D01*
X218631964Y77460620D01*
X218965298Y77508239D02*
X219203393Y76508239D01*
X219393869Y77222524D01*
X219584345Y76508239D01*
X219822440Y77508239D01*
X220727202Y76508239D02*
X220155774Y76508239D01*
X220441488Y76508239D02*
X220441488Y77508239D01*
X220346250Y77365381D01*
X220251012Y77270143D01*
X220155774Y77222524D01*
X221679583Y76508239D02*
X221108155Y76508239D01*
X221393869Y76508239D02*
X221393869Y77508239D01*
X221298631Y77365381D01*
X221203393Y77270143D01*
X221108155Y77222524D01*
G04 #@! TO.C,SW12*
X237110536Y76555858D02*
X237253393Y76508239D01*
X237491488Y76508239D01*
X237586726Y76555858D01*
X237634345Y76603477D01*
X237681964Y76698715D01*
X237681964Y76793953D01*
X237634345Y76889191D01*
X237586726Y76936810D01*
X237491488Y76984429D01*
X237301012Y77032048D01*
X237205774Y77079667D01*
X237158155Y77127286D01*
X237110536Y77222524D01*
X237110536Y77317762D01*
X237158155Y77413000D01*
X237205774Y77460620D01*
X237301012Y77508239D01*
X237539107Y77508239D01*
X237681964Y77460620D01*
X238015298Y77508239D02*
X238253393Y76508239D01*
X238443869Y77222524D01*
X238634345Y76508239D01*
X238872440Y77508239D01*
X239777202Y76508239D02*
X239205774Y76508239D01*
X239491488Y76508239D02*
X239491488Y77508239D01*
X239396250Y77365381D01*
X239301012Y77270143D01*
X239205774Y77222524D01*
X240158155Y77413000D02*
X240205774Y77460620D01*
X240301012Y77508239D01*
X240539107Y77508239D01*
X240634345Y77460620D01*
X240681964Y77413000D01*
X240729583Y77317762D01*
X240729583Y77222524D01*
X240681964Y77079667D01*
X240110536Y76508239D01*
X240729583Y76508239D01*
G04 #@! TO.C,SW13*
X256160536Y76555858D02*
X256303393Y76508239D01*
X256541488Y76508239D01*
X256636726Y76555858D01*
X256684345Y76603477D01*
X256731964Y76698715D01*
X256731964Y76793953D01*
X256684345Y76889191D01*
X256636726Y76936810D01*
X256541488Y76984429D01*
X256351012Y77032048D01*
X256255774Y77079667D01*
X256208155Y77127286D01*
X256160536Y77222524D01*
X256160536Y77317762D01*
X256208155Y77413000D01*
X256255774Y77460620D01*
X256351012Y77508239D01*
X256589107Y77508239D01*
X256731964Y77460620D01*
X257065298Y77508239D02*
X257303393Y76508239D01*
X257493869Y77222524D01*
X257684345Y76508239D01*
X257922440Y77508239D01*
X258827202Y76508239D02*
X258255774Y76508239D01*
X258541488Y76508239D02*
X258541488Y77508239D01*
X258446250Y77365381D01*
X258351012Y77270143D01*
X258255774Y77222524D01*
X259160536Y77508239D02*
X259779583Y77508239D01*
X259446250Y77127286D01*
X259589107Y77127286D01*
X259684345Y77079667D01*
X259731964Y77032048D01*
X259779583Y76936810D01*
X259779583Y76698715D01*
X259731964Y76603477D01*
X259684345Y76555858D01*
X259589107Y76508239D01*
X259303393Y76508239D01*
X259208155Y76555858D01*
X259160536Y76603477D01*
G04 #@! TO.C,SW15*
X20416786Y57505858D02*
X20559643Y57458239D01*
X20797738Y57458239D01*
X20892976Y57505858D01*
X20940595Y57553477D01*
X20988214Y57648715D01*
X20988214Y57743953D01*
X20940595Y57839191D01*
X20892976Y57886810D01*
X20797738Y57934429D01*
X20607262Y57982048D01*
X20512024Y58029667D01*
X20464405Y58077286D01*
X20416786Y58172524D01*
X20416786Y58267762D01*
X20464405Y58363000D01*
X20512024Y58410620D01*
X20607262Y58458239D01*
X20845357Y58458239D01*
X20988214Y58410620D01*
X21321548Y58458239D02*
X21559643Y57458239D01*
X21750119Y58172524D01*
X21940595Y57458239D01*
X22178690Y58458239D01*
X23083452Y57458239D02*
X22512024Y57458239D01*
X22797738Y57458239D02*
X22797738Y58458239D01*
X22702500Y58315381D01*
X22607262Y58220143D01*
X22512024Y58172524D01*
X23988214Y58458239D02*
X23512024Y58458239D01*
X23464405Y57982048D01*
X23512024Y58029667D01*
X23607262Y58077286D01*
X23845357Y58077286D01*
X23940595Y58029667D01*
X23988214Y57982048D01*
X24035833Y57886810D01*
X24035833Y57648715D01*
X23988214Y57553477D01*
X23940595Y57505858D01*
X23845357Y57458239D01*
X23607262Y57458239D01*
X23512024Y57505858D01*
X23464405Y57553477D01*
G04 #@! TO.C,SW16*
X41848036Y57505858D02*
X41990893Y57458239D01*
X42228988Y57458239D01*
X42324226Y57505858D01*
X42371845Y57553477D01*
X42419464Y57648715D01*
X42419464Y57743953D01*
X42371845Y57839191D01*
X42324226Y57886810D01*
X42228988Y57934429D01*
X42038512Y57982048D01*
X41943274Y58029667D01*
X41895655Y58077286D01*
X41848036Y58172524D01*
X41848036Y58267762D01*
X41895655Y58363000D01*
X41943274Y58410620D01*
X42038512Y58458239D01*
X42276607Y58458239D01*
X42419464Y58410620D01*
X42752798Y58458239D02*
X42990893Y57458239D01*
X43181369Y58172524D01*
X43371845Y57458239D01*
X43609940Y58458239D01*
X44514702Y57458239D02*
X43943274Y57458239D01*
X44228988Y57458239D02*
X44228988Y58458239D01*
X44133750Y58315381D01*
X44038512Y58220143D01*
X43943274Y58172524D01*
X45371845Y58458239D02*
X45181369Y58458239D01*
X45086131Y58410620D01*
X45038512Y58363000D01*
X44943274Y58220143D01*
X44895655Y58029667D01*
X44895655Y57648715D01*
X44943274Y57553477D01*
X44990893Y57505858D01*
X45086131Y57458239D01*
X45276607Y57458239D01*
X45371845Y57505858D01*
X45419464Y57553477D01*
X45467083Y57648715D01*
X45467083Y57886810D01*
X45419464Y57982048D01*
X45371845Y58029667D01*
X45276607Y58077286D01*
X45086131Y58077286D01*
X44990893Y58029667D01*
X44943274Y57982048D01*
X44895655Y57886810D01*
G04 #@! TO.C,SW17*
X60898036Y57505858D02*
X61040893Y57458239D01*
X61278988Y57458239D01*
X61374226Y57505858D01*
X61421845Y57553477D01*
X61469464Y57648715D01*
X61469464Y57743953D01*
X61421845Y57839191D01*
X61374226Y57886810D01*
X61278988Y57934429D01*
X61088512Y57982048D01*
X60993274Y58029667D01*
X60945655Y58077286D01*
X60898036Y58172524D01*
X60898036Y58267762D01*
X60945655Y58363000D01*
X60993274Y58410620D01*
X61088512Y58458239D01*
X61326607Y58458239D01*
X61469464Y58410620D01*
X61802798Y58458239D02*
X62040893Y57458239D01*
X62231369Y58172524D01*
X62421845Y57458239D01*
X62659940Y58458239D01*
X63564702Y57458239D02*
X62993274Y57458239D01*
X63278988Y57458239D02*
X63278988Y58458239D01*
X63183750Y58315381D01*
X63088512Y58220143D01*
X62993274Y58172524D01*
X63898036Y58458239D02*
X64564702Y58458239D01*
X64136131Y57458239D01*
G04 #@! TO.C,SW18*
X79948036Y57505858D02*
X80090893Y57458239D01*
X80328988Y57458239D01*
X80424226Y57505858D01*
X80471845Y57553477D01*
X80519464Y57648715D01*
X80519464Y57743953D01*
X80471845Y57839191D01*
X80424226Y57886810D01*
X80328988Y57934429D01*
X80138512Y57982048D01*
X80043274Y58029667D01*
X79995655Y58077286D01*
X79948036Y58172524D01*
X79948036Y58267762D01*
X79995655Y58363000D01*
X80043274Y58410620D01*
X80138512Y58458239D01*
X80376607Y58458239D01*
X80519464Y58410620D01*
X80852798Y58458239D02*
X81090893Y57458239D01*
X81281369Y58172524D01*
X81471845Y57458239D01*
X81709940Y58458239D01*
X82614702Y57458239D02*
X82043274Y57458239D01*
X82328988Y57458239D02*
X82328988Y58458239D01*
X82233750Y58315381D01*
X82138512Y58220143D01*
X82043274Y58172524D01*
X83186131Y58029667D02*
X83090893Y58077286D01*
X83043274Y58124905D01*
X82995655Y58220143D01*
X82995655Y58267762D01*
X83043274Y58363000D01*
X83090893Y58410620D01*
X83186131Y58458239D01*
X83376607Y58458239D01*
X83471845Y58410620D01*
X83519464Y58363000D01*
X83567083Y58267762D01*
X83567083Y58220143D01*
X83519464Y58124905D01*
X83471845Y58077286D01*
X83376607Y58029667D01*
X83186131Y58029667D01*
X83090893Y57982048D01*
X83043274Y57934429D01*
X82995655Y57839191D01*
X82995655Y57648715D01*
X83043274Y57553477D01*
X83090893Y57505858D01*
X83186131Y57458239D01*
X83376607Y57458239D01*
X83471845Y57505858D01*
X83519464Y57553477D01*
X83567083Y57648715D01*
X83567083Y57839191D01*
X83519464Y57934429D01*
X83471845Y57982048D01*
X83376607Y58029667D01*
G04 #@! TO.C,SW19*
X98998036Y57505858D02*
X99140893Y57458239D01*
X99378988Y57458239D01*
X99474226Y57505858D01*
X99521845Y57553477D01*
X99569464Y57648715D01*
X99569464Y57743953D01*
X99521845Y57839191D01*
X99474226Y57886810D01*
X99378988Y57934429D01*
X99188512Y57982048D01*
X99093274Y58029667D01*
X99045655Y58077286D01*
X98998036Y58172524D01*
X98998036Y58267762D01*
X99045655Y58363000D01*
X99093274Y58410620D01*
X99188512Y58458239D01*
X99426607Y58458239D01*
X99569464Y58410620D01*
X99902798Y58458239D02*
X100140893Y57458239D01*
X100331369Y58172524D01*
X100521845Y57458239D01*
X100759940Y58458239D01*
X101664702Y57458239D02*
X101093274Y57458239D01*
X101378988Y57458239D02*
X101378988Y58458239D01*
X101283750Y58315381D01*
X101188512Y58220143D01*
X101093274Y58172524D01*
X102140893Y57458239D02*
X102331369Y57458239D01*
X102426607Y57505858D01*
X102474226Y57553477D01*
X102569464Y57696334D01*
X102617083Y57886810D01*
X102617083Y58267762D01*
X102569464Y58363000D01*
X102521845Y58410620D01*
X102426607Y58458239D01*
X102236131Y58458239D01*
X102140893Y58410620D01*
X102093274Y58363000D01*
X102045655Y58267762D01*
X102045655Y58029667D01*
X102093274Y57934429D01*
X102140893Y57886810D01*
X102236131Y57839191D01*
X102426607Y57839191D01*
X102521845Y57886810D01*
X102569464Y57934429D01*
X102617083Y58029667D01*
G04 #@! TO.C,SW20*
X118048036Y57505858D02*
X118190893Y57458239D01*
X118428988Y57458239D01*
X118524226Y57505858D01*
X118571845Y57553477D01*
X118619464Y57648715D01*
X118619464Y57743953D01*
X118571845Y57839191D01*
X118524226Y57886810D01*
X118428988Y57934429D01*
X118238512Y57982048D01*
X118143274Y58029667D01*
X118095655Y58077286D01*
X118048036Y58172524D01*
X118048036Y58267762D01*
X118095655Y58363000D01*
X118143274Y58410620D01*
X118238512Y58458239D01*
X118476607Y58458239D01*
X118619464Y58410620D01*
X118952798Y58458239D02*
X119190893Y57458239D01*
X119381369Y58172524D01*
X119571845Y57458239D01*
X119809940Y58458239D01*
X120143274Y58363000D02*
X120190893Y58410620D01*
X120286131Y58458239D01*
X120524226Y58458239D01*
X120619464Y58410620D01*
X120667083Y58363000D01*
X120714702Y58267762D01*
X120714702Y58172524D01*
X120667083Y58029667D01*
X120095655Y57458239D01*
X120714702Y57458239D01*
X121333750Y58458239D02*
X121428988Y58458239D01*
X121524226Y58410620D01*
X121571845Y58363000D01*
X121619464Y58267762D01*
X121667083Y58077286D01*
X121667083Y57839191D01*
X121619464Y57648715D01*
X121571845Y57553477D01*
X121524226Y57505858D01*
X121428988Y57458239D01*
X121333750Y57458239D01*
X121238512Y57505858D01*
X121190893Y57553477D01*
X121143274Y57648715D01*
X121095655Y57839191D01*
X121095655Y58077286D01*
X121143274Y58267762D01*
X121190893Y58363000D01*
X121238512Y58410620D01*
X121333750Y58458239D01*
G04 #@! TO.C,SW21*
X137098036Y57505858D02*
X137240893Y57458239D01*
X137478988Y57458239D01*
X137574226Y57505858D01*
X137621845Y57553477D01*
X137669464Y57648715D01*
X137669464Y57743953D01*
X137621845Y57839191D01*
X137574226Y57886810D01*
X137478988Y57934429D01*
X137288512Y57982048D01*
X137193274Y58029667D01*
X137145655Y58077286D01*
X137098036Y58172524D01*
X137098036Y58267762D01*
X137145655Y58363000D01*
X137193274Y58410620D01*
X137288512Y58458239D01*
X137526607Y58458239D01*
X137669464Y58410620D01*
X138002798Y58458239D02*
X138240893Y57458239D01*
X138431369Y58172524D01*
X138621845Y57458239D01*
X138859940Y58458239D01*
X139193274Y58363000D02*
X139240893Y58410620D01*
X139336131Y58458239D01*
X139574226Y58458239D01*
X139669464Y58410620D01*
X139717083Y58363000D01*
X139764702Y58267762D01*
X139764702Y58172524D01*
X139717083Y58029667D01*
X139145655Y57458239D01*
X139764702Y57458239D01*
X140717083Y57458239D02*
X140145655Y57458239D01*
X140431369Y57458239D02*
X140431369Y58458239D01*
X140336131Y58315381D01*
X140240893Y58220143D01*
X140145655Y58172524D01*
G04 #@! TO.C,SW22*
X165673036Y57505858D02*
X165815893Y57458239D01*
X166053988Y57458239D01*
X166149226Y57505858D01*
X166196845Y57553477D01*
X166244464Y57648715D01*
X166244464Y57743953D01*
X166196845Y57839191D01*
X166149226Y57886810D01*
X166053988Y57934429D01*
X165863512Y57982048D01*
X165768274Y58029667D01*
X165720655Y58077286D01*
X165673036Y58172524D01*
X165673036Y58267762D01*
X165720655Y58363000D01*
X165768274Y58410620D01*
X165863512Y58458239D01*
X166101607Y58458239D01*
X166244464Y58410620D01*
X166577798Y58458239D02*
X166815893Y57458239D01*
X167006369Y58172524D01*
X167196845Y57458239D01*
X167434940Y58458239D01*
X167768274Y58363000D02*
X167815893Y58410620D01*
X167911131Y58458239D01*
X168149226Y58458239D01*
X168244464Y58410620D01*
X168292083Y58363000D01*
X168339702Y58267762D01*
X168339702Y58172524D01*
X168292083Y58029667D01*
X167720655Y57458239D01*
X168339702Y57458239D01*
X168720655Y58363000D02*
X168768274Y58410620D01*
X168863512Y58458239D01*
X169101607Y58458239D01*
X169196845Y58410620D01*
X169244464Y58363000D01*
X169292083Y58267762D01*
X169292083Y58172524D01*
X169244464Y58029667D01*
X168673036Y57458239D01*
X169292083Y57458239D01*
G04 #@! TO.C,SW23*
X184723036Y57505858D02*
X184865893Y57458239D01*
X185103988Y57458239D01*
X185199226Y57505858D01*
X185246845Y57553477D01*
X185294464Y57648715D01*
X185294464Y57743953D01*
X185246845Y57839191D01*
X185199226Y57886810D01*
X185103988Y57934429D01*
X184913512Y57982048D01*
X184818274Y58029667D01*
X184770655Y58077286D01*
X184723036Y58172524D01*
X184723036Y58267762D01*
X184770655Y58363000D01*
X184818274Y58410620D01*
X184913512Y58458239D01*
X185151607Y58458239D01*
X185294464Y58410620D01*
X185627798Y58458239D02*
X185865893Y57458239D01*
X186056369Y58172524D01*
X186246845Y57458239D01*
X186484940Y58458239D01*
X186818274Y58363000D02*
X186865893Y58410620D01*
X186961131Y58458239D01*
X187199226Y58458239D01*
X187294464Y58410620D01*
X187342083Y58363000D01*
X187389702Y58267762D01*
X187389702Y58172524D01*
X187342083Y58029667D01*
X186770655Y57458239D01*
X187389702Y57458239D01*
X187723036Y58458239D02*
X188342083Y58458239D01*
X188008750Y58077286D01*
X188151607Y58077286D01*
X188246845Y58029667D01*
X188294464Y57982048D01*
X188342083Y57886810D01*
X188342083Y57648715D01*
X188294464Y57553477D01*
X188246845Y57505858D01*
X188151607Y57458239D01*
X187865893Y57458239D01*
X187770655Y57505858D01*
X187723036Y57553477D01*
G04 #@! TO.C,SW24*
X203773036Y57505858D02*
X203915893Y57458239D01*
X204153988Y57458239D01*
X204249226Y57505858D01*
X204296845Y57553477D01*
X204344464Y57648715D01*
X204344464Y57743953D01*
X204296845Y57839191D01*
X204249226Y57886810D01*
X204153988Y57934429D01*
X203963512Y57982048D01*
X203868274Y58029667D01*
X203820655Y58077286D01*
X203773036Y58172524D01*
X203773036Y58267762D01*
X203820655Y58363000D01*
X203868274Y58410620D01*
X203963512Y58458239D01*
X204201607Y58458239D01*
X204344464Y58410620D01*
X204677798Y58458239D02*
X204915893Y57458239D01*
X205106369Y58172524D01*
X205296845Y57458239D01*
X205534940Y58458239D01*
X205868274Y58363000D02*
X205915893Y58410620D01*
X206011131Y58458239D01*
X206249226Y58458239D01*
X206344464Y58410620D01*
X206392083Y58363000D01*
X206439702Y58267762D01*
X206439702Y58172524D01*
X206392083Y58029667D01*
X205820655Y57458239D01*
X206439702Y57458239D01*
X207296845Y58124905D02*
X207296845Y57458239D01*
X207058750Y58505858D02*
X206820655Y57791572D01*
X207439702Y57791572D01*
G04 #@! TO.C,SW25*
X222823036Y57505858D02*
X222965893Y57458239D01*
X223203988Y57458239D01*
X223299226Y57505858D01*
X223346845Y57553477D01*
X223394464Y57648715D01*
X223394464Y57743953D01*
X223346845Y57839191D01*
X223299226Y57886810D01*
X223203988Y57934429D01*
X223013512Y57982048D01*
X222918274Y58029667D01*
X222870655Y58077286D01*
X222823036Y58172524D01*
X222823036Y58267762D01*
X222870655Y58363000D01*
X222918274Y58410620D01*
X223013512Y58458239D01*
X223251607Y58458239D01*
X223394464Y58410620D01*
X223727798Y58458239D02*
X223965893Y57458239D01*
X224156369Y58172524D01*
X224346845Y57458239D01*
X224584940Y58458239D01*
X224918274Y58363000D02*
X224965893Y58410620D01*
X225061131Y58458239D01*
X225299226Y58458239D01*
X225394464Y58410620D01*
X225442083Y58363000D01*
X225489702Y58267762D01*
X225489702Y58172524D01*
X225442083Y58029667D01*
X224870655Y57458239D01*
X225489702Y57458239D01*
X226394464Y58458239D02*
X225918274Y58458239D01*
X225870655Y57982048D01*
X225918274Y58029667D01*
X226013512Y58077286D01*
X226251607Y58077286D01*
X226346845Y58029667D01*
X226394464Y57982048D01*
X226442083Y57886810D01*
X226442083Y57648715D01*
X226394464Y57553477D01*
X226346845Y57505858D01*
X226251607Y57458239D01*
X226013512Y57458239D01*
X225918274Y57505858D01*
X225870655Y57553477D01*
G04 #@! TO.C,SW26*
X241873036Y57505858D02*
X242015893Y57458239D01*
X242253988Y57458239D01*
X242349226Y57505858D01*
X242396845Y57553477D01*
X242444464Y57648715D01*
X242444464Y57743953D01*
X242396845Y57839191D01*
X242349226Y57886810D01*
X242253988Y57934429D01*
X242063512Y57982048D01*
X241968274Y58029667D01*
X241920655Y58077286D01*
X241873036Y58172524D01*
X241873036Y58267762D01*
X241920655Y58363000D01*
X241968274Y58410620D01*
X242063512Y58458239D01*
X242301607Y58458239D01*
X242444464Y58410620D01*
X242777798Y58458239D02*
X243015893Y57458239D01*
X243206369Y58172524D01*
X243396845Y57458239D01*
X243634940Y58458239D01*
X243968274Y58363000D02*
X244015893Y58410620D01*
X244111131Y58458239D01*
X244349226Y58458239D01*
X244444464Y58410620D01*
X244492083Y58363000D01*
X244539702Y58267762D01*
X244539702Y58172524D01*
X244492083Y58029667D01*
X243920655Y57458239D01*
X244539702Y57458239D01*
X245396845Y58458239D02*
X245206369Y58458239D01*
X245111131Y58410620D01*
X245063512Y58363000D01*
X244968274Y58220143D01*
X244920655Y58029667D01*
X244920655Y57648715D01*
X244968274Y57553477D01*
X245015893Y57505858D01*
X245111131Y57458239D01*
X245301607Y57458239D01*
X245396845Y57505858D01*
X245444464Y57553477D01*
X245492083Y57648715D01*
X245492083Y57886810D01*
X245444464Y57982048D01*
X245396845Y58029667D01*
X245301607Y58077286D01*
X245111131Y58077286D01*
X245015893Y58029667D01*
X244968274Y57982048D01*
X244920655Y57886810D01*
G04 #@! TO.C,SW27*
X260923036Y57505858D02*
X261065893Y57458239D01*
X261303988Y57458239D01*
X261399226Y57505858D01*
X261446845Y57553477D01*
X261494464Y57648715D01*
X261494464Y57743953D01*
X261446845Y57839191D01*
X261399226Y57886810D01*
X261303988Y57934429D01*
X261113512Y57982048D01*
X261018274Y58029667D01*
X260970655Y58077286D01*
X260923036Y58172524D01*
X260923036Y58267762D01*
X260970655Y58363000D01*
X261018274Y58410620D01*
X261113512Y58458239D01*
X261351607Y58458239D01*
X261494464Y58410620D01*
X261827798Y58458239D02*
X262065893Y57458239D01*
X262256369Y58172524D01*
X262446845Y57458239D01*
X262684940Y58458239D01*
X263018274Y58363000D02*
X263065893Y58410620D01*
X263161131Y58458239D01*
X263399226Y58458239D01*
X263494464Y58410620D01*
X263542083Y58363000D01*
X263589702Y58267762D01*
X263589702Y58172524D01*
X263542083Y58029667D01*
X262970655Y57458239D01*
X263589702Y57458239D01*
X263923036Y58458239D02*
X264589702Y58458239D01*
X264161131Y57458239D01*
G04 #@! TO.C,SW29*
X18035536Y38455858D02*
X18178393Y38408239D01*
X18416488Y38408239D01*
X18511726Y38455858D01*
X18559345Y38503477D01*
X18606964Y38598715D01*
X18606964Y38693953D01*
X18559345Y38789191D01*
X18511726Y38836810D01*
X18416488Y38884429D01*
X18226012Y38932048D01*
X18130774Y38979667D01*
X18083155Y39027286D01*
X18035536Y39122524D01*
X18035536Y39217762D01*
X18083155Y39313000D01*
X18130774Y39360620D01*
X18226012Y39408239D01*
X18464107Y39408239D01*
X18606964Y39360620D01*
X18940298Y39408239D02*
X19178393Y38408239D01*
X19368869Y39122524D01*
X19559345Y38408239D01*
X19797440Y39408239D01*
X20130774Y39313000D02*
X20178393Y39360620D01*
X20273631Y39408239D01*
X20511726Y39408239D01*
X20606964Y39360620D01*
X20654583Y39313000D01*
X20702202Y39217762D01*
X20702202Y39122524D01*
X20654583Y38979667D01*
X20083155Y38408239D01*
X20702202Y38408239D01*
X21178393Y38408239D02*
X21368869Y38408239D01*
X21464107Y38455858D01*
X21511726Y38503477D01*
X21606964Y38646334D01*
X21654583Y38836810D01*
X21654583Y39217762D01*
X21606964Y39313000D01*
X21559345Y39360620D01*
X21464107Y39408239D01*
X21273631Y39408239D01*
X21178393Y39360620D01*
X21130774Y39313000D01*
X21083155Y39217762D01*
X21083155Y38979667D01*
X21130774Y38884429D01*
X21178393Y38836810D01*
X21273631Y38789191D01*
X21464107Y38789191D01*
X21559345Y38836810D01*
X21606964Y38884429D01*
X21654583Y38979667D01*
G04 #@! TO.C,SW30*
X37085536Y38455858D02*
X37228393Y38408239D01*
X37466488Y38408239D01*
X37561726Y38455858D01*
X37609345Y38503477D01*
X37656964Y38598715D01*
X37656964Y38693953D01*
X37609345Y38789191D01*
X37561726Y38836810D01*
X37466488Y38884429D01*
X37276012Y38932048D01*
X37180774Y38979667D01*
X37133155Y39027286D01*
X37085536Y39122524D01*
X37085536Y39217762D01*
X37133155Y39313000D01*
X37180774Y39360620D01*
X37276012Y39408239D01*
X37514107Y39408239D01*
X37656964Y39360620D01*
X37990298Y39408239D02*
X38228393Y38408239D01*
X38418869Y39122524D01*
X38609345Y38408239D01*
X38847440Y39408239D01*
X39133155Y39408239D02*
X39752202Y39408239D01*
X39418869Y39027286D01*
X39561726Y39027286D01*
X39656964Y38979667D01*
X39704583Y38932048D01*
X39752202Y38836810D01*
X39752202Y38598715D01*
X39704583Y38503477D01*
X39656964Y38455858D01*
X39561726Y38408239D01*
X39276012Y38408239D01*
X39180774Y38455858D01*
X39133155Y38503477D01*
X40371250Y39408239D02*
X40466488Y39408239D01*
X40561726Y39360620D01*
X40609345Y39313000D01*
X40656964Y39217762D01*
X40704583Y39027286D01*
X40704583Y38789191D01*
X40656964Y38598715D01*
X40609345Y38503477D01*
X40561726Y38455858D01*
X40466488Y38408239D01*
X40371250Y38408239D01*
X40276012Y38455858D01*
X40228393Y38503477D01*
X40180774Y38598715D01*
X40133155Y38789191D01*
X40133155Y39027286D01*
X40180774Y39217762D01*
X40228393Y39313000D01*
X40276012Y39360620D01*
X40371250Y39408239D01*
G04 #@! TO.C,SW31*
X56135536Y38455858D02*
X56278393Y38408239D01*
X56516488Y38408239D01*
X56611726Y38455858D01*
X56659345Y38503477D01*
X56706964Y38598715D01*
X56706964Y38693953D01*
X56659345Y38789191D01*
X56611726Y38836810D01*
X56516488Y38884429D01*
X56326012Y38932048D01*
X56230774Y38979667D01*
X56183155Y39027286D01*
X56135536Y39122524D01*
X56135536Y39217762D01*
X56183155Y39313000D01*
X56230774Y39360620D01*
X56326012Y39408239D01*
X56564107Y39408239D01*
X56706964Y39360620D01*
X57040298Y39408239D02*
X57278393Y38408239D01*
X57468869Y39122524D01*
X57659345Y38408239D01*
X57897440Y39408239D01*
X58183155Y39408239D02*
X58802202Y39408239D01*
X58468869Y39027286D01*
X58611726Y39027286D01*
X58706964Y38979667D01*
X58754583Y38932048D01*
X58802202Y38836810D01*
X58802202Y38598715D01*
X58754583Y38503477D01*
X58706964Y38455858D01*
X58611726Y38408239D01*
X58326012Y38408239D01*
X58230774Y38455858D01*
X58183155Y38503477D01*
X59754583Y38408239D02*
X59183155Y38408239D01*
X59468869Y38408239D02*
X59468869Y39408239D01*
X59373631Y39265381D01*
X59278393Y39170143D01*
X59183155Y39122524D01*
G04 #@! TO.C,SW32*
X75185536Y38455858D02*
X75328393Y38408239D01*
X75566488Y38408239D01*
X75661726Y38455858D01*
X75709345Y38503477D01*
X75756964Y38598715D01*
X75756964Y38693953D01*
X75709345Y38789191D01*
X75661726Y38836810D01*
X75566488Y38884429D01*
X75376012Y38932048D01*
X75280774Y38979667D01*
X75233155Y39027286D01*
X75185536Y39122524D01*
X75185536Y39217762D01*
X75233155Y39313000D01*
X75280774Y39360620D01*
X75376012Y39408239D01*
X75614107Y39408239D01*
X75756964Y39360620D01*
X76090298Y39408239D02*
X76328393Y38408239D01*
X76518869Y39122524D01*
X76709345Y38408239D01*
X76947440Y39408239D01*
X77233155Y39408239D02*
X77852202Y39408239D01*
X77518869Y39027286D01*
X77661726Y39027286D01*
X77756964Y38979667D01*
X77804583Y38932048D01*
X77852202Y38836810D01*
X77852202Y38598715D01*
X77804583Y38503477D01*
X77756964Y38455858D01*
X77661726Y38408239D01*
X77376012Y38408239D01*
X77280774Y38455858D01*
X77233155Y38503477D01*
X78233155Y39313000D02*
X78280774Y39360620D01*
X78376012Y39408239D01*
X78614107Y39408239D01*
X78709345Y39360620D01*
X78756964Y39313000D01*
X78804583Y39217762D01*
X78804583Y39122524D01*
X78756964Y38979667D01*
X78185536Y38408239D01*
X78804583Y38408239D01*
G04 #@! TO.C,SW33*
X94235536Y38455858D02*
X94378393Y38408239D01*
X94616488Y38408239D01*
X94711726Y38455858D01*
X94759345Y38503477D01*
X94806964Y38598715D01*
X94806964Y38693953D01*
X94759345Y38789191D01*
X94711726Y38836810D01*
X94616488Y38884429D01*
X94426012Y38932048D01*
X94330774Y38979667D01*
X94283155Y39027286D01*
X94235536Y39122524D01*
X94235536Y39217762D01*
X94283155Y39313000D01*
X94330774Y39360620D01*
X94426012Y39408239D01*
X94664107Y39408239D01*
X94806964Y39360620D01*
X95140298Y39408239D02*
X95378393Y38408239D01*
X95568869Y39122524D01*
X95759345Y38408239D01*
X95997440Y39408239D01*
X96283155Y39408239D02*
X96902202Y39408239D01*
X96568869Y39027286D01*
X96711726Y39027286D01*
X96806964Y38979667D01*
X96854583Y38932048D01*
X96902202Y38836810D01*
X96902202Y38598715D01*
X96854583Y38503477D01*
X96806964Y38455858D01*
X96711726Y38408239D01*
X96426012Y38408239D01*
X96330774Y38455858D01*
X96283155Y38503477D01*
X97235536Y39408239D02*
X97854583Y39408239D01*
X97521250Y39027286D01*
X97664107Y39027286D01*
X97759345Y38979667D01*
X97806964Y38932048D01*
X97854583Y38836810D01*
X97854583Y38598715D01*
X97806964Y38503477D01*
X97759345Y38455858D01*
X97664107Y38408239D01*
X97378393Y38408239D01*
X97283155Y38455858D01*
X97235536Y38503477D01*
G04 #@! TO.C,SW34*
X113285536Y38455858D02*
X113428393Y38408239D01*
X113666488Y38408239D01*
X113761726Y38455858D01*
X113809345Y38503477D01*
X113856964Y38598715D01*
X113856964Y38693953D01*
X113809345Y38789191D01*
X113761726Y38836810D01*
X113666488Y38884429D01*
X113476012Y38932048D01*
X113380774Y38979667D01*
X113333155Y39027286D01*
X113285536Y39122524D01*
X113285536Y39217762D01*
X113333155Y39313000D01*
X113380774Y39360620D01*
X113476012Y39408239D01*
X113714107Y39408239D01*
X113856964Y39360620D01*
X114190298Y39408239D02*
X114428393Y38408239D01*
X114618869Y39122524D01*
X114809345Y38408239D01*
X115047440Y39408239D01*
X115333155Y39408239D02*
X115952202Y39408239D01*
X115618869Y39027286D01*
X115761726Y39027286D01*
X115856964Y38979667D01*
X115904583Y38932048D01*
X115952202Y38836810D01*
X115952202Y38598715D01*
X115904583Y38503477D01*
X115856964Y38455858D01*
X115761726Y38408239D01*
X115476012Y38408239D01*
X115380774Y38455858D01*
X115333155Y38503477D01*
X116809345Y39074905D02*
X116809345Y38408239D01*
X116571250Y39455858D02*
X116333155Y38741572D01*
X116952202Y38741572D01*
G04 #@! TO.C,SW35*
X132335536Y38455858D02*
X132478393Y38408239D01*
X132716488Y38408239D01*
X132811726Y38455858D01*
X132859345Y38503477D01*
X132906964Y38598715D01*
X132906964Y38693953D01*
X132859345Y38789191D01*
X132811726Y38836810D01*
X132716488Y38884429D01*
X132526012Y38932048D01*
X132430774Y38979667D01*
X132383155Y39027286D01*
X132335536Y39122524D01*
X132335536Y39217762D01*
X132383155Y39313000D01*
X132430774Y39360620D01*
X132526012Y39408239D01*
X132764107Y39408239D01*
X132906964Y39360620D01*
X133240298Y39408239D02*
X133478393Y38408239D01*
X133668869Y39122524D01*
X133859345Y38408239D01*
X134097440Y39408239D01*
X134383155Y39408239D02*
X135002202Y39408239D01*
X134668869Y39027286D01*
X134811726Y39027286D01*
X134906964Y38979667D01*
X134954583Y38932048D01*
X135002202Y38836810D01*
X135002202Y38598715D01*
X134954583Y38503477D01*
X134906964Y38455858D01*
X134811726Y38408239D01*
X134526012Y38408239D01*
X134430774Y38455858D01*
X134383155Y38503477D01*
X135906964Y39408239D02*
X135430774Y39408239D01*
X135383155Y38932048D01*
X135430774Y38979667D01*
X135526012Y39027286D01*
X135764107Y39027286D01*
X135859345Y38979667D01*
X135906964Y38932048D01*
X135954583Y38836810D01*
X135954583Y38598715D01*
X135906964Y38503477D01*
X135859345Y38455858D01*
X135764107Y38408239D01*
X135526012Y38408239D01*
X135430774Y38455858D01*
X135383155Y38503477D01*
G04 #@! TO.C,SW36*
X170435536Y38455858D02*
X170578393Y38408239D01*
X170816488Y38408239D01*
X170911726Y38455858D01*
X170959345Y38503477D01*
X171006964Y38598715D01*
X171006964Y38693953D01*
X170959345Y38789191D01*
X170911726Y38836810D01*
X170816488Y38884429D01*
X170626012Y38932048D01*
X170530774Y38979667D01*
X170483155Y39027286D01*
X170435536Y39122524D01*
X170435536Y39217762D01*
X170483155Y39313000D01*
X170530774Y39360620D01*
X170626012Y39408239D01*
X170864107Y39408239D01*
X171006964Y39360620D01*
X171340298Y39408239D02*
X171578393Y38408239D01*
X171768869Y39122524D01*
X171959345Y38408239D01*
X172197440Y39408239D01*
X172483155Y39408239D02*
X173102202Y39408239D01*
X172768869Y39027286D01*
X172911726Y39027286D01*
X173006964Y38979667D01*
X173054583Y38932048D01*
X173102202Y38836810D01*
X173102202Y38598715D01*
X173054583Y38503477D01*
X173006964Y38455858D01*
X172911726Y38408239D01*
X172626012Y38408239D01*
X172530774Y38455858D01*
X172483155Y38503477D01*
X173959345Y39408239D02*
X173768869Y39408239D01*
X173673631Y39360620D01*
X173626012Y39313000D01*
X173530774Y39170143D01*
X173483155Y38979667D01*
X173483155Y38598715D01*
X173530774Y38503477D01*
X173578393Y38455858D01*
X173673631Y38408239D01*
X173864107Y38408239D01*
X173959345Y38455858D01*
X174006964Y38503477D01*
X174054583Y38598715D01*
X174054583Y38836810D01*
X174006964Y38932048D01*
X173959345Y38979667D01*
X173864107Y39027286D01*
X173673631Y39027286D01*
X173578393Y38979667D01*
X173530774Y38932048D01*
X173483155Y38836810D01*
G04 #@! TO.C,SW37*
X189485536Y38455858D02*
X189628393Y38408239D01*
X189866488Y38408239D01*
X189961726Y38455858D01*
X190009345Y38503477D01*
X190056964Y38598715D01*
X190056964Y38693953D01*
X190009345Y38789191D01*
X189961726Y38836810D01*
X189866488Y38884429D01*
X189676012Y38932048D01*
X189580774Y38979667D01*
X189533155Y39027286D01*
X189485536Y39122524D01*
X189485536Y39217762D01*
X189533155Y39313000D01*
X189580774Y39360620D01*
X189676012Y39408239D01*
X189914107Y39408239D01*
X190056964Y39360620D01*
X190390298Y39408239D02*
X190628393Y38408239D01*
X190818869Y39122524D01*
X191009345Y38408239D01*
X191247440Y39408239D01*
X191533155Y39408239D02*
X192152202Y39408239D01*
X191818869Y39027286D01*
X191961726Y39027286D01*
X192056964Y38979667D01*
X192104583Y38932048D01*
X192152202Y38836810D01*
X192152202Y38598715D01*
X192104583Y38503477D01*
X192056964Y38455858D01*
X191961726Y38408239D01*
X191676012Y38408239D01*
X191580774Y38455858D01*
X191533155Y38503477D01*
X192485536Y39408239D02*
X193152202Y39408239D01*
X192723631Y38408239D01*
G04 #@! TO.C,SW38*
X208535536Y38455858D02*
X208678393Y38408239D01*
X208916488Y38408239D01*
X209011726Y38455858D01*
X209059345Y38503477D01*
X209106964Y38598715D01*
X209106964Y38693953D01*
X209059345Y38789191D01*
X209011726Y38836810D01*
X208916488Y38884429D01*
X208726012Y38932048D01*
X208630774Y38979667D01*
X208583155Y39027286D01*
X208535536Y39122524D01*
X208535536Y39217762D01*
X208583155Y39313000D01*
X208630774Y39360620D01*
X208726012Y39408239D01*
X208964107Y39408239D01*
X209106964Y39360620D01*
X209440298Y39408239D02*
X209678393Y38408239D01*
X209868869Y39122524D01*
X210059345Y38408239D01*
X210297440Y39408239D01*
X210583155Y39408239D02*
X211202202Y39408239D01*
X210868869Y39027286D01*
X211011726Y39027286D01*
X211106964Y38979667D01*
X211154583Y38932048D01*
X211202202Y38836810D01*
X211202202Y38598715D01*
X211154583Y38503477D01*
X211106964Y38455858D01*
X211011726Y38408239D01*
X210726012Y38408239D01*
X210630774Y38455858D01*
X210583155Y38503477D01*
X211773631Y38979667D02*
X211678393Y39027286D01*
X211630774Y39074905D01*
X211583155Y39170143D01*
X211583155Y39217762D01*
X211630774Y39313000D01*
X211678393Y39360620D01*
X211773631Y39408239D01*
X211964107Y39408239D01*
X212059345Y39360620D01*
X212106964Y39313000D01*
X212154583Y39217762D01*
X212154583Y39170143D01*
X212106964Y39074905D01*
X212059345Y39027286D01*
X211964107Y38979667D01*
X211773631Y38979667D01*
X211678393Y38932048D01*
X211630774Y38884429D01*
X211583155Y38789191D01*
X211583155Y38598715D01*
X211630774Y38503477D01*
X211678393Y38455858D01*
X211773631Y38408239D01*
X211964107Y38408239D01*
X212059345Y38455858D01*
X212106964Y38503477D01*
X212154583Y38598715D01*
X212154583Y38789191D01*
X212106964Y38884429D01*
X212059345Y38932048D01*
X211964107Y38979667D01*
G04 #@! TO.C,SW39*
X227585536Y38455858D02*
X227728393Y38408239D01*
X227966488Y38408239D01*
X228061726Y38455858D01*
X228109345Y38503477D01*
X228156964Y38598715D01*
X228156964Y38693953D01*
X228109345Y38789191D01*
X228061726Y38836810D01*
X227966488Y38884429D01*
X227776012Y38932048D01*
X227680774Y38979667D01*
X227633155Y39027286D01*
X227585536Y39122524D01*
X227585536Y39217762D01*
X227633155Y39313000D01*
X227680774Y39360620D01*
X227776012Y39408239D01*
X228014107Y39408239D01*
X228156964Y39360620D01*
X228490298Y39408239D02*
X228728393Y38408239D01*
X228918869Y39122524D01*
X229109345Y38408239D01*
X229347440Y39408239D01*
X229633155Y39408239D02*
X230252202Y39408239D01*
X229918869Y39027286D01*
X230061726Y39027286D01*
X230156964Y38979667D01*
X230204583Y38932048D01*
X230252202Y38836810D01*
X230252202Y38598715D01*
X230204583Y38503477D01*
X230156964Y38455858D01*
X230061726Y38408239D01*
X229776012Y38408239D01*
X229680774Y38455858D01*
X229633155Y38503477D01*
X230728393Y38408239D02*
X230918869Y38408239D01*
X231014107Y38455858D01*
X231061726Y38503477D01*
X231156964Y38646334D01*
X231204583Y38836810D01*
X231204583Y39217762D01*
X231156964Y39313000D01*
X231109345Y39360620D01*
X231014107Y39408239D01*
X230823631Y39408239D01*
X230728393Y39360620D01*
X230680774Y39313000D01*
X230633155Y39217762D01*
X230633155Y38979667D01*
X230680774Y38884429D01*
X230728393Y38836810D01*
X230823631Y38789191D01*
X231014107Y38789191D01*
X231109345Y38836810D01*
X231156964Y38884429D01*
X231204583Y38979667D01*
G04 #@! TO.C,SW40*
X246635536Y38455858D02*
X246778393Y38408239D01*
X247016488Y38408239D01*
X247111726Y38455858D01*
X247159345Y38503477D01*
X247206964Y38598715D01*
X247206964Y38693953D01*
X247159345Y38789191D01*
X247111726Y38836810D01*
X247016488Y38884429D01*
X246826012Y38932048D01*
X246730774Y38979667D01*
X246683155Y39027286D01*
X246635536Y39122524D01*
X246635536Y39217762D01*
X246683155Y39313000D01*
X246730774Y39360620D01*
X246826012Y39408239D01*
X247064107Y39408239D01*
X247206964Y39360620D01*
X247540298Y39408239D02*
X247778393Y38408239D01*
X247968869Y39122524D01*
X248159345Y38408239D01*
X248397440Y39408239D01*
X249206964Y39074905D02*
X249206964Y38408239D01*
X248968869Y39455858D02*
X248730774Y38741572D01*
X249349821Y38741572D01*
X249921250Y39408239D02*
X250016488Y39408239D01*
X250111726Y39360620D01*
X250159345Y39313000D01*
X250206964Y39217762D01*
X250254583Y39027286D01*
X250254583Y38789191D01*
X250206964Y38598715D01*
X250159345Y38503477D01*
X250111726Y38455858D01*
X250016488Y38408239D01*
X249921250Y38408239D01*
X249826012Y38455858D01*
X249778393Y38503477D01*
X249730774Y38598715D01*
X249683155Y38789191D01*
X249683155Y39027286D01*
X249730774Y39217762D01*
X249778393Y39313000D01*
X249826012Y39360620D01*
X249921250Y39408239D01*
G04 #@! TO.C,SW41*
X265685536Y38455858D02*
X265828393Y38408239D01*
X266066488Y38408239D01*
X266161726Y38455858D01*
X266209345Y38503477D01*
X266256964Y38598715D01*
X266256964Y38693953D01*
X266209345Y38789191D01*
X266161726Y38836810D01*
X266066488Y38884429D01*
X265876012Y38932048D01*
X265780774Y38979667D01*
X265733155Y39027286D01*
X265685536Y39122524D01*
X265685536Y39217762D01*
X265733155Y39313000D01*
X265780774Y39360620D01*
X265876012Y39408239D01*
X266114107Y39408239D01*
X266256964Y39360620D01*
X266590298Y39408239D02*
X266828393Y38408239D01*
X267018869Y39122524D01*
X267209345Y38408239D01*
X267447440Y39408239D01*
X268256964Y39074905D02*
X268256964Y38408239D01*
X268018869Y39455858D02*
X267780774Y38741572D01*
X268399821Y38741572D01*
X269304583Y38408239D02*
X268733155Y38408239D01*
X269018869Y38408239D02*
X269018869Y39408239D01*
X268923631Y39265381D01*
X268828393Y39170143D01*
X268733155Y39122524D01*
G04 #@! TO.C,SW42*
X284735536Y38455858D02*
X284878393Y38408239D01*
X285116488Y38408239D01*
X285211726Y38455858D01*
X285259345Y38503477D01*
X285306964Y38598715D01*
X285306964Y38693953D01*
X285259345Y38789191D01*
X285211726Y38836810D01*
X285116488Y38884429D01*
X284926012Y38932048D01*
X284830774Y38979667D01*
X284783155Y39027286D01*
X284735536Y39122524D01*
X284735536Y39217762D01*
X284783155Y39313000D01*
X284830774Y39360620D01*
X284926012Y39408239D01*
X285164107Y39408239D01*
X285306964Y39360620D01*
X285640298Y39408239D02*
X285878393Y38408239D01*
X286068869Y39122524D01*
X286259345Y38408239D01*
X286497440Y39408239D01*
X287306964Y39074905D02*
X287306964Y38408239D01*
X287068869Y39455858D02*
X286830774Y38741572D01*
X287449821Y38741572D01*
X287783155Y39313000D02*
X287830774Y39360620D01*
X287926012Y39408239D01*
X288164107Y39408239D01*
X288259345Y39360620D01*
X288306964Y39313000D01*
X288354583Y39217762D01*
X288354583Y39122524D01*
X288306964Y38979667D01*
X287735536Y38408239D01*
X288354583Y38408239D01*
G04 #@! TO.C,SW43*
X58516786Y14643358D02*
X58659643Y14595739D01*
X58897738Y14595739D01*
X58992976Y14643358D01*
X59040595Y14690977D01*
X59088214Y14786215D01*
X59088214Y14881453D01*
X59040595Y14976691D01*
X58992976Y15024310D01*
X58897738Y15071929D01*
X58707262Y15119548D01*
X58612024Y15167167D01*
X58564405Y15214786D01*
X58516786Y15310024D01*
X58516786Y15405262D01*
X58564405Y15500500D01*
X58612024Y15548120D01*
X58707262Y15595739D01*
X58945357Y15595739D01*
X59088214Y15548120D01*
X59421548Y15595739D02*
X59659643Y14595739D01*
X59850119Y15310024D01*
X60040595Y14595739D01*
X60278690Y15595739D01*
X61088214Y15262405D02*
X61088214Y14595739D01*
X60850119Y15643358D02*
X60612024Y14929072D01*
X61231071Y14929072D01*
X61516786Y15595739D02*
X62135833Y15595739D01*
X61802500Y15214786D01*
X61945357Y15214786D01*
X62040595Y15167167D01*
X62088214Y15119548D01*
X62135833Y15024310D01*
X62135833Y14786215D01*
X62088214Y14690977D01*
X62040595Y14643358D01*
X61945357Y14595739D01*
X61659643Y14595739D01*
X61564405Y14643358D01*
X61516786Y14690977D01*
G04 #@! TO.C,SW44*
X79948036Y14643358D02*
X80090893Y14595739D01*
X80328988Y14595739D01*
X80424226Y14643358D01*
X80471845Y14690977D01*
X80519464Y14786215D01*
X80519464Y14881453D01*
X80471845Y14976691D01*
X80424226Y15024310D01*
X80328988Y15071929D01*
X80138512Y15119548D01*
X80043274Y15167167D01*
X79995655Y15214786D01*
X79948036Y15310024D01*
X79948036Y15405262D01*
X79995655Y15500500D01*
X80043274Y15548120D01*
X80138512Y15595739D01*
X80376607Y15595739D01*
X80519464Y15548120D01*
X80852798Y15595739D02*
X81090893Y14595739D01*
X81281369Y15310024D01*
X81471845Y14595739D01*
X81709940Y15595739D01*
X82519464Y15262405D02*
X82519464Y14595739D01*
X82281369Y15643358D02*
X82043274Y14929072D01*
X82662321Y14929072D01*
X83471845Y15262405D02*
X83471845Y14595739D01*
X83233750Y15643358D02*
X82995655Y14929072D01*
X83614702Y14929072D01*
G04 #@! TO.C,SW45*
X98998036Y14643358D02*
X99140893Y14595739D01*
X99378988Y14595739D01*
X99474226Y14643358D01*
X99521845Y14690977D01*
X99569464Y14786215D01*
X99569464Y14881453D01*
X99521845Y14976691D01*
X99474226Y15024310D01*
X99378988Y15071929D01*
X99188512Y15119548D01*
X99093274Y15167167D01*
X99045655Y15214786D01*
X98998036Y15310024D01*
X98998036Y15405262D01*
X99045655Y15500500D01*
X99093274Y15548120D01*
X99188512Y15595739D01*
X99426607Y15595739D01*
X99569464Y15548120D01*
X99902798Y15595739D02*
X100140893Y14595739D01*
X100331369Y15310024D01*
X100521845Y14595739D01*
X100759940Y15595739D01*
X101569464Y15262405D02*
X101569464Y14595739D01*
X101331369Y15643358D02*
X101093274Y14929072D01*
X101712321Y14929072D01*
X102569464Y15595739D02*
X102093274Y15595739D01*
X102045655Y15119548D01*
X102093274Y15167167D01*
X102188512Y15214786D01*
X102426607Y15214786D01*
X102521845Y15167167D01*
X102569464Y15119548D01*
X102617083Y15024310D01*
X102617083Y14786215D01*
X102569464Y14690977D01*
X102521845Y14643358D01*
X102426607Y14595739D01*
X102188512Y14595739D01*
X102093274Y14643358D01*
X102045655Y14690977D01*
G04 #@! TO.C,SW46*
X120429286Y14643358D02*
X120572143Y14595739D01*
X120810238Y14595739D01*
X120905476Y14643358D01*
X120953095Y14690977D01*
X121000714Y14786215D01*
X121000714Y14881453D01*
X120953095Y14976691D01*
X120905476Y15024310D01*
X120810238Y15071929D01*
X120619762Y15119548D01*
X120524524Y15167167D01*
X120476905Y15214786D01*
X120429286Y15310024D01*
X120429286Y15405262D01*
X120476905Y15500500D01*
X120524524Y15548120D01*
X120619762Y15595739D01*
X120857857Y15595739D01*
X121000714Y15548120D01*
X121334048Y15595739D02*
X121572143Y14595739D01*
X121762619Y15310024D01*
X121953095Y14595739D01*
X122191190Y15595739D01*
X123000714Y15262405D02*
X123000714Y14595739D01*
X122762619Y15643358D02*
X122524524Y14929072D01*
X123143571Y14929072D01*
X123953095Y15595739D02*
X123762619Y15595739D01*
X123667381Y15548120D01*
X123619762Y15500500D01*
X123524524Y15357643D01*
X123476905Y15167167D01*
X123476905Y14786215D01*
X123524524Y14690977D01*
X123572143Y14643358D01*
X123667381Y14595739D01*
X123857857Y14595739D01*
X123953095Y14643358D01*
X124000714Y14690977D01*
X124048333Y14786215D01*
X124048333Y15024310D01*
X124000714Y15119548D01*
X123953095Y15167167D01*
X123857857Y15214786D01*
X123667381Y15214786D01*
X123572143Y15167167D01*
X123524524Y15119548D01*
X123476905Y15024310D01*
G04 #@! TO.C,SW49*
X182341786Y14643358D02*
X182484643Y14595739D01*
X182722738Y14595739D01*
X182817976Y14643358D01*
X182865595Y14690977D01*
X182913214Y14786215D01*
X182913214Y14881453D01*
X182865595Y14976691D01*
X182817976Y15024310D01*
X182722738Y15071929D01*
X182532262Y15119548D01*
X182437024Y15167167D01*
X182389405Y15214786D01*
X182341786Y15310024D01*
X182341786Y15405262D01*
X182389405Y15500500D01*
X182437024Y15548120D01*
X182532262Y15595739D01*
X182770357Y15595739D01*
X182913214Y15548120D01*
X183246548Y15595739D02*
X183484643Y14595739D01*
X183675119Y15310024D01*
X183865595Y14595739D01*
X184103690Y15595739D01*
X184913214Y15262405D02*
X184913214Y14595739D01*
X184675119Y15643358D02*
X184437024Y14929072D01*
X185056071Y14929072D01*
X185484643Y14595739D02*
X185675119Y14595739D01*
X185770357Y14643358D01*
X185817976Y14690977D01*
X185913214Y14833834D01*
X185960833Y15024310D01*
X185960833Y15405262D01*
X185913214Y15500500D01*
X185865595Y15548120D01*
X185770357Y15595739D01*
X185579881Y15595739D01*
X185484643Y15548120D01*
X185437024Y15500500D01*
X185389405Y15405262D01*
X185389405Y15167167D01*
X185437024Y15071929D01*
X185484643Y15024310D01*
X185579881Y14976691D01*
X185770357Y14976691D01*
X185865595Y15024310D01*
X185913214Y15071929D01*
X185960833Y15167167D01*
G04 #@! TO.C,SW50*
X203773036Y14643358D02*
X203915893Y14595739D01*
X204153988Y14595739D01*
X204249226Y14643358D01*
X204296845Y14690977D01*
X204344464Y14786215D01*
X204344464Y14881453D01*
X204296845Y14976691D01*
X204249226Y15024310D01*
X204153988Y15071929D01*
X203963512Y15119548D01*
X203868274Y15167167D01*
X203820655Y15214786D01*
X203773036Y15310024D01*
X203773036Y15405262D01*
X203820655Y15500500D01*
X203868274Y15548120D01*
X203963512Y15595739D01*
X204201607Y15595739D01*
X204344464Y15548120D01*
X204677798Y15595739D02*
X204915893Y14595739D01*
X205106369Y15310024D01*
X205296845Y14595739D01*
X205534940Y15595739D01*
X206392083Y15595739D02*
X205915893Y15595739D01*
X205868274Y15119548D01*
X205915893Y15167167D01*
X206011131Y15214786D01*
X206249226Y15214786D01*
X206344464Y15167167D01*
X206392083Y15119548D01*
X206439702Y15024310D01*
X206439702Y14786215D01*
X206392083Y14690977D01*
X206344464Y14643358D01*
X206249226Y14595739D01*
X206011131Y14595739D01*
X205915893Y14643358D01*
X205868274Y14690977D01*
X207058750Y15595739D02*
X207153988Y15595739D01*
X207249226Y15548120D01*
X207296845Y15500500D01*
X207344464Y15405262D01*
X207392083Y15214786D01*
X207392083Y14976691D01*
X207344464Y14786215D01*
X207296845Y14690977D01*
X207249226Y14643358D01*
X207153988Y14595739D01*
X207058750Y14595739D01*
X206963512Y14643358D01*
X206915893Y14690977D01*
X206868274Y14786215D01*
X206820655Y14976691D01*
X206820655Y15214786D01*
X206868274Y15405262D01*
X206915893Y15500500D01*
X206963512Y15548120D01*
X207058750Y15595739D01*
G04 #@! TO.C,SW51*
X222823036Y14643358D02*
X222965893Y14595739D01*
X223203988Y14595739D01*
X223299226Y14643358D01*
X223346845Y14690977D01*
X223394464Y14786215D01*
X223394464Y14881453D01*
X223346845Y14976691D01*
X223299226Y15024310D01*
X223203988Y15071929D01*
X223013512Y15119548D01*
X222918274Y15167167D01*
X222870655Y15214786D01*
X222823036Y15310024D01*
X222823036Y15405262D01*
X222870655Y15500500D01*
X222918274Y15548120D01*
X223013512Y15595739D01*
X223251607Y15595739D01*
X223394464Y15548120D01*
X223727798Y15595739D02*
X223965893Y14595739D01*
X224156369Y15310024D01*
X224346845Y14595739D01*
X224584940Y15595739D01*
X225442083Y15595739D02*
X224965893Y15595739D01*
X224918274Y15119548D01*
X224965893Y15167167D01*
X225061131Y15214786D01*
X225299226Y15214786D01*
X225394464Y15167167D01*
X225442083Y15119548D01*
X225489702Y15024310D01*
X225489702Y14786215D01*
X225442083Y14690977D01*
X225394464Y14643358D01*
X225299226Y14595739D01*
X225061131Y14595739D01*
X224965893Y14643358D01*
X224918274Y14690977D01*
X226442083Y14595739D02*
X225870655Y14595739D01*
X226156369Y14595739D02*
X226156369Y15595739D01*
X226061131Y15452881D01*
X225965893Y15357643D01*
X225870655Y15310024D01*
G04 #@! TO.C,U1*
X-1433538Y75398465D02*
X-976395Y75398465D01*
X-1204966Y74598465D02*
X-1204966Y75398465D01*
X-785919Y75398465D02*
X-252585Y74598465D01*
X-252585Y75398465D02*
X-785919Y74598465D01*
X204557Y75398465D02*
X280747Y75398465D01*
X356938Y75360370D01*
X395033Y75322274D01*
X433128Y75246084D01*
X471223Y75093703D01*
X471223Y74903227D01*
X433128Y74750846D01*
X395033Y74674655D01*
X356938Y74636560D01*
X280747Y74598465D01*
X204557Y74598465D01*
X128366Y74636560D01*
X90271Y74674655D01*
X52176Y74750846D01*
X14080Y74903227D01*
X14080Y75093703D01*
X52176Y75246084D01*
X90271Y75322274D01*
X128366Y75360370D01*
X204557Y75398465D01*
X1385509Y75436560D02*
X699795Y74407989D01*
X1652176Y74598465D02*
X1652176Y75398465D01*
X1842652Y75398465D01*
X1956937Y75360370D01*
X2033128Y75284179D01*
X2071223Y75207989D01*
X2109318Y75055608D01*
X2109318Y74941322D01*
X2071223Y74788941D01*
X2033128Y74712750D01*
X1956937Y74636560D01*
X1842652Y74598465D01*
X1652176Y74598465D01*
X2375985Y75398465D02*
X2871223Y75398465D01*
X2604557Y75093703D01*
X2718842Y75093703D01*
X2795033Y75055608D01*
X2833128Y75017512D01*
X2871223Y74941322D01*
X2871223Y74750846D01*
X2833128Y74674655D01*
X2795033Y74636560D01*
X2718842Y74598465D01*
X2490271Y74598465D01*
X2414080Y74636560D01*
X2375985Y74674655D01*
X-1922666Y72058465D02*
X-1922666Y72858465D01*
X-1732189Y72858465D01*
X-1617904Y72820370D01*
X-1541713Y72744179D01*
X-1503618Y72667989D01*
X-1465523Y72515608D01*
X-1465523Y72401322D01*
X-1503618Y72248941D01*
X-1541713Y72172750D01*
X-1617904Y72096560D01*
X-1732189Y72058465D01*
X-1922666Y72058465D01*
X-1160761Y72782274D02*
X-1122666Y72820370D01*
X-1046475Y72858465D01*
X-855999Y72858465D01*
X-779809Y72820370D01*
X-741713Y72782274D01*
X-703618Y72706084D01*
X-703618Y72629893D01*
X-741713Y72515608D01*
X-1198856Y72058465D01*
X-703618Y72058465D01*
X-1922666Y61898465D02*
X-1922666Y62698465D01*
X-1732189Y62698465D01*
X-1617904Y62660370D01*
X-1541713Y62584179D01*
X-1503618Y62507989D01*
X-1465523Y62355608D01*
X-1465523Y62241322D01*
X-1503618Y62088941D01*
X-1541713Y62012750D01*
X-1617904Y61936560D01*
X-1732189Y61898465D01*
X-1922666Y61898465D01*
X-970285Y62698465D02*
X-894094Y62698465D01*
X-817904Y62660370D01*
X-779809Y62622274D01*
X-741713Y62546084D01*
X-703618Y62393703D01*
X-703618Y62203227D01*
X-741713Y62050846D01*
X-779809Y61974655D01*
X-817904Y61936560D01*
X-894094Y61898465D01*
X-970285Y61898465D01*
X-1046475Y61936560D01*
X-1084570Y61974655D01*
X-1122666Y62050846D01*
X-1160761Y62203227D01*
X-1160761Y62393703D01*
X-1122666Y62546084D01*
X-1084570Y62622274D01*
X-1046475Y62660370D01*
X-970285Y62698465D01*
X-1922666Y64438465D02*
X-1922666Y65238465D01*
X-1732189Y65238465D01*
X-1617904Y65200370D01*
X-1541713Y65124179D01*
X-1503618Y65047989D01*
X-1465523Y64895608D01*
X-1465523Y64781322D01*
X-1503618Y64628941D01*
X-1541713Y64552750D01*
X-1617904Y64476560D01*
X-1732189Y64438465D01*
X-1922666Y64438465D01*
X-703618Y64438465D02*
X-1160761Y64438465D01*
X-932189Y64438465D02*
X-932189Y65238465D01*
X-1008380Y65124179D01*
X-1084570Y65047989D01*
X-1160761Y65009893D01*
X-1541713Y67740370D02*
X-1617904Y67778465D01*
X-1732190Y67778465D01*
X-1846475Y67740370D01*
X-1922666Y67664179D01*
X-1960761Y67587989D01*
X-1998856Y67435608D01*
X-1998856Y67321322D01*
X-1960761Y67168941D01*
X-1922666Y67092750D01*
X-1846475Y67016560D01*
X-1732190Y66978465D01*
X-1655999Y66978465D01*
X-1541713Y67016560D01*
X-1503618Y67054655D01*
X-1503618Y67321322D01*
X-1655999Y67321322D01*
X-1160761Y66978465D02*
X-1160761Y67778465D01*
X-703618Y66978465D01*
X-703618Y67778465D01*
X-322666Y66978465D02*
X-322666Y67778465D01*
X-132190Y67778465D01*
X-17904Y67740370D01*
X58286Y67664179D01*
X96381Y67587989D01*
X134476Y67435608D01*
X134476Y67321322D01*
X96381Y67168941D01*
X58286Y67092750D01*
X-17904Y67016560D01*
X-132190Y66978465D01*
X-322666Y66978465D01*
X-1541713Y70280370D02*
X-1617904Y70318465D01*
X-1732190Y70318465D01*
X-1846475Y70280370D01*
X-1922666Y70204179D01*
X-1960761Y70127989D01*
X-1998856Y69975608D01*
X-1998856Y69861322D01*
X-1960761Y69708941D01*
X-1922666Y69632750D01*
X-1846475Y69556560D01*
X-1732190Y69518465D01*
X-1655999Y69518465D01*
X-1541713Y69556560D01*
X-1503618Y69594655D01*
X-1503618Y69861322D01*
X-1655999Y69861322D01*
X-1160761Y69518465D02*
X-1160761Y70318465D01*
X-703618Y69518465D01*
X-703618Y70318465D01*
X-322666Y69518465D02*
X-322666Y70318465D01*
X-132190Y70318465D01*
X-17904Y70280370D01*
X58286Y70204179D01*
X96381Y70127989D01*
X134476Y69975608D01*
X134476Y69861322D01*
X96381Y69708941D01*
X58286Y69632750D01*
X-17904Y69556560D01*
X-132190Y69518465D01*
X-322666Y69518465D01*
X-1922666Y59358465D02*
X-1922666Y60158465D01*
X-1732189Y60158465D01*
X-1617904Y60120370D01*
X-1541713Y60044179D01*
X-1503618Y59967989D01*
X-1465523Y59815608D01*
X-1465523Y59701322D01*
X-1503618Y59548941D01*
X-1541713Y59472750D01*
X-1617904Y59396560D01*
X-1732189Y59358465D01*
X-1922666Y59358465D01*
X-779809Y59891798D02*
X-779809Y59358465D01*
X-970285Y60196560D02*
X-1160761Y59625131D01*
X-665523Y59625131D01*
X-1465523Y56894655D02*
X-1503618Y56856560D01*
X-1617904Y56818465D01*
X-1694094Y56818465D01*
X-1808380Y56856560D01*
X-1884570Y56932750D01*
X-1922666Y57008941D01*
X-1960761Y57161322D01*
X-1960761Y57275608D01*
X-1922666Y57427989D01*
X-1884570Y57504179D01*
X-1808380Y57580370D01*
X-1694094Y57618465D01*
X-1617904Y57618465D01*
X-1503618Y57580370D01*
X-1465523Y57542274D01*
X-779809Y57618465D02*
X-932190Y57618465D01*
X-1008380Y57580370D01*
X-1046475Y57542274D01*
X-1122666Y57427989D01*
X-1160761Y57275608D01*
X-1160761Y56970846D01*
X-1122666Y56894655D01*
X-1084570Y56856560D01*
X-1008380Y56818465D01*
X-855999Y56818465D01*
X-779809Y56856560D01*
X-741713Y56894655D01*
X-703618Y56970846D01*
X-703618Y57161322D01*
X-741713Y57237512D01*
X-779809Y57275608D01*
X-855999Y57313703D01*
X-1008380Y57313703D01*
X-1084570Y57275608D01*
X-1122666Y57237512D01*
X-1160761Y57161322D01*
X-1922666Y54278465D02*
X-1922666Y55078465D01*
X-1732189Y55078465D01*
X-1617904Y55040370D01*
X-1541713Y54964179D01*
X-1503618Y54887989D01*
X-1465523Y54735608D01*
X-1465523Y54621322D01*
X-1503618Y54468941D01*
X-1541713Y54392750D01*
X-1617904Y54316560D01*
X-1732189Y54278465D01*
X-1922666Y54278465D01*
X-1198856Y55078465D02*
X-665523Y55078465D01*
X-1008380Y54278465D01*
X-1884570Y52157512D02*
X-1617904Y52157512D01*
X-1503618Y51738465D02*
X-1884570Y51738465D01*
X-1884570Y52538465D01*
X-1503618Y52538465D01*
X-817904Y52538465D02*
X-970285Y52538465D01*
X-1046475Y52500370D01*
X-1084570Y52462274D01*
X-1160761Y52347989D01*
X-1198856Y52195608D01*
X-1198856Y51890846D01*
X-1160761Y51814655D01*
X-1122666Y51776560D01*
X-1046475Y51738465D01*
X-894094Y51738465D01*
X-817904Y51776560D01*
X-779809Y51814655D01*
X-741713Y51890846D01*
X-741713Y52081322D01*
X-779809Y52157512D01*
X-817904Y52195608D01*
X-894094Y52233703D01*
X-1046475Y52233703D01*
X-1122666Y52195608D01*
X-1160761Y52157512D01*
X-1198856Y52081322D01*
X-1655999Y49617512D02*
X-1541713Y49579417D01*
X-1503618Y49541322D01*
X-1465523Y49465131D01*
X-1465523Y49350846D01*
X-1503618Y49274655D01*
X-1541713Y49236560D01*
X-1617904Y49198465D01*
X-1922666Y49198465D01*
X-1922666Y49998465D01*
X-1655999Y49998465D01*
X-1579809Y49960370D01*
X-1541713Y49922274D01*
X-1503618Y49846084D01*
X-1503618Y49769893D01*
X-1541713Y49693703D01*
X-1579809Y49655608D01*
X-1655999Y49617512D01*
X-1922666Y49617512D01*
X-779809Y49731798D02*
X-779809Y49198465D01*
X-970285Y50036560D02*
X-1160761Y49465131D01*
X-665523Y49465131D01*
X-1655999Y47077512D02*
X-1541713Y47039417D01*
X-1503618Y47001322D01*
X-1465523Y46925131D01*
X-1465523Y46810846D01*
X-1503618Y46734655D01*
X-1541713Y46696560D01*
X-1617904Y46658465D01*
X-1922666Y46658465D01*
X-1922666Y47458465D01*
X-1655999Y47458465D01*
X-1579809Y47420370D01*
X-1541713Y47382274D01*
X-1503618Y47306084D01*
X-1503618Y47229893D01*
X-1541713Y47153703D01*
X-1579809Y47115608D01*
X-1655999Y47077512D01*
X-1922666Y47077512D01*
X-741713Y47458465D02*
X-1122666Y47458465D01*
X-1160761Y47077512D01*
X-1122666Y47115608D01*
X-1046475Y47153703D01*
X-855999Y47153703D01*
X-779809Y47115608D01*
X-741713Y47077512D01*
X-703618Y47001322D01*
X-703618Y46810846D01*
X-741713Y46734655D01*
X-779809Y46696560D01*
X-855999Y46658465D01*
X-1046475Y46658465D01*
X-1122666Y46696560D01*
X-1160761Y46734655D01*
X9266000Y47077512D02*
X9380286Y47039417D01*
X9418381Y47001322D01*
X9456476Y46925131D01*
X9456476Y46810846D01*
X9418381Y46734655D01*
X9380286Y46696560D01*
X9304095Y46658465D01*
X8999333Y46658465D01*
X8999333Y47458465D01*
X9266000Y47458465D01*
X9342190Y47420370D01*
X9380286Y47382274D01*
X9418381Y47306084D01*
X9418381Y47229893D01*
X9380286Y47153703D01*
X9342190Y47115608D01*
X9266000Y47077512D01*
X8999333Y47077512D01*
X10142190Y47458465D02*
X9989810Y47458465D01*
X9913619Y47420370D01*
X9875524Y47382274D01*
X9799333Y47267989D01*
X9761238Y47115608D01*
X9761238Y46810846D01*
X9799333Y46734655D01*
X9837429Y46696560D01*
X9913619Y46658465D01*
X10066000Y46658465D01*
X10142190Y46696560D01*
X10180286Y46734655D01*
X10218381Y46810846D01*
X10218381Y47001322D01*
X10180286Y47077512D01*
X10142190Y47115608D01*
X10066000Y47153703D01*
X9913619Y47153703D01*
X9837429Y47115608D01*
X9799333Y47077512D01*
X9761238Y47001322D01*
X9266000Y52157512D02*
X9380286Y52119417D01*
X9418381Y52081322D01*
X9456476Y52005131D01*
X9456476Y51890846D01*
X9418381Y51814655D01*
X9380286Y51776560D01*
X9304095Y51738465D01*
X8999333Y51738465D01*
X8999333Y52538465D01*
X9266000Y52538465D01*
X9342190Y52500370D01*
X9380286Y52462274D01*
X9418381Y52386084D01*
X9418381Y52309893D01*
X9380286Y52233703D01*
X9342190Y52195608D01*
X9266000Y52157512D01*
X8999333Y52157512D01*
X9723143Y52538465D02*
X10218381Y52538465D01*
X9951714Y52233703D01*
X10066000Y52233703D01*
X10142190Y52195608D01*
X10180286Y52157512D01*
X10218381Y52081322D01*
X10218381Y51890846D01*
X10180286Y51814655D01*
X10142190Y51776560D01*
X10066000Y51738465D01*
X9837429Y51738465D01*
X9761238Y51776560D01*
X9723143Y51814655D01*
X9266000Y54697512D02*
X9380286Y54659417D01*
X9418381Y54621322D01*
X9456476Y54545131D01*
X9456476Y54430846D01*
X9418381Y54354655D01*
X9380286Y54316560D01*
X9304095Y54278465D01*
X8999333Y54278465D01*
X8999333Y55078465D01*
X9266000Y55078465D01*
X9342190Y55040370D01*
X9380286Y55002274D01*
X9418381Y54926084D01*
X9418381Y54849893D01*
X9380286Y54773703D01*
X9342190Y54735608D01*
X9266000Y54697512D01*
X8999333Y54697512D01*
X10218381Y54278465D02*
X9761238Y54278465D01*
X9989810Y54278465D02*
X9989810Y55078465D01*
X9913619Y54964179D01*
X9837429Y54887989D01*
X9761238Y54849893D01*
X9323143Y64857512D02*
X9056476Y64857512D01*
X9056476Y64438465D02*
X9056476Y65238465D01*
X9437429Y65238465D01*
X10085048Y64971798D02*
X10085048Y64438465D01*
X9894571Y65276560D02*
X9704095Y64705131D01*
X10199333Y64705131D01*
X8023143Y67778465D02*
X8289810Y66978465D01*
X8556476Y67778465D01*
X9280286Y67054655D02*
X9242190Y67016560D01*
X9127905Y66978465D01*
X9051714Y66978465D01*
X8937429Y67016560D01*
X8861238Y67092750D01*
X8823143Y67168941D01*
X8785048Y67321322D01*
X8785048Y67435608D01*
X8823143Y67587989D01*
X8861238Y67664179D01*
X8937429Y67740370D01*
X9051714Y67778465D01*
X9127905Y67778465D01*
X9242190Y67740370D01*
X9280286Y67702274D01*
X10080286Y67054655D02*
X10042190Y67016560D01*
X9927905Y66978465D01*
X9851714Y66978465D01*
X9737429Y67016560D01*
X9661238Y67092750D01*
X9623143Y67168941D01*
X9585048Y67321322D01*
X9585048Y67435608D01*
X9623143Y67587989D01*
X9661238Y67664179D01*
X9737429Y67740370D01*
X9851714Y67778465D01*
X9927905Y67778465D01*
X10042190Y67740370D01*
X10080286Y67702274D01*
X8828596Y69586560D02*
X8942882Y69548465D01*
X9133358Y69548465D01*
X9209549Y69586560D01*
X9247644Y69624655D01*
X9285739Y69700846D01*
X9285739Y69777036D01*
X9247644Y69853227D01*
X9209549Y69891322D01*
X9133358Y69929417D01*
X8980977Y69967512D01*
X8904787Y70005608D01*
X8866691Y70043703D01*
X8828596Y70119893D01*
X8828596Y70196084D01*
X8866691Y70272274D01*
X8904787Y70310370D01*
X8980977Y70348465D01*
X9171453Y70348465D01*
X9285739Y70310370D01*
X9514310Y70348465D02*
X9971453Y70348465D01*
X9742882Y69548465D02*
X9742882Y70348465D01*
X8480286Y72820370D02*
X8404095Y72858465D01*
X8289810Y72858465D01*
X8175524Y72820370D01*
X8099333Y72744179D01*
X8061238Y72667989D01*
X8023143Y72515608D01*
X8023143Y72401322D01*
X8061238Y72248941D01*
X8099333Y72172750D01*
X8175524Y72096560D01*
X8289810Y72058465D01*
X8366000Y72058465D01*
X8480286Y72096560D01*
X8518381Y72134655D01*
X8518381Y72401322D01*
X8366000Y72401322D01*
X8861238Y72058465D02*
X8861238Y72858465D01*
X9318381Y72058465D01*
X9318381Y72858465D01*
X9699333Y72058465D02*
X9699333Y72858465D01*
X9889810Y72858465D01*
X10004095Y72820370D01*
X10080286Y72744179D01*
X10118381Y72667989D01*
X10156476Y72515608D01*
X10156476Y72401322D01*
X10118381Y72248941D01*
X10080286Y72172750D01*
X10004095Y72096560D01*
X9889810Y72058465D01*
X9699333Y72058465D01*
X8537429Y74598465D02*
X8270762Y74979417D01*
X8080286Y74598465D02*
X8080286Y75398465D01*
X8385048Y75398465D01*
X8461238Y75360370D01*
X8499333Y75322274D01*
X8537429Y75246084D01*
X8537429Y75131798D01*
X8499333Y75055608D01*
X8461238Y75017512D01*
X8385048Y74979417D01*
X8080286Y74979417D01*
X8842190Y74827036D02*
X9223143Y74827036D01*
X8766000Y74598465D02*
X9032667Y75398465D01*
X9299333Y74598465D01*
X9489810Y75398465D02*
X9680286Y74598465D01*
X9832667Y75169893D01*
X9985048Y74598465D01*
X10175524Y75398465D01*
X9323143Y62317512D02*
X9056476Y62317512D01*
X9056476Y61898465D02*
X9056476Y62698465D01*
X9437429Y62698465D01*
X10123143Y62698465D02*
X9742190Y62698465D01*
X9704095Y62317512D01*
X9742190Y62355608D01*
X9818381Y62393703D01*
X10008857Y62393703D01*
X10085048Y62355608D01*
X10123143Y62317512D01*
X10161238Y62241322D01*
X10161238Y62050846D01*
X10123143Y61974655D01*
X10085048Y61936560D01*
X10008857Y61898465D01*
X9818381Y61898465D01*
X9742190Y61936560D01*
X9704095Y61974655D01*
X9323143Y59777512D02*
X9056476Y59777512D01*
X9056476Y59358465D02*
X9056476Y60158465D01*
X9437429Y60158465D01*
X10085048Y60158465D02*
X9932667Y60158465D01*
X9856476Y60120370D01*
X9818381Y60082274D01*
X9742190Y59967989D01*
X9704095Y59815608D01*
X9704095Y59510846D01*
X9742190Y59434655D01*
X9780286Y59396560D01*
X9856476Y59358465D01*
X10008857Y59358465D01*
X10085048Y59396560D01*
X10123143Y59434655D01*
X10161238Y59510846D01*
X10161238Y59701322D01*
X10123143Y59777512D01*
X10085048Y59815608D01*
X10008857Y59853703D01*
X9856476Y59853703D01*
X9780286Y59815608D01*
X9742190Y59777512D01*
X9704095Y59701322D01*
X9323143Y57237512D02*
X9056476Y57237512D01*
X9056476Y56818465D02*
X9056476Y57618465D01*
X9437429Y57618465D01*
X9666000Y57618465D02*
X10199333Y57618465D01*
X9856476Y56818465D01*
X9266000Y49617512D02*
X9380286Y49579417D01*
X9418381Y49541322D01*
X9456476Y49465131D01*
X9456476Y49350846D01*
X9418381Y49274655D01*
X9380286Y49236560D01*
X9304095Y49198465D01*
X8999333Y49198465D01*
X8999333Y49998465D01*
X9266000Y49998465D01*
X9342190Y49960370D01*
X9380286Y49922274D01*
X9418381Y49846084D01*
X9418381Y49769893D01*
X9380286Y49693703D01*
X9342190Y49655608D01*
X9266000Y49617512D01*
X8999333Y49617512D01*
X9761238Y49922274D02*
X9799333Y49960370D01*
X9875524Y49998465D01*
X10066000Y49998465D01*
X10142190Y49960370D01*
X10180286Y49922274D01*
X10218381Y49846084D01*
X10218381Y49769893D01*
X10180286Y49655608D01*
X9723143Y49198465D01*
X10218381Y49198465D01*
G04 #@! TD*
M02*
