G04 #@! TF.GenerationSoftware,KiCad,Pcbnew,(6.0.0-rc1-dev-1215-g431bdc7a3)*
G04 #@! TF.CreationDate,2018-12-02T20:05:25+01:00*
G04 #@! TF.ProjectId,wave,77617665-2e6b-4696-9361-645f70636258,rev?*
G04 #@! TF.SameCoordinates,Original*
G04 #@! TF.FileFunction,Legend,Bot*
G04 #@! TF.FilePolarity,Positive*
%FSLAX46Y46*%
G04 Gerber Fmt 4.6, Leading zero omitted, Abs format (unit mm)*
G04 Created by KiCad (PCBNEW (6.0.0-rc1-dev-1215-g431bdc7a3)) date 2018 December 02, Sunday 20:05:25*
%MOMM*%
%LPD*%
G01*
G04 APERTURE LIST*
%ADD10C,0.150000*%
%ADD11C,0.200000*%
%ADD12C,0.100000*%
%ADD13C,0.120000*%
G04 APERTURE END LIST*
D10*
X228699226Y17389739D02*
X229165893Y17865929D01*
X229499226Y17389739D02*
X229499226Y18389739D01*
X228965893Y18389739D01*
X228832560Y18342120D01*
X228765893Y18294500D01*
X228699226Y18199262D01*
X228699226Y18056405D01*
X228765893Y17961167D01*
X228832560Y17913548D01*
X228965893Y17865929D01*
X229499226Y17865929D01*
X228099226Y17913548D02*
X227632560Y17913548D01*
X227432560Y17389739D02*
X228099226Y17389739D01*
X228099226Y18389739D01*
X227432560Y18389739D01*
X227032560Y18389739D02*
X226565893Y17389739D01*
X226099226Y18389739D01*
X225632560Y17484977D02*
X225565893Y17437358D01*
X225632560Y17389739D01*
X225699226Y17437358D01*
X225632560Y17484977D01*
X225632560Y17389739D01*
X224232560Y17389739D02*
X225032560Y17389739D01*
X224632560Y17389739D02*
X224632560Y18389739D01*
X224765893Y18246881D01*
X224899226Y18151643D01*
X225032560Y18104024D01*
X222565893Y17389739D02*
X222565893Y18389739D01*
X222232560Y18389739D01*
X222032560Y18342120D01*
X221899226Y18246881D01*
X221832560Y18151643D01*
X221765893Y17961167D01*
X221765893Y17818310D01*
X221832560Y17627834D01*
X221899226Y17532596D01*
X222032560Y17437358D01*
X222232560Y17389739D01*
X222565893Y17389739D01*
X221165893Y17913548D02*
X220699226Y17913548D01*
X220499226Y17389739D02*
X221165893Y17389739D01*
X221165893Y18389739D01*
X220499226Y18389739D01*
X219965893Y17437358D02*
X219765893Y17389739D01*
X219432560Y17389739D01*
X219299226Y17437358D01*
X219232560Y17484977D01*
X219165893Y17580215D01*
X219165893Y17675453D01*
X219232560Y17770691D01*
X219299226Y17818310D01*
X219432560Y17865929D01*
X219699226Y17913548D01*
X219832560Y17961167D01*
X219899226Y18008786D01*
X219965893Y18104024D01*
X219965893Y18199262D01*
X219899226Y18294500D01*
X219832560Y18342120D01*
X219699226Y18389739D01*
X219365893Y18389739D01*
X219165893Y18342120D01*
X218565893Y17389739D02*
X218565893Y18389739D01*
X217165893Y18342120D02*
X217299226Y18389739D01*
X217499226Y18389739D01*
X217699226Y18342120D01*
X217832560Y18246881D01*
X217899226Y18151643D01*
X217965893Y17961167D01*
X217965893Y17818310D01*
X217899226Y17627834D01*
X217832560Y17532596D01*
X217699226Y17437358D01*
X217499226Y17389739D01*
X217365893Y17389739D01*
X217165893Y17437358D01*
X217099226Y17484977D01*
X217099226Y17818310D01*
X217365893Y17818310D01*
X216499226Y17389739D02*
X216499226Y18389739D01*
X215699226Y17389739D01*
X215699226Y18389739D01*
X215032560Y17913548D02*
X214565893Y17913548D01*
X214365893Y17389739D02*
X215032560Y17389739D01*
X215032560Y18389739D01*
X214365893Y18389739D01*
X213765893Y17389739D02*
X213765893Y18389739D01*
X213432560Y18389739D01*
X213232560Y18342120D01*
X213099226Y18246881D01*
X213032560Y18151643D01*
X212965893Y17961167D01*
X212965893Y17818310D01*
X213032560Y17627834D01*
X213099226Y17532596D01*
X213232560Y17437358D01*
X213432560Y17389739D01*
X213765893Y17389739D01*
X210832560Y17913548D02*
X210632560Y17865929D01*
X210565893Y17818310D01*
X210499226Y17723072D01*
X210499226Y17580215D01*
X210565893Y17484977D01*
X210632560Y17437358D01*
X210765893Y17389739D01*
X211299226Y17389739D01*
X211299226Y18389739D01*
X210832560Y18389739D01*
X210699226Y18342120D01*
X210632560Y18294500D01*
X210565893Y18199262D01*
X210565893Y18104024D01*
X210632560Y18008786D01*
X210699226Y17961167D01*
X210832560Y17913548D01*
X211299226Y17913548D01*
X209632560Y17865929D02*
X209632560Y17389739D01*
X210099226Y18389739D02*
X209632560Y17865929D01*
X209165893Y18389739D01*
X206765893Y17865929D02*
X206832560Y17913548D01*
X206965893Y17961167D01*
X207099226Y17961167D01*
X207232560Y17913548D01*
X207299226Y17865929D01*
X207365893Y17770691D01*
X207365893Y17675453D01*
X207299226Y17580215D01*
X207232560Y17532596D01*
X207099226Y17484977D01*
X206965893Y17484977D01*
X206832560Y17532596D01*
X206765893Y17580215D01*
X206765893Y17961167D02*
X206765893Y17580215D01*
X206699226Y17532596D01*
X206632560Y17532596D01*
X206499226Y17580215D01*
X206432560Y17675453D01*
X206432560Y17913548D01*
X206565893Y18056405D01*
X206765893Y18151643D01*
X207032560Y18199262D01*
X207299226Y18151643D01*
X207499226Y18056405D01*
X207632560Y17913548D01*
X207699226Y17723072D01*
X207632560Y17532596D01*
X207499226Y17389739D01*
X207299226Y17294500D01*
X207032560Y17246881D01*
X206765893Y17294500D01*
X206565893Y17389739D01*
X205299226Y17437358D02*
X205432560Y17389739D01*
X205699226Y17389739D01*
X205832560Y17437358D01*
X205899226Y17532596D01*
X205899226Y17913548D01*
X205832560Y18008786D01*
X205699226Y18056405D01*
X205432560Y18056405D01*
X205299226Y18008786D01*
X205232560Y17913548D01*
X205232560Y17818310D01*
X205899226Y17723072D01*
X204699226Y17437358D02*
X204565893Y17389739D01*
X204299226Y17389739D01*
X204165893Y17437358D01*
X204099226Y17532596D01*
X204099226Y17580215D01*
X204165893Y17675453D01*
X204299226Y17723072D01*
X204499226Y17723072D01*
X204632560Y17770691D01*
X204699226Y17865929D01*
X204699226Y17913548D01*
X204632560Y18008786D01*
X204499226Y18056405D01*
X204299226Y18056405D01*
X204165893Y18008786D01*
X203632560Y18056405D02*
X203365893Y17389739D01*
X203099226Y17865929D01*
X202832560Y17389739D01*
X202565893Y18056405D01*
X201432560Y17389739D02*
X201432560Y17913548D01*
X201499226Y18008786D01*
X201632560Y18056405D01*
X201899226Y18056405D01*
X202032560Y18008786D01*
X201432560Y17437358D02*
X201565893Y17389739D01*
X201899226Y17389739D01*
X202032560Y17437358D01*
X202099226Y17532596D01*
X202099226Y17627834D01*
X202032560Y17723072D01*
X201899226Y17770691D01*
X201565893Y17770691D01*
X201432560Y17818310D01*
X200765893Y17389739D02*
X200765893Y18056405D01*
X200765893Y18389739D02*
X200832560Y18342120D01*
X200765893Y18294500D01*
X200699226Y18342120D01*
X200765893Y18389739D01*
X200765893Y18294500D01*
X199099226Y18294500D02*
X199032560Y18342120D01*
X198899226Y18389739D01*
X198565893Y18389739D01*
X198432560Y18342120D01*
X198365893Y18294500D01*
X198299226Y18199262D01*
X198299226Y18104024D01*
X198365893Y17961167D01*
X199165893Y17389739D01*
X198299226Y17389739D01*
X197432560Y18389739D02*
X197299226Y18389739D01*
X197165893Y18342120D01*
X197099226Y18294500D01*
X197032560Y18199262D01*
X196965893Y18008786D01*
X196965893Y17770691D01*
X197032560Y17580215D01*
X197099226Y17484977D01*
X197165893Y17437358D01*
X197299226Y17389739D01*
X197432560Y17389739D01*
X197565893Y17437358D01*
X197632560Y17484977D01*
X197699226Y17580215D01*
X197765893Y17770691D01*
X197765893Y18008786D01*
X197699226Y18199262D01*
X197632560Y18294500D01*
X197565893Y18342120D01*
X197432560Y18389739D01*
X195632560Y17389739D02*
X196432560Y17389739D01*
X196032560Y17389739D02*
X196032560Y18389739D01*
X196165893Y18246881D01*
X196299226Y18151643D01*
X196432560Y18104024D01*
X194832560Y17961167D02*
X194965893Y18008786D01*
X195032560Y18056405D01*
X195099226Y18151643D01*
X195099226Y18199262D01*
X195032560Y18294500D01*
X194965893Y18342120D01*
X194832560Y18389739D01*
X194565893Y18389739D01*
X194432560Y18342120D01*
X194365893Y18294500D01*
X194299226Y18199262D01*
X194299226Y18151643D01*
X194365893Y18056405D01*
X194432560Y18008786D01*
X194565893Y17961167D01*
X194832560Y17961167D01*
X194965893Y17913548D01*
X195032560Y17865929D01*
X195099226Y17770691D01*
X195099226Y17580215D01*
X195032560Y17484977D01*
X194965893Y17437358D01*
X194832560Y17389739D01*
X194565893Y17389739D01*
X194432560Y17437358D01*
X194365893Y17484977D01*
X194299226Y17580215D01*
X194299226Y17770691D01*
X194365893Y17865929D01*
X194432560Y17913548D01*
X194565893Y17961167D01*
D11*
X229075417Y19497120D02*
X226789702Y19497120D01*
X229532560Y19068548D02*
X227932560Y20568548D01*
X226332560Y19068548D01*
X224732560Y19068548D02*
X224732560Y20568548D01*
X221989702Y19068548D01*
X221989702Y20568548D01*
X219703988Y19068548D02*
X219703988Y20568548D01*
X219703988Y19854262D02*
X216961131Y19854262D01*
X216961131Y19068548D02*
X216961131Y20568548D01*
X214675417Y19854262D02*
X213075417Y19854262D01*
X212389702Y19068548D02*
X214675417Y19068548D01*
X214675417Y20568548D01*
X212389702Y20568548D01*
X210332560Y19068548D02*
X210332560Y20568548D01*
X209189702Y20568548D01*
X208503988Y20497120D01*
X208046845Y20354262D01*
X207818274Y20211405D01*
X207589702Y19925691D01*
X207589702Y19711405D01*
X207818274Y19425691D01*
X208046845Y19282834D01*
X208503988Y19139977D01*
X209189702Y19068548D01*
X210332560Y19068548D01*
X202789702Y19068548D02*
X204389702Y19782834D01*
X205532560Y19068548D02*
X205532560Y20568548D01*
X203703988Y20568548D01*
X203246845Y20497120D01*
X203018274Y20425691D01*
X202789702Y20282834D01*
X202789702Y20068548D01*
X203018274Y19925691D01*
X203246845Y19854262D01*
X203703988Y19782834D01*
X205532560Y19782834D01*
X200961131Y19497120D02*
X198675417Y19497120D01*
X201418274Y19068548D02*
X199818274Y20568548D01*
X198218274Y19068548D01*
X194332560Y19068548D02*
X196618274Y19068548D01*
X196618274Y20568548D01*
D10*
G04 #@! TO.C,SW48*
X157795060Y33986620D02*
X157795060Y34986620D01*
X147295060Y32086620D02*
X147295060Y32446620D01*
X147295060Y35686620D02*
X147295060Y34686620D01*
X147295060Y32086620D02*
X150575060Y32086620D01*
X152795060Y33986620D02*
X157795060Y33986620D01*
X157795060Y37586620D02*
X149395059Y37586620D01*
X150578742Y32108091D02*
G75*
G02X152795060Y33986620I2151318J-291471D01*
G01*
X147295060Y35686619D02*
G75*
G02X149395059Y37586620I2000000J-99999D01*
G01*
X157795060Y37236620D02*
X157795060Y37586620D01*
G04 #@! TO.C,SW47*
X148595060Y4174120D02*
X148595060Y3174120D01*
X159095060Y6074120D02*
X159095060Y5714120D01*
X159095060Y2474120D02*
X159095060Y3474120D01*
X159095060Y6074120D02*
X155815060Y6074120D01*
X153595060Y4174120D02*
X148595060Y4174120D01*
X148595060Y574120D02*
X156995061Y574120D01*
X155811378Y6052649D02*
G75*
G02X153595060Y4174120I-2151318J291471D01*
G01*
X159095060Y2474121D02*
G75*
G02X156995061Y574120I-2000000J99999D01*
G01*
X148595060Y924120D02*
X148595060Y574120D01*
G04 #@! TO.C,SW53*
X7331310Y62979120D02*
X7331310Y69479120D01*
X2831310Y62979120D02*
X7331310Y62979120D01*
X2831310Y69479120D02*
X2831310Y62979120D01*
X7331310Y69479120D02*
X2831310Y69479120D01*
D12*
G04 #@! TO.C,D52*
G36*
X249946657Y17675370D02*
X249246657Y17175370D01*
X249946657Y16675370D01*
X249946657Y17675370D01*
G37*
X249946657Y17675370D02*
X249246657Y17175370D01*
X249946657Y16675370D01*
X249946657Y17675370D01*
D13*
X249146657Y17675370D02*
X249146657Y16675370D01*
D10*
G04 #@! TO.C,SW52*
X250663810Y10174120D02*
X250663810Y11174120D01*
X240163810Y8274120D02*
X240163810Y8634120D01*
X240163810Y11874120D02*
X240163810Y10874120D01*
X240163810Y8274120D02*
X243443810Y8274120D01*
X245663810Y10174120D02*
X250663810Y10174120D01*
X250663810Y13774120D02*
X242263809Y13774120D01*
X243447492Y8295591D02*
G75*
G02X245663810Y10174120I2151318J-291471D01*
G01*
X240163810Y11874119D02*
G75*
G02X242263809Y13774120I2000000J-99999D01*
G01*
X250663810Y13424120D02*
X250663810Y13774120D01*
G04 #@! TO.C,SW28*
X288763810Y53036620D02*
X288763810Y54036620D01*
X278263810Y51136620D02*
X278263810Y51496620D01*
X278263810Y54736620D02*
X278263810Y53736620D01*
X278263810Y51136620D02*
X281543810Y51136620D01*
X283763810Y53036620D02*
X288763810Y53036620D01*
X288763810Y56636620D02*
X280363809Y56636620D01*
X281547492Y51158091D02*
G75*
G02X283763810Y53036620I2151318J-291471D01*
G01*
X278263810Y54736619D02*
G75*
G02X280363809Y56636620I2000000J-99999D01*
G01*
X288763810Y56286620D02*
X288763810Y56636620D01*
G04 #@! TO.C,SW14*
X286382560Y72086620D02*
X286382560Y73086620D01*
X275882560Y70186620D02*
X275882560Y70546620D01*
X275882560Y73786620D02*
X275882560Y72786620D01*
X275882560Y70186620D02*
X279162560Y70186620D01*
X281382560Y72086620D02*
X286382560Y72086620D01*
X286382560Y75686620D02*
X277982559Y75686620D01*
X279166242Y70208091D02*
G75*
G02X281382560Y72086620I2151318J-291471D01*
G01*
X275882560Y73786619D02*
G75*
G02X277982559Y75686620I2000000J-99999D01*
G01*
X286382560Y75336620D02*
X286382560Y75686620D01*
D12*
G04 #@! TO.C,D51*
G36*
X232705060Y7574120D02*
X233205060Y6874120D01*
X233705060Y7574120D01*
X232705060Y7574120D01*
G37*
X232705060Y7574120D02*
X233205060Y6874120D01*
X233705060Y7574120D01*
X232705060Y7574120D01*
D13*
X232705060Y6774120D02*
X233705060Y6774120D01*
D12*
G04 #@! TO.C,D50*
G36*
X213655060Y7574120D02*
X214155060Y6874120D01*
X214655060Y7574120D01*
X213655060Y7574120D01*
G37*
X213655060Y7574120D02*
X214155060Y6874120D01*
X214655060Y7574120D01*
X213655060Y7574120D01*
D13*
X213655060Y6774120D02*
X214655060Y6774120D01*
D12*
G04 #@! TO.C,D49*
G36*
X192223810Y7574120D02*
X192723810Y6874120D01*
X193223810Y7574120D01*
X192223810Y7574120D01*
G37*
X192223810Y7574120D02*
X192723810Y6874120D01*
X193223810Y7574120D01*
X192223810Y7574120D01*
D13*
X192223810Y6774120D02*
X193223810Y6774120D01*
D12*
G04 #@! TO.C,D48*
G36*
X161267560Y31386620D02*
X161767560Y30686620D01*
X162267560Y31386620D01*
X161267560Y31386620D01*
G37*
X161267560Y31386620D02*
X161767560Y30686620D01*
X162267560Y31386620D01*
X161267560Y31386620D01*
D13*
X161267560Y30586620D02*
X162267560Y30586620D01*
D12*
G04 #@! TO.C,D47*
G36*
X135043933Y7574120D02*
X135543933Y6874120D01*
X136043933Y7574120D01*
X135043933Y7574120D01*
G37*
X135043933Y7574120D02*
X135543933Y6874120D01*
X136043933Y7574120D01*
X135043933Y7574120D01*
D13*
X135043933Y6774120D02*
X136043933Y6774120D01*
D12*
G04 #@! TO.C,D46*
G36*
X130311310Y7574120D02*
X130811310Y6874120D01*
X131311310Y7574120D01*
X130311310Y7574120D01*
G37*
X130311310Y7574120D02*
X130811310Y6874120D01*
X131311310Y7574120D01*
X130311310Y7574120D01*
D13*
X130311310Y6774120D02*
X131311310Y6774120D01*
D12*
G04 #@! TO.C,D45*
G36*
X108880060Y7694467D02*
X109380060Y6994467D01*
X109880060Y7694467D01*
X108880060Y7694467D01*
G37*
X108880060Y7694467D02*
X109380060Y6994467D01*
X109880060Y7694467D01*
X108880060Y7694467D01*
D13*
X108880060Y6894467D02*
X109880060Y6894467D01*
D12*
G04 #@! TO.C,D44*
G36*
X89830060Y7574120D02*
X90330060Y6874120D01*
X90830060Y7574120D01*
X89830060Y7574120D01*
G37*
X89830060Y7574120D02*
X90330060Y6874120D01*
X90830060Y7574120D01*
X89830060Y7574120D01*
D13*
X89830060Y6774120D02*
X90830060Y6774120D01*
D12*
G04 #@! TO.C,D43*
G36*
X68398810Y7574120D02*
X68898810Y6874120D01*
X69398810Y7574120D01*
X68398810Y7574120D01*
G37*
X68398810Y7574120D02*
X68898810Y6874120D01*
X69398810Y7574120D01*
X68398810Y7574120D01*
D13*
X68398810Y6774120D02*
X69398810Y6774120D01*
D12*
G04 #@! TO.C,D42*
G36*
X288373810Y41011620D02*
X287673810Y40511620D01*
X288373810Y40011620D01*
X288373810Y41011620D01*
G37*
X288373810Y41011620D02*
X287673810Y40511620D01*
X288373810Y40011620D01*
X288373810Y41011620D01*
D13*
X287573810Y41011620D02*
X287573810Y40011620D01*
D12*
G04 #@! TO.C,D41*
G36*
X275567560Y31386620D02*
X276067560Y30686620D01*
X276567560Y31386620D01*
X275567560Y31386620D01*
G37*
X275567560Y31386620D02*
X276067560Y30686620D01*
X276567560Y31386620D01*
X275567560Y31386620D01*
D13*
X275567560Y30586620D02*
X276567560Y30586620D01*
D12*
G04 #@! TO.C,D40*
G36*
X256517560Y31386620D02*
X257017560Y30686620D01*
X257517560Y31386620D01*
X256517560Y31386620D01*
G37*
X256517560Y31386620D02*
X257017560Y30686620D01*
X257517560Y31386620D01*
X256517560Y31386620D01*
D13*
X256517560Y30586620D02*
X257517560Y30586620D01*
D12*
G04 #@! TO.C,D39*
G36*
X237467560Y31386620D02*
X237967560Y30686620D01*
X238467560Y31386620D01*
X237467560Y31386620D01*
G37*
X237467560Y31386620D02*
X237967560Y30686620D01*
X238467560Y31386620D01*
X237467560Y31386620D01*
D13*
X237467560Y30586620D02*
X238467560Y30586620D01*
D12*
G04 #@! TO.C,D38*
G36*
X218417560Y31386620D02*
X218917560Y30686620D01*
X219417560Y31386620D01*
X218417560Y31386620D01*
G37*
X218417560Y31386620D02*
X218917560Y30686620D01*
X219417560Y31386620D01*
X218417560Y31386620D01*
D13*
X218417560Y30586620D02*
X219417560Y30586620D01*
D12*
G04 #@! TO.C,D37*
G36*
X199367560Y31386620D02*
X199867560Y30686620D01*
X200367560Y31386620D01*
X199367560Y31386620D01*
G37*
X199367560Y31386620D02*
X199867560Y30686620D01*
X200367560Y31386620D01*
X199367560Y31386620D01*
D13*
X199367560Y30586620D02*
X200367560Y30586620D01*
D12*
G04 #@! TO.C,D36*
G36*
X180317560Y31386620D02*
X180817560Y30686620D01*
X181317560Y31386620D01*
X180317560Y31386620D01*
G37*
X180317560Y31386620D02*
X180817560Y30686620D01*
X181317560Y31386620D01*
X180317560Y31386620D01*
D13*
X180317560Y30586620D02*
X181317560Y30586620D01*
D12*
G04 #@! TO.C,D35*
G36*
X142217560Y31862870D02*
X142717560Y31162870D01*
X143217560Y31862870D01*
X142217560Y31862870D01*
G37*
X142217560Y31862870D02*
X142717560Y31162870D01*
X143217560Y31862870D01*
X142217560Y31862870D01*
D13*
X142217560Y31062870D02*
X143217560Y31062870D01*
D12*
G04 #@! TO.C,D34*
G36*
X123167560Y31386620D02*
X123667560Y30686620D01*
X124167560Y31386620D01*
X123167560Y31386620D01*
G37*
X123167560Y31386620D02*
X123667560Y30686620D01*
X124167560Y31386620D01*
X123167560Y31386620D01*
D13*
X123167560Y30586620D02*
X124167560Y30586620D01*
D12*
G04 #@! TO.C,D33*
G36*
X104117560Y31386620D02*
X104617560Y30686620D01*
X105117560Y31386620D01*
X104117560Y31386620D01*
G37*
X104117560Y31386620D02*
X104617560Y30686620D01*
X105117560Y31386620D01*
X104117560Y31386620D01*
D13*
X104117560Y30586620D02*
X105117560Y30586620D01*
D12*
G04 #@! TO.C,D32*
G36*
X85067560Y31386620D02*
X85567560Y30686620D01*
X86067560Y31386620D01*
X85067560Y31386620D01*
G37*
X85067560Y31386620D02*
X85567560Y30686620D01*
X86067560Y31386620D01*
X85067560Y31386620D01*
D13*
X85067560Y30586620D02*
X86067560Y30586620D01*
D12*
G04 #@! TO.C,D31*
G36*
X66017560Y31386620D02*
X66517560Y30686620D01*
X67017560Y31386620D01*
X66017560Y31386620D01*
G37*
X66017560Y31386620D02*
X66517560Y30686620D01*
X67017560Y31386620D01*
X66017560Y31386620D01*
D13*
X66017560Y30586620D02*
X67017560Y30586620D01*
D12*
G04 #@! TO.C,D30*
G36*
X46967560Y31386620D02*
X47467560Y30686620D01*
X47967560Y31386620D01*
X46967560Y31386620D01*
G37*
X46967560Y31386620D02*
X47467560Y30686620D01*
X47967560Y31386620D01*
X46967560Y31386620D01*
D13*
X46967560Y30586620D02*
X47967560Y30586620D01*
D12*
G04 #@! TO.C,D29*
G36*
X27917560Y31386620D02*
X28417560Y30686620D01*
X28917560Y31386620D01*
X27917560Y31386620D01*
G37*
X27917560Y31386620D02*
X28417560Y30686620D01*
X28917560Y31386620D01*
X27917560Y31386620D01*
D13*
X27917560Y30586620D02*
X28917560Y30586620D01*
D12*
G04 #@! TO.C,D28*
G36*
X292236310Y50436620D02*
X292736310Y49736620D01*
X293236310Y50436620D01*
X292236310Y50436620D01*
G37*
X292236310Y50436620D02*
X292736310Y49736620D01*
X293236310Y50436620D01*
X292236310Y50436620D01*
D13*
X292236310Y49636620D02*
X293236310Y49636620D01*
D12*
G04 #@! TO.C,D27*
G36*
X270805060Y50436620D02*
X271305060Y49736620D01*
X271805060Y50436620D01*
X270805060Y50436620D01*
G37*
X270805060Y50436620D02*
X271305060Y49736620D01*
X271805060Y50436620D01*
X270805060Y50436620D01*
D13*
X270805060Y49636620D02*
X271805060Y49636620D01*
D12*
G04 #@! TO.C,D26*
G36*
X251755060Y50436620D02*
X252255060Y49736620D01*
X252755060Y50436620D01*
X251755060Y50436620D01*
G37*
X251755060Y50436620D02*
X252255060Y49736620D01*
X252755060Y50436620D01*
X251755060Y50436620D01*
D13*
X251755060Y49636620D02*
X252755060Y49636620D01*
D12*
G04 #@! TO.C,D25*
G36*
X232705060Y50436620D02*
X233205060Y49736620D01*
X233705060Y50436620D01*
X232705060Y50436620D01*
G37*
X232705060Y50436620D02*
X233205060Y49736620D01*
X233705060Y50436620D01*
X232705060Y50436620D01*
D13*
X232705060Y49636620D02*
X233705060Y49636620D01*
D12*
G04 #@! TO.C,D24*
G36*
X213655060Y50436620D02*
X214155060Y49736620D01*
X214655060Y50436620D01*
X213655060Y50436620D01*
G37*
X213655060Y50436620D02*
X214155060Y49736620D01*
X214655060Y50436620D01*
X213655060Y50436620D01*
D13*
X213655060Y49636620D02*
X214655060Y49636620D01*
D12*
G04 #@! TO.C,D23*
G36*
X194605060Y50436620D02*
X195105060Y49736620D01*
X195605060Y50436620D01*
X194605060Y50436620D01*
G37*
X194605060Y50436620D02*
X195105060Y49736620D01*
X195605060Y50436620D01*
X194605060Y50436620D01*
D13*
X194605060Y49636620D02*
X195605060Y49636620D01*
D12*
G04 #@! TO.C,D22*
G36*
X175555060Y50436620D02*
X176055060Y49736620D01*
X176555060Y50436620D01*
X175555060Y50436620D01*
G37*
X175555060Y50436620D02*
X176055060Y49736620D01*
X176555060Y50436620D01*
X175555060Y50436620D01*
D13*
X175555060Y49636620D02*
X176555060Y49636620D01*
D12*
G04 #@! TO.C,D21*
G36*
X146980060Y50436620D02*
X147480060Y49736620D01*
X147980060Y50436620D01*
X146980060Y50436620D01*
G37*
X146980060Y50436620D02*
X147480060Y49736620D01*
X147980060Y50436620D01*
X146980060Y50436620D01*
D13*
X146980060Y49636620D02*
X147980060Y49636620D01*
D12*
G04 #@! TO.C,D20*
G36*
X127930060Y50436620D02*
X128430060Y49736620D01*
X128930060Y50436620D01*
X127930060Y50436620D01*
G37*
X127930060Y50436620D02*
X128430060Y49736620D01*
X128930060Y50436620D01*
X127930060Y50436620D01*
D13*
X127930060Y49636620D02*
X128930060Y49636620D01*
D12*
G04 #@! TO.C,D19*
G36*
X108880060Y50436620D02*
X109380060Y49736620D01*
X109880060Y50436620D01*
X108880060Y50436620D01*
G37*
X108880060Y50436620D02*
X109380060Y49736620D01*
X109880060Y50436620D01*
X108880060Y50436620D01*
D13*
X108880060Y49636620D02*
X109880060Y49636620D01*
D12*
G04 #@! TO.C,D18*
G36*
X89830060Y50436620D02*
X90330060Y49736620D01*
X90830060Y50436620D01*
X89830060Y50436620D01*
G37*
X89830060Y50436620D02*
X90330060Y49736620D01*
X90830060Y50436620D01*
X89830060Y50436620D01*
D13*
X89830060Y49636620D02*
X90830060Y49636620D01*
D12*
G04 #@! TO.C,D17*
G36*
X70780060Y50436620D02*
X71280060Y49736620D01*
X71780060Y50436620D01*
X70780060Y50436620D01*
G37*
X70780060Y50436620D02*
X71280060Y49736620D01*
X71780060Y50436620D01*
X70780060Y50436620D01*
D13*
X70780060Y49636620D02*
X71780060Y49636620D01*
D12*
G04 #@! TO.C,D16*
G36*
X51730060Y50436620D02*
X52230060Y49736620D01*
X52730060Y50436620D01*
X51730060Y50436620D01*
G37*
X51730060Y50436620D02*
X52230060Y49736620D01*
X52730060Y50436620D01*
X51730060Y50436620D01*
D13*
X51730060Y49636620D02*
X52730060Y49636620D01*
D12*
G04 #@! TO.C,D15*
G36*
X30298810Y50436620D02*
X30798810Y49736620D01*
X31298810Y50436620D01*
X30298810Y50436620D01*
G37*
X30298810Y50436620D02*
X30798810Y49736620D01*
X31298810Y50436620D01*
X30298810Y50436620D01*
D13*
X30298810Y49636620D02*
X31298810Y49636620D01*
D12*
G04 #@! TO.C,D14*
G36*
X289855060Y69606967D02*
X290355060Y68906967D01*
X290855060Y69606967D01*
X289855060Y69606967D01*
G37*
X289855060Y69606967D02*
X290355060Y68906967D01*
X290855060Y69606967D01*
X289855060Y69606967D01*
D13*
X289855060Y68806967D02*
X290855060Y68806967D01*
D12*
G04 #@! TO.C,D13*
G36*
X266042560Y69486620D02*
X266542560Y68786620D01*
X267042560Y69486620D01*
X266042560Y69486620D01*
G37*
X266042560Y69486620D02*
X266542560Y68786620D01*
X267042560Y69486620D01*
X266042560Y69486620D01*
D13*
X266042560Y68686620D02*
X267042560Y68686620D01*
D12*
G04 #@! TO.C,D12*
G36*
X246992560Y69486620D02*
X247492560Y68786620D01*
X247992560Y69486620D01*
X246992560Y69486620D01*
G37*
X246992560Y69486620D02*
X247492560Y68786620D01*
X247992560Y69486620D01*
X246992560Y69486620D01*
D13*
X246992560Y68686620D02*
X247992560Y68686620D01*
D12*
G04 #@! TO.C,D11*
G36*
X227942560Y69486620D02*
X228442560Y68786620D01*
X228942560Y69486620D01*
X227942560Y69486620D01*
G37*
X227942560Y69486620D02*
X228442560Y68786620D01*
X228942560Y69486620D01*
X227942560Y69486620D01*
D13*
X227942560Y68686620D02*
X228942560Y68686620D01*
D12*
G04 #@! TO.C,D10*
G36*
X208892560Y69486620D02*
X209392560Y68786620D01*
X209892560Y69486620D01*
X208892560Y69486620D01*
G37*
X208892560Y69486620D02*
X209392560Y68786620D01*
X209892560Y69486620D01*
X208892560Y69486620D01*
D13*
X208892560Y68686620D02*
X209892560Y68686620D01*
D12*
G04 #@! TO.C,D9*
G36*
X189842560Y69486620D02*
X190342560Y68786620D01*
X190842560Y69486620D01*
X189842560Y69486620D01*
G37*
X189842560Y69486620D02*
X190342560Y68786620D01*
X190842560Y69486620D01*
X189842560Y69486620D01*
D13*
X189842560Y68686620D02*
X190842560Y68686620D01*
D12*
G04 #@! TO.C,D8*
G36*
X170792560Y69486620D02*
X171292560Y68786620D01*
X171792560Y69486620D01*
X170792560Y69486620D01*
G37*
X170792560Y69486620D02*
X171292560Y68786620D01*
X171792560Y69486620D01*
X170792560Y69486620D01*
D13*
X170792560Y68686620D02*
X171792560Y68686620D01*
D12*
G04 #@! TO.C,D7*
G36*
X151742560Y69486620D02*
X152242560Y68786620D01*
X152742560Y69486620D01*
X151742560Y69486620D01*
G37*
X151742560Y69486620D02*
X152242560Y68786620D01*
X152742560Y69486620D01*
X151742560Y69486620D01*
D13*
X151742560Y68686620D02*
X152742560Y68686620D01*
D12*
G04 #@! TO.C,D6*
G36*
X132692560Y69486620D02*
X133192560Y68786620D01*
X133692560Y69486620D01*
X132692560Y69486620D01*
G37*
X132692560Y69486620D02*
X133192560Y68786620D01*
X133692560Y69486620D01*
X132692560Y69486620D01*
D13*
X132692560Y68686620D02*
X133692560Y68686620D01*
D12*
G04 #@! TO.C,D5*
G36*
X113642560Y69486620D02*
X114142560Y68786620D01*
X114642560Y69486620D01*
X113642560Y69486620D01*
G37*
X113642560Y69486620D02*
X114142560Y68786620D01*
X114642560Y69486620D01*
X113642560Y69486620D01*
D13*
X113642560Y68686620D02*
X114642560Y68686620D01*
D12*
G04 #@! TO.C,D4*
G36*
X94592560Y69486620D02*
X95092560Y68786620D01*
X95592560Y69486620D01*
X94592560Y69486620D01*
G37*
X94592560Y69486620D02*
X95092560Y68786620D01*
X95592560Y69486620D01*
X94592560Y69486620D01*
D13*
X94592560Y68686620D02*
X95592560Y68686620D01*
D12*
G04 #@! TO.C,D3*
G36*
X75542560Y69486620D02*
X76042560Y68786620D01*
X76542560Y69486620D01*
X75542560Y69486620D01*
G37*
X75542560Y69486620D02*
X76042560Y68786620D01*
X76542560Y69486620D01*
X75542560Y69486620D01*
D13*
X75542560Y68686620D02*
X76542560Y68686620D01*
D12*
G04 #@! TO.C,D2*
G36*
X56492560Y69486620D02*
X56992560Y68786620D01*
X57492560Y69486620D01*
X56492560Y69486620D01*
G37*
X56492560Y69486620D02*
X56992560Y68786620D01*
X57492560Y69486620D01*
X56492560Y69486620D01*
D13*
X56492560Y68686620D02*
X57492560Y68686620D01*
D12*
G04 #@! TO.C,D1*
G36*
X32680060Y69486620D02*
X33180060Y68786620D01*
X33680060Y69486620D01*
X32680060Y69486620D01*
G37*
X32680060Y69486620D02*
X33180060Y68786620D01*
X33680060Y69486620D01*
X32680060Y69486620D01*
D13*
X32680060Y68686620D02*
X33680060Y68686620D01*
D10*
G04 #@! TO.C,SW1*
X29207560Y72086620D02*
X29207560Y73086620D01*
X18707560Y70186620D02*
X18707560Y70546620D01*
X18707560Y73786620D02*
X18707560Y72786620D01*
X18707560Y70186620D02*
X21987560Y70186620D01*
X24207560Y72086620D02*
X29207560Y72086620D01*
X29207560Y75686620D02*
X20807559Y75686620D01*
X21991242Y70208091D02*
G75*
G02X24207560Y72086620I2151318J-291471D01*
G01*
X18707560Y73786619D02*
G75*
G02X20807559Y75686620I2000000J-99999D01*
G01*
X29207560Y75336620D02*
X29207560Y75686620D01*
G04 #@! TO.C,SW2*
X53020060Y72086620D02*
X53020060Y73086620D01*
X42520060Y70186620D02*
X42520060Y70546620D01*
X42520060Y73786620D02*
X42520060Y72786620D01*
X42520060Y70186620D02*
X45800060Y70186620D01*
X48020060Y72086620D02*
X53020060Y72086620D01*
X53020060Y75686620D02*
X44620059Y75686620D01*
X45803742Y70208091D02*
G75*
G02X48020060Y72086620I2151318J-291471D01*
G01*
X42520060Y73786619D02*
G75*
G02X44620059Y75686620I2000000J-99999D01*
G01*
X53020060Y75336620D02*
X53020060Y75686620D01*
G04 #@! TO.C,SW3*
X72070060Y72086620D02*
X72070060Y73086620D01*
X61570060Y70186620D02*
X61570060Y70546620D01*
X61570060Y73786620D02*
X61570060Y72786620D01*
X61570060Y70186620D02*
X64850060Y70186620D01*
X67070060Y72086620D02*
X72070060Y72086620D01*
X72070060Y75686620D02*
X63670059Y75686620D01*
X64853742Y70208091D02*
G75*
G02X67070060Y72086620I2151318J-291471D01*
G01*
X61570060Y73786619D02*
G75*
G02X63670059Y75686620I2000000J-99999D01*
G01*
X72070060Y75336620D02*
X72070060Y75686620D01*
G04 #@! TO.C,SW4*
X91120060Y72086620D02*
X91120060Y73086620D01*
X80620060Y70186620D02*
X80620060Y70546620D01*
X80620060Y73786620D02*
X80620060Y72786620D01*
X80620060Y70186620D02*
X83900060Y70186620D01*
X86120060Y72086620D02*
X91120060Y72086620D01*
X91120060Y75686620D02*
X82720059Y75686620D01*
X83903742Y70208091D02*
G75*
G02X86120060Y72086620I2151318J-291471D01*
G01*
X80620060Y73786619D02*
G75*
G02X82720059Y75686620I2000000J-99999D01*
G01*
X91120060Y75336620D02*
X91120060Y75686620D01*
G04 #@! TO.C,SW5*
X110170060Y72086620D02*
X110170060Y73086620D01*
X99670060Y70186620D02*
X99670060Y70546620D01*
X99670060Y73786620D02*
X99670060Y72786620D01*
X99670060Y70186620D02*
X102950060Y70186620D01*
X105170060Y72086620D02*
X110170060Y72086620D01*
X110170060Y75686620D02*
X101770059Y75686620D01*
X102953742Y70208091D02*
G75*
G02X105170060Y72086620I2151318J-291471D01*
G01*
X99670060Y73786619D02*
G75*
G02X101770059Y75686620I2000000J-99999D01*
G01*
X110170060Y75336620D02*
X110170060Y75686620D01*
G04 #@! TO.C,SW6*
X129220060Y72086620D02*
X129220060Y73086620D01*
X118720060Y70186620D02*
X118720060Y70546620D01*
X118720060Y73786620D02*
X118720060Y72786620D01*
X118720060Y70186620D02*
X122000060Y70186620D01*
X124220060Y72086620D02*
X129220060Y72086620D01*
X129220060Y75686620D02*
X120820059Y75686620D01*
X122003742Y70208091D02*
G75*
G02X124220060Y72086620I2151318J-291471D01*
G01*
X118720060Y73786619D02*
G75*
G02X120820059Y75686620I2000000J-99999D01*
G01*
X129220060Y75336620D02*
X129220060Y75686620D01*
G04 #@! TO.C,SW7*
X148270060Y72086620D02*
X148270060Y73086620D01*
X137770060Y70186620D02*
X137770060Y70546620D01*
X137770060Y73786620D02*
X137770060Y72786620D01*
X137770060Y70186620D02*
X141050060Y70186620D01*
X143270060Y72086620D02*
X148270060Y72086620D01*
X148270060Y75686620D02*
X139870059Y75686620D01*
X141053742Y70208091D02*
G75*
G02X143270060Y72086620I2151318J-291471D01*
G01*
X137770060Y73786619D02*
G75*
G02X139870059Y75686620I2000000J-99999D01*
G01*
X148270060Y75336620D02*
X148270060Y75686620D01*
G04 #@! TO.C,SW8*
X167320060Y72086620D02*
X167320060Y73086620D01*
X156820060Y70186620D02*
X156820060Y70546620D01*
X156820060Y73786620D02*
X156820060Y72786620D01*
X156820060Y70186620D02*
X160100060Y70186620D01*
X162320060Y72086620D02*
X167320060Y72086620D01*
X167320060Y75686620D02*
X158920059Y75686620D01*
X160103742Y70208091D02*
G75*
G02X162320060Y72086620I2151318J-291471D01*
G01*
X156820060Y73786619D02*
G75*
G02X158920059Y75686620I2000000J-99999D01*
G01*
X167320060Y75336620D02*
X167320060Y75686620D01*
G04 #@! TO.C,SW9*
X186370060Y72086620D02*
X186370060Y73086620D01*
X175870060Y70186620D02*
X175870060Y70546620D01*
X175870060Y73786620D02*
X175870060Y72786620D01*
X175870060Y70186620D02*
X179150060Y70186620D01*
X181370060Y72086620D02*
X186370060Y72086620D01*
X186370060Y75686620D02*
X177970059Y75686620D01*
X179153742Y70208091D02*
G75*
G02X181370060Y72086620I2151318J-291471D01*
G01*
X175870060Y73786619D02*
G75*
G02X177970059Y75686620I2000000J-99999D01*
G01*
X186370060Y75336620D02*
X186370060Y75686620D01*
G04 #@! TO.C,SW10*
X205420060Y72086620D02*
X205420060Y73086620D01*
X194920060Y70186620D02*
X194920060Y70546620D01*
X194920060Y73786620D02*
X194920060Y72786620D01*
X194920060Y70186620D02*
X198200060Y70186620D01*
X200420060Y72086620D02*
X205420060Y72086620D01*
X205420060Y75686620D02*
X197020059Y75686620D01*
X198203742Y70208091D02*
G75*
G02X200420060Y72086620I2151318J-291471D01*
G01*
X194920060Y73786619D02*
G75*
G02X197020059Y75686620I2000000J-99999D01*
G01*
X205420060Y75336620D02*
X205420060Y75686620D01*
G04 #@! TO.C,SW11*
X224470060Y72086620D02*
X224470060Y73086620D01*
X213970060Y70186620D02*
X213970060Y70546620D01*
X213970060Y73786620D02*
X213970060Y72786620D01*
X213970060Y70186620D02*
X217250060Y70186620D01*
X219470060Y72086620D02*
X224470060Y72086620D01*
X224470060Y75686620D02*
X216070059Y75686620D01*
X217253742Y70208091D02*
G75*
G02X219470060Y72086620I2151318J-291471D01*
G01*
X213970060Y73786619D02*
G75*
G02X216070059Y75686620I2000000J-99999D01*
G01*
X224470060Y75336620D02*
X224470060Y75686620D01*
G04 #@! TO.C,SW12*
X243520060Y72086620D02*
X243520060Y73086620D01*
X233020060Y70186620D02*
X233020060Y70546620D01*
X233020060Y73786620D02*
X233020060Y72786620D01*
X233020060Y70186620D02*
X236300060Y70186620D01*
X238520060Y72086620D02*
X243520060Y72086620D01*
X243520060Y75686620D02*
X235120059Y75686620D01*
X236303742Y70208091D02*
G75*
G02X238520060Y72086620I2151318J-291471D01*
G01*
X233020060Y73786619D02*
G75*
G02X235120059Y75686620I2000000J-99999D01*
G01*
X243520060Y75336620D02*
X243520060Y75686620D01*
G04 #@! TO.C,SW13*
X262570060Y72086620D02*
X262570060Y73086620D01*
X252070060Y70186620D02*
X252070060Y70546620D01*
X252070060Y73786620D02*
X252070060Y72786620D01*
X252070060Y70186620D02*
X255350060Y70186620D01*
X257570060Y72086620D02*
X262570060Y72086620D01*
X262570060Y75686620D02*
X254170059Y75686620D01*
X255353742Y70208091D02*
G75*
G02X257570060Y72086620I2151318J-291471D01*
G01*
X252070060Y73786619D02*
G75*
G02X254170059Y75686620I2000000J-99999D01*
G01*
X262570060Y75336620D02*
X262570060Y75686620D01*
G04 #@! TO.C,SW15*
X26826310Y53036620D02*
X26826310Y54036620D01*
X16326310Y51136620D02*
X16326310Y51496620D01*
X16326310Y54736620D02*
X16326310Y53736620D01*
X16326310Y51136620D02*
X19606310Y51136620D01*
X21826310Y53036620D02*
X26826310Y53036620D01*
X26826310Y56636620D02*
X18426309Y56636620D01*
X19609992Y51158091D02*
G75*
G02X21826310Y53036620I2151318J-291471D01*
G01*
X16326310Y54736619D02*
G75*
G02X18426309Y56636620I2000000J-99999D01*
G01*
X26826310Y56286620D02*
X26826310Y56636620D01*
G04 #@! TO.C,SW16*
X48257560Y53036620D02*
X48257560Y54036620D01*
X37757560Y51136620D02*
X37757560Y51496620D01*
X37757560Y54736620D02*
X37757560Y53736620D01*
X37757560Y51136620D02*
X41037560Y51136620D01*
X43257560Y53036620D02*
X48257560Y53036620D01*
X48257560Y56636620D02*
X39857559Y56636620D01*
X41041242Y51158091D02*
G75*
G02X43257560Y53036620I2151318J-291471D01*
G01*
X37757560Y54736619D02*
G75*
G02X39857559Y56636620I2000000J-99999D01*
G01*
X48257560Y56286620D02*
X48257560Y56636620D01*
G04 #@! TO.C,SW17*
X67307560Y53036620D02*
X67307560Y54036620D01*
X56807560Y51136620D02*
X56807560Y51496620D01*
X56807560Y54736620D02*
X56807560Y53736620D01*
X56807560Y51136620D02*
X60087560Y51136620D01*
X62307560Y53036620D02*
X67307560Y53036620D01*
X67307560Y56636620D02*
X58907559Y56636620D01*
X60091242Y51158091D02*
G75*
G02X62307560Y53036620I2151318J-291471D01*
G01*
X56807560Y54736619D02*
G75*
G02X58907559Y56636620I2000000J-99999D01*
G01*
X67307560Y56286620D02*
X67307560Y56636620D01*
G04 #@! TO.C,SW18*
X86357560Y53036620D02*
X86357560Y54036620D01*
X75857560Y51136620D02*
X75857560Y51496620D01*
X75857560Y54736620D02*
X75857560Y53736620D01*
X75857560Y51136620D02*
X79137560Y51136620D01*
X81357560Y53036620D02*
X86357560Y53036620D01*
X86357560Y56636620D02*
X77957559Y56636620D01*
X79141242Y51158091D02*
G75*
G02X81357560Y53036620I2151318J-291471D01*
G01*
X75857560Y54736619D02*
G75*
G02X77957559Y56636620I2000000J-99999D01*
G01*
X86357560Y56286620D02*
X86357560Y56636620D01*
G04 #@! TO.C,SW19*
X105407560Y53036620D02*
X105407560Y54036620D01*
X94907560Y51136620D02*
X94907560Y51496620D01*
X94907560Y54736620D02*
X94907560Y53736620D01*
X94907560Y51136620D02*
X98187560Y51136620D01*
X100407560Y53036620D02*
X105407560Y53036620D01*
X105407560Y56636620D02*
X97007559Y56636620D01*
X98191242Y51158091D02*
G75*
G02X100407560Y53036620I2151318J-291471D01*
G01*
X94907560Y54736619D02*
G75*
G02X97007559Y56636620I2000000J-99999D01*
G01*
X105407560Y56286620D02*
X105407560Y56636620D01*
G04 #@! TO.C,SW20*
X124457560Y53036620D02*
X124457560Y54036620D01*
X113957560Y51136620D02*
X113957560Y51496620D01*
X113957560Y54736620D02*
X113957560Y53736620D01*
X113957560Y51136620D02*
X117237560Y51136620D01*
X119457560Y53036620D02*
X124457560Y53036620D01*
X124457560Y56636620D02*
X116057559Y56636620D01*
X117241242Y51158091D02*
G75*
G02X119457560Y53036620I2151318J-291471D01*
G01*
X113957560Y54736619D02*
G75*
G02X116057559Y56636620I2000000J-99999D01*
G01*
X124457560Y56286620D02*
X124457560Y56636620D01*
G04 #@! TO.C,SW21*
X143507560Y53036620D02*
X143507560Y54036620D01*
X133007560Y51136620D02*
X133007560Y51496620D01*
X133007560Y54736620D02*
X133007560Y53736620D01*
X133007560Y51136620D02*
X136287560Y51136620D01*
X138507560Y53036620D02*
X143507560Y53036620D01*
X143507560Y56636620D02*
X135107559Y56636620D01*
X136291242Y51158091D02*
G75*
G02X138507560Y53036620I2151318J-291471D01*
G01*
X133007560Y54736619D02*
G75*
G02X135107559Y56636620I2000000J-99999D01*
G01*
X143507560Y56286620D02*
X143507560Y56636620D01*
G04 #@! TO.C,SW22*
X172082560Y53036620D02*
X172082560Y54036620D01*
X161582560Y51136620D02*
X161582560Y51496620D01*
X161582560Y54736620D02*
X161582560Y53736620D01*
X161582560Y51136620D02*
X164862560Y51136620D01*
X167082560Y53036620D02*
X172082560Y53036620D01*
X172082560Y56636620D02*
X163682559Y56636620D01*
X164866242Y51158091D02*
G75*
G02X167082560Y53036620I2151318J-291471D01*
G01*
X161582560Y54736619D02*
G75*
G02X163682559Y56636620I2000000J-99999D01*
G01*
X172082560Y56286620D02*
X172082560Y56636620D01*
G04 #@! TO.C,SW23*
X191132560Y53036620D02*
X191132560Y54036620D01*
X180632560Y51136620D02*
X180632560Y51496620D01*
X180632560Y54736620D02*
X180632560Y53736620D01*
X180632560Y51136620D02*
X183912560Y51136620D01*
X186132560Y53036620D02*
X191132560Y53036620D01*
X191132560Y56636620D02*
X182732559Y56636620D01*
X183916242Y51158091D02*
G75*
G02X186132560Y53036620I2151318J-291471D01*
G01*
X180632560Y54736619D02*
G75*
G02X182732559Y56636620I2000000J-99999D01*
G01*
X191132560Y56286620D02*
X191132560Y56636620D01*
G04 #@! TO.C,SW24*
X210182560Y53036620D02*
X210182560Y54036620D01*
X199682560Y51136620D02*
X199682560Y51496620D01*
X199682560Y54736620D02*
X199682560Y53736620D01*
X199682560Y51136620D02*
X202962560Y51136620D01*
X205182560Y53036620D02*
X210182560Y53036620D01*
X210182560Y56636620D02*
X201782559Y56636620D01*
X202966242Y51158091D02*
G75*
G02X205182560Y53036620I2151318J-291471D01*
G01*
X199682560Y54736619D02*
G75*
G02X201782559Y56636620I2000000J-99999D01*
G01*
X210182560Y56286620D02*
X210182560Y56636620D01*
G04 #@! TO.C,SW25*
X229232560Y53036620D02*
X229232560Y54036620D01*
X218732560Y51136620D02*
X218732560Y51496620D01*
X218732560Y54736620D02*
X218732560Y53736620D01*
X218732560Y51136620D02*
X222012560Y51136620D01*
X224232560Y53036620D02*
X229232560Y53036620D01*
X229232560Y56636620D02*
X220832559Y56636620D01*
X222016242Y51158091D02*
G75*
G02X224232560Y53036620I2151318J-291471D01*
G01*
X218732560Y54736619D02*
G75*
G02X220832559Y56636620I2000000J-99999D01*
G01*
X229232560Y56286620D02*
X229232560Y56636620D01*
G04 #@! TO.C,SW26*
X248282560Y53036620D02*
X248282560Y54036620D01*
X237782560Y51136620D02*
X237782560Y51496620D01*
X237782560Y54736620D02*
X237782560Y53736620D01*
X237782560Y51136620D02*
X241062560Y51136620D01*
X243282560Y53036620D02*
X248282560Y53036620D01*
X248282560Y56636620D02*
X239882559Y56636620D01*
X241066242Y51158091D02*
G75*
G02X243282560Y53036620I2151318J-291471D01*
G01*
X237782560Y54736619D02*
G75*
G02X239882559Y56636620I2000000J-99999D01*
G01*
X248282560Y56286620D02*
X248282560Y56636620D01*
G04 #@! TO.C,SW27*
X267332560Y53036620D02*
X267332560Y54036620D01*
X256832560Y51136620D02*
X256832560Y51496620D01*
X256832560Y54736620D02*
X256832560Y53736620D01*
X256832560Y51136620D02*
X260112560Y51136620D01*
X262332560Y53036620D02*
X267332560Y53036620D01*
X267332560Y56636620D02*
X258932559Y56636620D01*
X260116242Y51158091D02*
G75*
G02X262332560Y53036620I2151318J-291471D01*
G01*
X256832560Y54736619D02*
G75*
G02X258932559Y56636620I2000000J-99999D01*
G01*
X267332560Y56286620D02*
X267332560Y56636620D01*
G04 #@! TO.C,SW29*
X24445060Y33986620D02*
X24445060Y34986620D01*
X13945060Y32086620D02*
X13945060Y32446620D01*
X13945060Y35686620D02*
X13945060Y34686620D01*
X13945060Y32086620D02*
X17225060Y32086620D01*
X19445060Y33986620D02*
X24445060Y33986620D01*
X24445060Y37586620D02*
X16045059Y37586620D01*
X17228742Y32108091D02*
G75*
G02X19445060Y33986620I2151318J-291471D01*
G01*
X13945060Y35686619D02*
G75*
G02X16045059Y37586620I2000000J-99999D01*
G01*
X24445060Y37236620D02*
X24445060Y37586620D01*
G04 #@! TO.C,SW30*
X43495060Y33986620D02*
X43495060Y34986620D01*
X32995060Y32086620D02*
X32995060Y32446620D01*
X32995060Y35686620D02*
X32995060Y34686620D01*
X32995060Y32086620D02*
X36275060Y32086620D01*
X38495060Y33986620D02*
X43495060Y33986620D01*
X43495060Y37586620D02*
X35095059Y37586620D01*
X36278742Y32108091D02*
G75*
G02X38495060Y33986620I2151318J-291471D01*
G01*
X32995060Y35686619D02*
G75*
G02X35095059Y37586620I2000000J-99999D01*
G01*
X43495060Y37236620D02*
X43495060Y37586620D01*
G04 #@! TO.C,SW31*
X62545060Y33986620D02*
X62545060Y34986620D01*
X52045060Y32086620D02*
X52045060Y32446620D01*
X52045060Y35686620D02*
X52045060Y34686620D01*
X52045060Y32086620D02*
X55325060Y32086620D01*
X57545060Y33986620D02*
X62545060Y33986620D01*
X62545060Y37586620D02*
X54145059Y37586620D01*
X55328742Y32108091D02*
G75*
G02X57545060Y33986620I2151318J-291471D01*
G01*
X52045060Y35686619D02*
G75*
G02X54145059Y37586620I2000000J-99999D01*
G01*
X62545060Y37236620D02*
X62545060Y37586620D01*
G04 #@! TO.C,SW32*
X81595060Y33986620D02*
X81595060Y34986620D01*
X71095060Y32086620D02*
X71095060Y32446620D01*
X71095060Y35686620D02*
X71095060Y34686620D01*
X71095060Y32086620D02*
X74375060Y32086620D01*
X76595060Y33986620D02*
X81595060Y33986620D01*
X81595060Y37586620D02*
X73195059Y37586620D01*
X74378742Y32108091D02*
G75*
G02X76595060Y33986620I2151318J-291471D01*
G01*
X71095060Y35686619D02*
G75*
G02X73195059Y37586620I2000000J-99999D01*
G01*
X81595060Y37236620D02*
X81595060Y37586620D01*
G04 #@! TO.C,SW33*
X100645060Y33986620D02*
X100645060Y34986620D01*
X90145060Y32086620D02*
X90145060Y32446620D01*
X90145060Y35686620D02*
X90145060Y34686620D01*
X90145060Y32086620D02*
X93425060Y32086620D01*
X95645060Y33986620D02*
X100645060Y33986620D01*
X100645060Y37586620D02*
X92245059Y37586620D01*
X93428742Y32108091D02*
G75*
G02X95645060Y33986620I2151318J-291471D01*
G01*
X90145060Y35686619D02*
G75*
G02X92245059Y37586620I2000000J-99999D01*
G01*
X100645060Y37236620D02*
X100645060Y37586620D01*
G04 #@! TO.C,SW34*
X119695060Y33986620D02*
X119695060Y34986620D01*
X109195060Y32086620D02*
X109195060Y32446620D01*
X109195060Y35686620D02*
X109195060Y34686620D01*
X109195060Y32086620D02*
X112475060Y32086620D01*
X114695060Y33986620D02*
X119695060Y33986620D01*
X119695060Y37586620D02*
X111295059Y37586620D01*
X112478742Y32108091D02*
G75*
G02X114695060Y33986620I2151318J-291471D01*
G01*
X109195060Y35686619D02*
G75*
G02X111295059Y37586620I2000000J-99999D01*
G01*
X119695060Y37236620D02*
X119695060Y37586620D01*
G04 #@! TO.C,SW35*
X138745060Y33986620D02*
X138745060Y34986620D01*
X128245060Y32086620D02*
X128245060Y32446620D01*
X128245060Y35686620D02*
X128245060Y34686620D01*
X128245060Y32086620D02*
X131525060Y32086620D01*
X133745060Y33986620D02*
X138745060Y33986620D01*
X138745060Y37586620D02*
X130345059Y37586620D01*
X131528742Y32108091D02*
G75*
G02X133745060Y33986620I2151318J-291471D01*
G01*
X128245060Y35686619D02*
G75*
G02X130345059Y37586620I2000000J-99999D01*
G01*
X138745060Y37236620D02*
X138745060Y37586620D01*
G04 #@! TO.C,SW36*
X176845060Y33986620D02*
X176845060Y34986620D01*
X166345060Y32086620D02*
X166345060Y32446620D01*
X166345060Y35686620D02*
X166345060Y34686620D01*
X166345060Y32086620D02*
X169625060Y32086620D01*
X171845060Y33986620D02*
X176845060Y33986620D01*
X176845060Y37586620D02*
X168445059Y37586620D01*
X169628742Y32108091D02*
G75*
G02X171845060Y33986620I2151318J-291471D01*
G01*
X166345060Y35686619D02*
G75*
G02X168445059Y37586620I2000000J-99999D01*
G01*
X176845060Y37236620D02*
X176845060Y37586620D01*
G04 #@! TO.C,SW37*
X195895060Y33986620D02*
X195895060Y34986620D01*
X185395060Y32086620D02*
X185395060Y32446620D01*
X185395060Y35686620D02*
X185395060Y34686620D01*
X185395060Y32086620D02*
X188675060Y32086620D01*
X190895060Y33986620D02*
X195895060Y33986620D01*
X195895060Y37586620D02*
X187495059Y37586620D01*
X188678742Y32108091D02*
G75*
G02X190895060Y33986620I2151318J-291471D01*
G01*
X185395060Y35686619D02*
G75*
G02X187495059Y37586620I2000000J-99999D01*
G01*
X195895060Y37236620D02*
X195895060Y37586620D01*
G04 #@! TO.C,SW38*
X214945060Y33986620D02*
X214945060Y34986620D01*
X204445060Y32086620D02*
X204445060Y32446620D01*
X204445060Y35686620D02*
X204445060Y34686620D01*
X204445060Y32086620D02*
X207725060Y32086620D01*
X209945060Y33986620D02*
X214945060Y33986620D01*
X214945060Y37586620D02*
X206545059Y37586620D01*
X207728742Y32108091D02*
G75*
G02X209945060Y33986620I2151318J-291471D01*
G01*
X204445060Y35686619D02*
G75*
G02X206545059Y37586620I2000000J-99999D01*
G01*
X214945060Y37236620D02*
X214945060Y37586620D01*
G04 #@! TO.C,SW39*
X233995060Y33986620D02*
X233995060Y34986620D01*
X223495060Y32086620D02*
X223495060Y32446620D01*
X223495060Y35686620D02*
X223495060Y34686620D01*
X223495060Y32086620D02*
X226775060Y32086620D01*
X228995060Y33986620D02*
X233995060Y33986620D01*
X233995060Y37586620D02*
X225595059Y37586620D01*
X226778742Y32108091D02*
G75*
G02X228995060Y33986620I2151318J-291471D01*
G01*
X223495060Y35686619D02*
G75*
G02X225595059Y37586620I2000000J-99999D01*
G01*
X233995060Y37236620D02*
X233995060Y37586620D01*
G04 #@! TO.C,SW40*
X253045060Y33986620D02*
X253045060Y34986620D01*
X242545060Y32086620D02*
X242545060Y32446620D01*
X242545060Y35686620D02*
X242545060Y34686620D01*
X242545060Y32086620D02*
X245825060Y32086620D01*
X248045060Y33986620D02*
X253045060Y33986620D01*
X253045060Y37586620D02*
X244645059Y37586620D01*
X245828742Y32108091D02*
G75*
G02X248045060Y33986620I2151318J-291471D01*
G01*
X242545060Y35686619D02*
G75*
G02X244645059Y37586620I2000000J-99999D01*
G01*
X253045060Y37236620D02*
X253045060Y37586620D01*
G04 #@! TO.C,SW41*
X272095060Y33986620D02*
X272095060Y34986620D01*
X261595060Y32086620D02*
X261595060Y32446620D01*
X261595060Y35686620D02*
X261595060Y34686620D01*
X261595060Y32086620D02*
X264875060Y32086620D01*
X267095060Y33986620D02*
X272095060Y33986620D01*
X272095060Y37586620D02*
X263695059Y37586620D01*
X264878742Y32108091D02*
G75*
G02X267095060Y33986620I2151318J-291471D01*
G01*
X261595060Y35686619D02*
G75*
G02X263695059Y37586620I2000000J-99999D01*
G01*
X272095060Y37236620D02*
X272095060Y37586620D01*
G04 #@! TO.C,SW42*
X291145060Y33986620D02*
X291145060Y34986620D01*
X280645060Y32086620D02*
X280645060Y32446620D01*
X280645060Y35686620D02*
X280645060Y34686620D01*
X280645060Y32086620D02*
X283925060Y32086620D01*
X286145060Y33986620D02*
X291145060Y33986620D01*
X291145060Y37586620D02*
X282745059Y37586620D01*
X283928742Y32108091D02*
G75*
G02X286145060Y33986620I2151318J-291471D01*
G01*
X280645060Y35686619D02*
G75*
G02X282745059Y37586620I2000000J-99999D01*
G01*
X291145060Y37236620D02*
X291145060Y37586620D01*
G04 #@! TO.C,SW43*
X64926310Y10174120D02*
X64926310Y11174120D01*
X54426310Y8274120D02*
X54426310Y8634120D01*
X54426310Y11874120D02*
X54426310Y10874120D01*
X54426310Y8274120D02*
X57706310Y8274120D01*
X59926310Y10174120D02*
X64926310Y10174120D01*
X64926310Y13774120D02*
X56526309Y13774120D01*
X57709992Y8295591D02*
G75*
G02X59926310Y10174120I2151318J-291471D01*
G01*
X54426310Y11874119D02*
G75*
G02X56526309Y13774120I2000000J-99999D01*
G01*
X64926310Y13424120D02*
X64926310Y13774120D01*
G04 #@! TO.C,SW44*
X86357560Y10174120D02*
X86357560Y11174120D01*
X75857560Y8274120D02*
X75857560Y8634120D01*
X75857560Y11874120D02*
X75857560Y10874120D01*
X75857560Y8274120D02*
X79137560Y8274120D01*
X81357560Y10174120D02*
X86357560Y10174120D01*
X86357560Y13774120D02*
X77957559Y13774120D01*
X79141242Y8295591D02*
G75*
G02X81357560Y10174120I2151318J-291471D01*
G01*
X75857560Y11874119D02*
G75*
G02X77957559Y13774120I2000000J-99999D01*
G01*
X86357560Y13424120D02*
X86357560Y13774120D01*
G04 #@! TO.C,SW45*
X105407560Y10174120D02*
X105407560Y11174120D01*
X94907560Y8274120D02*
X94907560Y8634120D01*
X94907560Y11874120D02*
X94907560Y10874120D01*
X94907560Y8274120D02*
X98187560Y8274120D01*
X100407560Y10174120D02*
X105407560Y10174120D01*
X105407560Y13774120D02*
X97007559Y13774120D01*
X98191242Y8295591D02*
G75*
G02X100407560Y10174120I2151318J-291471D01*
G01*
X94907560Y11874119D02*
G75*
G02X97007559Y13774120I2000000J-99999D01*
G01*
X105407560Y13424120D02*
X105407560Y13774120D01*
G04 #@! TO.C,SW46*
X126838810Y10174120D02*
X126838810Y11174120D01*
X116338810Y8274120D02*
X116338810Y8634120D01*
X116338810Y11874120D02*
X116338810Y10874120D01*
X116338810Y8274120D02*
X119618810Y8274120D01*
X121838810Y10174120D02*
X126838810Y10174120D01*
X126838810Y13774120D02*
X118438809Y13774120D01*
X119622492Y8295591D02*
G75*
G02X121838810Y10174120I2151318J-291471D01*
G01*
X116338810Y11874119D02*
G75*
G02X118438809Y13774120I2000000J-99999D01*
G01*
X126838810Y13424120D02*
X126838810Y13774120D01*
G04 #@! TO.C,SW49*
X188751310Y10174120D02*
X188751310Y11174120D01*
X178251310Y8274120D02*
X178251310Y8634120D01*
X178251310Y11874120D02*
X178251310Y10874120D01*
X178251310Y8274120D02*
X181531310Y8274120D01*
X183751310Y10174120D02*
X188751310Y10174120D01*
X188751310Y13774120D02*
X180351309Y13774120D01*
X181534992Y8295591D02*
G75*
G02X183751310Y10174120I2151318J-291471D01*
G01*
X178251310Y11874119D02*
G75*
G02X180351309Y13774120I2000000J-99999D01*
G01*
X188751310Y13424120D02*
X188751310Y13774120D01*
G04 #@! TO.C,SW50*
X210182560Y10174120D02*
X210182560Y11174120D01*
X199682560Y8274120D02*
X199682560Y8634120D01*
X199682560Y11874120D02*
X199682560Y10874120D01*
X199682560Y8274120D02*
X202962560Y8274120D01*
X205182560Y10174120D02*
X210182560Y10174120D01*
X210182560Y13774120D02*
X201782559Y13774120D01*
X202966242Y8295591D02*
G75*
G02X205182560Y10174120I2151318J-291471D01*
G01*
X199682560Y11874119D02*
G75*
G02X201782559Y13774120I2000000J-99999D01*
G01*
X210182560Y13424120D02*
X210182560Y13774120D01*
G04 #@! TO.C,SW51*
X229232560Y10174120D02*
X229232560Y11174120D01*
X218732560Y8274120D02*
X218732560Y8634120D01*
X218732560Y11874120D02*
X218732560Y10874120D01*
X218732560Y8274120D02*
X222012560Y8274120D01*
X224232560Y10174120D02*
X229232560Y10174120D01*
X229232560Y13774120D02*
X220832559Y13774120D01*
X222016242Y8295591D02*
G75*
G02X224232560Y10174120I2151318J-291471D01*
G01*
X218732560Y11874119D02*
G75*
G02X220832559Y13774120I2000000J-99999D01*
G01*
X229232560Y13424120D02*
X229232560Y13774120D01*
D11*
G04 #@! TO.C,U1*
X-2221190Y76230370D02*
X-4761190Y76230370D01*
X13018810Y78770370D02*
X-4761190Y78770370D01*
X-4761190Y78770370D02*
X-4761190Y45750370D01*
X-4761190Y45750370D02*
X13018810Y45750370D01*
X13018810Y45750370D02*
X13018810Y78770370D01*
D10*
G36*
X9473445Y70341340D02*
X9473445Y70241340D01*
X9973445Y70241340D01*
X9973445Y70341340D01*
X9473445Y70341340D01*
G37*
X9473445Y70341340D02*
X9473445Y70241340D01*
X9973445Y70241340D01*
X9973445Y70341340D01*
X9473445Y70341340D01*
G36*
X9473445Y70341340D02*
X9473445Y70041340D01*
X9573445Y70041340D01*
X9573445Y70341340D01*
X9473445Y70341340D01*
G37*
X9473445Y70341340D02*
X9473445Y70041340D01*
X9573445Y70041340D01*
X9573445Y70341340D01*
X9473445Y70341340D01*
G36*
X9473445Y69741340D02*
X9473445Y69541340D01*
X9573445Y69541340D01*
X9573445Y69741340D01*
X9473445Y69741340D01*
G37*
X9473445Y69741340D02*
X9473445Y69541340D01*
X9573445Y69541340D01*
X9573445Y69741340D01*
X9473445Y69741340D01*
G36*
X9873445Y70341340D02*
X9873445Y69541340D01*
X9973445Y69541340D01*
X9973445Y70341340D01*
X9873445Y70341340D01*
G37*
X9873445Y70341340D02*
X9873445Y69541340D01*
X9973445Y69541340D01*
X9973445Y70341340D01*
X9873445Y70341340D01*
G36*
X9673445Y69941340D02*
X9673445Y69841340D01*
X9773445Y69841340D01*
X9773445Y69941340D01*
X9673445Y69941340D01*
G37*
X9673445Y69941340D02*
X9673445Y69841340D01*
X9773445Y69841340D01*
X9773445Y69941340D01*
X9673445Y69941340D01*
D11*
X-2221190Y76230370D02*
X-2221190Y73690370D01*
X-2221190Y73690370D02*
X-4761190Y73690370D01*
G04 #@! TO.C,SW53*
D10*
X5533690Y67554500D02*
X5057500Y67887834D01*
X5533690Y68125929D02*
X4533690Y68125929D01*
X4533690Y67744977D01*
X4581310Y67649739D01*
X4628929Y67602120D01*
X4724167Y67554500D01*
X4867024Y67554500D01*
X4962262Y67602120D01*
X5009881Y67649739D01*
X5057500Y67744977D01*
X5057500Y68125929D01*
X5009881Y67125929D02*
X5009881Y66792596D01*
X5533690Y66649739D02*
X5533690Y67125929D01*
X4533690Y67125929D01*
X4533690Y66649739D01*
X5486071Y66268786D02*
X5533690Y66125929D01*
X5533690Y65887834D01*
X5486071Y65792596D01*
X5438452Y65744977D01*
X5343214Y65697358D01*
X5247976Y65697358D01*
X5152738Y65744977D01*
X5105119Y65792596D01*
X5057500Y65887834D01*
X5009881Y66078310D01*
X4962262Y66173548D01*
X4914643Y66221167D01*
X4819405Y66268786D01*
X4724167Y66268786D01*
X4628929Y66221167D01*
X4581310Y66173548D01*
X4533690Y66078310D01*
X4533690Y65840215D01*
X4581310Y65697358D01*
X5009881Y65268786D02*
X5009881Y64935453D01*
X5533690Y64792596D02*
X5533690Y65268786D01*
X4533690Y65268786D01*
X4533690Y64792596D01*
X4533690Y64506881D02*
X4533690Y63935453D01*
X5533690Y64221167D02*
X4533690Y64221167D01*
G04 #@! TO.C,U1*
X9202143Y69576560D02*
X9087857Y69538465D01*
X8897381Y69538465D01*
X8821190Y69576560D01*
X8783095Y69614655D01*
X8745000Y69690846D01*
X8745000Y69767036D01*
X8783095Y69843227D01*
X8821190Y69881322D01*
X8897381Y69919417D01*
X9049762Y69957512D01*
X9125952Y69995608D01*
X9164048Y70033703D01*
X9202143Y70109893D01*
X9202143Y70186084D01*
X9164048Y70262274D01*
X9125952Y70300370D01*
X9049762Y70338465D01*
X8859286Y70338465D01*
X8745000Y70300370D01*
X8516429Y70338465D02*
X8059286Y70338465D01*
X8287857Y69538465D02*
X8287857Y70338465D01*
X2947414Y75398465D02*
X2490271Y75398465D01*
X2718842Y74598465D02*
X2718842Y75398465D01*
X2299795Y75398465D02*
X1766461Y74598465D01*
X1766461Y75398465D02*
X2299795Y74598465D01*
X1309318Y75398465D02*
X1233128Y75398465D01*
X1156937Y75360370D01*
X1118842Y75322274D01*
X1080747Y75246084D01*
X1042652Y75093703D01*
X1042652Y74903227D01*
X1080747Y74750846D01*
X1118842Y74674655D01*
X1156937Y74636560D01*
X1233128Y74598465D01*
X1309318Y74598465D01*
X1385509Y74636560D01*
X1423604Y74674655D01*
X1461699Y74750846D01*
X1499795Y74903227D01*
X1499795Y75093703D01*
X1461699Y75246084D01*
X1423604Y75322274D01*
X1385509Y75360370D01*
X1309318Y75398465D01*
X128366Y75436560D02*
X814080Y74407989D01*
X-138300Y74598465D02*
X-138300Y75398465D01*
X-328776Y75398465D01*
X-443062Y75360370D01*
X-519252Y75284179D01*
X-557347Y75207989D01*
X-595442Y75055608D01*
X-595442Y74941322D01*
X-557347Y74788941D01*
X-519252Y74712750D01*
X-443062Y74636560D01*
X-328776Y74598465D01*
X-138300Y74598465D01*
X-862109Y75398465D02*
X-1357347Y75398465D01*
X-1090681Y75093703D01*
X-1204966Y75093703D01*
X-1281157Y75055608D01*
X-1319252Y75017512D01*
X-1357347Y74941322D01*
X-1357347Y74750846D01*
X-1319252Y74674655D01*
X-1281157Y74636560D01*
X-1204966Y74598465D01*
X-976395Y74598465D01*
X-900204Y74636560D01*
X-862109Y74674655D01*
X9913619Y49617512D02*
X9799333Y49579417D01*
X9761238Y49541322D01*
X9723143Y49465131D01*
X9723143Y49350846D01*
X9761238Y49274655D01*
X9799333Y49236560D01*
X9875524Y49198465D01*
X10180286Y49198465D01*
X10180286Y49998465D01*
X9913619Y49998465D01*
X9837429Y49960370D01*
X9799333Y49922274D01*
X9761238Y49846084D01*
X9761238Y49769893D01*
X9799333Y49693703D01*
X9837429Y49655608D01*
X9913619Y49617512D01*
X10180286Y49617512D01*
X9418381Y49922274D02*
X9380286Y49960370D01*
X9304095Y49998465D01*
X9113619Y49998465D01*
X9037429Y49960370D01*
X8999333Y49922274D01*
X8961238Y49846084D01*
X8961238Y49769893D01*
X8999333Y49655608D01*
X9456476Y49198465D01*
X8961238Y49198465D01*
X9856476Y57237512D02*
X10123143Y57237512D01*
X10123143Y56818465D02*
X10123143Y57618465D01*
X9742190Y57618465D01*
X9513619Y57618465D02*
X8980286Y57618465D01*
X9323143Y56818465D01*
X9856476Y59777512D02*
X10123143Y59777512D01*
X10123143Y59358465D02*
X10123143Y60158465D01*
X9742190Y60158465D01*
X9094571Y60158465D02*
X9246952Y60158465D01*
X9323143Y60120370D01*
X9361238Y60082274D01*
X9437429Y59967989D01*
X9475524Y59815608D01*
X9475524Y59510846D01*
X9437429Y59434655D01*
X9399333Y59396560D01*
X9323143Y59358465D01*
X9170762Y59358465D01*
X9094571Y59396560D01*
X9056476Y59434655D01*
X9018381Y59510846D01*
X9018381Y59701322D01*
X9056476Y59777512D01*
X9094571Y59815608D01*
X9170762Y59853703D01*
X9323143Y59853703D01*
X9399333Y59815608D01*
X9437429Y59777512D01*
X9475524Y59701322D01*
X9856476Y62317512D02*
X10123143Y62317512D01*
X10123143Y61898465D02*
X10123143Y62698465D01*
X9742190Y62698465D01*
X9056476Y62698465D02*
X9437429Y62698465D01*
X9475524Y62317512D01*
X9437429Y62355608D01*
X9361238Y62393703D01*
X9170762Y62393703D01*
X9094571Y62355608D01*
X9056476Y62317512D01*
X9018381Y62241322D01*
X9018381Y62050846D01*
X9056476Y61974655D01*
X9094571Y61936560D01*
X9170762Y61898465D01*
X9361238Y61898465D01*
X9437429Y61936560D01*
X9475524Y61974655D01*
X9642190Y74598465D02*
X9908857Y74979417D01*
X10099333Y74598465D02*
X10099333Y75398465D01*
X9794571Y75398465D01*
X9718381Y75360370D01*
X9680286Y75322274D01*
X9642190Y75246084D01*
X9642190Y75131798D01*
X9680286Y75055608D01*
X9718381Y75017512D01*
X9794571Y74979417D01*
X10099333Y74979417D01*
X9337429Y74827036D02*
X8956476Y74827036D01*
X9413619Y74598465D02*
X9146952Y75398465D01*
X8880286Y74598465D01*
X8689810Y75398465D02*
X8499333Y74598465D01*
X8346952Y75169893D01*
X8194571Y74598465D01*
X8004095Y75398465D01*
X9699333Y72820370D02*
X9775524Y72858465D01*
X9889810Y72858465D01*
X10004095Y72820370D01*
X10080286Y72744179D01*
X10118381Y72667989D01*
X10156476Y72515608D01*
X10156476Y72401322D01*
X10118381Y72248941D01*
X10080286Y72172750D01*
X10004095Y72096560D01*
X9889810Y72058465D01*
X9813619Y72058465D01*
X9699333Y72096560D01*
X9661238Y72134655D01*
X9661238Y72401322D01*
X9813619Y72401322D01*
X9318381Y72058465D02*
X9318381Y72858465D01*
X8861238Y72058465D01*
X8861238Y72858465D01*
X8480286Y72058465D02*
X8480286Y72858465D01*
X8289810Y72858465D01*
X8175524Y72820370D01*
X8099333Y72744179D01*
X8061238Y72667989D01*
X8023143Y72515608D01*
X8023143Y72401322D01*
X8061238Y72248941D01*
X8099333Y72172750D01*
X8175524Y72096560D01*
X8289810Y72058465D01*
X8480286Y72058465D01*
X10156476Y67778465D02*
X9889810Y66978465D01*
X9623143Y67778465D01*
X8899333Y67054655D02*
X8937429Y67016560D01*
X9051714Y66978465D01*
X9127905Y66978465D01*
X9242190Y67016560D01*
X9318381Y67092750D01*
X9356476Y67168941D01*
X9394571Y67321322D01*
X9394571Y67435608D01*
X9356476Y67587989D01*
X9318381Y67664179D01*
X9242190Y67740370D01*
X9127905Y67778465D01*
X9051714Y67778465D01*
X8937429Y67740370D01*
X8899333Y67702274D01*
X8099333Y67054655D02*
X8137429Y67016560D01*
X8251714Y66978465D01*
X8327905Y66978465D01*
X8442190Y67016560D01*
X8518381Y67092750D01*
X8556476Y67168941D01*
X8594571Y67321322D01*
X8594571Y67435608D01*
X8556476Y67587989D01*
X8518381Y67664179D01*
X8442190Y67740370D01*
X8327905Y67778465D01*
X8251714Y67778465D01*
X8137429Y67740370D01*
X8099333Y67702274D01*
X9856476Y64857512D02*
X10123143Y64857512D01*
X10123143Y64438465D02*
X10123143Y65238465D01*
X9742190Y65238465D01*
X9094571Y64971798D02*
X9094571Y64438465D01*
X9285048Y65276560D02*
X9475524Y64705131D01*
X8980286Y64705131D01*
X9913619Y54697512D02*
X9799333Y54659417D01*
X9761238Y54621322D01*
X9723143Y54545131D01*
X9723143Y54430846D01*
X9761238Y54354655D01*
X9799333Y54316560D01*
X9875524Y54278465D01*
X10180286Y54278465D01*
X10180286Y55078465D01*
X9913619Y55078465D01*
X9837429Y55040370D01*
X9799333Y55002274D01*
X9761238Y54926084D01*
X9761238Y54849893D01*
X9799333Y54773703D01*
X9837429Y54735608D01*
X9913619Y54697512D01*
X10180286Y54697512D01*
X8961238Y54278465D02*
X9418381Y54278465D01*
X9189810Y54278465D02*
X9189810Y55078465D01*
X9266000Y54964179D01*
X9342190Y54887989D01*
X9418381Y54849893D01*
X9913619Y52157512D02*
X9799333Y52119417D01*
X9761238Y52081322D01*
X9723143Y52005131D01*
X9723143Y51890846D01*
X9761238Y51814655D01*
X9799333Y51776560D01*
X9875524Y51738465D01*
X10180286Y51738465D01*
X10180286Y52538465D01*
X9913619Y52538465D01*
X9837429Y52500370D01*
X9799333Y52462274D01*
X9761238Y52386084D01*
X9761238Y52309893D01*
X9799333Y52233703D01*
X9837429Y52195608D01*
X9913619Y52157512D01*
X10180286Y52157512D01*
X9456476Y52538465D02*
X8961238Y52538465D01*
X9227905Y52233703D01*
X9113619Y52233703D01*
X9037429Y52195608D01*
X8999333Y52157512D01*
X8961238Y52081322D01*
X8961238Y51890846D01*
X8999333Y51814655D01*
X9037429Y51776560D01*
X9113619Y51738465D01*
X9342190Y51738465D01*
X9418381Y51776560D01*
X9456476Y51814655D01*
X9913619Y47077512D02*
X9799333Y47039417D01*
X9761238Y47001322D01*
X9723143Y46925131D01*
X9723143Y46810846D01*
X9761238Y46734655D01*
X9799333Y46696560D01*
X9875524Y46658465D01*
X10180286Y46658465D01*
X10180286Y47458465D01*
X9913619Y47458465D01*
X9837429Y47420370D01*
X9799333Y47382274D01*
X9761238Y47306084D01*
X9761238Y47229893D01*
X9799333Y47153703D01*
X9837429Y47115608D01*
X9913619Y47077512D01*
X10180286Y47077512D01*
X9037429Y47458465D02*
X9189810Y47458465D01*
X9266000Y47420370D01*
X9304095Y47382274D01*
X9380286Y47267989D01*
X9418381Y47115608D01*
X9418381Y46810846D01*
X9380286Y46734655D01*
X9342190Y46696560D01*
X9266000Y46658465D01*
X9113619Y46658465D01*
X9037429Y46696560D01*
X8999333Y46734655D01*
X8961238Y46810846D01*
X8961238Y47001322D01*
X8999333Y47077512D01*
X9037429Y47115608D01*
X9113619Y47153703D01*
X9266000Y47153703D01*
X9342190Y47115608D01*
X9380286Y47077512D01*
X9418381Y47001322D01*
X-1008380Y47077512D02*
X-1122666Y47039417D01*
X-1160761Y47001322D01*
X-1198856Y46925131D01*
X-1198856Y46810846D01*
X-1160761Y46734655D01*
X-1122666Y46696560D01*
X-1046475Y46658465D01*
X-741713Y46658465D01*
X-741713Y47458465D01*
X-1008380Y47458465D01*
X-1084570Y47420370D01*
X-1122666Y47382274D01*
X-1160761Y47306084D01*
X-1160761Y47229893D01*
X-1122666Y47153703D01*
X-1084570Y47115608D01*
X-1008380Y47077512D01*
X-741713Y47077512D01*
X-1922666Y47458465D02*
X-1541713Y47458465D01*
X-1503618Y47077512D01*
X-1541713Y47115608D01*
X-1617904Y47153703D01*
X-1808380Y47153703D01*
X-1884570Y47115608D01*
X-1922666Y47077512D01*
X-1960761Y47001322D01*
X-1960761Y46810846D01*
X-1922666Y46734655D01*
X-1884570Y46696560D01*
X-1808380Y46658465D01*
X-1617904Y46658465D01*
X-1541713Y46696560D01*
X-1503618Y46734655D01*
X-1008380Y49617512D02*
X-1122666Y49579417D01*
X-1160761Y49541322D01*
X-1198856Y49465131D01*
X-1198856Y49350846D01*
X-1160761Y49274655D01*
X-1122666Y49236560D01*
X-1046475Y49198465D01*
X-741713Y49198465D01*
X-741713Y49998465D01*
X-1008380Y49998465D01*
X-1084570Y49960370D01*
X-1122666Y49922274D01*
X-1160761Y49846084D01*
X-1160761Y49769893D01*
X-1122666Y49693703D01*
X-1084570Y49655608D01*
X-1008380Y49617512D01*
X-741713Y49617512D01*
X-1884570Y49731798D02*
X-1884570Y49198465D01*
X-1694094Y50036560D02*
X-1503618Y49465131D01*
X-1998856Y49465131D01*
X-779809Y52157512D02*
X-1046475Y52157512D01*
X-1160761Y51738465D02*
X-779809Y51738465D01*
X-779809Y52538465D01*
X-1160761Y52538465D01*
X-1846475Y52538465D02*
X-1694094Y52538465D01*
X-1617904Y52500370D01*
X-1579809Y52462274D01*
X-1503618Y52347989D01*
X-1465523Y52195608D01*
X-1465523Y51890846D01*
X-1503618Y51814655D01*
X-1541713Y51776560D01*
X-1617904Y51738465D01*
X-1770285Y51738465D01*
X-1846475Y51776560D01*
X-1884570Y51814655D01*
X-1922666Y51890846D01*
X-1922666Y52081322D01*
X-1884570Y52157512D01*
X-1846475Y52195608D01*
X-1770285Y52233703D01*
X-1617904Y52233703D01*
X-1541713Y52195608D01*
X-1503618Y52157512D01*
X-1465523Y52081322D01*
X-741713Y54278465D02*
X-741713Y55078465D01*
X-932189Y55078465D01*
X-1046475Y55040370D01*
X-1122666Y54964179D01*
X-1160761Y54887989D01*
X-1198856Y54735608D01*
X-1198856Y54621322D01*
X-1160761Y54468941D01*
X-1122666Y54392750D01*
X-1046475Y54316560D01*
X-932189Y54278465D01*
X-741713Y54278465D01*
X-1465523Y55078465D02*
X-1998856Y55078465D01*
X-1655999Y54278465D01*
X-1198856Y56894655D02*
X-1160761Y56856560D01*
X-1046475Y56818465D01*
X-970285Y56818465D01*
X-855999Y56856560D01*
X-779809Y56932750D01*
X-741713Y57008941D01*
X-703618Y57161322D01*
X-703618Y57275608D01*
X-741713Y57427989D01*
X-779809Y57504179D01*
X-855999Y57580370D01*
X-970285Y57618465D01*
X-1046475Y57618465D01*
X-1160761Y57580370D01*
X-1198856Y57542274D01*
X-1884570Y57618465D02*
X-1732190Y57618465D01*
X-1655999Y57580370D01*
X-1617904Y57542274D01*
X-1541713Y57427989D01*
X-1503618Y57275608D01*
X-1503618Y56970846D01*
X-1541713Y56894655D01*
X-1579809Y56856560D01*
X-1655999Y56818465D01*
X-1808380Y56818465D01*
X-1884570Y56856560D01*
X-1922666Y56894655D01*
X-1960761Y56970846D01*
X-1960761Y57161322D01*
X-1922666Y57237512D01*
X-1884570Y57275608D01*
X-1808380Y57313703D01*
X-1655999Y57313703D01*
X-1579809Y57275608D01*
X-1541713Y57237512D01*
X-1503618Y57161322D01*
X-741713Y59358465D02*
X-741713Y60158465D01*
X-932189Y60158465D01*
X-1046475Y60120370D01*
X-1122666Y60044179D01*
X-1160761Y59967989D01*
X-1198856Y59815608D01*
X-1198856Y59701322D01*
X-1160761Y59548941D01*
X-1122666Y59472750D01*
X-1046475Y59396560D01*
X-932189Y59358465D01*
X-741713Y59358465D01*
X-1884570Y59891798D02*
X-1884570Y59358465D01*
X-1694094Y60196560D02*
X-1503618Y59625131D01*
X-1998856Y59625131D01*
X-322666Y70280370D02*
X-246475Y70318465D01*
X-132190Y70318465D01*
X-17904Y70280370D01*
X58286Y70204179D01*
X96381Y70127989D01*
X134476Y69975608D01*
X134476Y69861322D01*
X96381Y69708941D01*
X58286Y69632750D01*
X-17904Y69556560D01*
X-132190Y69518465D01*
X-208380Y69518465D01*
X-322666Y69556560D01*
X-360761Y69594655D01*
X-360761Y69861322D01*
X-208380Y69861322D01*
X-703618Y69518465D02*
X-703618Y70318465D01*
X-1160761Y69518465D01*
X-1160761Y70318465D01*
X-1541713Y69518465D02*
X-1541713Y70318465D01*
X-1732190Y70318465D01*
X-1846475Y70280370D01*
X-1922666Y70204179D01*
X-1960761Y70127989D01*
X-1998856Y69975608D01*
X-1998856Y69861322D01*
X-1960761Y69708941D01*
X-1922666Y69632750D01*
X-1846475Y69556560D01*
X-1732190Y69518465D01*
X-1541713Y69518465D01*
X-322666Y67740370D02*
X-246475Y67778465D01*
X-132190Y67778465D01*
X-17904Y67740370D01*
X58286Y67664179D01*
X96381Y67587989D01*
X134476Y67435608D01*
X134476Y67321322D01*
X96381Y67168941D01*
X58286Y67092750D01*
X-17904Y67016560D01*
X-132190Y66978465D01*
X-208380Y66978465D01*
X-322666Y67016560D01*
X-360761Y67054655D01*
X-360761Y67321322D01*
X-208380Y67321322D01*
X-703618Y66978465D02*
X-703618Y67778465D01*
X-1160761Y66978465D01*
X-1160761Y67778465D01*
X-1541713Y66978465D02*
X-1541713Y67778465D01*
X-1732190Y67778465D01*
X-1846475Y67740370D01*
X-1922666Y67664179D01*
X-1960761Y67587989D01*
X-1998856Y67435608D01*
X-1998856Y67321322D01*
X-1960761Y67168941D01*
X-1922666Y67092750D01*
X-1846475Y67016560D01*
X-1732190Y66978465D01*
X-1541713Y66978465D01*
X-741713Y64438465D02*
X-741713Y65238465D01*
X-932189Y65238465D01*
X-1046475Y65200370D01*
X-1122666Y65124179D01*
X-1160761Y65047989D01*
X-1198856Y64895608D01*
X-1198856Y64781322D01*
X-1160761Y64628941D01*
X-1122666Y64552750D01*
X-1046475Y64476560D01*
X-932189Y64438465D01*
X-741713Y64438465D01*
X-1960761Y64438465D02*
X-1503618Y64438465D01*
X-1732189Y64438465D02*
X-1732189Y65238465D01*
X-1655999Y65124179D01*
X-1579809Y65047989D01*
X-1503618Y65009893D01*
X-741713Y61898465D02*
X-741713Y62698465D01*
X-932189Y62698465D01*
X-1046475Y62660370D01*
X-1122666Y62584179D01*
X-1160761Y62507989D01*
X-1198856Y62355608D01*
X-1198856Y62241322D01*
X-1160761Y62088941D01*
X-1122666Y62012750D01*
X-1046475Y61936560D01*
X-932189Y61898465D01*
X-741713Y61898465D01*
X-1694094Y62698465D02*
X-1770285Y62698465D01*
X-1846475Y62660370D01*
X-1884570Y62622274D01*
X-1922666Y62546084D01*
X-1960761Y62393703D01*
X-1960761Y62203227D01*
X-1922666Y62050846D01*
X-1884570Y61974655D01*
X-1846475Y61936560D01*
X-1770285Y61898465D01*
X-1694094Y61898465D01*
X-1617904Y61936560D01*
X-1579809Y61974655D01*
X-1541713Y62050846D01*
X-1503618Y62203227D01*
X-1503618Y62393703D01*
X-1541713Y62546084D01*
X-1579809Y62622274D01*
X-1617904Y62660370D01*
X-1694094Y62698465D01*
X-741713Y72058465D02*
X-741713Y72858465D01*
X-932189Y72858465D01*
X-1046475Y72820370D01*
X-1122666Y72744179D01*
X-1160761Y72667989D01*
X-1198856Y72515608D01*
X-1198856Y72401322D01*
X-1160761Y72248941D01*
X-1122666Y72172750D01*
X-1046475Y72096560D01*
X-932189Y72058465D01*
X-741713Y72058465D01*
X-1503618Y72782274D02*
X-1541713Y72820370D01*
X-1617904Y72858465D01*
X-1808380Y72858465D01*
X-1884570Y72820370D01*
X-1922666Y72782274D01*
X-1960761Y72706084D01*
X-1960761Y72629893D01*
X-1922666Y72515608D01*
X-1465523Y72058465D01*
X-1960761Y72058465D01*
G04 #@! TD*
M02*
