M48
;DRILL file {KiCad (6.0.0-rc1-dev-1215-g431bdc7a3)} date 2018 December 02, Sunday 20:05:27
;FORMAT={-:-/ absolute / inch / decimal}
FMAT,2
INCH
T1C0.0709
T2C0.1181
T3C0.1200
T4C0.1570
T5C0.1575
T6C0.1772
%
G90
G05
T1
X0.7688Y2.7199
X1.1688Y2.7199
X1.7063Y2.7199
X2.1063Y2.7199
X2.4563Y2.7199
X2.8563Y2.7199
X3.2063Y2.7199
X3.6063Y2.7199
X3.9563Y2.7199
X4.3563Y2.7199
X4.7063Y2.7199
X5.1063Y2.7199
X5.4563Y2.7199
X5.8563Y2.7199
X6.2063Y2.7199
X6.6063Y2.7199
X6.9563Y2.7199
X7.3563Y2.7199
X7.7063Y2.7199
X8.1063Y2.7199
X8.4563Y2.7199
X8.8563Y2.7199
X9.2063Y2.7199
X9.6063Y2.7199
X9.9563Y2.7199
X10.3563Y2.7199
X0.6751Y1.9699
X1.0751Y1.9699
X1.5188Y1.9699
X1.9188Y1.9699
X2.2688Y1.9699
X2.6688Y1.9699
X3.0188Y1.9699
X3.4188Y1.9699
X3.7688Y1.9699
X4.1688Y1.9699
X4.5188Y1.9699
X4.9188Y1.9699
X5.2688Y1.9699
X5.6688Y1.9699
X6.3938Y1.9699
X6.7938Y1.9699
X7.1438Y1.9699
X7.5438Y1.9699
X7.8938Y1.9699
X8.2938Y1.9699
X8.6438Y1.9699
X9.0438Y1.9699
X9.3938Y1.9699
X9.7938Y1.9699
X5.8313Y1.2199
X6.2313Y1.2199
X10.1438Y1.9699
X10.5438Y1.9699
X0.5813Y1.2199
X0.9813Y1.2199
X1.3313Y1.2199
X1.7313Y1.2199
X2.0813Y1.2199
X2.4813Y1.2199
X2.8313Y1.2199
X3.2313Y1.2199
X3.5813Y1.2199
X3.9813Y1.2199
X4.3313Y1.2199
X4.7313Y1.2199
X5.0813Y1.2199
X5.4813Y1.2199
X6.5813Y1.2199
X6.9813Y1.2199
X7.3313Y1.2199
X7.7313Y1.2199
X8.0813Y1.2199
X8.4813Y1.2199
X8.8313Y1.2199
X9.2313Y1.2199
X9.5813Y1.2199
X9.9813Y1.2199
X10.3313Y1.2199
X10.7313Y1.2199
X11.0813Y1.2199
X11.4813Y1.2199
X2.1751Y0.2824
X2.5751Y0.2824
X3.0188Y0.2824
X3.4188Y0.2824
X3.7688Y0.2824
X4.1688Y0.2824
X4.6126Y0.2824
X5.0126Y0.2824
X7.0501Y0.2824
X7.4501Y0.2824
X7.8938Y0.2824
X8.2938Y0.2824
X8.6438Y0.2824
X9.0438Y0.2824
X5.8313Y0.2824
X6.2313Y0.2824
X10.8938Y2.7199
X11.2938Y2.7199
X10.9876Y1.9699
X11.3876Y1.9699
X9.4876Y0.2824
X9.8876Y0.2824
T2
X0.8188Y2.8199
X1.0688Y2.9199
X1.7563Y2.8199
X2.0063Y2.9199
X2.5063Y2.8199
X2.7563Y2.9199
X3.2563Y2.8199
X3.5063Y2.9199
X4.0063Y2.8199
X4.2563Y2.9199
X4.7563Y2.8199
X5.0063Y2.9199
X5.5063Y2.8199
X5.7563Y2.9199
X6.2563Y2.8199
X6.5063Y2.9199
X7.0063Y2.8199
X7.2563Y2.9199
X7.7563Y2.8199
X8.0063Y2.9199
X8.5063Y2.8199
X8.7563Y2.9199
X9.2563Y2.8199
X9.5063Y2.9199
X10.0063Y2.8199
X10.2563Y2.9199
X0.7251Y2.0699
X0.9751Y2.1699
X1.5688Y2.0699
X1.8188Y2.1699
X2.3188Y2.0699
X2.5688Y2.1699
X3.0688Y2.0699
X3.3188Y2.1699
X3.8188Y2.0699
X4.0688Y2.1699
X4.5688Y2.0699
X4.8188Y2.1699
X5.3188Y2.0699
X5.5688Y2.1699
X6.4438Y2.0699
X6.6938Y2.1699
X7.1938Y2.0699
X7.4438Y2.1699
X7.9438Y2.0699
X8.1938Y2.1699
X8.6938Y2.0699
X8.9438Y2.1699
X9.4438Y2.0699
X9.6938Y2.1699
X5.8813Y1.3199
X6.1313Y1.4199
X10.1938Y2.0699
X10.4438Y2.1699
X0.6313Y1.3199
X0.8813Y1.4199
X1.3813Y1.3199
X1.6313Y1.4199
X2.1313Y1.3199
X2.3813Y1.4199
X2.8813Y1.3199
X3.1313Y1.4199
X3.6313Y1.3199
X3.8813Y1.4199
X4.3813Y1.3199
X4.6313Y1.4199
X5.1313Y1.3199
X5.3813Y1.4199
X6.6313Y1.3199
X6.8813Y1.4199
X7.3813Y1.3199
X7.6313Y1.4199
X8.1313Y1.3199
X8.3813Y1.4199
X8.8813Y1.3199
X9.1313Y1.4199
X9.6313Y1.3199
X9.8813Y1.4199
X10.3813Y1.3199
X10.6313Y1.4199
X11.1313Y1.3199
X11.3813Y1.4199
X2.2251Y0.3824
X2.4751Y0.4824
X3.0688Y0.3824
X3.3188Y0.4824
X3.8188Y0.3824
X4.0688Y0.4824
X4.6626Y0.3824
X4.9126Y0.4824
X7.1001Y0.3824
X7.3501Y0.4824
X7.9438Y0.3824
X8.1938Y0.4824
X8.6938Y0.3824
X8.9438Y0.4824
X5.9313Y0.0824
X6.1813Y0.1824
X10.9438Y2.8199
X11.1938Y2.9199
X11.0376Y2.0699
X11.2876Y2.1699
X9.5376Y0.3824
X9.7876Y0.4824
T3
X5.5613Y0.0074
X6.5013Y0.0074
T4
X5.5613Y0.6074
X6.5013Y0.6074
T5
X0.9688Y2.7199
X1.9063Y2.7199
X2.6563Y2.7199
X3.4063Y2.7199
X4.1563Y2.7199
X4.9063Y2.7199
X5.6563Y2.7199
X6.4063Y2.7199
X7.1563Y2.7199
X7.9063Y2.7199
X8.6563Y2.7199
X9.4063Y2.7199
X10.1563Y2.7199
X0.8751Y1.9699
X1.7188Y1.9699
X2.4688Y1.9699
X3.2188Y1.9699
X3.9688Y1.9699
X4.7188Y1.9699
X5.4688Y1.9699
X6.5938Y1.9699
X7.3438Y1.9699
X8.0938Y1.9699
X8.8438Y1.9699
X9.5938Y1.9699
X6.0313Y1.2199
X10.3438Y1.9699
X0.7813Y1.2199
X1.5313Y1.2199
X2.2813Y1.2199
X3.0313Y1.2199
X3.7813Y1.2199
X4.5313Y1.2199
X5.2813Y1.2199
X6.7813Y1.2199
X7.5313Y1.2199
X8.2813Y1.2199
X9.0313Y1.2199
X9.7813Y1.2199
X10.5313Y1.2199
X11.2813Y1.2199
X2.3751Y0.2824
X3.2188Y0.2824
X3.9688Y0.2824
X4.8126Y0.2824
X7.2501Y0.2824
X8.0938Y0.2824
X8.8438Y0.2824
X6.0313Y0.2824
X11.0938Y2.7199
X11.1876Y1.9699
X9.6876Y0.2824
T6
X6.0313Y2.3449
X3.7813Y2.3637
X1.4376Y2.3824
X2.5438Y0.6949
X4.8126Y0.7137
X8.2813Y2.3637
X10.6251Y2.3824
X7.2501Y0.7137
X9.4063Y0.7137
X10.9063Y1.5762
X0.3688Y1.5387
T0
M30
