G04 #@! TF.GenerationSoftware,KiCad,Pcbnew,(6.0.0-rc1-dev-1215-g431bdc7a3)*
G04 #@! TF.CreationDate,2018-12-02T19:35:25+01:00*
G04 #@! TF.ProjectId,wave,77617665-2e6b-4696-9361-645f70636258,rev?*
G04 #@! TF.SameCoordinates,Original*
G04 #@! TF.FileFunction,Copper,L2,Bot*
G04 #@! TF.FilePolarity,Positive*
%FSLAX46Y46*%
G04 Gerber Fmt 4.6, Leading zero omitted, Abs format (unit mm)*
G04 Created by KiCad (PCBNEW (6.0.0-rc1-dev-1215-g431bdc7a3)) date 2018 December 02, Sunday 19:35:25*
%MOMM*%
%LPD*%
G01*
G04 APERTURE LIST*
G04 #@! TA.AperFunction,WasherPad*
%ADD10C,3.000000*%
G04 #@! TD*
G04 #@! TA.AperFunction,NonConductor*
%ADD11C,0.254000*%
G04 #@! TD*
G04 APERTURE END LIST*
D10*
G04 #@! TO.P,Ref\002A\002A,*
G04 #@! TO.N,*
X153195060Y59561620D03*
G04 #@! TD*
G04 #@! TO.P,Ref\002A\002A,*
G04 #@! TO.N,*
X96045060Y60037870D03*
G04 #@! TD*
G04 #@! TO.P,Ref\002A\002A,*
G04 #@! TO.N,*
X36513810Y60514120D03*
G04 #@! TD*
G04 #@! TO.P,Ref\002A\002A,*
G04 #@! TO.N,*
X64612560Y17651620D03*
G04 #@! TD*
G04 #@! TO.P,Ref\002A\002A,*
G04 #@! TO.N,*
X122238810Y18127870D03*
G04 #@! TD*
G04 #@! TO.P,Ref\002A\002A,*
G04 #@! TO.N,*
X210345060Y60037870D03*
G04 #@! TD*
G04 #@! TO.P,Ref\002A\002A,*
G04 #@! TO.N,*
X269876310Y60514120D03*
G04 #@! TD*
G04 #@! TO.P,Ref\002A\002A,*
G04 #@! TO.N,*
X184151310Y18127870D03*
G04 #@! TD*
G04 #@! TO.P,Ref\002A\002A,*
G04 #@! TO.N,*
X238920060Y18127870D03*
G04 #@! TD*
G04 #@! TO.P,Ref\002A\002A,*
G04 #@! TO.N,*
X9367560Y39082870D03*
G04 #@! TD*
D11*
G36*
X295948439Y79348104D02*
X296274558Y79199826D01*
X296545955Y78965976D01*
X296740806Y78665357D01*
X296849743Y78301097D01*
X296863811Y78111793D01*
X296863810Y21983111D01*
X296806544Y21583241D01*
X296658266Y21257121D01*
X296424418Y20985727D01*
X296123796Y20790874D01*
X295759537Y20681937D01*
X295570246Y20667870D01*
X258860019Y20667870D01*
X258836772Y20663246D01*
X258593924Y20645199D01*
X258530668Y20631291D01*
X258466486Y20622499D01*
X258459040Y20620321D01*
X257941561Y20465562D01*
X257863403Y20429448D01*
X257784659Y20394224D01*
X257778124Y20390044D01*
X257324879Y20096265D01*
X257259994Y20039662D01*
X257194306Y19983757D01*
X257189206Y19977910D01*
X256836634Y19568730D01*
X256790237Y19496181D01*
X256742887Y19424097D01*
X256739633Y19417054D01*
X256516076Y18925366D01*
X256491896Y18842675D01*
X256466691Y18760234D01*
X256465544Y18752561D01*
X256391407Y18234888D01*
X256382560Y18190410D01*
X256382561Y-1829382D01*
X256325294Y-2229259D01*
X256177016Y-2555379D01*
X255943168Y-2826773D01*
X255642546Y-3021626D01*
X255278287Y-3130563D01*
X255088996Y-3144630D01*
X51322801Y-3144630D01*
X50922931Y-3087364D01*
X50596811Y-2939086D01*
X50325417Y-2705238D01*
X50130564Y-2404616D01*
X50021627Y-2040357D01*
X50007560Y-1851066D01*
X50007560Y18035433D01*
X62469837Y18035433D01*
X62477560Y17631244D01*
X62477560Y17226942D01*
X62485659Y17207390D01*
X62486063Y17186233D01*
X62779821Y16477038D01*
X62790371Y16471750D01*
X62802594Y16442240D01*
X63403180Y15841654D01*
X63432690Y15829431D01*
X63437978Y15818881D01*
X63814348Y15671343D01*
X64187882Y15516620D01*
X64209046Y15516620D01*
X64228747Y15508897D01*
X64632936Y15516620D01*
X65037238Y15516620D01*
X65056790Y15524719D01*
X65077947Y15525123D01*
X65787142Y15818881D01*
X65792430Y15829431D01*
X65821940Y15841654D01*
X66422526Y16442240D01*
X66434749Y16471750D01*
X66445299Y16477038D01*
X66592837Y16853408D01*
X66747560Y17226942D01*
X66747560Y17248106D01*
X66755283Y17267807D01*
X66747560Y17671996D01*
X66747560Y18076298D01*
X66739461Y18095850D01*
X66739057Y18117007D01*
X66575577Y18511683D01*
X120096087Y18511683D01*
X120103810Y18107494D01*
X120103810Y17703192D01*
X120111909Y17683640D01*
X120112313Y17662483D01*
X120406071Y16953288D01*
X120416621Y16948000D01*
X120428844Y16918490D01*
X121029430Y16317904D01*
X121058940Y16305681D01*
X121064228Y16295131D01*
X121440598Y16147593D01*
X121814132Y15992870D01*
X121835296Y15992870D01*
X121854997Y15985147D01*
X122259186Y15992870D01*
X122663488Y15992870D01*
X122683040Y16000969D01*
X122704197Y16001373D01*
X123413392Y16295131D01*
X123418680Y16305681D01*
X123448190Y16317904D01*
X124048776Y16918490D01*
X124060999Y16948000D01*
X124071549Y16953288D01*
X124219087Y17329658D01*
X124373810Y17703192D01*
X124373810Y17724356D01*
X124381533Y17744057D01*
X124373810Y18148246D01*
X124373810Y18511683D01*
X182008587Y18511683D01*
X182016310Y18107494D01*
X182016310Y17703192D01*
X182024409Y17683640D01*
X182024813Y17662483D01*
X182318571Y16953288D01*
X182329121Y16948000D01*
X182341344Y16918490D01*
X182941930Y16317904D01*
X182971440Y16305681D01*
X182976728Y16295131D01*
X183353098Y16147593D01*
X183726632Y15992870D01*
X183747796Y15992870D01*
X183767497Y15985147D01*
X184171686Y15992870D01*
X184575988Y15992870D01*
X184595540Y16000969D01*
X184616697Y16001373D01*
X185325892Y16295131D01*
X185331180Y16305681D01*
X185360690Y16317904D01*
X185961276Y16918490D01*
X185973499Y16948000D01*
X185984049Y16953288D01*
X186131587Y17329658D01*
X186286310Y17703192D01*
X186286310Y17724356D01*
X186294033Y17744057D01*
X186286310Y18148246D01*
X186286310Y18511683D01*
X236777337Y18511683D01*
X236785060Y18107494D01*
X236785060Y17703192D01*
X236793159Y17683640D01*
X236793563Y17662483D01*
X237087321Y16953288D01*
X237097871Y16948000D01*
X237110094Y16918490D01*
X237710680Y16317904D01*
X237740190Y16305681D01*
X237745478Y16295131D01*
X238121848Y16147593D01*
X238495382Y15992870D01*
X238516546Y15992870D01*
X238536247Y15985147D01*
X238940436Y15992870D01*
X239344738Y15992870D01*
X239364290Y16000969D01*
X239385447Y16001373D01*
X240094642Y16295131D01*
X240099930Y16305681D01*
X240129440Y16317904D01*
X240730026Y16918490D01*
X240742249Y16948000D01*
X240752799Y16953288D01*
X240900337Y17329658D01*
X241055060Y17703192D01*
X241055060Y17724356D01*
X241062783Y17744057D01*
X241055060Y18148246D01*
X241055060Y18552548D01*
X241046961Y18572100D01*
X241046557Y18593257D01*
X240752799Y19302452D01*
X240742249Y19307740D01*
X240730026Y19337250D01*
X240129440Y19937836D01*
X240099930Y19950059D01*
X240094642Y19960609D01*
X239718272Y20108147D01*
X239344738Y20262870D01*
X239323574Y20262870D01*
X239303873Y20270593D01*
X238899684Y20262870D01*
X238495382Y20262870D01*
X238475830Y20254771D01*
X238454673Y20254367D01*
X237745478Y19960609D01*
X237740190Y19950059D01*
X237710680Y19937836D01*
X237110094Y19337250D01*
X237097871Y19307740D01*
X237087321Y19302452D01*
X236939783Y18926082D01*
X236785060Y18552548D01*
X236785060Y18531384D01*
X236777337Y18511683D01*
X186286310Y18511683D01*
X186286310Y18552548D01*
X186278211Y18572100D01*
X186277807Y18593257D01*
X185984049Y19302452D01*
X185973499Y19307740D01*
X185961276Y19337250D01*
X185360690Y19937836D01*
X185331180Y19950059D01*
X185325892Y19960609D01*
X184949522Y20108147D01*
X184575988Y20262870D01*
X184554824Y20262870D01*
X184535123Y20270593D01*
X184130934Y20262870D01*
X183726632Y20262870D01*
X183707080Y20254771D01*
X183685923Y20254367D01*
X182976728Y19960609D01*
X182971440Y19950059D01*
X182941930Y19937836D01*
X182341344Y19337250D01*
X182329121Y19307740D01*
X182318571Y19302452D01*
X182171033Y18926082D01*
X182016310Y18552548D01*
X182016310Y18531384D01*
X182008587Y18511683D01*
X124373810Y18511683D01*
X124373810Y18552548D01*
X124365711Y18572100D01*
X124365307Y18593257D01*
X124071549Y19302452D01*
X124060999Y19307740D01*
X124048776Y19337250D01*
X123448190Y19937836D01*
X123418680Y19950059D01*
X123413392Y19960609D01*
X123037022Y20108147D01*
X122663488Y20262870D01*
X122642324Y20262870D01*
X122622623Y20270593D01*
X122218434Y20262870D01*
X121814132Y20262870D01*
X121794580Y20254771D01*
X121773423Y20254367D01*
X121064228Y19960609D01*
X121058940Y19950059D01*
X121029430Y19937836D01*
X120428844Y19337250D01*
X120416621Y19307740D01*
X120406071Y19302452D01*
X120258533Y18926082D01*
X120103810Y18552548D01*
X120103810Y18531384D01*
X120096087Y18511683D01*
X66575577Y18511683D01*
X66445299Y18826202D01*
X66434749Y18831490D01*
X66422526Y18861000D01*
X65821940Y19461586D01*
X65792430Y19473809D01*
X65787142Y19484359D01*
X65410772Y19631897D01*
X65037238Y19786620D01*
X65016074Y19786620D01*
X64996373Y19794343D01*
X64592184Y19786620D01*
X64187882Y19786620D01*
X64168330Y19778521D01*
X64147173Y19778117D01*
X63437978Y19484359D01*
X63432690Y19473809D01*
X63403180Y19461586D01*
X62802594Y18861000D01*
X62790371Y18831490D01*
X62779821Y18826202D01*
X62632283Y18449832D01*
X62477560Y18076298D01*
X62477560Y18055134D01*
X62469837Y18035433D01*
X50007560Y18035433D01*
X50007560Y18666661D01*
X50002936Y18689908D01*
X49984889Y18932756D01*
X49970981Y18996012D01*
X49962189Y19060194D01*
X49960011Y19067640D01*
X49805252Y19585119D01*
X49769138Y19663277D01*
X49733914Y19742021D01*
X49729734Y19748556D01*
X49435955Y20201801D01*
X49379352Y20266686D01*
X49323447Y20332374D01*
X49317600Y20337474D01*
X48908420Y20690046D01*
X48835871Y20736443D01*
X48763787Y20783793D01*
X48756744Y20787047D01*
X48265056Y21010604D01*
X48182365Y21034784D01*
X48099924Y21059989D01*
X48092251Y21061136D01*
X47574582Y21135272D01*
X47530101Y21144120D01*
X11422463Y21144120D01*
X9812417Y21949142D01*
X-1051115Y39466683D01*
X7224837Y39466683D01*
X7232560Y39062494D01*
X7232560Y38658192D01*
X7240659Y38638640D01*
X7241063Y38617483D01*
X7534821Y37908288D01*
X7545371Y37903000D01*
X7557594Y37873490D01*
X8158180Y37272904D01*
X8187690Y37260681D01*
X8192978Y37250131D01*
X8569348Y37102593D01*
X8942882Y36947870D01*
X8964046Y36947870D01*
X8983747Y36940147D01*
X9387936Y36947870D01*
X9792238Y36947870D01*
X9811790Y36955969D01*
X9832947Y36956373D01*
X10542142Y37250131D01*
X10547430Y37260681D01*
X10576940Y37272904D01*
X11177526Y37873490D01*
X11189749Y37903000D01*
X11200299Y37908288D01*
X11347837Y38284658D01*
X11502560Y38658192D01*
X11502560Y38679356D01*
X11510283Y38699057D01*
X11502560Y39103246D01*
X11502560Y39507548D01*
X11494461Y39527100D01*
X11494057Y39548257D01*
X11200299Y40257452D01*
X11189749Y40262740D01*
X11177526Y40292250D01*
X10576940Y40892836D01*
X10547430Y40905059D01*
X10542142Y40915609D01*
X10165772Y41063147D01*
X9792238Y41217870D01*
X9771074Y41217870D01*
X9751373Y41225593D01*
X9347184Y41217870D01*
X8942882Y41217870D01*
X8923330Y41209771D01*
X8902173Y41209367D01*
X8192978Y40915609D01*
X8187690Y40905059D01*
X8158180Y40892836D01*
X7557594Y40292250D01*
X7545371Y40262740D01*
X7534821Y40257452D01*
X7387283Y39881082D01*
X7232560Y39507548D01*
X7232560Y39486384D01*
X7224837Y39466683D01*
X-1051115Y39466683D01*
X-3963464Y44162870D01*
X13240101Y44162870D01*
X13301440Y44175071D01*
X13301443Y44175071D01*
X13665949Y44247576D01*
X13894853Y44342392D01*
X14203862Y44548865D01*
X14203866Y44548867D01*
X14291464Y44636466D01*
X14379063Y44724064D01*
X14379065Y44724068D01*
X14585536Y45033074D01*
X14585538Y45033076D01*
X14680354Y45261981D01*
X14752859Y45626487D01*
X14752859Y45626490D01*
X14765060Y45687829D01*
X14765060Y60897933D01*
X34371087Y60897933D01*
X34378810Y60493744D01*
X34378810Y60089442D01*
X34386909Y60069890D01*
X34387313Y60048733D01*
X34681071Y59339538D01*
X34691621Y59334250D01*
X34703844Y59304740D01*
X35304430Y58704154D01*
X35333940Y58691931D01*
X35339228Y58681381D01*
X35715598Y58533843D01*
X36089132Y58379120D01*
X36110296Y58379120D01*
X36129997Y58371397D01*
X36534186Y58379120D01*
X36938488Y58379120D01*
X36958040Y58387219D01*
X36979197Y58387623D01*
X37688392Y58681381D01*
X37693680Y58691931D01*
X37723190Y58704154D01*
X38323776Y59304740D01*
X38335999Y59334250D01*
X38346549Y59339538D01*
X38494087Y59715908D01*
X38648810Y60089442D01*
X38648810Y60110606D01*
X38656533Y60130307D01*
X38650966Y60421683D01*
X93902337Y60421683D01*
X93910060Y60017494D01*
X93910060Y59613192D01*
X93918159Y59593640D01*
X93918563Y59572483D01*
X94212321Y58863288D01*
X94222871Y58858000D01*
X94235094Y58828490D01*
X94835680Y58227904D01*
X94865190Y58215681D01*
X94870478Y58205131D01*
X95246848Y58057593D01*
X95620382Y57902870D01*
X95641546Y57902870D01*
X95661247Y57895147D01*
X96065436Y57902870D01*
X96469738Y57902870D01*
X96489290Y57910969D01*
X96510447Y57911373D01*
X97219642Y58205131D01*
X97224930Y58215681D01*
X97254440Y58227904D01*
X97855026Y58828490D01*
X97867249Y58858000D01*
X97877799Y58863288D01*
X98025337Y59239658D01*
X98180060Y59613192D01*
X98180060Y59634356D01*
X98187783Y59654057D01*
X98182216Y59945433D01*
X151052337Y59945433D01*
X151060060Y59541244D01*
X151060060Y59136942D01*
X151068159Y59117390D01*
X151068563Y59096233D01*
X151362321Y58387038D01*
X151372871Y58381750D01*
X151385094Y58352240D01*
X151985680Y57751654D01*
X152015190Y57739431D01*
X152020478Y57728881D01*
X152396848Y57581343D01*
X152770382Y57426620D01*
X152791546Y57426620D01*
X152811247Y57418897D01*
X153215436Y57426620D01*
X153619738Y57426620D01*
X153639290Y57434719D01*
X153660447Y57435123D01*
X154369642Y57728881D01*
X154374930Y57739431D01*
X154404440Y57751654D01*
X155005026Y58352240D01*
X155017249Y58381750D01*
X155027799Y58387038D01*
X155175337Y58763408D01*
X155330060Y59136942D01*
X155330060Y59158106D01*
X155337783Y59177807D01*
X155330060Y59581996D01*
X155330060Y59986298D01*
X155321961Y60005850D01*
X155321557Y60027007D01*
X155158077Y60421683D01*
X208202337Y60421683D01*
X208210060Y60017494D01*
X208210060Y59613192D01*
X208218159Y59593640D01*
X208218563Y59572483D01*
X208512321Y58863288D01*
X208522871Y58858000D01*
X208535094Y58828490D01*
X209135680Y58227904D01*
X209165190Y58215681D01*
X209170478Y58205131D01*
X209546848Y58057593D01*
X209920382Y57902870D01*
X209941546Y57902870D01*
X209961247Y57895147D01*
X210365436Y57902870D01*
X210769738Y57902870D01*
X210789290Y57910969D01*
X210810447Y57911373D01*
X211519642Y58205131D01*
X211524930Y58215681D01*
X211554440Y58227904D01*
X212155026Y58828490D01*
X212167249Y58858000D01*
X212177799Y58863288D01*
X212325337Y59239658D01*
X212480060Y59613192D01*
X212480060Y59634356D01*
X212487783Y59654057D01*
X212480060Y60058246D01*
X212480060Y60462548D01*
X212471961Y60482100D01*
X212471557Y60503257D01*
X212308077Y60897933D01*
X267733587Y60897933D01*
X267741310Y60493744D01*
X267741310Y60089442D01*
X267749409Y60069890D01*
X267749813Y60048733D01*
X268043571Y59339538D01*
X268054121Y59334250D01*
X268066344Y59304740D01*
X268666930Y58704154D01*
X268696440Y58691931D01*
X268701728Y58681381D01*
X269078098Y58533843D01*
X269451632Y58379120D01*
X269472796Y58379120D01*
X269492497Y58371397D01*
X269896686Y58379120D01*
X270300988Y58379120D01*
X270320540Y58387219D01*
X270341697Y58387623D01*
X271050892Y58681381D01*
X271056180Y58691931D01*
X271085690Y58704154D01*
X271686276Y59304740D01*
X271698499Y59334250D01*
X271709049Y59339538D01*
X271856587Y59715908D01*
X272011310Y60089442D01*
X272011310Y60110606D01*
X272019033Y60130307D01*
X272011310Y60534496D01*
X272011310Y60938798D01*
X272003211Y60958350D01*
X272002807Y60979507D01*
X271709049Y61688702D01*
X271698499Y61693990D01*
X271686276Y61723500D01*
X271085690Y62324086D01*
X271056180Y62336309D01*
X271050892Y62346859D01*
X270674522Y62494397D01*
X270300988Y62649120D01*
X270279824Y62649120D01*
X270260123Y62656843D01*
X269855934Y62649120D01*
X269451632Y62649120D01*
X269432080Y62641021D01*
X269410923Y62640617D01*
X268701728Y62346859D01*
X268696440Y62336309D01*
X268666930Y62324086D01*
X268066344Y61723500D01*
X268054121Y61693990D01*
X268043571Y61688702D01*
X267896033Y61312332D01*
X267741310Y60938798D01*
X267741310Y60917634D01*
X267733587Y60897933D01*
X212308077Y60897933D01*
X212177799Y61212452D01*
X212167249Y61217740D01*
X212155026Y61247250D01*
X211554440Y61847836D01*
X211524930Y61860059D01*
X211519642Y61870609D01*
X211143272Y62018147D01*
X210769738Y62172870D01*
X210748574Y62172870D01*
X210728873Y62180593D01*
X210324684Y62172870D01*
X209920382Y62172870D01*
X209900830Y62164771D01*
X209879673Y62164367D01*
X209170478Y61870609D01*
X209165190Y61860059D01*
X209135680Y61847836D01*
X208535094Y61247250D01*
X208522871Y61217740D01*
X208512321Y61212452D01*
X208364783Y60836082D01*
X208210060Y60462548D01*
X208210060Y60441384D01*
X208202337Y60421683D01*
X155158077Y60421683D01*
X155027799Y60736202D01*
X155017249Y60741490D01*
X155005026Y60771000D01*
X154404440Y61371586D01*
X154374930Y61383809D01*
X154369642Y61394359D01*
X153993272Y61541897D01*
X153619738Y61696620D01*
X153598574Y61696620D01*
X153578873Y61704343D01*
X153174684Y61696620D01*
X152770382Y61696620D01*
X152750830Y61688521D01*
X152729673Y61688117D01*
X152020478Y61394359D01*
X152015190Y61383809D01*
X151985680Y61371586D01*
X151385094Y60771000D01*
X151372871Y60741490D01*
X151362321Y60736202D01*
X151214783Y60359832D01*
X151060060Y59986298D01*
X151060060Y59965134D01*
X151052337Y59945433D01*
X98182216Y59945433D01*
X98180060Y60058246D01*
X98180060Y60462548D01*
X98171961Y60482100D01*
X98171557Y60503257D01*
X97877799Y61212452D01*
X97867249Y61217740D01*
X97855026Y61247250D01*
X97254440Y61847836D01*
X97224930Y61860059D01*
X97219642Y61870609D01*
X96843272Y62018147D01*
X96469738Y62172870D01*
X96448574Y62172870D01*
X96428873Y62180593D01*
X96024684Y62172870D01*
X95620382Y62172870D01*
X95600830Y62164771D01*
X95579673Y62164367D01*
X94870478Y61870609D01*
X94865190Y61860059D01*
X94835680Y61847836D01*
X94235094Y61247250D01*
X94222871Y61217740D01*
X94212321Y61212452D01*
X94064783Y60836082D01*
X93910060Y60462548D01*
X93910060Y60441384D01*
X93902337Y60421683D01*
X38650966Y60421683D01*
X38648810Y60534496D01*
X38648810Y60938798D01*
X38640711Y60958350D01*
X38640307Y60979507D01*
X38346549Y61688702D01*
X38335999Y61693990D01*
X38323776Y61723500D01*
X37723190Y62324086D01*
X37693680Y62336309D01*
X37688392Y62346859D01*
X37312022Y62494397D01*
X36938488Y62649120D01*
X36917324Y62649120D01*
X36897623Y62656843D01*
X36493434Y62649120D01*
X36089132Y62649120D01*
X36069580Y62641021D01*
X36048423Y62640617D01*
X35339228Y62346859D01*
X35333940Y62336309D01*
X35304430Y62324086D01*
X34703844Y61723500D01*
X34691621Y61693990D01*
X34681071Y61688702D01*
X34533533Y61312332D01*
X34378810Y60938798D01*
X34378810Y60917634D01*
X34371087Y60897933D01*
X14765060Y60897933D01*
X14765060Y79405370D01*
X295548569Y79405370D01*
X295948439Y79348104D01*
X295948439Y79348104D01*
G37*
X295948439Y79348104D02*
X296274558Y79199826D01*
X296545955Y78965976D01*
X296740806Y78665357D01*
X296849743Y78301097D01*
X296863811Y78111793D01*
X296863810Y21983111D01*
X296806544Y21583241D01*
X296658266Y21257121D01*
X296424418Y20985727D01*
X296123796Y20790874D01*
X295759537Y20681937D01*
X295570246Y20667870D01*
X258860019Y20667870D01*
X258836772Y20663246D01*
X258593924Y20645199D01*
X258530668Y20631291D01*
X258466486Y20622499D01*
X258459040Y20620321D01*
X257941561Y20465562D01*
X257863403Y20429448D01*
X257784659Y20394224D01*
X257778124Y20390044D01*
X257324879Y20096265D01*
X257259994Y20039662D01*
X257194306Y19983757D01*
X257189206Y19977910D01*
X256836634Y19568730D01*
X256790237Y19496181D01*
X256742887Y19424097D01*
X256739633Y19417054D01*
X256516076Y18925366D01*
X256491896Y18842675D01*
X256466691Y18760234D01*
X256465544Y18752561D01*
X256391407Y18234888D01*
X256382560Y18190410D01*
X256382561Y-1829382D01*
X256325294Y-2229259D01*
X256177016Y-2555379D01*
X255943168Y-2826773D01*
X255642546Y-3021626D01*
X255278287Y-3130563D01*
X255088996Y-3144630D01*
X51322801Y-3144630D01*
X50922931Y-3087364D01*
X50596811Y-2939086D01*
X50325417Y-2705238D01*
X50130564Y-2404616D01*
X50021627Y-2040357D01*
X50007560Y-1851066D01*
X50007560Y18035433D01*
X62469837Y18035433D01*
X62477560Y17631244D01*
X62477560Y17226942D01*
X62485659Y17207390D01*
X62486063Y17186233D01*
X62779821Y16477038D01*
X62790371Y16471750D01*
X62802594Y16442240D01*
X63403180Y15841654D01*
X63432690Y15829431D01*
X63437978Y15818881D01*
X63814348Y15671343D01*
X64187882Y15516620D01*
X64209046Y15516620D01*
X64228747Y15508897D01*
X64632936Y15516620D01*
X65037238Y15516620D01*
X65056790Y15524719D01*
X65077947Y15525123D01*
X65787142Y15818881D01*
X65792430Y15829431D01*
X65821940Y15841654D01*
X66422526Y16442240D01*
X66434749Y16471750D01*
X66445299Y16477038D01*
X66592837Y16853408D01*
X66747560Y17226942D01*
X66747560Y17248106D01*
X66755283Y17267807D01*
X66747560Y17671996D01*
X66747560Y18076298D01*
X66739461Y18095850D01*
X66739057Y18117007D01*
X66575577Y18511683D01*
X120096087Y18511683D01*
X120103810Y18107494D01*
X120103810Y17703192D01*
X120111909Y17683640D01*
X120112313Y17662483D01*
X120406071Y16953288D01*
X120416621Y16948000D01*
X120428844Y16918490D01*
X121029430Y16317904D01*
X121058940Y16305681D01*
X121064228Y16295131D01*
X121440598Y16147593D01*
X121814132Y15992870D01*
X121835296Y15992870D01*
X121854997Y15985147D01*
X122259186Y15992870D01*
X122663488Y15992870D01*
X122683040Y16000969D01*
X122704197Y16001373D01*
X123413392Y16295131D01*
X123418680Y16305681D01*
X123448190Y16317904D01*
X124048776Y16918490D01*
X124060999Y16948000D01*
X124071549Y16953288D01*
X124219087Y17329658D01*
X124373810Y17703192D01*
X124373810Y17724356D01*
X124381533Y17744057D01*
X124373810Y18148246D01*
X124373810Y18511683D01*
X182008587Y18511683D01*
X182016310Y18107494D01*
X182016310Y17703192D01*
X182024409Y17683640D01*
X182024813Y17662483D01*
X182318571Y16953288D01*
X182329121Y16948000D01*
X182341344Y16918490D01*
X182941930Y16317904D01*
X182971440Y16305681D01*
X182976728Y16295131D01*
X183353098Y16147593D01*
X183726632Y15992870D01*
X183747796Y15992870D01*
X183767497Y15985147D01*
X184171686Y15992870D01*
X184575988Y15992870D01*
X184595540Y16000969D01*
X184616697Y16001373D01*
X185325892Y16295131D01*
X185331180Y16305681D01*
X185360690Y16317904D01*
X185961276Y16918490D01*
X185973499Y16948000D01*
X185984049Y16953288D01*
X186131587Y17329658D01*
X186286310Y17703192D01*
X186286310Y17724356D01*
X186294033Y17744057D01*
X186286310Y18148246D01*
X186286310Y18511683D01*
X236777337Y18511683D01*
X236785060Y18107494D01*
X236785060Y17703192D01*
X236793159Y17683640D01*
X236793563Y17662483D01*
X237087321Y16953288D01*
X237097871Y16948000D01*
X237110094Y16918490D01*
X237710680Y16317904D01*
X237740190Y16305681D01*
X237745478Y16295131D01*
X238121848Y16147593D01*
X238495382Y15992870D01*
X238516546Y15992870D01*
X238536247Y15985147D01*
X238940436Y15992870D01*
X239344738Y15992870D01*
X239364290Y16000969D01*
X239385447Y16001373D01*
X240094642Y16295131D01*
X240099930Y16305681D01*
X240129440Y16317904D01*
X240730026Y16918490D01*
X240742249Y16948000D01*
X240752799Y16953288D01*
X240900337Y17329658D01*
X241055060Y17703192D01*
X241055060Y17724356D01*
X241062783Y17744057D01*
X241055060Y18148246D01*
X241055060Y18552548D01*
X241046961Y18572100D01*
X241046557Y18593257D01*
X240752799Y19302452D01*
X240742249Y19307740D01*
X240730026Y19337250D01*
X240129440Y19937836D01*
X240099930Y19950059D01*
X240094642Y19960609D01*
X239718272Y20108147D01*
X239344738Y20262870D01*
X239323574Y20262870D01*
X239303873Y20270593D01*
X238899684Y20262870D01*
X238495382Y20262870D01*
X238475830Y20254771D01*
X238454673Y20254367D01*
X237745478Y19960609D01*
X237740190Y19950059D01*
X237710680Y19937836D01*
X237110094Y19337250D01*
X237097871Y19307740D01*
X237087321Y19302452D01*
X236939783Y18926082D01*
X236785060Y18552548D01*
X236785060Y18531384D01*
X236777337Y18511683D01*
X186286310Y18511683D01*
X186286310Y18552548D01*
X186278211Y18572100D01*
X186277807Y18593257D01*
X185984049Y19302452D01*
X185973499Y19307740D01*
X185961276Y19337250D01*
X185360690Y19937836D01*
X185331180Y19950059D01*
X185325892Y19960609D01*
X184949522Y20108147D01*
X184575988Y20262870D01*
X184554824Y20262870D01*
X184535123Y20270593D01*
X184130934Y20262870D01*
X183726632Y20262870D01*
X183707080Y20254771D01*
X183685923Y20254367D01*
X182976728Y19960609D01*
X182971440Y19950059D01*
X182941930Y19937836D01*
X182341344Y19337250D01*
X182329121Y19307740D01*
X182318571Y19302452D01*
X182171033Y18926082D01*
X182016310Y18552548D01*
X182016310Y18531384D01*
X182008587Y18511683D01*
X124373810Y18511683D01*
X124373810Y18552548D01*
X124365711Y18572100D01*
X124365307Y18593257D01*
X124071549Y19302452D01*
X124060999Y19307740D01*
X124048776Y19337250D01*
X123448190Y19937836D01*
X123418680Y19950059D01*
X123413392Y19960609D01*
X123037022Y20108147D01*
X122663488Y20262870D01*
X122642324Y20262870D01*
X122622623Y20270593D01*
X122218434Y20262870D01*
X121814132Y20262870D01*
X121794580Y20254771D01*
X121773423Y20254367D01*
X121064228Y19960609D01*
X121058940Y19950059D01*
X121029430Y19937836D01*
X120428844Y19337250D01*
X120416621Y19307740D01*
X120406071Y19302452D01*
X120258533Y18926082D01*
X120103810Y18552548D01*
X120103810Y18531384D01*
X120096087Y18511683D01*
X66575577Y18511683D01*
X66445299Y18826202D01*
X66434749Y18831490D01*
X66422526Y18861000D01*
X65821940Y19461586D01*
X65792430Y19473809D01*
X65787142Y19484359D01*
X65410772Y19631897D01*
X65037238Y19786620D01*
X65016074Y19786620D01*
X64996373Y19794343D01*
X64592184Y19786620D01*
X64187882Y19786620D01*
X64168330Y19778521D01*
X64147173Y19778117D01*
X63437978Y19484359D01*
X63432690Y19473809D01*
X63403180Y19461586D01*
X62802594Y18861000D01*
X62790371Y18831490D01*
X62779821Y18826202D01*
X62632283Y18449832D01*
X62477560Y18076298D01*
X62477560Y18055134D01*
X62469837Y18035433D01*
X50007560Y18035433D01*
X50007560Y18666661D01*
X50002936Y18689908D01*
X49984889Y18932756D01*
X49970981Y18996012D01*
X49962189Y19060194D01*
X49960011Y19067640D01*
X49805252Y19585119D01*
X49769138Y19663277D01*
X49733914Y19742021D01*
X49729734Y19748556D01*
X49435955Y20201801D01*
X49379352Y20266686D01*
X49323447Y20332374D01*
X49317600Y20337474D01*
X48908420Y20690046D01*
X48835871Y20736443D01*
X48763787Y20783793D01*
X48756744Y20787047D01*
X48265056Y21010604D01*
X48182365Y21034784D01*
X48099924Y21059989D01*
X48092251Y21061136D01*
X47574582Y21135272D01*
X47530101Y21144120D01*
X11422463Y21144120D01*
X9812417Y21949142D01*
X-1051115Y39466683D01*
X7224837Y39466683D01*
X7232560Y39062494D01*
X7232560Y38658192D01*
X7240659Y38638640D01*
X7241063Y38617483D01*
X7534821Y37908288D01*
X7545371Y37903000D01*
X7557594Y37873490D01*
X8158180Y37272904D01*
X8187690Y37260681D01*
X8192978Y37250131D01*
X8569348Y37102593D01*
X8942882Y36947870D01*
X8964046Y36947870D01*
X8983747Y36940147D01*
X9387936Y36947870D01*
X9792238Y36947870D01*
X9811790Y36955969D01*
X9832947Y36956373D01*
X10542142Y37250131D01*
X10547430Y37260681D01*
X10576940Y37272904D01*
X11177526Y37873490D01*
X11189749Y37903000D01*
X11200299Y37908288D01*
X11347837Y38284658D01*
X11502560Y38658192D01*
X11502560Y38679356D01*
X11510283Y38699057D01*
X11502560Y39103246D01*
X11502560Y39507548D01*
X11494461Y39527100D01*
X11494057Y39548257D01*
X11200299Y40257452D01*
X11189749Y40262740D01*
X11177526Y40292250D01*
X10576940Y40892836D01*
X10547430Y40905059D01*
X10542142Y40915609D01*
X10165772Y41063147D01*
X9792238Y41217870D01*
X9771074Y41217870D01*
X9751373Y41225593D01*
X9347184Y41217870D01*
X8942882Y41217870D01*
X8923330Y41209771D01*
X8902173Y41209367D01*
X8192978Y40915609D01*
X8187690Y40905059D01*
X8158180Y40892836D01*
X7557594Y40292250D01*
X7545371Y40262740D01*
X7534821Y40257452D01*
X7387283Y39881082D01*
X7232560Y39507548D01*
X7232560Y39486384D01*
X7224837Y39466683D01*
X-1051115Y39466683D01*
X-3963464Y44162870D01*
X13240101Y44162870D01*
X13301440Y44175071D01*
X13301443Y44175071D01*
X13665949Y44247576D01*
X13894853Y44342392D01*
X14203862Y44548865D01*
X14203866Y44548867D01*
X14291464Y44636466D01*
X14379063Y44724064D01*
X14379065Y44724068D01*
X14585536Y45033074D01*
X14585538Y45033076D01*
X14680354Y45261981D01*
X14752859Y45626487D01*
X14752859Y45626490D01*
X14765060Y45687829D01*
X14765060Y60897933D01*
X34371087Y60897933D01*
X34378810Y60493744D01*
X34378810Y60089442D01*
X34386909Y60069890D01*
X34387313Y60048733D01*
X34681071Y59339538D01*
X34691621Y59334250D01*
X34703844Y59304740D01*
X35304430Y58704154D01*
X35333940Y58691931D01*
X35339228Y58681381D01*
X35715598Y58533843D01*
X36089132Y58379120D01*
X36110296Y58379120D01*
X36129997Y58371397D01*
X36534186Y58379120D01*
X36938488Y58379120D01*
X36958040Y58387219D01*
X36979197Y58387623D01*
X37688392Y58681381D01*
X37693680Y58691931D01*
X37723190Y58704154D01*
X38323776Y59304740D01*
X38335999Y59334250D01*
X38346549Y59339538D01*
X38494087Y59715908D01*
X38648810Y60089442D01*
X38648810Y60110606D01*
X38656533Y60130307D01*
X38650966Y60421683D01*
X93902337Y60421683D01*
X93910060Y60017494D01*
X93910060Y59613192D01*
X93918159Y59593640D01*
X93918563Y59572483D01*
X94212321Y58863288D01*
X94222871Y58858000D01*
X94235094Y58828490D01*
X94835680Y58227904D01*
X94865190Y58215681D01*
X94870478Y58205131D01*
X95246848Y58057593D01*
X95620382Y57902870D01*
X95641546Y57902870D01*
X95661247Y57895147D01*
X96065436Y57902870D01*
X96469738Y57902870D01*
X96489290Y57910969D01*
X96510447Y57911373D01*
X97219642Y58205131D01*
X97224930Y58215681D01*
X97254440Y58227904D01*
X97855026Y58828490D01*
X97867249Y58858000D01*
X97877799Y58863288D01*
X98025337Y59239658D01*
X98180060Y59613192D01*
X98180060Y59634356D01*
X98187783Y59654057D01*
X98182216Y59945433D01*
X151052337Y59945433D01*
X151060060Y59541244D01*
X151060060Y59136942D01*
X151068159Y59117390D01*
X151068563Y59096233D01*
X151362321Y58387038D01*
X151372871Y58381750D01*
X151385094Y58352240D01*
X151985680Y57751654D01*
X152015190Y57739431D01*
X152020478Y57728881D01*
X152396848Y57581343D01*
X152770382Y57426620D01*
X152791546Y57426620D01*
X152811247Y57418897D01*
X153215436Y57426620D01*
X153619738Y57426620D01*
X153639290Y57434719D01*
X153660447Y57435123D01*
X154369642Y57728881D01*
X154374930Y57739431D01*
X154404440Y57751654D01*
X155005026Y58352240D01*
X155017249Y58381750D01*
X155027799Y58387038D01*
X155175337Y58763408D01*
X155330060Y59136942D01*
X155330060Y59158106D01*
X155337783Y59177807D01*
X155330060Y59581996D01*
X155330060Y59986298D01*
X155321961Y60005850D01*
X155321557Y60027007D01*
X155158077Y60421683D01*
X208202337Y60421683D01*
X208210060Y60017494D01*
X208210060Y59613192D01*
X208218159Y59593640D01*
X208218563Y59572483D01*
X208512321Y58863288D01*
X208522871Y58858000D01*
X208535094Y58828490D01*
X209135680Y58227904D01*
X209165190Y58215681D01*
X209170478Y58205131D01*
X209546848Y58057593D01*
X209920382Y57902870D01*
X209941546Y57902870D01*
X209961247Y57895147D01*
X210365436Y57902870D01*
X210769738Y57902870D01*
X210789290Y57910969D01*
X210810447Y57911373D01*
X211519642Y58205131D01*
X211524930Y58215681D01*
X211554440Y58227904D01*
X212155026Y58828490D01*
X212167249Y58858000D01*
X212177799Y58863288D01*
X212325337Y59239658D01*
X212480060Y59613192D01*
X212480060Y59634356D01*
X212487783Y59654057D01*
X212480060Y60058246D01*
X212480060Y60462548D01*
X212471961Y60482100D01*
X212471557Y60503257D01*
X212308077Y60897933D01*
X267733587Y60897933D01*
X267741310Y60493744D01*
X267741310Y60089442D01*
X267749409Y60069890D01*
X267749813Y60048733D01*
X268043571Y59339538D01*
X268054121Y59334250D01*
X268066344Y59304740D01*
X268666930Y58704154D01*
X268696440Y58691931D01*
X268701728Y58681381D01*
X269078098Y58533843D01*
X269451632Y58379120D01*
X269472796Y58379120D01*
X269492497Y58371397D01*
X269896686Y58379120D01*
X270300988Y58379120D01*
X270320540Y58387219D01*
X270341697Y58387623D01*
X271050892Y58681381D01*
X271056180Y58691931D01*
X271085690Y58704154D01*
X271686276Y59304740D01*
X271698499Y59334250D01*
X271709049Y59339538D01*
X271856587Y59715908D01*
X272011310Y60089442D01*
X272011310Y60110606D01*
X272019033Y60130307D01*
X272011310Y60534496D01*
X272011310Y60938798D01*
X272003211Y60958350D01*
X272002807Y60979507D01*
X271709049Y61688702D01*
X271698499Y61693990D01*
X271686276Y61723500D01*
X271085690Y62324086D01*
X271056180Y62336309D01*
X271050892Y62346859D01*
X270674522Y62494397D01*
X270300988Y62649120D01*
X270279824Y62649120D01*
X270260123Y62656843D01*
X269855934Y62649120D01*
X269451632Y62649120D01*
X269432080Y62641021D01*
X269410923Y62640617D01*
X268701728Y62346859D01*
X268696440Y62336309D01*
X268666930Y62324086D01*
X268066344Y61723500D01*
X268054121Y61693990D01*
X268043571Y61688702D01*
X267896033Y61312332D01*
X267741310Y60938798D01*
X267741310Y60917634D01*
X267733587Y60897933D01*
X212308077Y60897933D01*
X212177799Y61212452D01*
X212167249Y61217740D01*
X212155026Y61247250D01*
X211554440Y61847836D01*
X211524930Y61860059D01*
X211519642Y61870609D01*
X211143272Y62018147D01*
X210769738Y62172870D01*
X210748574Y62172870D01*
X210728873Y62180593D01*
X210324684Y62172870D01*
X209920382Y62172870D01*
X209900830Y62164771D01*
X209879673Y62164367D01*
X209170478Y61870609D01*
X209165190Y61860059D01*
X209135680Y61847836D01*
X208535094Y61247250D01*
X208522871Y61217740D01*
X208512321Y61212452D01*
X208364783Y60836082D01*
X208210060Y60462548D01*
X208210060Y60441384D01*
X208202337Y60421683D01*
X155158077Y60421683D01*
X155027799Y60736202D01*
X155017249Y60741490D01*
X155005026Y60771000D01*
X154404440Y61371586D01*
X154374930Y61383809D01*
X154369642Y61394359D01*
X153993272Y61541897D01*
X153619738Y61696620D01*
X153598574Y61696620D01*
X153578873Y61704343D01*
X153174684Y61696620D01*
X152770382Y61696620D01*
X152750830Y61688521D01*
X152729673Y61688117D01*
X152020478Y61394359D01*
X152015190Y61383809D01*
X151985680Y61371586D01*
X151385094Y60771000D01*
X151372871Y60741490D01*
X151362321Y60736202D01*
X151214783Y60359832D01*
X151060060Y59986298D01*
X151060060Y59965134D01*
X151052337Y59945433D01*
X98182216Y59945433D01*
X98180060Y60058246D01*
X98180060Y60462548D01*
X98171961Y60482100D01*
X98171557Y60503257D01*
X97877799Y61212452D01*
X97867249Y61217740D01*
X97855026Y61247250D01*
X97254440Y61847836D01*
X97224930Y61860059D01*
X97219642Y61870609D01*
X96843272Y62018147D01*
X96469738Y62172870D01*
X96448574Y62172870D01*
X96428873Y62180593D01*
X96024684Y62172870D01*
X95620382Y62172870D01*
X95600830Y62164771D01*
X95579673Y62164367D01*
X94870478Y61870609D01*
X94865190Y61860059D01*
X94835680Y61847836D01*
X94235094Y61247250D01*
X94222871Y61217740D01*
X94212321Y61212452D01*
X94064783Y60836082D01*
X93910060Y60462548D01*
X93910060Y60441384D01*
X93902337Y60421683D01*
X38650966Y60421683D01*
X38648810Y60534496D01*
X38648810Y60938798D01*
X38640711Y60958350D01*
X38640307Y60979507D01*
X38346549Y61688702D01*
X38335999Y61693990D01*
X38323776Y61723500D01*
X37723190Y62324086D01*
X37693680Y62336309D01*
X37688392Y62346859D01*
X37312022Y62494397D01*
X36938488Y62649120D01*
X36917324Y62649120D01*
X36897623Y62656843D01*
X36493434Y62649120D01*
X36089132Y62649120D01*
X36069580Y62641021D01*
X36048423Y62640617D01*
X35339228Y62346859D01*
X35333940Y62336309D01*
X35304430Y62324086D01*
X34703844Y61723500D01*
X34691621Y61693990D01*
X34681071Y61688702D01*
X34533533Y61312332D01*
X34378810Y60938798D01*
X34378810Y60917634D01*
X34371087Y60897933D01*
X14765060Y60897933D01*
X14765060Y79405370D01*
X295548569Y79405370D01*
X295948439Y79348104D01*
M02*
