G04 #@! TF.GenerationSoftware,KiCad,Pcbnew,(6.0.0-rc1-dev-1215-g431bdc7a3)*
G04 #@! TF.CreationDate,2018-12-02T19:35:25+01:00*
G04 #@! TF.ProjectId,wave,77617665-2e6b-4696-9361-645f70636258,rev?*
G04 #@! TF.SameCoordinates,Original*
G04 #@! TF.FileFunction,Legend,Top*
G04 #@! TF.FilePolarity,Positive*
%FSLAX46Y46*%
G04 Gerber Fmt 4.6, Leading zero omitted, Abs format (unit mm)*
G04 Created by KiCad (PCBNEW (6.0.0-rc1-dev-1215-g431bdc7a3)) date 2018 December 02, Sunday 19:35:25*
%MOMM*%
%LPD*%
G01*
G04 APERTURE LIST*
%ADD10C,0.150000*%
%ADD11C,0.200000*%
G04 APERTURE END LIST*
D10*
X211961310Y1959239D02*
X211961310Y2959239D01*
X212294643Y2959239D01*
X212494643Y2911620D01*
X212627976Y2816381D01*
X212694643Y2721143D01*
X212761310Y2530667D01*
X212761310Y2387810D01*
X212694643Y2197334D01*
X212627976Y2102096D01*
X212494643Y2006858D01*
X212294643Y1959239D01*
X211961310Y1959239D01*
X213361310Y2483048D02*
X213827976Y2483048D01*
X214027976Y1959239D02*
X213361310Y1959239D01*
X213361310Y2959239D01*
X214027976Y2959239D01*
X214561310Y2006858D02*
X214761310Y1959239D01*
X215094643Y1959239D01*
X215227976Y2006858D01*
X215294643Y2054477D01*
X215361310Y2149715D01*
X215361310Y2244953D01*
X215294643Y2340191D01*
X215227976Y2387810D01*
X215094643Y2435429D01*
X214827976Y2483048D01*
X214694643Y2530667D01*
X214627976Y2578286D01*
X214561310Y2673524D01*
X214561310Y2768762D01*
X214627976Y2864000D01*
X214694643Y2911620D01*
X214827976Y2959239D01*
X215161310Y2959239D01*
X215361310Y2911620D01*
X215961310Y1959239D02*
X215961310Y2959239D01*
X217361310Y2911620D02*
X217227976Y2959239D01*
X217027976Y2959239D01*
X216827976Y2911620D01*
X216694643Y2816381D01*
X216627976Y2721143D01*
X216561310Y2530667D01*
X216561310Y2387810D01*
X216627976Y2197334D01*
X216694643Y2102096D01*
X216827976Y2006858D01*
X217027976Y1959239D01*
X217161310Y1959239D01*
X217361310Y2006858D01*
X217427976Y2054477D01*
X217427976Y2387810D01*
X217161310Y2387810D01*
X218027976Y1959239D02*
X218027976Y2959239D01*
X218827976Y1959239D01*
X218827976Y2959239D01*
X219494643Y2483048D02*
X219961310Y2483048D01*
X220161310Y1959239D02*
X219494643Y1959239D01*
X219494643Y2959239D01*
X220161310Y2959239D01*
X220761310Y1959239D02*
X220761310Y2959239D01*
X221094643Y2959239D01*
X221294643Y2911620D01*
X221427976Y2816381D01*
X221494643Y2721143D01*
X221561310Y2530667D01*
X221561310Y2387810D01*
X221494643Y2197334D01*
X221427976Y2102096D01*
X221294643Y2006858D01*
X221094643Y1959239D01*
X220761310Y1959239D01*
X223694643Y2483048D02*
X223894643Y2435429D01*
X223961310Y2387810D01*
X224027976Y2292572D01*
X224027976Y2149715D01*
X223961310Y2054477D01*
X223894643Y2006858D01*
X223761310Y1959239D01*
X223227976Y1959239D01*
X223227976Y2959239D01*
X223694643Y2959239D01*
X223827976Y2911620D01*
X223894643Y2864000D01*
X223961310Y2768762D01*
X223961310Y2673524D01*
X223894643Y2578286D01*
X223827976Y2530667D01*
X223694643Y2483048D01*
X223227976Y2483048D01*
X224894643Y2435429D02*
X224894643Y1959239D01*
X224427976Y2959239D02*
X224894643Y2435429D01*
X225361310Y2959239D01*
X227761310Y2435429D02*
X227694643Y2483048D01*
X227561310Y2530667D01*
X227427976Y2530667D01*
X227294643Y2483048D01*
X227227976Y2435429D01*
X227161310Y2340191D01*
X227161310Y2244953D01*
X227227976Y2149715D01*
X227294643Y2102096D01*
X227427976Y2054477D01*
X227561310Y2054477D01*
X227694643Y2102096D01*
X227761310Y2149715D01*
X227761310Y2530667D02*
X227761310Y2149715D01*
X227827976Y2102096D01*
X227894643Y2102096D01*
X228027976Y2149715D01*
X228094643Y2244953D01*
X228094643Y2483048D01*
X227961310Y2625905D01*
X227761310Y2721143D01*
X227494643Y2768762D01*
X227227976Y2721143D01*
X227027976Y2625905D01*
X226894643Y2483048D01*
X226827976Y2292572D01*
X226894643Y2102096D01*
X227027976Y1959239D01*
X227227976Y1864000D01*
X227494643Y1816381D01*
X227761310Y1864000D01*
X227961310Y1959239D01*
X229227976Y2006858D02*
X229094643Y1959239D01*
X228827976Y1959239D01*
X228694643Y2006858D01*
X228627976Y2102096D01*
X228627976Y2483048D01*
X228694643Y2578286D01*
X228827976Y2625905D01*
X229094643Y2625905D01*
X229227976Y2578286D01*
X229294643Y2483048D01*
X229294643Y2387810D01*
X228627976Y2292572D01*
X229827976Y2006858D02*
X229961310Y1959239D01*
X230227976Y1959239D01*
X230361310Y2006858D01*
X230427976Y2102096D01*
X230427976Y2149715D01*
X230361310Y2244953D01*
X230227976Y2292572D01*
X230027976Y2292572D01*
X229894643Y2340191D01*
X229827976Y2435429D01*
X229827976Y2483048D01*
X229894643Y2578286D01*
X230027976Y2625905D01*
X230227976Y2625905D01*
X230361310Y2578286D01*
X230894643Y2625905D02*
X231161310Y1959239D01*
X231427976Y2435429D01*
X231694643Y1959239D01*
X231961310Y2625905D01*
X233094643Y1959239D02*
X233094643Y2483048D01*
X233027976Y2578286D01*
X232894643Y2625905D01*
X232627976Y2625905D01*
X232494643Y2578286D01*
X233094643Y2006858D02*
X232961310Y1959239D01*
X232627976Y1959239D01*
X232494643Y2006858D01*
X232427976Y2102096D01*
X232427976Y2197334D01*
X232494643Y2292572D01*
X232627976Y2340191D01*
X232961310Y2340191D01*
X233094643Y2387810D01*
X233761310Y1959239D02*
X233761310Y2625905D01*
X233761310Y2959239D02*
X233694643Y2911620D01*
X233761310Y2864000D01*
X233827976Y2911620D01*
X233761310Y2959239D01*
X233761310Y2864000D01*
X235427976Y2864000D02*
X235494643Y2911620D01*
X235627976Y2959239D01*
X235961310Y2959239D01*
X236094643Y2911620D01*
X236161310Y2864000D01*
X236227976Y2768762D01*
X236227976Y2673524D01*
X236161310Y2530667D01*
X235361310Y1959239D01*
X236227976Y1959239D01*
X237094643Y2959239D02*
X237227976Y2959239D01*
X237361310Y2911620D01*
X237427976Y2864000D01*
X237494643Y2768762D01*
X237561310Y2578286D01*
X237561310Y2340191D01*
X237494643Y2149715D01*
X237427976Y2054477D01*
X237361310Y2006858D01*
X237227976Y1959239D01*
X237094643Y1959239D01*
X236961310Y2006858D01*
X236894643Y2054477D01*
X236827976Y2149715D01*
X236761310Y2340191D01*
X236761310Y2578286D01*
X236827976Y2768762D01*
X236894643Y2864000D01*
X236961310Y2911620D01*
X237094643Y2959239D01*
X238894643Y1959239D02*
X238094643Y1959239D01*
X238494643Y1959239D02*
X238494643Y2959239D01*
X238361310Y2816381D01*
X238227976Y2721143D01*
X238094643Y2673524D01*
X239694643Y2530667D02*
X239561310Y2578286D01*
X239494643Y2625905D01*
X239427976Y2721143D01*
X239427976Y2768762D01*
X239494643Y2864000D01*
X239561310Y2911620D01*
X239694643Y2959239D01*
X239961310Y2959239D01*
X240094643Y2911620D01*
X240161310Y2864000D01*
X240227976Y2768762D01*
X240227976Y2721143D01*
X240161310Y2625905D01*
X240094643Y2578286D01*
X239961310Y2530667D01*
X239694643Y2530667D01*
X239561310Y2483048D01*
X239494643Y2435429D01*
X239427976Y2340191D01*
X239427976Y2149715D01*
X239494643Y2054477D01*
X239561310Y2006858D01*
X239694643Y1959239D01*
X239961310Y1959239D01*
X240094643Y2006858D01*
X240161310Y2054477D01*
X240227976Y2149715D01*
X240227976Y2340191D01*
X240161310Y2435429D01*
X240094643Y2483048D01*
X239961310Y2530667D01*
D11*
X211775595Y4066620D02*
X213680357Y4066620D01*
X211394643Y3638048D02*
X212727976Y5138048D01*
X214061310Y3638048D01*
X215394643Y3638048D02*
X215394643Y5138048D01*
X217680357Y3638048D01*
X217680357Y5138048D01*
X219585119Y3638048D02*
X219585119Y5138048D01*
X219585119Y4423762D02*
X221870833Y4423762D01*
X221870833Y3638048D02*
X221870833Y5138048D01*
X223775595Y4423762D02*
X225108929Y4423762D01*
X225680357Y3638048D02*
X223775595Y3638048D01*
X223775595Y5138048D01*
X225680357Y5138048D01*
X227394643Y3638048D02*
X227394643Y5138048D01*
X228347024Y5138048D01*
X228918452Y5066620D01*
X229299405Y4923762D01*
X229489881Y4780905D01*
X229680357Y4495191D01*
X229680357Y4280905D01*
X229489881Y3995191D01*
X229299405Y3852334D01*
X228918452Y3709477D01*
X228347024Y3638048D01*
X227394643Y3638048D01*
X233680357Y3638048D02*
X232347024Y4352334D01*
X231394643Y3638048D02*
X231394643Y5138048D01*
X232918452Y5138048D01*
X233299405Y5066620D01*
X233489881Y4995191D01*
X233680357Y4852334D01*
X233680357Y4638048D01*
X233489881Y4495191D01*
X233299405Y4423762D01*
X232918452Y4352334D01*
X231394643Y4352334D01*
X235204167Y4066620D02*
X237108929Y4066620D01*
X234823214Y3638048D02*
X236156548Y5138048D01*
X237489881Y3638048D01*
X240727976Y3638048D02*
X238823214Y3638048D01*
X238823214Y5138048D01*
M02*
