G04 #@! TF.GenerationSoftware,KiCad,Pcbnew,(6.0.0-rc1-dev-1215-g431bdc7a3)*
G04 #@! TF.CreationDate,2018-12-02T19:35:25+01:00*
G04 #@! TF.ProjectId,wave,77617665-2e6b-4696-9361-645f70636258,rev?*
G04 #@! TF.SameCoordinates,Original*
G04 #@! TF.FileFunction,Legend,Bot*
G04 #@! TF.FilePolarity,Positive*
%FSLAX46Y46*%
G04 Gerber Fmt 4.6, Leading zero omitted, Abs format (unit mm)*
G04 Created by KiCad (PCBNEW (6.0.0-rc1-dev-1215-g431bdc7a3)) date 2018 December 02, Sunday 19:35:25*
%MOMM*%
%LPD*%
G01*
G04 APERTURE LIST*
%ADD10C,0.150000*%
%ADD11C,0.200000*%
G04 APERTURE END LIST*
D10*
X240161310Y1959239D02*
X240161310Y2959239D01*
X239827976Y2959239D01*
X239627976Y2911620D01*
X239494643Y2816381D01*
X239427976Y2721143D01*
X239361310Y2530667D01*
X239361310Y2387810D01*
X239427976Y2197334D01*
X239494643Y2102096D01*
X239627976Y2006858D01*
X239827976Y1959239D01*
X240161310Y1959239D01*
X238761310Y2483048D02*
X238294643Y2483048D01*
X238094643Y1959239D02*
X238761310Y1959239D01*
X238761310Y2959239D01*
X238094643Y2959239D01*
X237561310Y2006858D02*
X237361310Y1959239D01*
X237027976Y1959239D01*
X236894643Y2006858D01*
X236827976Y2054477D01*
X236761310Y2149715D01*
X236761310Y2244953D01*
X236827976Y2340191D01*
X236894643Y2387810D01*
X237027976Y2435429D01*
X237294643Y2483048D01*
X237427976Y2530667D01*
X237494643Y2578286D01*
X237561310Y2673524D01*
X237561310Y2768762D01*
X237494643Y2864000D01*
X237427976Y2911620D01*
X237294643Y2959239D01*
X236961310Y2959239D01*
X236761310Y2911620D01*
X236161310Y1959239D02*
X236161310Y2959239D01*
X234761310Y2911620D02*
X234894643Y2959239D01*
X235094643Y2959239D01*
X235294643Y2911620D01*
X235427976Y2816381D01*
X235494643Y2721143D01*
X235561310Y2530667D01*
X235561310Y2387810D01*
X235494643Y2197334D01*
X235427976Y2102096D01*
X235294643Y2006858D01*
X235094643Y1959239D01*
X234961310Y1959239D01*
X234761310Y2006858D01*
X234694643Y2054477D01*
X234694643Y2387810D01*
X234961310Y2387810D01*
X234094643Y1959239D02*
X234094643Y2959239D01*
X233294643Y1959239D01*
X233294643Y2959239D01*
X232627976Y2483048D02*
X232161310Y2483048D01*
X231961310Y1959239D02*
X232627976Y1959239D01*
X232627976Y2959239D01*
X231961310Y2959239D01*
X231361310Y1959239D02*
X231361310Y2959239D01*
X231027976Y2959239D01*
X230827976Y2911620D01*
X230694643Y2816381D01*
X230627976Y2721143D01*
X230561310Y2530667D01*
X230561310Y2387810D01*
X230627976Y2197334D01*
X230694643Y2102096D01*
X230827976Y2006858D01*
X231027976Y1959239D01*
X231361310Y1959239D01*
X228427976Y2483048D02*
X228227976Y2435429D01*
X228161310Y2387810D01*
X228094643Y2292572D01*
X228094643Y2149715D01*
X228161310Y2054477D01*
X228227976Y2006858D01*
X228361310Y1959239D01*
X228894643Y1959239D01*
X228894643Y2959239D01*
X228427976Y2959239D01*
X228294643Y2911620D01*
X228227976Y2864000D01*
X228161310Y2768762D01*
X228161310Y2673524D01*
X228227976Y2578286D01*
X228294643Y2530667D01*
X228427976Y2483048D01*
X228894643Y2483048D01*
X227227976Y2435429D02*
X227227976Y1959239D01*
X227694643Y2959239D02*
X227227976Y2435429D01*
X226761310Y2959239D01*
X224361310Y2435429D02*
X224427976Y2483048D01*
X224561310Y2530667D01*
X224694643Y2530667D01*
X224827976Y2483048D01*
X224894643Y2435429D01*
X224961310Y2340191D01*
X224961310Y2244953D01*
X224894643Y2149715D01*
X224827976Y2102096D01*
X224694643Y2054477D01*
X224561310Y2054477D01*
X224427976Y2102096D01*
X224361310Y2149715D01*
X224361310Y2530667D02*
X224361310Y2149715D01*
X224294643Y2102096D01*
X224227976Y2102096D01*
X224094643Y2149715D01*
X224027976Y2244953D01*
X224027976Y2483048D01*
X224161310Y2625905D01*
X224361310Y2721143D01*
X224627976Y2768762D01*
X224894643Y2721143D01*
X225094643Y2625905D01*
X225227976Y2483048D01*
X225294643Y2292572D01*
X225227976Y2102096D01*
X225094643Y1959239D01*
X224894643Y1864000D01*
X224627976Y1816381D01*
X224361310Y1864000D01*
X224161310Y1959239D01*
X222894643Y2006858D02*
X223027976Y1959239D01*
X223294643Y1959239D01*
X223427976Y2006858D01*
X223494643Y2102096D01*
X223494643Y2483048D01*
X223427976Y2578286D01*
X223294643Y2625905D01*
X223027976Y2625905D01*
X222894643Y2578286D01*
X222827976Y2483048D01*
X222827976Y2387810D01*
X223494643Y2292572D01*
X222294643Y2006858D02*
X222161310Y1959239D01*
X221894643Y1959239D01*
X221761310Y2006858D01*
X221694643Y2102096D01*
X221694643Y2149715D01*
X221761310Y2244953D01*
X221894643Y2292572D01*
X222094643Y2292572D01*
X222227976Y2340191D01*
X222294643Y2435429D01*
X222294643Y2483048D01*
X222227976Y2578286D01*
X222094643Y2625905D01*
X221894643Y2625905D01*
X221761310Y2578286D01*
X221227976Y2625905D02*
X220961310Y1959239D01*
X220694643Y2435429D01*
X220427976Y1959239D01*
X220161310Y2625905D01*
X219027976Y1959239D02*
X219027976Y2483048D01*
X219094643Y2578286D01*
X219227976Y2625905D01*
X219494643Y2625905D01*
X219627976Y2578286D01*
X219027976Y2006858D02*
X219161310Y1959239D01*
X219494643Y1959239D01*
X219627976Y2006858D01*
X219694643Y2102096D01*
X219694643Y2197334D01*
X219627976Y2292572D01*
X219494643Y2340191D01*
X219161310Y2340191D01*
X219027976Y2387810D01*
X218361310Y1959239D02*
X218361310Y2625905D01*
X218361310Y2959239D02*
X218427976Y2911620D01*
X218361310Y2864000D01*
X218294643Y2911620D01*
X218361310Y2959239D01*
X218361310Y2864000D01*
X216694643Y2864000D02*
X216627976Y2911620D01*
X216494643Y2959239D01*
X216161310Y2959239D01*
X216027976Y2911620D01*
X215961310Y2864000D01*
X215894643Y2768762D01*
X215894643Y2673524D01*
X215961310Y2530667D01*
X216761310Y1959239D01*
X215894643Y1959239D01*
X215027976Y2959239D02*
X214894643Y2959239D01*
X214761310Y2911620D01*
X214694643Y2864000D01*
X214627976Y2768762D01*
X214561310Y2578286D01*
X214561310Y2340191D01*
X214627976Y2149715D01*
X214694643Y2054477D01*
X214761310Y2006858D01*
X214894643Y1959239D01*
X215027976Y1959239D01*
X215161310Y2006858D01*
X215227976Y2054477D01*
X215294643Y2149715D01*
X215361310Y2340191D01*
X215361310Y2578286D01*
X215294643Y2768762D01*
X215227976Y2864000D01*
X215161310Y2911620D01*
X215027976Y2959239D01*
X213227976Y1959239D02*
X214027976Y1959239D01*
X213627976Y1959239D02*
X213627976Y2959239D01*
X213761310Y2816381D01*
X213894643Y2721143D01*
X214027976Y2673524D01*
X212427976Y2530667D02*
X212561310Y2578286D01*
X212627976Y2625905D01*
X212694643Y2721143D01*
X212694643Y2768762D01*
X212627976Y2864000D01*
X212561310Y2911620D01*
X212427976Y2959239D01*
X212161310Y2959239D01*
X212027976Y2911620D01*
X211961310Y2864000D01*
X211894643Y2768762D01*
X211894643Y2721143D01*
X211961310Y2625905D01*
X212027976Y2578286D01*
X212161310Y2530667D01*
X212427976Y2530667D01*
X212561310Y2483048D01*
X212627976Y2435429D01*
X212694643Y2340191D01*
X212694643Y2149715D01*
X212627976Y2054477D01*
X212561310Y2006858D01*
X212427976Y1959239D01*
X212161310Y1959239D01*
X212027976Y2006858D01*
X211961310Y2054477D01*
X211894643Y2149715D01*
X211894643Y2340191D01*
X211961310Y2435429D01*
X212027976Y2483048D01*
X212161310Y2530667D01*
D11*
X240347024Y4066620D02*
X238442262Y4066620D01*
X240727976Y3638048D02*
X239394643Y5138048D01*
X238061310Y3638048D01*
X236727976Y3638048D02*
X236727976Y5138048D01*
X234442262Y3638048D01*
X234442262Y5138048D01*
X232537500Y3638048D02*
X232537500Y5138048D01*
X232537500Y4423762D02*
X230251786Y4423762D01*
X230251786Y3638048D02*
X230251786Y5138048D01*
X228347024Y4423762D02*
X227013690Y4423762D01*
X226442262Y3638048D02*
X228347024Y3638048D01*
X228347024Y5138048D01*
X226442262Y5138048D01*
X224727976Y3638048D02*
X224727976Y5138048D01*
X223775595Y5138048D01*
X223204167Y5066620D01*
X222823214Y4923762D01*
X222632738Y4780905D01*
X222442262Y4495191D01*
X222442262Y4280905D01*
X222632738Y3995191D01*
X222823214Y3852334D01*
X223204167Y3709477D01*
X223775595Y3638048D01*
X224727976Y3638048D01*
X218442262Y3638048D02*
X219775595Y4352334D01*
X220727976Y3638048D02*
X220727976Y5138048D01*
X219204167Y5138048D01*
X218823214Y5066620D01*
X218632738Y4995191D01*
X218442262Y4852334D01*
X218442262Y4638048D01*
X218632738Y4495191D01*
X218823214Y4423762D01*
X219204167Y4352334D01*
X220727976Y4352334D01*
X216918452Y4066620D02*
X215013690Y4066620D01*
X217299405Y3638048D02*
X215966071Y5138048D01*
X214632738Y3638048D01*
X211394643Y3638048D02*
X213299405Y3638048D01*
X213299405Y5138048D01*
M02*
