G04 #@! TF.GenerationSoftware,KiCad,Pcbnew,(6.0.0-rc1-dev-1215-g431bdc7a3)*
G04 #@! TF.CreationDate,2018-12-02T19:35:25+01:00*
G04 #@! TF.ProjectId,wave,77617665-2e6b-4696-9361-645f70636258,rev?*
G04 #@! TF.SameCoordinates,Original*
G04 #@! TF.FileFunction,Soldermask,Top*
G04 #@! TF.FilePolarity,Negative*
%FSLAX46Y46*%
G04 Gerber Fmt 4.6, Leading zero omitted, Abs format (unit mm)*
G04 Created by KiCad (PCBNEW (6.0.0-rc1-dev-1215-g431bdc7a3)) date 2018 December 02, Sunday 19:35:25*
%MOMM*%
%LPD*%
G01*
G04 APERTURE LIST*
%ADD10C,0.100000*%
G04 APERTURE END LIST*
D10*
G36*
X64965087Y19162884D02*
X65064970Y19143016D01*
X65347234Y19026099D01*
X65601265Y18856361D01*
X65817301Y18640325D01*
X65987039Y18386294D01*
X66103956Y18104030D01*
X66163560Y17804380D01*
X66163560Y17498860D01*
X66103956Y17199210D01*
X65987039Y16916946D01*
X65817301Y16662915D01*
X65601265Y16446879D01*
X65347234Y16277141D01*
X65064970Y16160224D01*
X64965087Y16140356D01*
X64765322Y16100620D01*
X64459798Y16100620D01*
X64260033Y16140356D01*
X64160150Y16160224D01*
X63877886Y16277141D01*
X63623855Y16446879D01*
X63407819Y16662915D01*
X63238081Y16916946D01*
X63121164Y17199210D01*
X63061560Y17498860D01*
X63061560Y17804380D01*
X63121164Y18104030D01*
X63238081Y18386294D01*
X63407819Y18640325D01*
X63623855Y18856361D01*
X63877886Y19026099D01*
X64160150Y19143016D01*
X64260033Y19162884D01*
X64459798Y19202620D01*
X64765322Y19202620D01*
X64965087Y19162884D01*
X64965087Y19162884D01*
G37*
G36*
X239272587Y19639134D02*
X239372470Y19619266D01*
X239654734Y19502349D01*
X239908765Y19332611D01*
X240124801Y19116575D01*
X240294539Y18862544D01*
X240411456Y18580280D01*
X240471060Y18280630D01*
X240471060Y17975110D01*
X240411456Y17675460D01*
X240294539Y17393196D01*
X240124801Y17139165D01*
X239908765Y16923129D01*
X239654734Y16753391D01*
X239372470Y16636474D01*
X239272587Y16616606D01*
X239072822Y16576870D01*
X238767298Y16576870D01*
X238567533Y16616606D01*
X238467650Y16636474D01*
X238185386Y16753391D01*
X237931355Y16923129D01*
X237715319Y17139165D01*
X237545581Y17393196D01*
X237428664Y17675460D01*
X237369060Y17975110D01*
X237369060Y18280630D01*
X237428664Y18580280D01*
X237545581Y18862544D01*
X237715319Y19116575D01*
X237931355Y19332611D01*
X238185386Y19502349D01*
X238467650Y19619266D01*
X238567533Y19639134D01*
X238767298Y19678870D01*
X239072822Y19678870D01*
X239272587Y19639134D01*
X239272587Y19639134D01*
G37*
G36*
X184503837Y19639134D02*
X184603720Y19619266D01*
X184885984Y19502349D01*
X185140015Y19332611D01*
X185356051Y19116575D01*
X185525789Y18862544D01*
X185642706Y18580280D01*
X185702310Y18280630D01*
X185702310Y17975110D01*
X185642706Y17675460D01*
X185525789Y17393196D01*
X185356051Y17139165D01*
X185140015Y16923129D01*
X184885984Y16753391D01*
X184603720Y16636474D01*
X184503837Y16616606D01*
X184304072Y16576870D01*
X183998548Y16576870D01*
X183798783Y16616606D01*
X183698900Y16636474D01*
X183416636Y16753391D01*
X183162605Y16923129D01*
X182946569Y17139165D01*
X182776831Y17393196D01*
X182659914Y17675460D01*
X182600310Y17975110D01*
X182600310Y18280630D01*
X182659914Y18580280D01*
X182776831Y18862544D01*
X182946569Y19116575D01*
X183162605Y19332611D01*
X183416636Y19502349D01*
X183698900Y19619266D01*
X183798783Y19639134D01*
X183998548Y19678870D01*
X184304072Y19678870D01*
X184503837Y19639134D01*
X184503837Y19639134D01*
G37*
G36*
X122591337Y19639134D02*
X122691220Y19619266D01*
X122973484Y19502349D01*
X123227515Y19332611D01*
X123443551Y19116575D01*
X123613289Y18862544D01*
X123730206Y18580280D01*
X123789810Y18280630D01*
X123789810Y17975110D01*
X123730206Y17675460D01*
X123613289Y17393196D01*
X123443551Y17139165D01*
X123227515Y16923129D01*
X122973484Y16753391D01*
X122691220Y16636474D01*
X122591337Y16616606D01*
X122391572Y16576870D01*
X122086048Y16576870D01*
X121886283Y16616606D01*
X121786400Y16636474D01*
X121504136Y16753391D01*
X121250105Y16923129D01*
X121034069Y17139165D01*
X120864331Y17393196D01*
X120747414Y17675460D01*
X120687810Y17975110D01*
X120687810Y18280630D01*
X120747414Y18580280D01*
X120864331Y18862544D01*
X121034069Y19116575D01*
X121250105Y19332611D01*
X121504136Y19502349D01*
X121786400Y19619266D01*
X121886283Y19639134D01*
X122086048Y19678870D01*
X122391572Y19678870D01*
X122591337Y19639134D01*
X122591337Y19639134D01*
G37*
G36*
X9720087Y40594134D02*
X9819970Y40574266D01*
X10102234Y40457349D01*
X10356265Y40287611D01*
X10572301Y40071575D01*
X10742039Y39817544D01*
X10858956Y39535280D01*
X10918560Y39235630D01*
X10918560Y38930110D01*
X10858956Y38630460D01*
X10742039Y38348196D01*
X10572301Y38094165D01*
X10356265Y37878129D01*
X10102234Y37708391D01*
X9819970Y37591474D01*
X9720087Y37571606D01*
X9520322Y37531870D01*
X9214798Y37531870D01*
X9015033Y37571606D01*
X8915150Y37591474D01*
X8632886Y37708391D01*
X8378855Y37878129D01*
X8162819Y38094165D01*
X7993081Y38348196D01*
X7876164Y38630460D01*
X7816560Y38930110D01*
X7816560Y39235630D01*
X7876164Y39535280D01*
X7993081Y39817544D01*
X8162819Y40071575D01*
X8378855Y40287611D01*
X8632886Y40457349D01*
X8915150Y40574266D01*
X9015033Y40594134D01*
X9214798Y40633870D01*
X9520322Y40633870D01*
X9720087Y40594134D01*
X9720087Y40594134D01*
G37*
G36*
X153547587Y61072884D02*
X153647470Y61053016D01*
X153929734Y60936099D01*
X154183765Y60766361D01*
X154399801Y60550325D01*
X154569539Y60296294D01*
X154686456Y60014030D01*
X154746060Y59714380D01*
X154746060Y59408860D01*
X154686456Y59109210D01*
X154569539Y58826946D01*
X154399801Y58572915D01*
X154183765Y58356879D01*
X153929734Y58187141D01*
X153647470Y58070224D01*
X153547587Y58050356D01*
X153347822Y58010620D01*
X153042298Y58010620D01*
X152842533Y58050356D01*
X152742650Y58070224D01*
X152460386Y58187141D01*
X152206355Y58356879D01*
X151990319Y58572915D01*
X151820581Y58826946D01*
X151703664Y59109210D01*
X151644060Y59408860D01*
X151644060Y59714380D01*
X151703664Y60014030D01*
X151820581Y60296294D01*
X151990319Y60550325D01*
X152206355Y60766361D01*
X152460386Y60936099D01*
X152742650Y61053016D01*
X152842533Y61072884D01*
X153042298Y61112620D01*
X153347822Y61112620D01*
X153547587Y61072884D01*
X153547587Y61072884D01*
G37*
G36*
X210697587Y61549134D02*
X210797470Y61529266D01*
X211079734Y61412349D01*
X211333765Y61242611D01*
X211549801Y61026575D01*
X211719539Y60772544D01*
X211836456Y60490280D01*
X211896060Y60190630D01*
X211896060Y59885110D01*
X211836456Y59585460D01*
X211719539Y59303196D01*
X211549801Y59049165D01*
X211333765Y58833129D01*
X211079734Y58663391D01*
X210797470Y58546474D01*
X210697587Y58526606D01*
X210497822Y58486870D01*
X210192298Y58486870D01*
X209992533Y58526606D01*
X209892650Y58546474D01*
X209610386Y58663391D01*
X209356355Y58833129D01*
X209140319Y59049165D01*
X208970581Y59303196D01*
X208853664Y59585460D01*
X208794060Y59885110D01*
X208794060Y60190630D01*
X208853664Y60490280D01*
X208970581Y60772544D01*
X209140319Y61026575D01*
X209356355Y61242611D01*
X209610386Y61412349D01*
X209892650Y61529266D01*
X209992533Y61549134D01*
X210192298Y61588870D01*
X210497822Y61588870D01*
X210697587Y61549134D01*
X210697587Y61549134D01*
G37*
G36*
X96397587Y61549134D02*
X96497470Y61529266D01*
X96779734Y61412349D01*
X97033765Y61242611D01*
X97249801Y61026575D01*
X97419539Y60772544D01*
X97536456Y60490280D01*
X97596060Y60190630D01*
X97596060Y59885110D01*
X97536456Y59585460D01*
X97419539Y59303196D01*
X97249801Y59049165D01*
X97033765Y58833129D01*
X96779734Y58663391D01*
X96497470Y58546474D01*
X96397587Y58526606D01*
X96197822Y58486870D01*
X95892298Y58486870D01*
X95692533Y58526606D01*
X95592650Y58546474D01*
X95310386Y58663391D01*
X95056355Y58833129D01*
X94840319Y59049165D01*
X94670581Y59303196D01*
X94553664Y59585460D01*
X94494060Y59885110D01*
X94494060Y60190630D01*
X94553664Y60490280D01*
X94670581Y60772544D01*
X94840319Y61026575D01*
X95056355Y61242611D01*
X95310386Y61412349D01*
X95592650Y61529266D01*
X95692533Y61549134D01*
X95892298Y61588870D01*
X96197822Y61588870D01*
X96397587Y61549134D01*
X96397587Y61549134D01*
G37*
G36*
X270228837Y62025384D02*
X270328720Y62005516D01*
X270610984Y61888599D01*
X270865015Y61718861D01*
X271081051Y61502825D01*
X271250789Y61248794D01*
X271367706Y60966530D01*
X271427310Y60666880D01*
X271427310Y60361360D01*
X271367706Y60061710D01*
X271250789Y59779446D01*
X271081051Y59525415D01*
X270865015Y59309379D01*
X270610984Y59139641D01*
X270328720Y59022724D01*
X270228837Y59002856D01*
X270029072Y58963120D01*
X269723548Y58963120D01*
X269523783Y59002856D01*
X269423900Y59022724D01*
X269141636Y59139641D01*
X268887605Y59309379D01*
X268671569Y59525415D01*
X268501831Y59779446D01*
X268384914Y60061710D01*
X268325310Y60361360D01*
X268325310Y60666880D01*
X268384914Y60966530D01*
X268501831Y61248794D01*
X268671569Y61502825D01*
X268887605Y61718861D01*
X269141636Y61888599D01*
X269423900Y62005516D01*
X269523783Y62025384D01*
X269723548Y62065120D01*
X270029072Y62065120D01*
X270228837Y62025384D01*
X270228837Y62025384D01*
G37*
G36*
X36866337Y62025384D02*
X36966220Y62005516D01*
X37248484Y61888599D01*
X37502515Y61718861D01*
X37718551Y61502825D01*
X37888289Y61248794D01*
X38005206Y60966530D01*
X38064810Y60666880D01*
X38064810Y60361360D01*
X38005206Y60061710D01*
X37888289Y59779446D01*
X37718551Y59525415D01*
X37502515Y59309379D01*
X37248484Y59139641D01*
X36966220Y59022724D01*
X36866337Y59002856D01*
X36666572Y58963120D01*
X36361048Y58963120D01*
X36161283Y59002856D01*
X36061400Y59022724D01*
X35779136Y59139641D01*
X35525105Y59309379D01*
X35309069Y59525415D01*
X35139331Y59779446D01*
X35022414Y60061710D01*
X34962810Y60361360D01*
X34962810Y60666880D01*
X35022414Y60966530D01*
X35139331Y61248794D01*
X35309069Y61502825D01*
X35525105Y61718861D01*
X35779136Y61888599D01*
X36061400Y62005516D01*
X36161283Y62025384D01*
X36361048Y62065120D01*
X36666572Y62065120D01*
X36866337Y62025384D01*
X36866337Y62025384D01*
G37*
M02*
